<svg xmlns="http://www.w3.org/2000/svg" viewBox="0 0 1037.49 299.52"><defs><style>.cls-1{fill:#e1e1e1;}</style></defs><g id="Camada_2" data-name="Camada 2"><g id="Camada_1-2" data-name="Camada 1"><path class="cls-1" d="M99.43,186.47c-2.49,6.82,0,10.34,7.26,10.36q36.72,0,73.44,0c7.23,0,9.29,2.86,6.84,9.6q-14.79,40.73-29.63,81.44c-2.27,6.23-6.54,10.08-13.12,10.69C107,302,71.64,296.69,41,273.5,18,256.08,4.6,232.29,1.3,203.89c-6.81-58.54,13.39-107.66,55.41-148,27.43-26.33,60.83-41.74,97.74-49.83A259.67,259.67,0,0,1,231.1.83a102.36,102.36,0,0,1,18.05,3c6.25,1.65,9,6.88,6.82,13q-14.11,39-28.37,77.92c-1.93,5.27-4.79,7.16-10.5,7.17q-18.73,0-37.47,0-18.54,0-37.09,0c-8.33,0-13.61,3.69-16.47,11.51Q112.72,149.95,99.43,186.47Z"/><path class="cls-1" d="M347,111.7q-13.38,36.86-26.83,73.69c-2.8,7.65-8.27,11.46-16.56,11.51-12,.07-24,0-35.95,0s-23.71,0-35.57,0c-7.19,0-9.69-3.62-7.24-10.37q13.32-36.66,26.67-73.34c2.72-7.45,8.24-11.25,16.31-11.26q36.13,0,72.26,0C346.54,102,349.22,105.69,347,111.7Z"/><path class="cls-1" d="M456,170.26c4.83,6.55,4.22,9.88-2.66,14.34-19.26,12.48-47.44,8.67-60.91-8.31C375.15,154.54,382,116,417.49,107.9a69.71,69.71,0,0,1,9.75-1.11c9.63-.06,18.29,2.31,26,7.77,4.14,3,4.64,5.56,2,9.86-.51.85-1,1.7-1.58,2.54-2.73,4.21-5.46,4.71-9.66,1.79A25.64,25.64,0,0,0,411.34,131c-8.57,8.37-10.11,22.52-3.56,32.73,6.39,10,19.89,13.79,31.94,9a40.18,40.18,0,0,0,7.49-4.19C450.65,166.37,453.57,167,456,170.26Z"/><path class="cls-1" d="M556,143c-3.7-21.71-21.24-36.13-44.29-36.25-3.43.31-7.05.31-10.59,1.17-16,3.89-27.61,13-32.16,29s-1.88,31.1,10.61,43c12,11.41,26.73,13.67,42.47,11A41.26,41.26,0,0,0,556,143Zm-44.43,31.58c-13.93-.08-24-10.71-23.88-25.25s10.61-25.19,24.61-25c13.5.19,23.49,11,23.37,25.38C535.56,164.43,525.68,174.65,511.59,174.56Z"/><path class="cls-1" d="M647,132.52c.58,16.83.5,33.69.55,50.52,0,4.75-2.49,7.06-7.23,7.19-10.71.31-13.35-.11-13-12.28.32-12.35.06-24.72.07-37.06,0-5.56-.68-11-6.18-13.91-5.76-3.07-11.66-2.4-17.09,1-9.73,6-12.75,15.53-12.92,26.27-.14,9.34,0,18.71,0,28.07,0,5.71-2.2,7.88-7.9,8-11.29.16-12.38-.92-12.38-12.27v-59.9c0-7.1,2.09-9.23,9.07-9.25.88,0,1.75,0,2.63,0,5.84,0,7.58,1.75,7.63,7.59,0,2.37,0,4.74,0,8.24,3.39-5.12,6.51-9.1,10.67-12.14,9.47-7,24.25-7.79,34.35-1.75C643.38,115.68,646.69,123.62,647,132.52Z"/><path class="cls-1" d="M713.08,185.77c-11,7.16-22.73,7.35-34.9,4.31a42.53,42.53,0,0,1-13.31-5.79c-3.71-2.44-4.32-5-2.22-8.9.53-1,1.1-2,1.69-2.91,2.43-3.9,5.08-4.69,9.17-2.61a59.33,59.33,0,0,0,14.56,5.73,19.14,19.14,0,0,0,9.6-.46c2.77-.83,5.05-2.42,5.51-5.5a8.26,8.26,0,0,0-2.8-7.75c-2.2-1.94-4.94-2.87-7.67-3.74-6.18-2-12.3-4.09-17.94-7.38-7.34-4.25-11.69-10.21-11.41-19.11.3-9.27,4.27-16.23,12.38-20.76,5.84-3.26,12.23-4.09,18.77-4.11,7.9.12,15.34,1.81,22,6.14,4.17,2.69,4.72,5.09,2.17,9.4-4,6.88-5.06,7.21-12.53,4.21-5.14-2.06-10.4-3.48-16-3-4.25.36-7,2.44-7.76,5.83-.88,4,1.31,6.35,4.53,8.07,4.85,2.58,10.09,4.28,15.16,6.33a83.51,83.51,0,0,1,10.11,4.81C727.27,157.22,724.63,178.25,713.08,185.77Z"/><path class="cls-1" d="M779.64,252.48c-.86,3.91-4.44,6.46-9.28,6.68a16.07,16.07,0,0,1-5.52-.81c-4.28-1.31-4.61-2-3.62-7,2.39,1.43,4.68,3,7.46,3.27,2.05.19,4.21,0,5.06-2.21.93-2.38-.75-3.66-2.63-4.66-2.31-1.21-4.71-2.29-6.89-3.71-3.1-2-4.59-5-3.71-8.67s3.59-5.29,7-5.91a17.7,17.7,0,0,1,6.68.18c3.62.69,5.15,2.48,3.9,6.25-2.42-.66-4.51-2.22-7.1-2.16-1.91,0-4-.07-4.69,2.14s1.11,3.34,2.79,4.23,3.61,1.69,5.35,2.65C778.64,245.06,780.5,248.6,779.64,252.48Z"/><path class="cls-1" d="M799.48,229.22c-9.36,0-16,6.32-16,15.09,0,8.46,6.86,14.79,15.94,14.84s16.25-6.51,16.26-15C815.69,235.5,808.85,229.2,799.48,229.22Zm0,24.86c-6.07,0-10.09-4.06-10.06-10s4.23-10,10.22-10a9.81,9.81,0,0,1,10.13,10.14C809.74,250.08,805.53,254.1,799.47,254.08Z"/><path class="cls-1" d="M802.38,137.73a30.23,30.23,0,0,0-1.27-9.21c-3.39-10.77-10.67-17.8-21.49-20.4a48.75,48.75,0,0,0-37.13,5.71c-4.19,2.46-4.72,4.71-2.47,9,.46.88,1,1.75,1.44,2.63,2.32,4,4.4,4.75,8.62,2.74a49.73,49.73,0,0,1,15-4.39c9.95-1.32,16.55,3.94,17.52,13.81.19,1.94-.29,2.62-2.33,2.63-4.12.06-8.25.25-12.34.66-9.22.9-18.34,2.29-26.4,7.36s-10.51,12.61-9.68,21.6c.79,8.52,4.27,15.53,12.46,19,14.22,6,28.39,3.9,37.92-9.45.48-.68,1-1.34,2-2.74,0,2.52,0,4,0,5.51,0,6,2.33,8,9,8,6.88,0,9-1.85,9-7.94C802.37,167.46,802.34,152.6,802.38,137.73Zm-34.49,38.56a24.59,24.59,0,0,1-3,.56c-7.71,0-12.23-3.48-13.36-9.58-1-5.61,1.87-10,8.37-12.29,6.78-2.44,13.89-2.5,21-2.75,1.21,0,1.69.39,1.81,1.71C783.52,163.08,776.38,174,767.89,176.29Z"/><path class="cls-1" d="M850.12,233.77c.13,7.23,0,14.46.1,21.71,0,2.27-.36,3.28-3,3.29-2.81,0-2.92-1.32-2.89-3.44.08-5.31,0-10.62,0-17.07-3,3.65-5.27,6.3-7.42,9.05-1.05,1.34-1.84,1.35-2.89,0a52.54,52.54,0,0,0-7.62-8.06c0,5.41,0,10.81,0,16.23,0,1.9,0,3.25-2.64,3.27s-3-1.12-2.95-3.33c.09-7.48,0-15,.07-22.46,0-1.13-.73-2.9.85-3.25s3.7-.84,5.18,1c2.1,2.62,4.47,5.06,6.42,7.79,1.7,2.42,2.79,2,4.32-.09,1.76-2.41,3.94-4.52,5.65-7,1.51-2.19,3.59-2.29,5.62-1.82C851.32,230.19,850.1,232.37,850.12,233.77Z"/><path class="cls-1" d="M852.08,186.81c-1,3.31-3.44,4.41-6.64,4.16a61.47,61.47,0,0,1-7.8-.91c-9.25-2-14.43-7.85-15.91-17.52a79.2,79.2,0,0,1-.77-11.92q0-17.62,0-35.2,0-20.23,0-40.45c0-5.74,2.12-7.8,7.93-7.85,11.69-.08,12.31.53,12.31,12.08v73.4c0,7.48.38,8,7.23,10.65a9.41,9.41,0,0,1,1,.47C852.26,175.21,853.57,181.65,852.08,186.81Z"/><path class="cls-1" d="M871.47,229.22c-9.4,0-16.09,6.18-16.1,14.94,0,8.52,6.66,14.86,15.75,15s16.31-6.36,16.44-14.84S880.77,229.25,871.47,229.22Zm.09,24.86c-6.15,0-10.24-3.86-10.3-9.81s4-10.08,10-10.19a9.91,9.91,0,0,1,10.4,9.9C881.74,249.83,877.52,254,871.56,254.08Z"/><path class="cls-1" d="M910.39,252.47c-.79,3.59-3.48,5.92-7.71,6.55a14.7,14.7,0,0,1-5.93-.4c-5.14-1.35-5.47-1.77-5.07-7.54,2.62,1.58,4.79,3.11,7.44,3.48,2.34.33,4.76.09,5.63-2.48s-1.23-3.52-3-4.48c-2.2-1.18-4.48-2.21-6.59-3.52a7.7,7.7,0,0,1-3.7-8.67c.7-3.51,3.33-5.14,6.54-5.89a17.23,17.23,0,0,1,7,.1c3.58.67,5.41,2.32,4.06,6.28-2.55-.64-4.85-2.36-7.7-2.21-1.82.1-3.69.22-4.34,2.18-.69,2.14,1,3.17,2.55,4,2.07,1.13,4.29,2,6.32,3.19C909.79,245.39,911.24,248.58,910.39,252.47Z"/><path class="cls-1" d="M930.15,189.69c-8.13,0-8.83-.72-8.84-9.05v-5.46c-1.27.24-1.38,1.09-1.74,1.67C910.5,192,893.74,195,879.34,189.62c-9.27-3.43-12.9-11.25-14.14-20.39-1.53-11.28-.46-22.67-.73-34-.16-6.36-.07-12.72,0-19.08,0-4.57,2.26-6.92,6.74-7.3a2.42,2.42,0,0,1,.38,0c11.29-.69,13.1,1,13.1,12.21,0,12.61.2,25.22,0,37.81-.29,13.84,11.35,17.09,20.08,13.46,10.11-4.21,14.47-12.83,15.1-23.09.63-10.45.22-20.95.26-31.43,0-6.81,2.14-8.94,9-9,1.5,0,3-.08,4.49,0,4.56.33,6.76,2.61,6.77,7.21q0,33.3,0,66.61c0,4.89-2.18,7-7.13,7C932.15,189.71,931.15,189.69,930.15,189.69Z"/><path class="cls-1" d="M952.53,251.37c.84,5.17.59,5.69-4.15,6.92a20.83,20.83,0,0,1-9.62.52c-7.87-1.61-12.86-7.4-12.65-14.8.22-7.6,5.63-13.56,13.45-14.62a24.09,24.09,0,0,1,8.53.48c3.63.83,5.7,2.39,4.31,6.8-6.54-2.76-13-4.78-18.49,1.68a9.29,9.29,0,0,0,.16,11.82C939.68,256.46,946.15,254.29,952.53,251.37Z"/><path class="cls-1" d="M983.07,251.54c.93,4.83.74,5.19-3.72,6.6-9.6,3.06-19.15-.79-21.86-8.91-1.85-5.53-.93-10.75,3.07-15,5-5.24,11.24-5.83,18-4.36,3.65.8,5.63,2.42,4.2,6.63-9.07-3.42-14.6-2.94-18.1,1.49a10.23,10.23,0,0,0-.36,11.88C967.56,254.6,972.79,255.06,983.07,251.54Z"/><path class="cls-1" d="M1006.31,256.46c.08,1.93-.82,2.27-2.47,2.25s-2.93-.07-2.83-2.32c.14-3.12,0-6.23,0-9.35,0-2.28-.95-4.17-3.38-4s-4.28,1.43-4.3,4.25c0,3-.12,6,0,9,.12,2.09-.8,2.47-2.63,2.46s-2.7-.31-2.67-2.43q.17-12.15,0-24.29c0-2.05.74-2.54,2.62-2.52s2.8.31,2.68,2.45c-.16,3,0,5.94,0,9.4,2.27-1.35,3.85-2.5,6-2.44,3.81.08,6.51,2.17,6.77,6S1006.16,252.6,1006.31,256.46Z"/><path class="cls-1" d="M1024.4,77.12c-6.27,0-8.33,2-8.36,8.25,0,9.75,0,19.48,0,29.21,0,.88.55,2-.71,2.69a35.74,35.74,0,0,0-10.43-7.79c-15.17-7-35.17,0-43.51,15.94s-7.9,32.27-.38,48.26c6.82,14.49,22.48,21.3,38,17.3,7.23-1.88,12.93-6.21,18.43-12.56,0,2.7-.1,4.31,0,5.91.26,3.31,2.17,5.23,5.36,5.82a18.79,18.79,0,0,0,3.36.1c8.44,0,9.88-1.4,9.88-9.67V88.85C1036,77.91,1035.19,77.08,1024.4,77.12ZM1016.58,150a31,31,0,0,1-3.44,14.75c-3.71,6.82-9.48,10.55-17.25,10.48s-13.61-3.87-16.92-10.91a33.31,33.31,0,0,1-.92-27.19,19.8,19.8,0,0,1,19-12.64c7.52,0,14,4.79,17.22,12.74A31.12,31.12,0,0,1,1016.58,150Z"/><path class="cls-1" d="M1032.84,258.31c-6.79,1.71-13.31,1.23-18.39-4.13-7.32-7.74-3.76-20.68,6.47-24a20,20,0,0,1,11.8-.19c4.62,1.27,4.85,1.6,3.92,6.56-6.35-2.61-12.74-4.54-18.11,1.74a9.26,9.26,0,0,0-.21,11.51c5.63,6.94,12.37,4.4,19,1.56C1037.78,256.73,1037.63,257.1,1032.84,258.31Z"/><path class="cls-1" d="M256,16.87q-14.11,39-28.37,77.92c-1.93,5.27-4.79,7.16-10.5,7.17q-18.73,0-37.47,0-18.54,0-37.09,0c-8.33,0-13.61,3.69-16.47,11.51q-13.35,36.46-26.64,73c-2.49,6.82,0,10.34,7.26,10.36q36.72,0,73.44,0c7.23,0,9.29,2.86,6.84,9.6q-14.79,40.73-29.63,81.44c-2.27,6.23-6.54,10.08-13.12,10.69C107,302,71.64,296.69,41,273.5,18,256.08,4.6,232.29,1.3,203.89c-6.81-58.54,13.39-107.66,55.41-148,27.43-26.33,60.83-41.74,97.74-49.83A259.67,259.67,0,0,1,231.1.83a102.36,102.36,0,0,1,18.05,3C255.4,5.52,258.19,10.75,256,16.87Z"/><path class="cls-1" d="M347,111.7q-13.38,36.86-26.83,73.69c-2.8,7.65-8.27,11.46-16.56,11.51-12,.07-24,0-35.95,0s-23.71,0-35.57,0c-7.19,0-9.69-3.62-7.24-10.37q13.32-36.66,26.67-73.34c2.72-7.45,8.24-11.25,16.31-11.26q36.13,0,72.26,0C346.54,102,349.22,105.69,347,111.7Z"/><path class="cls-1" d="M1024.4,77.12c-6.27,0-8.33,2-8.36,8.25,0,9.75,0,19.48,0,29.21,0,.88.55,2-.71,2.69a35.74,35.74,0,0,0-10.43-7.79c-15.17-7-35.17,0-43.51,15.94s-7.9,32.27-.38,48.26c6.82,14.49,22.48,21.3,38,17.3,7.23-1.88,12.93-6.21,18.43-12.56,0,2.7-.1,4.31,0,5.91.26,3.31,2.17,5.23,5.36,5.82a18.79,18.79,0,0,0,3.36.1c8.44,0,9.88-1.4,9.88-9.67V88.85C1036,77.91,1035.19,77.08,1024.4,77.12ZM1016.58,150a31,31,0,0,1-3.44,14.75c-3.71,6.82-9.48,10.55-17.25,10.48s-13.61-3.87-16.92-10.91a33.31,33.31,0,0,1-.92-27.19,19.8,19.8,0,0,1,19-12.64c7.52,0,14,4.79,17.22,12.74A31.12,31.12,0,0,1,1016.58,150Z"/><path class="cls-1" d="M556,143c-3.7-21.71-21.24-36.13-44.29-36.25-3.43.31-7.05.31-10.59,1.17-16,3.89-27.61,13-32.16,29s-1.88,31.1,10.61,43c12,11.41,26.73,13.67,42.47,11A41.26,41.26,0,0,0,556,143Zm-44.43,31.58c-13.93-.08-24-10.71-23.88-25.25s10.61-25.19,24.61-25c13.5.19,23.49,11,23.37,25.38C535.56,164.43,525.68,174.65,511.59,174.56Z"/><path class="cls-1" d="M647.55,183c0,4.75-2.49,7.06-7.23,7.19-10.71.31-13.35-.11-13-12.28.32-12.35.06-24.72.07-37.06,0-5.56-.68-11-6.18-13.91-5.76-3.07-11.66-2.4-17.09,1-9.73,6-12.75,15.53-12.92,26.27-.14,9.34,0,18.71,0,28.07,0,5.71-2.2,7.88-7.9,8-11.29.16-12.38-.92-12.38-12.27v-59.9c0-7.1,2.09-9.23,9.07-9.25.88,0,1.75,0,2.63,0,5.84,0,7.58,1.75,7.63,7.59,0,2.37,0,4.74,0,8.24,3.39-5.12,6.51-9.1,10.67-12.14,9.47-7,24.25-7.79,34.35-1.75,8.18,4.91,11.49,12.85,11.8,21.75C647.58,149.35,647.5,166.21,647.55,183Z"/><path class="cls-1" d="M940.28,116.06q0,33.3,0,66.61c0,4.89-2.18,7-7.13,7-1,0-2,0-3,0-8.13,0-8.83-.72-8.84-9.05v-5.46c-1.27.24-1.38,1.09-1.74,1.67C910.5,192,893.74,195,879.34,189.62c-9.27-3.43-12.9-11.25-14.14-20.39-1.53-11.28-.46-22.67-.73-34-.16-6.36-.07-12.72,0-19.08,0-4.57,2.26-6.92,6.74-7.3a2.42,2.42,0,0,1,.38,0c11.29-.69,13.1,1,13.1,12.21,0,12.61.2,25.22,0,37.81-.29,13.84,11.35,17.09,20.08,13.46,10.11-4.21,14.47-12.83,15.1-23.09.63-10.45.22-20.95.26-31.43,0-6.81,2.14-8.94,9-9,1.5,0,3-.08,4.49,0C938.07,109.18,940.27,111.46,940.28,116.06Z"/><path class="cls-1" d="M802.38,137.73a30.23,30.23,0,0,0-1.27-9.21c-3.39-10.77-10.67-17.8-21.49-20.4a48.75,48.75,0,0,0-37.13,5.71c-4.19,2.46-4.72,4.71-2.47,9,.46.88,1,1.75,1.44,2.63,2.32,4,4.4,4.75,8.62,2.74a49.73,49.73,0,0,1,15-4.39c9.95-1.32,16.55,3.94,17.52,13.81.19,1.94-.29,2.62-2.33,2.63-4.12.06-8.25.25-12.34.66-9.22.9-18.34,2.29-26.4,7.36s-10.51,12.61-9.68,21.6c.79,8.52,4.27,15.53,12.46,19,14.22,6,28.39,3.9,37.92-9.45.48-.68,1-1.34,2-2.74,0,2.52,0,4,0,5.51,0,6,2.33,8,9,8,6.88,0,9-1.85,9-7.94C802.37,167.46,802.34,152.6,802.38,137.73Zm-34.49,38.56a24.59,24.59,0,0,1-3,.56c-7.71,0-12.23-3.48-13.36-9.58-1-5.61,1.87-10,8.37-12.29,6.78-2.44,13.89-2.5,21-2.75,1.21,0,1.69.39,1.81,1.71C783.52,163.08,776.38,174,767.89,176.29Z"/><path class="cls-1" d="M453.31,184.6c-19.26,12.48-47.44,8.67-60.91-8.31C375.15,154.54,382,116,417.49,107.9a69.71,69.71,0,0,1,9.75-1.11c9.63-.06,18.29,2.31,26,7.77,4.14,3,4.64,5.56,2,9.86-.51.85-1,1.7-1.58,2.54-2.73,4.21-5.46,4.71-9.66,1.79A25.64,25.64,0,0,0,411.34,131c-8.57,8.37-10.11,22.52-3.56,32.73,6.39,10,19.89,13.79,31.94,9a40.18,40.18,0,0,0,7.49-4.19c3.44-2.25,6.36-1.64,8.76,1.64C460.8,176.81,460.19,180.14,453.31,184.6Z"/><path class="cls-1" d="M713.08,185.77c-11,7.16-22.73,7.35-34.9,4.31a42.53,42.53,0,0,1-13.31-5.79c-3.71-2.44-4.32-5-2.22-8.9.53-1,1.1-2,1.69-2.91,2.43-3.9,5.08-4.69,9.17-2.61a59.33,59.33,0,0,0,14.56,5.73,19.14,19.14,0,0,0,9.6-.46c2.77-.83,5.05-2.42,5.51-5.5a8.26,8.26,0,0,0-2.8-7.75c-2.2-1.94-4.94-2.87-7.67-3.74-6.18-2-12.3-4.09-17.94-7.38-7.34-4.25-11.69-10.21-11.41-19.11.3-9.27,4.27-16.23,12.38-20.76,5.84-3.26,12.23-4.09,18.77-4.11,7.9.12,15.34,1.81,22,6.14,4.17,2.69,4.72,5.09,2.17,9.4-4,6.88-5.06,7.21-12.53,4.21-5.14-2.06-10.4-3.48-16-3-4.25.36-7,2.44-7.76,5.83-.88,4,1.31,6.35,4.53,8.07,4.85,2.58,10.09,4.28,15.16,6.33a83.51,83.51,0,0,1,10.11,4.81C727.27,157.22,724.63,178.25,713.08,185.77Z"/><path class="cls-1" d="M852.08,186.81c-1,3.31-3.44,4.41-6.64,4.16a61.47,61.47,0,0,1-7.8-.91c-9.25-2-14.43-7.85-15.91-17.52a79.2,79.2,0,0,1-.77-11.92q0-17.62,0-35.2,0-20.23,0-40.45c0-5.74,2.12-7.8,7.93-7.85,11.69-.08,12.31.53,12.31,12.08v73.4c0,7.48.38,8,7.23,10.65a9.41,9.41,0,0,1,1,.47C852.26,175.21,853.57,181.65,852.08,186.81Z"/><path class="cls-1" d="M850.22,255.48c0,2.27-.36,3.28-3,3.29-2.81,0-2.92-1.32-2.89-3.44.08-5.31,0-10.62,0-17.07-3,3.65-5.27,6.3-7.42,9.05-1.05,1.34-1.84,1.35-2.89,0a52.54,52.54,0,0,0-7.62-8.06c0,5.41,0,10.81,0,16.23,0,1.9,0,3.25-2.64,3.27s-3-1.12-2.95-3.33c.09-7.48,0-15,.07-22.46,0-1.13-.73-2.9.85-3.25s3.7-.84,5.18,1c2.1,2.62,4.47,5.06,6.42,7.79,1.7,2.42,2.79,2,4.32-.09,1.76-2.41,3.94-4.52,5.65-7,1.51-2.19,3.59-2.29,5.62-1.82,2.35.55,1.13,2.73,1.15,4.13C850.25,241,850.11,248.23,850.22,255.48Z"/><path class="cls-1" d="M799.48,229.22c-9.36,0-16,6.32-16,15.09,0,8.46,6.86,14.79,15.94,14.84s16.25-6.51,16.26-15C815.69,235.5,808.85,229.2,799.48,229.22Zm0,24.86c-6.07,0-10.09-4.06-10.06-10s4.23-10,10.22-10a9.81,9.81,0,0,1,10.13,10.14C809.74,250.08,805.53,254.1,799.47,254.08Z"/><path class="cls-1" d="M871.47,229.22c-9.4,0-16.09,6.18-16.1,14.94,0,8.52,6.66,14.86,15.75,15s16.31-6.36,16.44-14.84S880.77,229.25,871.47,229.22Zm.09,24.86c-6.15,0-10.24-3.86-10.3-9.81s4-10.08,10-10.19a9.91,9.91,0,0,1,10.4,9.9C881.74,249.83,877.52,254,871.56,254.08Z"/><path class="cls-1" d="M948.38,258.29a20.83,20.83,0,0,1-9.62.52c-7.87-1.61-12.86-7.4-12.65-14.8.22-7.6,5.63-13.56,13.45-14.62a24.09,24.09,0,0,1,8.53.48c3.63.83,5.7,2.39,4.31,6.8-6.54-2.76-13-4.78-18.49,1.68a9.29,9.29,0,0,0,.16,11.82c5.61,6.29,12.08,4.12,18.46,1.2C953.37,256.54,953.12,257.06,948.38,258.29Z"/><path class="cls-1" d="M979.35,258.14c-9.6,3.06-19.15-.79-21.86-8.91-1.85-5.53-.93-10.75,3.07-15,5-5.24,11.24-5.83,18-4.36,3.65.8,5.63,2.42,4.2,6.63-9.07-3.42-14.6-2.94-18.1,1.49a10.23,10.23,0,0,0-.36,11.88c3.26,4.71,8.49,5.17,18.77,1.65C984,256.37,983.81,256.73,979.35,258.14Z"/><path class="cls-1" d="M1032.84,258.31c-6.79,1.71-13.31,1.23-18.39-4.13-7.32-7.74-3.76-20.68,6.47-24a20,20,0,0,1,11.8-.19c4.62,1.27,4.85,1.6,3.92,6.56-6.35-2.61-12.74-4.54-18.11,1.74a9.26,9.26,0,0,0-.21,11.51c5.63,6.94,12.37,4.4,19,1.56C1037.78,256.73,1037.63,257.1,1032.84,258.31Z"/><path class="cls-1" d="M779.64,252.48c-.86,3.91-4.44,6.46-9.28,6.68a16.07,16.07,0,0,1-5.52-.81c-4.28-1.31-4.61-2-3.62-7,2.39,1.43,4.68,3,7.46,3.27,2.05.19,4.21,0,5.06-2.21.93-2.38-.75-3.66-2.63-4.66-2.31-1.21-4.71-2.29-6.89-3.71-3.1-2-4.59-5-3.71-8.67s3.59-5.29,7-5.91a17.7,17.7,0,0,1,6.68.18c3.62.69,5.15,2.48,3.9,6.25-2.42-.66-4.51-2.22-7.1-2.16-1.91,0-4-.07-4.69,2.14s1.11,3.34,2.79,4.23,3.61,1.69,5.35,2.65C778.64,245.06,780.5,248.6,779.64,252.48Z"/><path class="cls-1" d="M910.39,252.47c-.79,3.59-3.48,5.92-7.71,6.55a14.7,14.7,0,0,1-5.93-.4c-5.14-1.35-5.47-1.77-5.07-7.54,2.62,1.58,4.79,3.11,7.44,3.48,2.34.33,4.76.09,5.63-2.48s-1.23-3.52-3-4.48c-2.2-1.18-4.48-2.21-6.59-3.52a7.7,7.7,0,0,1-3.7-8.67c.7-3.51,3.33-5.14,6.54-5.89a17.23,17.23,0,0,1,7,.1c3.58.67,5.41,2.32,4.06,6.28-2.55-.64-4.85-2.36-7.7-2.21-1.82.1-3.69.22-4.34,2.18-.69,2.14,1,3.17,2.55,4,2.07,1.13,4.29,2,6.32,3.19C909.79,245.39,911.24,248.58,910.39,252.47Z"/><path class="cls-1" d="M1006.31,256.46c.08,1.93-.82,2.27-2.47,2.25s-2.93-.07-2.83-2.32c.14-3.12,0-6.23,0-9.35,0-2.28-.95-4.17-3.38-4s-4.28,1.43-4.3,4.25c0,3-.12,6,0,9,.12,2.09-.8,2.47-2.63,2.46s-2.7-.31-2.67-2.43q.17-12.15,0-24.29c0-2.05.74-2.54,2.62-2.52s2.8.31,2.68,2.45c-.16,3,0,5.94,0,9.4,2.27-1.35,3.85-2.5,6-2.44,3.81.08,6.51,2.17,6.77,6S1006.16,252.6,1006.31,256.46Z"/></g></g></svg>