<svg xmlns="http://www.w3.org/2000/svg" viewBox="0 0 1047.12 380.91"><defs><style>.cls-1{fill:#e1e1e1;}</style></defs><g id="Camada_2" data-name="Camada 2"><g id="Camada_1-2" data-name="Camada 1"><path class="cls-1" d="M223.43,288.22Q182.21,333,141.08,377.77a5.44,5.44,0,0,1-4.44,2q-66.84-.08-133.67,0c-3.21,0-2.92.31-2.92-2.88,0-7.06.07-14.12,0-21.18a4.56,4.56,0,0,1,2.25-4.39q86.21-59.12,172.34-118.34L222.45,200c.64-.44,1.29-.85,2.12-1.4a6,6,0,0,1,.25,2.57q0,41.64,0,83.29A5,5,0,0,1,223.43,288.22Z"/><path class="cls-1" d="M.06,179.54q0-54.7,0-109.39a7.37,7.37,0,0,0,0-.94c-.12-1.12.33-1.63,1.47-1.95,5.12-1.47,10.19-3.06,15.28-4.6L168.21,16.87,222.58.43A4.72,4.72,0,0,1,224.64,0a5.22,5.22,0,0,1,.18,2.32c0,22.81,0,45.63.05,68.45a3.16,3.16,0,0,1-2.1,3.34q-94.87,46-189.69,92.06L2.45,181.06a5.06,5.06,0,0,1-2.15.83A4.36,4.36,0,0,1,.06,179.54Z"/><path class="cls-1" d="M.06,327.38Q0,266.8,0,206.22a3.5,3.5,0,0,1,2.33-3.68Q112.42,149.17,222.45,95.73a5.71,5.71,0,0,1,2.19-.86,5.57,5.57,0,0,1,.18,2.29q0,38.1.05,76.22A3.83,3.83,0,0,1,223,177Q112.62,252.78,2.28,328.61c-.62.42-1.16,1.05-2,1.09A4.52,4.52,0,0,1,.06,327.38Z"/><path class="cls-1" d="M311.45,303.56a9.29,9.29,0,0,0,0,1.18v72.94c0,3,.23,2.61-2.66,2.61H164.31c1-1.12,1.54-1.77,2.12-2.4q34.14-37.18,68.26-74.38a3.92,3.92,0,0,1,3.24-1.37q35.65,0,71.31,0a5.61,5.61,0,0,0,.71,0C311,302,311.62,302.36,311.45,303.56Z"/><path class="cls-1" d="M371.31,187.89q-16.49,45.86-33,91.71c-1,2.71-.59,2.28-3.26,2.29H245c-2.52,0-2.6.45-2.6-2.49q0-104,0-207.93c0-.67-.23-1.4.27-2,.78.13,1.17.77,1.67,1.22L370.48,184.38C372.06,185.81,372.06,185.81,371.31,187.89Z"/><path class="cls-1" d="M510.86,375.21a2,2,0,0,1-1.37,2.16c-8.88,4-18,4.78-27.19,1.45a22.16,22.16,0,0,1-11.8-10.29,39,39,0,0,1-4.61-14.45,80.07,80.07,0,0,1,.37-25.29,37.65,37.65,0,0,1,3.18-9.79,24.11,24.11,0,0,1,17.06-13.51,39.79,39.79,0,0,1,21.55,1.1c2.23.73,2.22.79,2.22,3.13V322.3a58.15,58.15,0,0,0-9.25-2,32.87,32.87,0,0,0-9.6.15,11.31,11.31,0,0,0-9.12,7.86,35.05,35.05,0,0,0-1.69,10.16,62.8,62.8,0,0,0,1.13,17.3,13.71,13.71,0,0,0,.39,1.35c1.78,5.48,5.25,8.15,11,8.64a32.9,32.9,0,0,0,14.73-2.21l2.73-1a3.69,3.69,0,0,1,.21,1.86C510.84,368,510.79,371.61,510.86,375.21Z"/><path class="cls-1" d="M561.4,349.46A3.58,3.58,0,0,1,562,349c4.85-2,7.65-5.86,9.15-10.72a31.62,31.62,0,0,0,.58-15.58c-1.55-8-6.46-12.82-14.29-14.73a36.6,36.6,0,0,0-8.86-1c-7.29,0-14.59,0-21.89,0-3,0-2.62-.36-2.63,2.6q0,33.06,0,66.11c0,1,.06,2.05,0,3.06-.08,1.2.33,1.65,1.59,1.62,3.61-.07,7.22,0,10.82,0,2.42,0,2.48.39,2.47-2.37v-19.3c0-1.65,0-3.29,0-4.94,0-1.08.3-1.57,1.47-1.51,1.8.08,3.61,0,5.41,0,2.14,0,2.15,0,3,2.08,3.22,7.9,6.47,15.8,9.63,23.73a2.33,2.33,0,0,0,2.58,1.74c4.47-.1,8.94-.05,13.41-.07a1.52,1.52,0,0,0,1.49-.45Zm-5-14.17a6.16,6.16,0,0,1-5,4.68c-2.8.59-5.62.28-8.43.34-1.24,0-2.83.54-3.64-.23s-.31-2.53-.34-3.84c-.06-2,0-3.92,0-5.88,0-2.74,0-5.48,0-8.22,0-1.26.43-1.6,1.64-1.56,2.74.08,5.48,0,8.22,0a13.26,13.26,0,0,1,3,.44,6,6,0,0,1,4.66,4.48A18.58,18.58,0,0,1,556.42,335.29Z"/><path class="cls-1" d="M631.42,366.41q-.25,6.1-.46,12.22c0,.67-.3,1-1,1l-1.65,0H588.81c-2,0-2,0-2-2.1q0-17.29,0-34.58V309.13c0-.55,0-1.1,0-1.64,0-.8.3-1.16,1.1-1.14.47,0,.94,0,1.41,0h38.11a7.35,7.35,0,0,0,.94,0c1.29-.16,1.58.5,1.56,1.66,0,3.61,0,7.21,0,10.82,0,1.75,0,1.77-1.84,1.78H603.79c-.54,0-1.09,0-1.64,0-.71,0-1,.32-1,1q0,6.12,0,12.23c0,.81.37,1.12,1.14,1.11h5.41c5.1,0,10.2,0,15.3,0,2,0,2,0,2,1.87,0,3.22,0,6.43,0,9.65,0,1.27-.45,1.58-1.63,1.57-6.43-.05-12.86,0-19.29,0a11,11,0,0,1-1.41,0c-1.32-.17-1.65.5-1.56,1.67.06.78,0,1.56,0,2.35,0,3.84,0,7.68,0,11.52,0,1.75,0,1.77,1.82,1.78h25.65c.55,0,1.1,0,1.65,0C631.06,365.29,631.46,365.57,631.42,366.41Z"/><path class="cls-1" d="M649.8,178.73c-4.78-18-15.42-31.07-32.9-38.2-1.65-.67-3.34-1.25-5.3-2a6,6,0,0,1,2.21-1.45,52.26,52.26,0,0,0,7.73-4.9c10.52-8.1,16.7-18.95,19.77-31.67a90.28,90.28,0,0,0,1.34-34.81,64.28,64.28,0,0,0-10.43-27.44c-7.87-11.41-18.76-18.7-31.72-23.13a105.34,105.34,0,0,0-34.24-5.24l-95.78,0c-3.28,0-3.28,0-3.28,3.18V279.19c0,.55,0,1.1,0,1.64-.11,1.15.22,1.81,1.53,1.64a12.81,12.81,0,0,1,1.64,0h89.9c6,0,11.92,0,17.88-.42a110.82,110.82,0,0,0,29.19-5.71c19.75-7,33.48-20.11,40.39-40.06a91.89,91.89,0,0,0,4.68-24.4C653.12,200.7,652.68,189.61,649.8,178.73ZM519.34,63.05c0-1.83,0-1.83,2-1.86h.47q20.47,0,41,0a54.6,54.6,0,0,1,11.69,1C583,64,588.58,69,590.65,77.58a53.41,53.41,0,0,1,0,25.84c-2.42,9.59-8.64,14.87-18.45,16.25a59.53,59.53,0,0,1-8.21.5q-21.18,0-42.36,0c-.47,0-1,0-1.42,0s-.82-.33-.82-.88,0-1.1,0-1.65V64.23C519.34,63.84,519.33,63.45,519.34,63.05Zm77.42,150.79c-2.64,10.54-9.27,16.25-20,17.81a78.21,78.21,0,0,1-11,.69c-6.2,0-12.39,0-18.59,0H521.5c-2.15,0-2.16,0-2.16-2.19q0-30.94,0-61.88c0-.39,0-.78,0-1.17,0-.72.34-1,1-.94.47,0,.94,0,1.41,0h43.77a57.77,57.77,0,0,1,14,1.42c9.44,2.32,15.38,8.15,17.54,17.6A60.77,60.77,0,0,1,596.76,213.84Z"/><path class="cls-1" d="M696.73,332.09a40,40,0,0,0-3.11-11.77,21.8,21.8,0,0,0-14.35-12.57,39.26,39.26,0,0,0-11.15-1.4H646c-.39,0-.78,0-1.17,0-.76,0-1.2.23-1.16,1.07,0,.54,0,1.09,0,1.64v67.75c0,.63,0,1.26,0,1.89s.33,1,1,1h1.41c7.22,0,14.43,0,21.65,0a43.19,43.19,0,0,0,8.18-.71c7.91-1.56,13.74-5.81,17.26-13.13a35.57,35.57,0,0,0,2.7-8A78.88,78.88,0,0,0,696.73,332.09Zm-15.81,23.52c-.07.38-.15.77-.25,1.14-1.57,5.88-4.65,8.36-10.74,8.53-3.06.09-6.11.05-9.17.05-2.3,0-2.19.22-2.19-2.11v-20q0-10,0-20c0-2.09,0-2.13,2-2.11a101.49,101.49,0,0,1,11,.28,9.64,9.64,0,0,1,8.53,6.68,24.47,24.47,0,0,1,1.38,6.65A79.34,79.34,0,0,1,680.92,355.61Z"/><path class="cls-1" d="M763.65,331.54a40.12,40.12,0,0,0-3.6-13.08,21.74,21.74,0,0,0-14.48-12.1,39.4,39.4,0,0,0-17.94-.47c-8.38,1.65-14.08,6.48-17.24,14.37-.49,1.23-.92,2.49-1.3,3.77-1.78,6.08-2.06,12.34-2.24,18.47a97.78,97.78,0,0,0,.91,12.81A39.66,39.66,0,0,0,712,368.69a21.7,21.7,0,0,0,13.36,10.77,38.77,38.77,0,0,0,19.08.48,21.54,21.54,0,0,0,16-13.16,40.31,40.31,0,0,0,2.82-9.92A93.36,93.36,0,0,0,763.65,331.54Zm-15.91,25.78a18.38,18.38,0,0,1-1.3,3.76,8.63,8.63,0,0,1-6,4.91,20.1,20.1,0,0,1-9.78,0,8.75,8.75,0,0,1-6-5.14,20.7,20.7,0,0,1-1.74-6.56,85.91,85.91,0,0,1,.29-23.21,21.68,21.68,0,0,1,1.36-4.73,9.24,9.24,0,0,1,7.28-6,21.9,21.9,0,0,1,7.95.06,9.06,9.06,0,0,1,7,5.92,27.52,27.52,0,0,1,1.76,8.72c.15,2.73,0,5.48,0,8.22C748.76,348,748.83,352.7,747.74,357.32Z"/><path class="cls-1" d="M842.41,378.44c.05.88-.29,1.28-1.22,1.27q-5.4-.06-10.82,0c-.92,0-1.27-.39-1.22-1.27,0-.55,0-1.1,0-1.64v-41l-.48-.09c-.79,2.17-1.62,4.32-2.38,6.5-4.08,11.68-8.13,23.37-12.23,35-1,2.75-.24,2.48-3.58,2.5H806c-2.84,0-2.31.14-3.13-2.17-3.19-8.92-6.32-17.86-9.48-26.79-1.55-4.35-3.13-8.69-4.69-13a3.12,3.12,0,0,0-1-1.64v40.78c0,.55,0,1.1,0,1.64.08,1-.42,1.22-1.27,1.22q-5.18,0-10.35,0c-.79,0-1.16-.33-1.12-1.13,0-.46,0-.94,0-1.41q0-34.11,0-68.22c0-2.82-.36-2.56,2.45-2.57,3.85,0,7.69,0,11.53,0,2.4,0,1.95,0,2.59,1.89q6.6,19,13.16,37.94c1.11,3.18,2.29,6.33,3.57,9.88a6.87,6.87,0,0,0,1.17-2.43q8.13-22.54,16.26-45.08c1-2.7.7-2.17,3.09-2.19,3.92,0,7.84,0,11.76,0,1.82,0,1.83,0,1.85,1.75,0,1.18,0,2.36,0,3.53V376.8C842.41,377.35,842.38,377.89,842.41,378.44Z"/><path class="cls-1" d="M884.43,278.48Q864.8,215.23,845.14,152L801.74,12.21C801,9.9,801,9.9,798.53,9.9h-60c-2.78,0-2.27-.34-3,2.16Q695,144.12,654.59,276.19c-.61,2-1.19,4-1.8,6.09a4.58,4.58,0,0,0,.82.16q27.52,0,55.06.05c1.25,0,1.59-.54,1.85-1.57,1.23-4.94,2.52-9.86,3.78-14.79l9.06-35.27c.53-2.06.54-2.06,2.58-2.07h83.31c1.84,0,1.84,0,2.33,1.79.06.22.1.46.16.69q6.27,24.09,12.56,48.18c.64,2.44.64,2.44,3.26,2.44h57.62A8.24,8.24,0,0,0,884.43,278.48ZM798.56,178H738a4.69,4.69,0,0,1,.38-2.55Q749.74,130.19,761.13,85c2.18-8.74,4.23-17.51,6.36-26.26.19-.78.07-2.05,1-2.12,1.22-.1.88,1.27,1,2,8.55,39.34,19.19,78.18,28.76,117.27A5.12,5.12,0,0,1,798.56,178Z"/><path class="cls-1" d="M914.33,378.39c-.19-.6-.36-1.2-.55-1.8Q908.62,360,903.44,343.4,898,326,892.62,308.64c-.71-2.29-.71-2.29-3.23-2.29H883c-2.44,0-4.87,0-7.3,0-1,0-1.63.29-1.84,1.33a13.08,13.08,0,0,1-.41,1.35q-10.35,34-20.7,68.09a4.64,4.64,0,0,0-.45,2.58c4.69,0,9.31,0,13.94,0,1,0,1.3-.54,1.51-1.4.94-3.8,2-7.58,2.91-11.38a1.79,1.79,0,0,1,2.06-1.61q10,.1,20,0c1.36,0,1.93.4,2.24,1.7.85,3.58,1.82,7.13,2.75,10.69.53,2,.54,2,2.67,2h7.06c2,0,3.92,0,5.88,0C914.33,379.7,914.63,379.29,914.33,378.39Zm-39.69-26.87c-.4-.53,0-1,.13-1.51,2.33-9.66,5.06-19.22,7.13-28.94l.83,0c2.1,10.18,5.07,20.16,7.46,30.43Z"/><path class="cls-1" d="M962.49,320.11c0,1.08-.62,1.07-1.36,1.07h-12.7c-.55,0-1.1,0-1.65,0-1.74,0-1.77,0-1.78,1.87q0,10.47,0,20.93v32.91c0,.55,0,1.1,0,1.65,0,.79-.32,1.14-1.1,1.14-4.16,0-8.31,0-12.47,0-.87,0-1.32-.32-1.28-1.23,0-.55,0-1.1,0-1.65V324.13a13.26,13.26,0,0,1,0-1.41c.12-1.27-.49-1.58-1.67-1.57-4.62.06-9.25,0-13.87,0-2.06,0-2,0-2-2.07.13-3.52.24-7.05.37-10.57.07-2.16.08-2.18,2.24-2.18h40.68c1.65,0,3.3,0,4.94,0,.78,0,1.13.28,1.15,1.08Q962.22,313.77,962.49,320.11Z"/><path class="cls-1" d="M988.64,308.27q0,11.64,0,23.27v45.37c0,.54,0,1.09,0,1.64,0,.79-.32,1.15-1.1,1.15q-6.35,0-12.7,0c-.75,0-1.18-.28-1.14-1.1,0-.55,0-1.09,0-1.64q0-34,0-67.93c0-2.85-.4-2.64,2.64-2.65q5.16,0,10.34,0C988.61,306.36,988.64,306.38,988.64,308.27Z"/><path class="cls-1" d="M1047.11,375.4c0,1.22-.63,1.64-1.53,2.05a36.46,36.46,0,0,1-12.65,3.32,35.08,35.08,0,0,1-10.75-.83,23.16,23.16,0,0,1-15.73-12,41.28,41.28,0,0,1-4.45-15,79.76,79.76,0,0,1,.36-23.19,39.45,39.45,0,0,1,3-10.09,24.24,24.24,0,0,1,17.6-14.19,40,40,0,0,1,21.33,1.14c2.24.73,2.23.79,2.23,3.11,0,4.07,0,8.15,0,12.58a66.83,66.83,0,0,0-9.17-1.94,32,32,0,0,0-10.06.21,11.09,11.09,0,0,0-8.46,7.05,23.34,23.34,0,0,0-1.63,6.83c-.63,7-.78,13.93.64,20.84a20.41,20.41,0,0,0,.54,2c1.65,5.24,5.32,7.92,10.7,8.45a32.78,32.78,0,0,0,15.2-2.23,6.54,6.54,0,0,1,2.76-.85C1047.08,366.94,1047,371.17,1047.11,375.4Z"/><path class="cls-1" d="M878.48,161.45a329.51,329.51,0,0,1,.16-36.92c1.19-18.84,4.08-37.37,10.79-55.14,5.35-14.18,12.94-27,24-37.5a89,89,0,0,1,38.65-21.42,140.84,140.84,0,0,1,47.76-4.36,142.47,142.47,0,0,1,40.06,8.55c1.54.58,3,1.28,4.55,1.89a1.41,1.41,0,0,1,1.06,1.6c0,.31,0,.62,0,.94q0,24,0,48a4.19,4.19,0,0,1-.17,2c-.45.29-.8,0-1.15-.1a125.68,125.68,0,0,0-27.55-6.71,154.23,154.23,0,0,0-31-1.46,67.77,67.77,0,0,0-19.31,3.67,38.18,38.18,0,0,0-21,17.89c-3.86,6.92-6,14.43-7.45,22.17-2.51,13.55-3,27.25-2.94,41,0,9,.23,18,1.09,27,1,10.47,2.62,20.83,6.53,30.69a57.67,57.67,0,0,0,2.88,6.17c5.68,10.47,14.48,16.9,25.9,19.82a92.48,92.48,0,0,0,31.06,2.11,134.05,134.05,0,0,0,43.16-11.43,10.15,10.15,0,0,1,1.1-.37c.06,0,.14,0,.25.07a5.83,5.83,0,0,1,.14,2.28c0,15.84,0,31.68,0,47.52a3.28,3.28,0,0,1-2,3.42A125.44,125.44,0,0,1,1013,283.88a133.71,133.71,0,0,1-38.13,2.31c-15.46-1.25-30.32-4.68-44-12.28-14.75-8.18-25.77-20-33.84-34.72a136.57,136.57,0,0,1-13.23-36.29A243,243,0,0,1,878.48,161.45Z"/><path class="cls-1" d="M649.8,178.73c-4.78-18-15.42-31.07-32.9-38.2-1.65-.67-3.34-1.25-5.3-2a6,6,0,0,1,2.21-1.45,52.26,52.26,0,0,0,7.73-4.9c10.52-8.1,16.7-18.95,19.77-31.67a90.28,90.28,0,0,0,1.34-34.81,64.28,64.28,0,0,0-10.43-27.44c-7.87-11.41-18.76-18.7-31.72-23.13a105.34,105.34,0,0,0-34.24-5.24l-95.78,0c-3.28,0-3.28,0-3.28,3.18V279.19c0,.55,0,1.1,0,1.64-.11,1.15.22,1.81,1.53,1.64a12.81,12.81,0,0,1,1.64,0h89.9c6,0,11.92,0,17.88-.42a110.82,110.82,0,0,0,29.19-5.71c19.75-7,33.48-20.11,40.39-40.06a91.89,91.89,0,0,0,4.68-24.4C653.12,200.7,652.68,189.61,649.8,178.73ZM519.34,63.05c0-1.83,0-1.83,2-1.86h.47q20.47,0,41,0a54.6,54.6,0,0,1,11.69,1C583,64,588.58,69,590.65,77.58a53.41,53.41,0,0,1,0,25.84c-2.42,9.59-8.64,14.87-18.45,16.25a59.53,59.53,0,0,1-8.21.5q-21.18,0-42.36,0c-.47,0-1,0-1.42,0s-.82-.33-.82-.88,0-1.1,0-1.65V64.23C519.34,63.84,519.33,63.45,519.34,63.05Zm77.42,150.79c-2.64,10.54-9.27,16.25-20,17.81a78.21,78.21,0,0,1-11,.69c-6.2,0-12.39,0-18.59,0H521.5c-2.15,0-2.16,0-2.16-2.19q0-30.94,0-61.88c0-.39,0-.78,0-1.17,0-.72.34-1,1-.94.47,0,.94,0,1.41,0h43.77a57.77,57.77,0,0,1,14,1.42c9.44,2.32,15.38,8.15,17.54,17.6A60.77,60.77,0,0,1,596.76,213.84Z"/><path class="cls-1" d="M884.43,278.48Q864.8,215.23,845.14,152L801.74,12.21C801,9.9,801,9.9,798.53,9.9h-60c-2.78,0-2.27-.34-3,2.16Q695,144.12,654.59,276.19c-.61,2-1.19,4-1.8,6.09a4.58,4.58,0,0,0,.82.16q27.52,0,55.06.05c1.25,0,1.59-.54,1.85-1.57,1.23-4.94,2.52-9.86,3.78-14.79l9.06-35.27c.53-2.06.54-2.06,2.58-2.07h83.31c1.84,0,1.84,0,2.33,1.79.06.22.1.46.16.69q6.27,24.09,12.56,48.18c.64,2.44.64,2.44,3.26,2.44h57.62A8.24,8.24,0,0,0,884.43,278.48ZM798.56,178H738a4.69,4.69,0,0,1,.38-2.55Q749.74,130.19,761.13,85c2.18-8.74,4.23-17.51,6.36-26.26.19-.78.07-2.05,1-2.12,1.22-.1.88,1.27,1,2,8.55,39.34,19.19,78.18,28.76,117.27A5.12,5.12,0,0,1,798.56,178Z"/><path class="cls-1" d="M1047.12,269.4a3.28,3.28,0,0,1-2,3.42A125.44,125.44,0,0,1,1013,283.88a133.71,133.71,0,0,1-38.13,2.31c-15.46-1.25-30.32-4.68-44-12.28-14.75-8.18-25.77-20-33.84-34.72a136.57,136.57,0,0,1-13.23-36.29,243,243,0,0,1-5.3-41.45,329.51,329.51,0,0,1,.16-36.92c1.19-18.84,4.08-37.37,10.79-55.14,5.35-14.18,12.94-27,24-37.5a89,89,0,0,1,38.65-21.42,140.84,140.84,0,0,1,47.76-4.36,142.47,142.47,0,0,1,40.06,8.55c1.54.58,3,1.28,4.55,1.89a1.41,1.41,0,0,1,1.06,1.6c0,.31,0,.62,0,.94q0,24,0,48a4.19,4.19,0,0,1-.17,2c-.45.29-.8,0-1.15-.1a125.68,125.68,0,0,0-27.55-6.71,154.23,154.23,0,0,0-31-1.46,67.77,67.77,0,0,0-19.31,3.67,38.18,38.18,0,0,0-21,17.89c-3.86,6.92-6,14.43-7.45,22.17-2.51,13.55-3,27.25-2.94,41,0,9,.23,18,1.09,27,1,10.47,2.62,20.83,6.53,30.69a57.67,57.67,0,0,0,2.88,6.17c5.68,10.47,14.48,16.9,25.9,19.82a92.48,92.48,0,0,0,31.06,2.11,134.05,134.05,0,0,0,43.16-11.43,10.15,10.15,0,0,1,1.1-.37c.06,0,.14,0,.25.07a5.83,5.83,0,0,1,.14,2.28C1047.08,237.72,1047.05,253.56,1047.12,269.4Z"/><path class="cls-1" d="M224.87,173.38A3.83,3.83,0,0,1,223,177Q112.62,252.78,2.28,328.61c-.62.42-1.16,1.05-2,1.09a4.52,4.52,0,0,1-.22-2.32Q0,266.8,0,206.22a3.5,3.5,0,0,1,2.33-3.68Q112.42,149.17,222.45,95.73a5.71,5.71,0,0,1,2.19-.86,5.57,5.57,0,0,1,.18,2.29Q224.84,135.26,224.87,173.38Z"/><path class="cls-1" d="M224.87,70.79a3.16,3.16,0,0,1-2.1,3.34q-94.87,46-189.69,92.06L2.45,181.06a5.06,5.06,0,0,1-2.15.83,4.36,4.36,0,0,1-.24-2.35q0-54.7,0-109.39a7.37,7.37,0,0,0,0-.94c-.12-1.12.33-1.63,1.47-1.95,5.12-1.47,10.19-3.06,15.28-4.6L168.21,16.87,222.58.43A4.72,4.72,0,0,1,224.64,0a5.22,5.22,0,0,1,.18,2.32C224.83,25.15,224.8,48,224.87,70.79Z"/><path class="cls-1" d="M224.85,284.46a5,5,0,0,1-1.42,3.76Q182.21,333,141.08,377.77a5.44,5.44,0,0,1-4.44,2q-66.84-.08-133.67,0c-3.21,0-2.92.31-2.92-2.88,0-7.06.07-14.12,0-21.18a4.56,4.56,0,0,1,2.25-4.39q86.21-59.12,172.34-118.34L222.45,200c.64-.44,1.29-.85,2.12-1.4a6,6,0,0,1,.25,2.57Q224.84,242.81,224.85,284.46Z"/><path class="cls-1" d="M371.31,187.89q-16.49,45.86-33,91.71c-1,2.71-.59,2.28-3.26,2.29H245c-2.52,0-2.6.45-2.6-2.49q0-104,0-207.93c0-.67-.23-1.4.27-2,.78.13,1.17.77,1.67,1.22L370.48,184.38C372.06,185.81,372.06,185.81,371.31,187.89Z"/><path class="cls-1" d="M311.45,303.56a9.29,9.29,0,0,0,0,1.18v72.94c0,3,.23,2.61-2.66,2.61H164.31c1-1.12,1.54-1.77,2.12-2.4q34.14-37.18,68.26-74.38a3.92,3.92,0,0,1,3.24-1.37q35.65,0,71.31,0a5.61,5.61,0,0,0,.71,0C311,302,311.62,302.36,311.45,303.56Z"/><path class="cls-1" d="M841.19,379.71q-5.4-.06-10.82,0c-.92,0-1.27-.39-1.22-1.27,0-.55,0-1.1,0-1.64v-41l-.48-.09c-.79,2.17-1.62,4.32-2.38,6.5-4.08,11.68-8.13,23.37-12.23,35-1,2.75-.24,2.48-3.58,2.5H806c-2.84,0-2.31.14-3.13-2.17-3.19-8.92-6.32-17.86-9.48-26.79-1.55-4.35-3.13-8.69-4.69-13a3.12,3.12,0,0,0-1-1.64v40.78c0,.55,0,1.1,0,1.64.08,1-.42,1.22-1.27,1.22q-5.18,0-10.35,0c-.79,0-1.16-.33-1.12-1.13,0-.46,0-.94,0-1.41q0-34.11,0-68.22c0-2.82-.36-2.56,2.45-2.57,3.85,0,7.69,0,11.53,0,2.4,0,1.95,0,2.59,1.89q6.6,19,13.16,37.94c1.11,3.18,2.29,6.33,3.57,9.88a6.87,6.87,0,0,0,1.17-2.43q8.13-22.54,16.26-45.08c1-2.7.7-2.17,3.09-2.19,3.92,0,7.84,0,11.76,0,1.82,0,1.83,0,1.85,1.75,0,1.18,0,2.36,0,3.53V376.8c0,.55,0,1.09,0,1.64C842.46,379.32,842.12,379.72,841.19,379.71Z"/><path class="cls-1" d="M696.73,332.09a40,40,0,0,0-3.11-11.77,21.8,21.8,0,0,0-14.35-12.57,39.26,39.26,0,0,0-11.15-1.4H646c-.39,0-.78,0-1.17,0-.76,0-1.2.23-1.16,1.07,0,.54,0,1.09,0,1.64v67.75c0,.63,0,1.26,0,1.89s.33,1,1,1h1.41c7.22,0,14.43,0,21.65,0a43.19,43.19,0,0,0,8.18-.71c7.91-1.56,13.74-5.81,17.26-13.13a35.57,35.57,0,0,0,2.7-8A78.88,78.88,0,0,0,696.73,332.09Zm-15.81,23.52c-.07.38-.15.77-.25,1.14-1.57,5.88-4.65,8.36-10.74,8.53-3.06.09-6.11.05-9.17.05-2.3,0-2.19.22-2.19-2.11v-20q0-10,0-20c0-2.09,0-2.13,2-2.11a101.49,101.49,0,0,1,11,.28,9.64,9.64,0,0,1,8.53,6.68,24.47,24.47,0,0,1,1.38,6.65A79.34,79.34,0,0,1,680.92,355.61Z"/><path class="cls-1" d="M763.65,331.54a40.12,40.12,0,0,0-3.6-13.08,21.74,21.74,0,0,0-14.48-12.1,39.4,39.4,0,0,0-17.94-.47c-8.38,1.65-14.08,6.48-17.24,14.37-.49,1.23-.92,2.49-1.3,3.77-1.78,6.08-2.06,12.34-2.24,18.47a97.78,97.78,0,0,0,.91,12.81A39.66,39.66,0,0,0,712,368.69a21.7,21.7,0,0,0,13.36,10.77,38.77,38.77,0,0,0,19.08.48,21.54,21.54,0,0,0,16-13.16,40.31,40.31,0,0,0,2.82-9.92A93.36,93.36,0,0,0,763.65,331.54Zm-15.91,25.78a18.38,18.38,0,0,1-1.3,3.76,8.63,8.63,0,0,1-6,4.91,20.1,20.1,0,0,1-9.78,0,8.75,8.75,0,0,1-6-5.14,20.7,20.7,0,0,1-1.74-6.56,85.91,85.91,0,0,1,.29-23.21,21.68,21.68,0,0,1,1.36-4.73,9.24,9.24,0,0,1,7.28-6,21.9,21.9,0,0,1,7.95.06,9.06,9.06,0,0,1,7,5.92,27.52,27.52,0,0,1,1.76,8.72c.15,2.73,0,5.48,0,8.22C748.76,348,748.83,352.7,747.74,357.32Z"/><path class="cls-1" d="M561.4,349.46A3.58,3.58,0,0,1,562,349c4.85-2,7.65-5.86,9.15-10.72a31.62,31.62,0,0,0,.58-15.58c-1.55-8-6.46-12.82-14.29-14.73a36.6,36.6,0,0,0-8.86-1c-7.29,0-14.59,0-21.89,0-3,0-2.62-.36-2.63,2.6q0,33.06,0,66.11c0,1,.06,2.05,0,3.06-.08,1.2.33,1.65,1.59,1.62,3.61-.07,7.22,0,10.82,0,2.42,0,2.48.39,2.47-2.37v-19.3c0-1.65,0-3.29,0-4.94,0-1.08.3-1.57,1.47-1.51,1.8.08,3.61,0,5.41,0,2.14,0,2.15,0,3,2.08,3.22,7.9,6.47,15.8,9.63,23.73a2.33,2.33,0,0,0,2.58,1.74c4.47-.1,8.94-.05,13.41-.07a1.52,1.52,0,0,0,1.49-.45Zm-5-14.17a6.16,6.16,0,0,1-5,4.68c-2.8.59-5.62.28-8.43.34-1.24,0-2.83.54-3.64-.23s-.31-2.53-.34-3.84c-.06-2,0-3.92,0-5.88,0-2.74,0-5.48,0-8.22,0-1.26.43-1.6,1.64-1.56,2.74.08,5.48,0,8.22,0a13.26,13.26,0,0,1,3,.44,6,6,0,0,1,4.66,4.48A18.58,18.58,0,0,1,556.42,335.29Z"/><path class="cls-1" d="M914.33,378.39c-.19-.6-.36-1.2-.55-1.8Q908.62,360,903.44,343.4,898,326,892.62,308.64c-.71-2.29-.71-2.29-3.23-2.29H883c-2.44,0-4.87,0-7.3,0-1,0-1.63.29-1.84,1.33a13.08,13.08,0,0,1-.41,1.35q-10.35,34-20.7,68.09a4.64,4.64,0,0,0-.45,2.58c4.69,0,9.31,0,13.94,0,1,0,1.3-.54,1.51-1.4.94-3.8,2-7.58,2.91-11.38a1.79,1.79,0,0,1,2.06-1.61q10,.1,20,0c1.36,0,1.93.4,2.24,1.7.85,3.58,1.82,7.13,2.75,10.69.53,2,.54,2,2.67,2h7.06c2,0,3.92,0,5.88,0C914.33,379.7,914.63,379.29,914.33,378.39Zm-39.69-26.87c-.4-.53,0-1,.13-1.51,2.33-9.66,5.06-19.22,7.13-28.94l.83,0c2.1,10.18,5.07,20.16,7.46,30.43Z"/><path class="cls-1" d="M631.42,366.41q-.25,6.1-.46,12.22c0,.67-.3,1-1,1l-1.65,0H588.81c-2,0-2,0-2-2.1q0-17.29,0-34.58V309.13c0-.55,0-1.1,0-1.64,0-.8.3-1.16,1.1-1.14.47,0,.94,0,1.41,0h38.11a7.35,7.35,0,0,0,.94,0c1.29-.16,1.58.5,1.56,1.66,0,3.61,0,7.21,0,10.82,0,1.75,0,1.77-1.84,1.78H603.79c-.54,0-1.09,0-1.64,0-.71,0-1,.32-1,1q0,6.12,0,12.23c0,.81.37,1.12,1.14,1.11h5.41c5.1,0,10.2,0,15.3,0,2,0,2,0,2,1.87,0,3.22,0,6.43,0,9.65,0,1.27-.45,1.58-1.63,1.57-6.43-.05-12.86,0-19.29,0a11,11,0,0,1-1.41,0c-1.32-.17-1.65.5-1.56,1.67.06.78,0,1.56,0,2.35,0,3.84,0,7.68,0,11.52,0,1.75,0,1.77,1.82,1.78h25.65c.55,0,1.1,0,1.65,0C631.06,365.29,631.46,365.57,631.42,366.41Z"/><path class="cls-1" d="M510.86,375.21a2,2,0,0,1-1.37,2.16c-8.88,4-18,4.78-27.19,1.45a22.16,22.16,0,0,1-11.8-10.29,39,39,0,0,1-4.61-14.45,80.07,80.07,0,0,1,.37-25.29,37.65,37.65,0,0,1,3.18-9.79,24.11,24.11,0,0,1,17.06-13.51,39.79,39.79,0,0,1,21.55,1.1c2.23.73,2.22.79,2.22,3.13V322.3a58.15,58.15,0,0,0-9.25-2,32.87,32.87,0,0,0-9.6.15,11.31,11.31,0,0,0-9.12,7.86,35.05,35.05,0,0,0-1.69,10.16,62.8,62.8,0,0,0,1.13,17.3,13.71,13.71,0,0,0,.39,1.35c1.78,5.48,5.25,8.15,11,8.64a32.9,32.9,0,0,0,14.73-2.21l2.73-1a3.69,3.69,0,0,1,.21,1.86C510.84,368,510.79,371.61,510.86,375.21Z"/><path class="cls-1" d="M1047.11,375.4c0,1.22-.63,1.64-1.53,2.05a36.46,36.46,0,0,1-12.65,3.32,35.08,35.08,0,0,1-10.75-.83,23.16,23.16,0,0,1-15.73-12,41.28,41.28,0,0,1-4.45-15,79.76,79.76,0,0,1,.36-23.19,39.45,39.45,0,0,1,3-10.09,24.24,24.24,0,0,1,17.6-14.19,40,40,0,0,1,21.33,1.14c2.24.73,2.23.79,2.23,3.11,0,4.07,0,8.15,0,12.58a66.83,66.83,0,0,0-9.17-1.94,32,32,0,0,0-10.06.21,11.09,11.09,0,0,0-8.46,7.05,23.34,23.34,0,0,0-1.63,6.83c-.63,7-.78,13.93.64,20.84a20.41,20.41,0,0,0,.54,2c1.65,5.24,5.32,7.92,10.7,8.45a32.78,32.78,0,0,0,15.2-2.23,6.54,6.54,0,0,1,2.76-.85C1047.08,366.94,1047,371.17,1047.11,375.4Z"/><path class="cls-1" d="M961.13,321.18h-12.7c-.55,0-1.1,0-1.65,0-1.74,0-1.77,0-1.78,1.87q0,10.47,0,20.93v32.91c0,.55,0,1.1,0,1.65,0,.79-.32,1.14-1.1,1.14-4.16,0-8.31,0-12.47,0-.87,0-1.32-.32-1.28-1.23,0-.55,0-1.1,0-1.65V324.13a13.26,13.26,0,0,1,0-1.41c.12-1.27-.49-1.58-1.67-1.57-4.62.06-9.25,0-13.87,0-2.06,0-2,0-2-2.07.13-3.52.24-7.05.37-10.57.07-2.16.08-2.18,2.24-2.18h40.68c1.65,0,3.3,0,4.94,0,.78,0,1.13.28,1.15,1.08q.19,6.34.46,12.69C962.53,321.19,961.87,321.18,961.13,321.18Z"/><path class="cls-1" d="M988.64,331.54v45.37c0,.54,0,1.09,0,1.64,0,.79-.32,1.15-1.1,1.15q-6.35,0-12.7,0c-.75,0-1.18-.28-1.14-1.1,0-.55,0-1.09,0-1.64q0-34,0-67.93c0-2.85-.4-2.64,2.64-2.65q5.16,0,10.34,0c1.93,0,2,0,2,1.92Q988.66,319.91,988.64,331.54Z"/><path class="cls-1" d="M882.73,321.09l-.83,0A.5.5,0,0,1,882.73,321.09Z"/><path class="cls-1" d="M882.73,321.09l-.83,0a3,3,0,0,1,0-.67c0-.2.17-.52.28-.54.35,0,.52.25.58.56A3,3,0,0,1,882.73,321.09Z"/></g></g></svg>