<svg xmlns="http://www.w3.org/2000/svg" viewBox="0 0 2071.5 419.05"><defs><style>.cls-1{fill:#e1e1e1;}</style></defs><g id="Camada_2" data-name="Camada 2"><g id="Camada_1-2" data-name="Camada 1"><path class="cls-1" d="M356.33,149.21c-6.27-34.85-20.93-65.74-46.19-91.08C280,27.88,242.62,12.26,201,5.48,170.69.53,140.13-.39,109.45.13,74.29.71,39.28,2.72,4.5,8.21.27,8.88,0,10.63,0,14q.11,97.31.05,194.6V402.21c0,1.15.08,2.33,0,3.48-.17,2.11.71,2.9,2.82,3.1,5.3.48,10.57,1.38,15.87,1.82,41.84,3.52,83.72,5.47,125.7,2.25,30-2.29,59.34-7.52,87.84-17.31,53.52-18.36,91.52-53.29,112.09-106.11C362.05,244,364.93,196.94,356.33,149.21ZM252.39,265.48c-15,41.15-45.91,64.38-88.23,73.32-16,3.39-32.34,4-50.93,3.79-3.91-.23-10-.65-16.21-.94-3.81-.19-5.16-1.71-5.12-5.85.26-21.61.12-43.25.12-64.86,0-63.21.08-126.42-.13-189.64,0-5.48,1.26-7.71,7-8.44C127.54,69.29,156,69.11,184,77.4c36.18,10.71,60.86,33.88,71.73,70C267.58,186.94,266.52,226.73,252.39,265.48Z"/><path class="cls-1" d="M676.59,405c.2,3.71-.42,5.22-4.68,5.18q-35.22-.33-70.44,0c-3.58,0-4.94-.91-5.25-4.54-1-11.08-2.21-22.14-3.4-33.21-.13-1.21.57-3-1.09-3.48s-2.14,1.29-2.84,2.3c-17.22,24.6-40.77,39.45-70.34,43.89-31,4.67-60.58,1-85.89-19.56-17.76-14.46-27.2-34.06-32.79-55.77-4.33-16.83-5.86-34-5.88-51.36-.07-56.21,0-112.43-.12-168.64,0-4.11,1-5.34,5.25-5.32q41,.28,81.94,0c4,0,5,1.14,4.95,5q-.19,76.08-.07,152.16c0,12.84.86,25.59,4.66,38,5.08,16.52,14.48,29,32.54,32,19.91,3.38,36.51-2.83,48.8-19.12A47.69,47.69,0,0,0,582,293.36q.07-73.1.12-146.19c0-9.48.12-18.95-.06-28.43-.07-3.32,1.1-4.23,4.32-4.22,27.82.09,55.63.15,83.44,0,4.34,0,4.33,2.07,4.33,5.21q-.09,69.6,0,139.19h.69c0,34.6-.16,69.19.08,103.77C675,376.78,675.84,390.9,676.59,405Z"/><path class="cls-1" d="M1013.53,223.05c-11.08-50.21-39.29-86.58-88.1-104.63-42.79-15.81-86-14.06-128.3,2.61-38.14,15-64.36,42.45-78.46,80.91-12.45,34-14.12,68.9-5.93,104,10.25,43.95,35.4,76.76,76.73,95.62C833,421.44,877.82,422.07,922.65,406c34.68-12.41,60.77-35.22,77.49-68.18,11.49-22.65,16.33-47,17-72.19C1017.48,251.33,1016.62,237.07,1013.53,223.05ZM921.6,262.71c-.22,17.55-2.25,34.83-9.13,51.15-6.61,15.72-16.49,28.5-33.29,34.41-21.48,7.53-44.76.07-58.58-18.62-9.66-13-14.39-28-16.53-43.82-3.19-23.49-2.31-46.79,5.65-69.39,6-17,15.4-31.37,32.91-38.61,22.62-9.36,46.92-2.37,61.15,17.53,10.56,14.77,14.82,31.75,16.84,49.44A112.72,112.72,0,0,1,921.6,262.71Z"/><path class="cls-1" d="M1287.59,123.67c-4.37,19.77-8.66,39.58-12.58,59.44-.9,4.52-2.48,4.1-5.92,2.92-21.83-7.52-44.25-9.65-66.86-4.9-31,6.5-53,30.56-57.65,62-2.66,18-2.13,35.86,4.52,53,10.77,27.86,31.74,43.27,60.83,47.55a126.13,126.13,0,0,0,63.32-7.07c3.11-1.15,3.85-.6,4.35,2.63,3.08,19.85,6.35,39.67,9.69,59.48.53,3.17-.27,4.78-3.36,6-15.66,6-32,8.94-48.58,10.57-26.14,2.6-52.19,2.38-77.88-4-60.66-15.13-99.55-59.33-107.09-121.36-4.21-34.64-.44-68.08,15.58-99.39,20.93-40.94,55.27-65,99.21-76.21a203.28,203.28,0,0,1,52.4-6.17c22.77.06,45.09,2.94,66.84,9.94C1287.69,119.17,1288.31,120.4,1287.59,123.67Z"/><path class="cls-1" d="M1686.05,264.13c-.62,29.64-7,58.29-21.33,84.71-16.39,30.29-41.28,50.56-74,60.75a201.83,201.83,0,0,1-116.16,1.79c-42.46-11.83-69.8-40.08-84.31-81.25-9.8-27.81-12.52-56.67-12.58-85.87-.11-68,0-136-.13-204.07,0-4.18,1.17-5.2,5.25-5.17q38,.28,75.94,0c4.06,0,4.83,1.18,4.82,5-.14,38.75-.08,77.5-.08,116.25,0,31.42-.07,62.86,0,94.3.06,20.7,1.74,41.19,9.87,60.58,18.06,43,76.73,53.63,106.84,19.27,10.29-11.73,15.13-26,18.08-41,2.58-13.1,3.17-26.37,3.16-39.69,0-69.69,0-139.37-.14-209.06,0-4.69,1.32-5.67,5.76-5.64,25.15.21,50.3.16,75.45,0,3.13,0,4.26.68,4.24,4.06C1686.4,114.13,1687.65,189.13,1686.05,264.13Z"/><path class="cls-1" d="M2026.31,56.21c-4.85,18.94-9.68,37.88-14.6,57.13a188.91,188.91,0,0,0-41-11.46C1945.26,98,1920,98,1895.23,106.25c-34.85,11.55-58,35-68.88,69.86a155.86,155.86,0,0,0-.82,92.88c12.79,42.72,42.24,67.73,85.85,75.78,32.26,6,64,2,95-7.85,4-1.27,5.55-1.38,6.4,3.38,3.46,19.28,7.29,38.5,11.18,57.7.71,3.48-.81,4.63-3.6,5.76-17.74,7.12-36.34,10.62-55.21,12.76-28.09,3.19-56.18,3.13-84.1-1.79-47.86-8.43-88.39-29.41-117.38-69.56-16.85-23.34-26.67-49.66-31-77.92-5.74-37-4-73.68,7.94-109.37,18.09-54.19,54.21-92,107.31-112.69,56-21.81,113.09-21.5,170.24-4C2029.32,44.59,2029.17,45.07,2026.31,56.21Z"/><path class="cls-1" d="M356.33,149.21c-6.27-34.85-20.93-65.74-46.19-91.08C280,27.88,242.62,12.26,201,5.48,170.69.53,140.13-.39,109.45.13,74.29.71,39.28,2.72,4.5,8.21.27,8.88,0,10.63,0,14q.11,97.31.05,194.6V402.21c0,1.15.08,2.33,0,3.48-.17,2.11.71,2.9,2.82,3.1,5.3.48,10.57,1.38,15.87,1.82,41.84,3.52,83.72,5.47,125.7,2.25,30-2.29,59.34-7.52,87.84-17.31,53.52-18.36,91.52-53.29,112.09-106.11C362.05,244,364.93,196.94,356.33,149.21ZM252.39,265.48c-15,41.15-45.91,64.38-88.23,73.32-16,3.39-32.34,4-50.93,3.79-3.91-.23-10-.65-16.21-.94-3.81-.19-5.16-1.71-5.12-5.85.26-21.61.12-43.25.12-64.86,0-63.21.08-126.42-.13-189.64,0-5.48,1.26-7.71,7-8.44C127.54,69.29,156,69.11,184,77.4c36.18,10.71,60.86,33.88,71.73,70C267.58,186.94,266.52,226.73,252.39,265.48Z"/><path class="cls-1" d="M1686.05,264.13c-.62,29.64-7,58.29-21.33,84.71-16.39,30.29-41.28,50.56-74,60.75a201.83,201.83,0,0,1-116.16,1.79c-42.46-11.83-69.8-40.08-84.31-81.25-9.8-27.81-12.52-56.67-12.58-85.87-.11-68,0-136-.13-204.07,0-4.18,1.17-5.2,5.25-5.17q38,.28,75.94,0c4.06,0,4.83,1.18,4.82,5-.14,38.75-.08,77.5-.08,116.25,0,31.42-.07,62.86,0,94.3.06,20.7,1.74,41.19,9.87,60.58,18.06,43,76.73,53.63,106.84,19.27,10.29-11.73,15.13-26,18.08-41,2.58-13.1,3.17-26.37,3.16-39.69,0-69.69,0-139.37-.14-209.06,0-4.69,1.32-5.67,5.76-5.64,25.15.21,50.3.16,75.45,0,3.13,0,4.26.68,4.24,4.06C1686.4,114.13,1687.65,189.13,1686.05,264.13Z"/><path class="cls-1" d="M1013.53,223.05c-11.08-50.21-39.29-86.58-88.1-104.63-42.79-15.81-86-14.06-128.3,2.61-38.14,15-64.36,42.45-78.46,80.91-12.45,34-14.12,68.9-5.93,104,10.25,43.95,35.4,76.76,76.73,95.62C833,421.44,877.82,422.07,922.65,406c34.68-12.41,60.77-35.22,77.49-68.18,11.49-22.65,16.33-47,17-72.19C1017.48,251.33,1016.62,237.07,1013.53,223.05ZM921.6,262.71c-.22,17.55-2.25,34.83-9.13,51.15-6.61,15.72-16.49,28.5-33.29,34.41-21.48,7.53-44.76.07-58.58-18.62-9.66-13-14.39-28-16.53-43.82-3.19-23.49-2.31-46.79,5.65-69.39,6-17,15.4-31.37,32.91-38.61,22.62-9.36,46.92-2.37,61.15,17.53,10.56,14.77,14.82,31.75,16.84,49.44A112.72,112.72,0,0,1,921.6,262.71Z"/><path class="cls-1" d="M671.91,410.19q-35.22-.33-70.44,0c-3.58,0-4.94-.91-5.25-4.54-1-11.08-2.21-22.14-3.4-33.21-.13-1.21.57-3-1.09-3.48s-2.14,1.29-2.84,2.3c-17.22,24.6-40.77,39.45-70.34,43.89-31,4.67-60.58,1-85.89-19.56-17.76-14.46-27.2-34.06-32.79-55.77-4.33-16.83-5.86-34-5.88-51.36-.07-56.21,0-112.43-.12-168.64,0-4.11,1-5.34,5.25-5.32q41,.28,81.94,0c4,0,5,1.14,4.95,5q-.19,76.08-.07,152.16c0,12.84.86,25.59,4.66,38,5.08,16.52,14.48,29,32.54,32,19.91,3.38,36.51-2.83,48.8-19.12A47.69,47.69,0,0,0,582,293.36q.07-73.1.12-146.19c0-9.48.12-18.95-.06-28.43-.07-3.32,1.1-4.23,4.32-4.22,27.82.09,55.63.15,83.44,0,4.34,0,4.33,2.07,4.33,5.21q-.09,69.6,0,139.19h.69c0,34.6-.16,69.19.08,103.77.1,14.13,1,28.25,1.71,42.36C676.79,408.72,676.17,410.23,671.91,410.19Z"/><path class="cls-1" d="M1826.35,176.11a155.86,155.86,0,0,0-.82,92.88c12.79,42.72,42.24,67.73,85.85,75.78,32.26,6,64,2,95-7.85,4-1.27,5.55-1.38,6.4,3.38,3.46,19.28,7.29,38.5,11.18,57.7.71,3.48-.81,4.63-3.6,5.76-17.74,7.12-36.34,10.62-55.21,12.76-28.09,3.19-56.18,3.13-84.1-1.79-47.86-8.43-88.39-29.41-117.38-69.56-16.85-23.34-26.67-49.66-31-77.92-5.74-37-4-73.68,7.94-109.37,18.09-54.19,54.21-92,107.31-112.69,56-21.81,113.09-21.5,170.24-4,11.19,3.42,11,3.9,8.18,15-4.85,18.94-9.68,37.88-14.6,57.13a188.91,188.91,0,0,0-41-11.46C1945.26,98,1920,98,1895.23,106.25,1860.38,117.8,1837.28,141.28,1826.35,176.11Z"/><path class="cls-1" d="M1144.58,243.17c-2.66,18-2.13,35.86,4.52,53,10.77,27.86,31.74,43.27,60.83,47.55a126.13,126.13,0,0,0,63.32-7.07c3.11-1.15,3.85-.6,4.35,2.63,3.08,19.85,6.35,39.67,9.69,59.48.53,3.17-.27,4.78-3.36,6-15.66,6-32,8.94-48.58,10.57-26.14,2.6-52.19,2.38-77.88-4-60.66-15.13-99.55-59.33-107.09-121.36-4.21-34.64-.44-68.08,15.58-99.39,20.93-40.94,55.27-65,99.21-76.21a203.28,203.28,0,0,1,52.4-6.17c22.77.06,45.09,2.94,66.84,9.94,3.28,1.06,3.9,2.29,3.18,5.56-4.37,19.77-8.66,39.58-12.58,59.44-.9,4.52-2.48,4.1-5.92,2.92-21.83-7.52-44.25-9.65-66.86-4.9C1171.25,187.63,1149.22,211.69,1144.58,243.17Z"/><path class="cls-1" d="M2071.27,197.19a2,2,0,0,1,.23.3l-.27.1a4.7,4.7,0,0,1-.72.2c-2.43-.53-2.09-2.16-1.5-3.87C2069.11,195.47,2069.1,197.09,2071.27,197.19Z"/></g></g></svg>