<svg xmlns="http://www.w3.org/2000/svg" viewBox="0 0 1108.58 270.13"><defs><style>.cls-1{fill:#e1e1e1;}</style></defs><g id="Camada_2" data-name="Camada 2"><g id="Camada_1-2" data-name="Camada 1"><path class="cls-1" d="M238.84,91.89c3.87,18,4.3,36.2,3.4,54.48-.22,4.38-4,8.22-8.75,9.09a23.71,23.71,0,0,1-4.13.31q-70.4,0-140.78,0a129.07,129.07,0,0,0-17.14.63c-1.81.24-2.23,1-2.34,2.6C68,175.71,74,189.48,86.59,200.37c9.53,8.26,21,12.26,33.36,13.36,14.26,1.26,28.41.67,42-4.56a74.88,74.88,0,0,0,15.95-8.78c3.25-2.28,6.47-4.59,9.76-6.81,4-2.67,6.39-2.44,9.78.79,9.88,9.43,20.4,18.18,30,27.95,3.5,3.57,3.58,6,.19,9.71a21.32,21.32,0,0,1-3.09,2.76c-22.08,16.12-46.08,28-73.15,33.22-13.83,2.67-27.76,2.44-41.67,1.33a138.15,138.15,0,0,1-43.13-10.27c-28.39-12-46.91-33.09-57.13-61.82C4.34,182.92,1.78,168.08.62,153c-.07-.83.44-1.87-.62-2.48,1.58.28,1.22,1.62,1.33,2.6.8,7,1.43,14.12,2.77,21.09,3.6,18.77,9.83,36.48,21.34,52C37.74,242.8,54,254,73.39,260.84a153,153,0,0,0,39.24,7.94c20.62,1.61,40.74-.3,60.29-7.27a190.06,190.06,0,0,0,52.37-28.37,11.53,11.53,0,0,0,2.38-2.3c2.11-2.85,2-5.05-.45-7.63-6.79-7.05-14.13-13.52-21.43-20-3.11-2.76-5.89-5.85-9.16-8.43-3-2.37-5-2.68-8.28-.64s-6.28,4.22-9.34,6.45a73.8,73.8,0,0,1-44,14.3c-8,.06-16.07.16-24-1.77-14.34-3.5-26.35-10.52-34.65-23a48.18,48.18,0,0,1-8.31-26.58c-.06-7.77.42-8.22,7.85-8.23q75.47-.1,150.94,0a26.28,26.28,0,0,0,7.4-.89,9.3,9.3,0,0,0,7.2-9.31c.17-5.43.77-10.84.56-16.28-.75-20.36-2.91-40.44-11-59.46-9.34-22.06-23.82-39.78-44.51-52.11C172,8.57,156.12,4,139.47,1.87c-1.47-.19-2.93-.42-4.39-.66-.67-.1-1.55-.14-1.5-1.21,3.16,1.32,6.59,1.07,9.89,1.6C168.68,5.6,191,15.34,208.94,34,224.67,50.33,234.11,69.92,238.84,91.89Z"/><path class="cls-1" d="M358,104.19a180.78,180.78,0,0,1,3.21,33.24c-.46,36.86-10.61,70.43-33.91,99.54a125.58,125.58,0,0,1-19.88,20c-6.22,4.94-12.32,4.76-18.17-.53-7.33-6.62-14.68-13.21-22-19.85-4.63-4.22-4.6-8.72,0-13,21.29-19.75,34.62-44,37.79-72.75,4.13-37.5-6-70.6-34.21-97l-.61-.56c-6.27-5.86-6.52-8.38-.39-14.28q10.46-10.08,21.54-19.5c6.25-5.34,12.44-5.07,18.67.32C336.09,42.24,351.36,70.79,358,104.19Z"/><path class="cls-1" d="M603,112.22c-4.93-21.21-16-37.86-36-47.71-14.59-7.2-30.17-9-46.13-7C492.69,61,473.06,76,463.57,102.84c-8.41,23.86-8,48.19-.7,72.26,5.06,16.78,15.25,29.77,31.23,37.62,16.94,8.33,35,10.27,53.44,7.68,16.58-2.33,31.26-9.57,44.92-19a17.74,17.74,0,0,0,4.15-3.63c1.37-1.81,1.66-3.33-.18-5.28-4.95-5.25-10.44-9.91-15.77-14.73s-5.75-5.31-11.58-.86c-11.3,8.62-24,11.11-37.82,10.13-17.27-1.23-29.45-12.35-31.53-29-.69-5.44.14-6.42,5.59-6.43q23,0,46,0v0h46.55c4.89,0,7-1.86,7.26-6.67C605.73,134,605.54,123,603,112.22Zm-41.76,12c-10-.09-19.94,0-29.91,0v-.05H501.46c-1,0-2.34.37-2.07-1.54,1.08-7.91,2.57-15.7,8.13-21.9,8.8-9.82,20-11.86,32.33-9.28,12,2.51,18.78,10.56,22.14,21.9a70.57,70.57,0,0,1,1.57,8.4C563.88,123.61,563.29,124.21,561.28,124.19Z"/><path class="cls-1" d="M763.6,127.74q0,42,0,84.08c0,5.64-1.73,7.36-7.33,7.5-9.69.24-19.39.21-29.08,0-4.61-.11-6.11-1.59-6.12-6.18q0-42.87-.09-85.74a50.69,50.69,0,0,0-2.24-16.09c-4.22-12.72-13.35-19-27.63-18-16.72,1.19-26,11.67-26,28.41q0,45.23,0,90.44c0,5.22-1.69,7-6.79,7.15-10,.31-19.95.19-29.92,0-3.8-.07-5.71-1.87-5.93-5.72-.07-1.29,0-2.58,0-3.87q0-35.41,0-70.81h0V65.61c0-4.62,2.11-6.9,6.65-6.93,8.68-.08,17.37-.08,26-.08a17.36,17.36,0,0,1,3.3.26c4.65.9,5.18,1.57,5.36,6.28a19.36,19.36,0,0,0,.21,2.75c.66,3.78,1.76,4.22,4.78,2.06,12.86-9.19,26.95-14.12,43-13,27.86,1.88,47.89,20.84,50.92,48.47A203.46,203.46,0,0,1,763.6,127.74Z"/><path class="cls-1" d="M858.47,69.61c.08,7.74.08,15.49,0,23.23,0,3.71-2.26,5.91-5.93,6.27-6.26.6-12.55-.39-18.82.41-3.69.47-5.18,1.72-5.18,5.46q0,31.68.1,63.34a23.34,23.34,0,0,0,1.53,7.84c2.08,5.71,6.47,9,12.52,9.16,3.14.09,6.28,0,9.42.07,4,.12,6.2,2.3,6.25,6.23q.15,10.92,0,21.85c0,3.9-2,5.7-5.8,5.78-9.32.2-18.65.86-27.93-.59-19.33-3-31.68-15.74-34.36-35.13a116.53,116.53,0,0,1-.65-15.73c-.05-19.64,0-39.28,0-58.92h-.09q0-33.88,0-67.77c0-1.19,0-2.4.12-3.59.41-4.13,1.81-5.37,6-5.61,8.68-.5,17.36-.25,26-.14,4.74.07,6.22,1.66,6.49,6.31.43,7.65.09,15.3.07,23,0,2.34.87,2.63,2.86,2.61,7.11-.09,14.22,0,21.34,0C856.53,63.68,858.42,65.53,858.47,69.61Z"/><path class="cls-1" d="M1019.27,111.08c-5-20.09-15.64-36-34.37-45.81-15.06-7.86-31.21-9.8-47.89-7.74-25.9,3.21-44.79,16.39-55.12,40.48-10,23.42-9.79,47.75-4.06,72.12,3.64,15.44,11.5,28.47,24.71,37.79,12.69,9,27.18,12.49,42.44,13.3,26,1.39,48.49-7.38,68.36-23.7,1.78-1.46,1.86-2.33.38-4-4.7-5.37-10.25-9.84-15.42-14.7-7.65-7.19-5.8-6.94-13.75-1.22-11,7.94-23.13,10.38-36.36,9.48-18.57-1.25-31-13.32-32.49-31.78-.18-2.14.48-2.92,2.53-3.16a69.5,69.5,0,0,1,8.28-.56q21.06,0,42.12,0v0h15.79c10.16,0,20.32,0,30.48,0,3.81,0,6.49-2.1,6.58-5.29C1021.81,134.48,1022.16,122.68,1019.27,111.08Zm-45.48,13H948c-10,0-19.94,0-29.91,0-1.91,0-2.5-.32-2.21-2.44.76-5.5,1.84-10.88,4.5-15.82,5.79-10.77,18.2-17,30.72-15.43q24,3,28.22,27.18C980.49,124.1,980.49,124.1,973.79,124.1Z"/><path class="cls-1" d="M1108.47,213.8c-.07,3.6-2,5.2-5.58,5.3-8.4.22-16.77.81-25.19.08-26.6-2.3-37.55-20.17-39-40.62,0-.73-.06-1.47-.06-2.21q0-33.89,0-67.76h0q0-33.47,0-66.93c0-1.29,0-2.58.05-3.87.2-4.26,1.46-5.43,5.71-5.77,9-.72,18.09-.34,27.14-.15,3.59.07,5.62,2.07,5.81,5.63.06,1.2,0,2.4,0,3.6q0,59.59,0,119.2a71.48,71.48,0,0,0,.76,12.4c1.5,8.42,6.55,12.68,15.08,12.68,3.32,0,6.66-.45,10,.21,4,.8,5.33,2.11,5.41,6.09C1108.62,199.05,1108.61,206.43,1108.47,213.8Z"/><path class="cls-1" d="M238.84,91.89c-4.73-22-14.17-41.56-29.9-57.91C191,15.34,168.68,5.6,143.47,1.6c-3.3-.53-6.73-.28-9.89-1.6h-1.11a5.74,5.74,0,0,1-3.88,0h-1.11a11.29,11.29,0,0,1-5.54,0h-3.33a9.56,9.56,0,0,1-5,0H110.3c-2.79.57-5.66.37-8.47.71A115.69,115.69,0,0,0,61.53,13,105.87,105.87,0,0,0,26.76,42.06C12.51,60.44,5.09,81.7,1.49,104.45.64,109.81.7,115.24,0,120.6v5.53a11.06,11.06,0,0,1,0,5.54v4.42c.59,1.59.15,3.24.29,4.85a.76.76,0,0,0,0,.15,1,1,0,0,0,0,.17c-.05,1.05.28,2.12-.27,3.13v6.09c1.06.61.55,1.65.62,2.48,1.16,15.12,3.72,30,8.82,44.29C19.66,226,38.18,247.06,66.57,259.07a138.15,138.15,0,0,0,43.13,10.27c13.91,1.11,27.84,1.34,41.67-1.33,27.07-5.21,51.07-17.1,73.15-33.22a21.32,21.32,0,0,0,3.09-2.76c3.39-3.68,3.31-6.14-.19-9.71-9.57-9.77-20.09-18.52-30-27.95-3.39-3.23-5.81-3.46-9.78-.79-3.29,2.22-6.51,4.53-9.76,6.81A74.88,74.88,0,0,1,162,209.17c-13.6,5.23-27.75,5.82-42,4.56-12.4-1.1-23.83-5.1-33.36-13.36C74,189.48,68,175.71,69.1,159c.11-1.61.53-2.36,2.34-2.6a129.07,129.07,0,0,1,17.14-.63q70.39,0,140.78,0a23.71,23.71,0,0,0,4.13-.31c4.76-.87,8.53-4.71,8.75-9.09C243.14,128.09,242.71,109.86,238.84,91.89ZM126.45,55.08c13,1,24.46,6,33.45,15.78,7.62,8.31,11.19,18.47,13,29.36.39,2.36.59,4.75,1,7.11s0,3.18-2.69,3.16c-16.62-.15-33.24-.08-49.85-.08s-33.24-.06-49.86.07c-2.55,0-3.07-.69-2.86-3.1,1.09-12.91,4.15-25.17,12.8-35.21C93.28,58.46,108.86,53.71,126.45,55.08Z"/><path class="cls-1" d="M110.3,0c-3.16,1.33-6.59,1.1-9.89,1.55-31.2,4.34-56.64,18.52-75.33,44-11.52,15.7-18,33.62-21.72,52.59A191.1,191.1,0,0,0,.58,118.93c0,.59.25,1.34-.58,1.67.7-5.36.64-10.79,1.49-16.15,3.6-22.75,11-44,25.27-62.39A105.87,105.87,0,0,1,61.53,13,115.69,115.69,0,0,1,101.83.71C104.64.37,107.51.57,110.3,0Z"/><path class="cls-1" d="M127.48,0a6.24,6.24,0,0,1-5.54,0Z"/><path class="cls-1" d="M0,126.14a6.18,6.18,0,0,1,0,5.53Z"/><path class="cls-1" d="M118.61,0a5.05,5.05,0,0,1-5,0Z"/><path class="cls-1" d="M0,136.1c1.09,1.57.35,3.33.53,5-.19.24-.36.21-.53,0Z"/><path class="cls-1" d="M132.47,0c-1.29,1-2.59.74-3.88,0Z"/><path class="cls-1" d="M0,141.08l.53,0c-.19,1.1.55,2.34-.53,3.29Z"/><path class="cls-1" d="M763.59,211.82c0,5.64-1.73,7.36-7.33,7.5-9.69.24-19.39.21-29.08,0-4.61-.11-6.11-1.59-6.12-6.18q0-42.87-.09-85.74a50.69,50.69,0,0,0-2.24-16.09c-4.22-12.72-13.35-19-27.63-18-16.72,1.19-26,11.67-26,28.41q0,45.23,0,90.44c0,5.22-1.69,7-6.79,7.15-10,.31-19.95.19-29.92,0-3.8-.07-5.71-1.87-5.93-5.72-.07-1.29,0-2.58,0-3.87q0-35.41,0-70.81h0V65.61c0-4.62,2.11-6.9,6.65-6.93,8.68-.08,17.37-.08,26-.08a17.36,17.36,0,0,1,3.3.26c4.65.9,5.18,1.57,5.36,6.28a19.36,19.36,0,0,0,.21,2.75c.66,3.78,1.76,4.22,4.78,2.06,12.86-9.19,26.95-14.12,43-13,27.86,1.88,47.89,20.84,50.92,48.47a203.46,203.46,0,0,1,.85,22.36Q763.56,169.79,763.59,211.82Z"/><path class="cls-1" d="M603,112.22c-4.93-21.21-16-37.86-36-47.71-14.59-7.2-30.17-9-46.13-7C492.69,61,473.06,76,463.57,102.84c-8.41,23.86-8,48.19-.7,72.26,5.06,16.78,15.25,29.77,31.23,37.62,16.94,8.33,35,10.27,53.44,7.68,16.58-2.33,31.26-9.57,44.92-19a17.74,17.74,0,0,0,4.15-3.63c1.37-1.81,1.66-3.33-.18-5.28-4.95-5.25-10.44-9.91-15.77-14.73s-5.75-5.31-11.58-.86c-11.3,8.62-24,11.11-37.82,10.13-17.27-1.23-29.45-12.35-31.53-29-.69-5.44.14-6.42,5.59-6.43q23,0,46,0v0h46.55c4.89,0,7-1.86,7.26-6.67C605.73,134,605.54,123,603,112.22Zm-41.76,12c-10-.09-19.94,0-29.91,0v-.05H501.46c-1,0-2.34.37-2.07-1.54,1.08-7.91,2.57-15.7,8.13-21.9,8.8-9.82,20-11.86,32.33-9.28,12,2.51,18.78,10.56,22.14,21.9a70.57,70.57,0,0,1,1.57,8.4C563.88,123.61,563.29,124.21,561.28,124.19Z"/><path class="cls-1" d="M1019.27,111.08c-5-20.09-15.64-36-34.37-45.81-15.06-7.86-31.21-9.8-47.89-7.74-25.9,3.21-44.79,16.39-55.12,40.48-10,23.42-9.79,47.75-4.06,72.12,3.64,15.44,11.5,28.47,24.71,37.79,12.69,9,27.18,12.49,42.44,13.3,26,1.39,48.49-7.38,68.36-23.7,1.78-1.46,1.86-2.33.38-4-4.7-5.37-10.25-9.84-15.42-14.7-7.65-7.19-5.8-6.94-13.75-1.22-11,7.94-23.13,10.38-36.36,9.48-18.57-1.25-31-13.32-32.49-31.78-.18-2.14.48-2.92,2.53-3.16a69.5,69.5,0,0,1,8.28-.56q21.06,0,42.12,0v0h15.79c10.16,0,20.32,0,30.48,0,3.81,0,6.49-2.1,6.58-5.29C1021.81,134.48,1022.16,122.68,1019.27,111.08Zm-45.48,13H948c-10,0-19.94,0-29.91,0-1.91,0-2.5-.32-2.21-2.44.76-5.5,1.84-10.88,4.5-15.82,5.79-10.77,18.2-17,30.72-15.43q24,3,28.22,27.18C980.49,124.1,980.49,124.1,973.79,124.1Z"/><path class="cls-1" d="M361.25,137.43c-.46,36.86-10.61,70.43-33.91,99.54a125.58,125.58,0,0,1-19.88,20c-6.22,4.94-12.32,4.76-18.17-.53-7.33-6.62-14.68-13.21-22-19.85-4.63-4.22-4.6-8.72,0-13,21.29-19.75,34.62-44,37.79-72.75,4.13-37.5-6-70.6-34.21-97l-.61-.56c-6.27-5.86-6.52-8.38-.39-14.28q10.46-10.08,21.54-19.5c6.25-5.34,12.44-5.07,18.67.32,26,22.47,41.26,51,47.94,84.42A180.78,180.78,0,0,1,361.25,137.43Z"/><path class="cls-1" d="M828.58,105q0,31.68.1,63.34a23.34,23.34,0,0,0,1.53,7.84c2.08,5.71,6.47,9,12.52,9.16,3.14.09,6.28,0,9.42.07,4,.12,6.2,2.3,6.25,6.23q.15,10.92,0,21.85c0,3.9-2,5.7-5.8,5.78-9.32.2-18.65.86-27.93-.59-19.33-3-31.68-15.74-34.36-35.13a116.53,116.53,0,0,1-.65-15.73c-.05-19.64,0-39.28,0-58.92h-.09q0-33.88,0-67.77c0-1.19,0-2.4.12-3.59.41-4.13,1.81-5.37,6-5.61,8.68-.5,17.36-.25,26-.14,4.74.07,6.22,1.66,6.49,6.31.43,7.65.09,15.3.07,23,0,2.34.87,2.63,2.86,2.61,7.11-.09,14.22,0,21.34,0,4,0,5.91,1.87,6,6,.08,7.74.08,15.49,0,23.23,0,3.71-2.26,5.91-5.93,6.27-6.26.6-12.55-.39-18.82.41C830.07,100,828.58,101.24,828.58,105Z"/><path class="cls-1" d="M1108.47,213.8c-.07,3.6-2,5.2-5.58,5.3-8.4.22-16.77.81-25.19.08-26.6-2.3-37.55-20.17-39-40.62,0-.73-.06-1.47-.06-2.21q0-33.89,0-67.76h0q0-33.47,0-66.93c0-1.29,0-2.58.05-3.87.2-4.26,1.46-5.43,5.71-5.77,9-.72,18.09-.34,27.14-.15,3.59.07,5.62,2.07,5.81,5.63.06,1.2,0,2.4,0,3.6q0,59.59,0,119.2a71.48,71.48,0,0,0,.76,12.4c1.5,8.42,6.55,12.68,15.08,12.68,3.32,0,6.66-.45,10,.21,4,.8,5.33,2.11,5.41,6.09C1108.62,199.05,1108.61,206.43,1108.47,213.8Z"/></g></g></svg>