<svg xmlns="http://www.w3.org/2000/svg" viewBox="0 0 2630.72 515.8"><defs><style>.cls-1{fill:#e1e1e1;}</style></defs><g id="Camada_2" data-name="Camada 2"><g id="Camada_1-2" data-name="Camada 1"><rect class="cls-1" y="5.6" width="127.55" height="234.53"/><rect class="cls-1" x="374.42" y="5.6" width="127.55" height="234.53"/><rect class="cls-1" y="297.73" width="127.55" height="218.07"/><rect class="cls-1" x="374.42" y="297.73" width="127.55" height="218.07"/><polygon class="cls-1" points="1740.9 234.68 1835.54 3.66 1983.05 3.66 2086.04 234.68 1958 234.68 1913.47 128.91 1868.94 234.68 1740.9 234.68"/><polygon class="cls-1" points="1626.79 515.79 1715.85 298.69 1843.89 298.69 1763.17 515.79 1626.79 515.79"/><polygon class="cls-1" points="2205.72 515.79 2116.66 298.69 1988.62 298.69 2069.34 515.79 2205.72 515.79"/><polygon class="cls-1" points="681.57 234.6 776.23 3.52 923.78 3.52 1026.79 234.6 898.73 234.6 854.18 128.81 809.63 234.6 681.57 234.6"/><polygon class="cls-1" points="567.42 515.79 656.51 298.64 784.58 298.64 703.84 515.79 567.42 515.79"/><polygon class="cls-1" points="1146.51 515.79 1057.42 298.64 929.35 298.64 1010.09 515.79 1146.51 515.79"/><polyline class="cls-1" points="1356.42 293.79 1259.36 293.79 1369.53 515.79 1424.61 515.79 1526.51 293.79 1423.94 293.79"/><polygon class="cls-1" points="1121.65 3.52 1231.82 234.87 1364.02 234.87 1256.61 3.52 1121.65 3.52"/><polygon class="cls-1" points="1416.35 234.87 1526.51 3.52 1658.71 3.52 1551.3 234.87 1416.35 234.87"/><path class="cls-1" d="M2609,136s-167.1-82.18-224.63-24.65,145.19,101.36,169.84,123.27H2274.83c-6.28.54-45.84-65.1-21.91-137C2276,28.33,2354.28,4.54,2403.58,1.81s82.19-8.22,202.72,35.61Z"/><path class="cls-1" d="M2373.45,294.92s111.93,33,126,65.74c16.88,39.2-21.45,63.91-79.44,63-55.05-.85-164.36-63-164.36-63V462s93.14,63,191.75,52.05,153.41-41.09,175.32-98.62-8.21-120.53-8.21-120.53Z"/></g></g></svg>