<svg xmlns="http://www.w3.org/2000/svg" viewBox="0 0 239.47 239.47"><defs><style>.cls-1{fill:#e1e1e1;}.cls-2{fill:#aac2da;}.cls-3{fill:#628db9;}.cls-4{fill:#d5e2ed;}.cls-5{fill:#cddce9;}.cls-6{fill:#cbd9e8;}.cls-7{fill:#336ea6;}.cls-8{fill:#1c5d9c;}.cls-9{fill:#5f8cb9;}.cls-10{fill:#c1d0e2;}.cls-11{fill:#dae3ee;}.cls-12{fill:#c8dae8;}.cls-13{fill:#dee7f0;}.cls-14{fill:#dae5ef;}.cls-15{fill:#447caf;}.cls-16{fill:#769dc3;}.cls-17{fill:#79a2c6;}.cls-18{fill:#a3bed7;}.cls-19{fill:#fff;}</style></defs><g id="Camada_2" data-name="Camada 2"><g id="Camada_1-2" data-name="Camada 1"><path class="cls-1" d="M239.47,38.7V200.49c-.14.23,0,.48-.07.72v1.29a30.75,30.75,0,0,1-2.76,12.63,40.19,40.19,0,0,1-27.53,23.39,26.11,26.11,0,0,1-6.34.81c-.43,0-.86.11-1.29.07H38.14a35.27,35.27,0,0,1-15.39-3.67A40.48,40.48,0,0,1,3.34,215.82a38.91,38.91,0,0,1-3-10.45,22.29,22.29,0,0,1-.17-3.47Q0,119.67.14,37.45A33.38,33.38,0,0,1,2.93,24.54,39,39,0,0,1,9.28,14.07a40.46,40.46,0,0,1,11.2-9.26A39.79,39.79,0,0,1,32.28.48,31.15,31.15,0,0,1,37.1.07h1.3c.29,0,.58.07.85-.07H200.08c.27.14.57,0,.85.07h1.85a30.91,30.91,0,0,1,11.54,2.44,39.72,39.72,0,0,1,12.42,7.78,40.81,40.81,0,0,1,8.43,10.9,38.48,38.48,0,0,1,4,11.5A23.45,23.45,0,0,1,239.4,37v.76A3.16,3.16,0,0,0,239.47,38.7Z"/><path class="cls-2" d="M.11,37.87a1.77,1.77,0,0,1,.15-.68,9,9,0,0,1,0,1.37c0,.64-.06,1.27-.06,1.91q0,79.23,0,158.46c0,1.07.15,2.14.08,3.21a1.13,1.13,0,0,1-.13-.54c-.15-.31.05-.66-.12-1V38.7C.17,38.44,0,38.13.11,37.87Z"/><path class="cls-2" d="M38.84,239.35l1.57,0H199.34l1.29,0s.05.06,0,.08,0,0,0,0H38.84s-.05-.05,0-.08S38.82,239.35,38.84,239.35Z"/><path class="cls-3" d="M239.47,38.7a1.48,1.48,0,0,1-.12-1c.05-.07.09-.06.12,0Z"/><path class="cls-4" d="M0,200.63a1.69,1.69,0,0,1,.12,1H0Z"/><path class="cls-5" d="M200.63,239.47v-.12a3.43,3.43,0,0,1,1,0v.13Z"/><path class="cls-6" d="M37.06.12V0h.82c.1.05.09.09,0,.11A3.14,3.14,0,0,1,37.06.12Z"/><path class="cls-7" d="M39.25,0a1.14,1.14,0,0,1-.83.12c-.05,0-.07-.06-.05-.08a.07.07,0,0,1,.06,0Z"/><path class="cls-8" d="M200.93.12c-.29,0-.59.09-.85-.12h.82s.07,0,.06.07S200.94.12,200.93.12Z"/><path class="cls-9" d="M200.93.12l0-.12h.82c.09,0,.1.08,0,.12Z"/><path class="cls-10" d="M239.47,37.75l-.12,0v-.81a.17.17,0,0,1,.12,0Z"/><path class="cls-11" d="M.11,37.87A1.32,1.32,0,0,1,0,38.7v-.82Z"/><path class="cls-12" d="M239.47,202.54h-.12v-.81c0-.1.06-.11.11,0Z"/><path class="cls-13" d="M38.84,239.35v.12H38v-.13A2.51,2.51,0,0,1,38.84,239.35Z"/><path class="cls-14" d="M202.82,0V.12h-.68c-.1,0-.1-.07,0-.11Z"/><path class="cls-15" d="M239.35,201.19a.91.91,0,0,1,.12-.7v.69C239.44,201.25,239.4,201.26,239.35,201.19Z"/><path class="cls-16" d="M38.43,0a.49.49,0,0,1,0,.12h-.55a.41.41,0,0,1,0-.11Z"/><path class="cls-17" d="M239.35,201.19h.12v.54l-.06,0h0Z"/><path class="cls-18" d="M202.13,0a.45.45,0,0,1,0,.11h-.41a.49.49,0,0,1,0-.12Z"/><path class="cls-19" d="M132.5,193.28c-.18,0-.25.11-.34.21A21.38,21.38,0,0,1,121.22,200a27.21,27.21,0,0,1-14.19.08,18.22,18.22,0,0,1-12.16-9.9,17.62,17.62,0,0,1-1.62-9.44,18.49,18.49,0,0,1,3.55-9.61,22.13,22.13,0,0,1,7-6,38.72,38.72,0,0,1,10.46-3.91,66.65,66.65,0,0,1,10.53-1.53c2.25-.16,4.51-.26,6.76-.25.7,0,.7,0,.67-.72a7.07,7.07,0,0,0-2.56-5.18,11.33,11.33,0,0,0-4.91-2.42,24.85,24.85,0,0,0-8.15-.52A39.17,39.17,0,0,0,105,153.37a30.53,30.53,0,0,0-3.51,1.68c-.13.08-.24.21-.43.18s-.19-.41-.25-.62c-1-3.46-2.06-6.93-3.09-10.4-.19-.65-.19-.65.42-1a41.47,41.47,0,0,1,10.62-3.86A58.78,58.78,0,0,1,125.36,138a32.59,32.59,0,0,1,10,2.06,21,21,0,0,1,13.16,14.51,31.75,31.75,0,0,1,1.22,8.71c0,11.85,0,23.7,0,35.55,0,.6,0,.61-.59.61h-14c-.53,0-.53,0-.7-.52l-1.64-5C132.71,193.71,132.7,193.45,132.5,193.28Z"/><path class="cls-19" d="M202.49,191c-.64.87-1.24,1.59-1.85,2.3a21.52,21.52,0,0,1-8.94,6,25.66,25.66,0,0,1-9.58,1.55,26.36,26.36,0,0,1-8.13-1.32,17.94,17.94,0,0,1-10.4-9.05,27.94,27.94,0,0,1-2.91-9.13,48.49,48.49,0,0,1-.45-7V140.45c0-.94-.07-.81.8-.81h16.61c.78,0,.74-.11.74.73q0,15.27,0,30.56a27.88,27.88,0,0,0,.77,7.11,14.25,14.25,0,0,0,1.46,3.6,8.86,8.86,0,0,0,6.46,4.36,11.83,11.83,0,0,0,7.94-1.23,12,12,0,0,0,5.8-7.22,11,11,0,0,0,.34-3.18V140.66c0-1,0-1,1-1h16.62c.79,0,.76-.1.76.78V198.7c0,.84.08.76-.78.76H205.58a2.61,2.61,0,0,0-.28,0c-.35,0-.51-.1-.61-.46-.47-1.78-1-3.55-1.46-5.33C203,192.82,202.76,192,202.49,191Z"/><path class="cls-19" d="M86,185.4V186q0,6.22,0,12.45c0,.84.06.65-.67.95A21.42,21.42,0,0,1,78,200.89a26.61,26.61,0,0,1-8-.68,19,19,0,0,1-7.26-3.52,15.66,15.66,0,0,1-5-7.59,31.79,31.79,0,0,1-1.39-7.36c-.15-1.8-.15-3.6-.15-5.4V154.05c0-.83.1-.76-.77-.76H48.31c-.59,0-.6,0-.6-.6V140.24c0-.69,0-.6.65-.6h7c1,0,.85.12.85-.82V120.56c0-1-.14-.89.91-.89H73.51c.82,0,.74-.07.74.73v18.52c0,.78-.07.71.69.72H85.12c.64,0,.66-.1.66.6,0,4.15,0,8.3,0,12.45,0,.59,0,.59-.59.59H75c-.83,0-.74-.07-.74.72q0,10.74,0,21.47a19.68,19.68,0,0,0,.65,5.34,8.34,8.34,0,0,0,.59,1.53,5.82,5.82,0,0,0,4.39,3.24,14.24,14.24,0,0,0,5.63-.15C85.66,185.41,85.78,185.31,86,185.4Z"/><path class="cls-19" d="M38.72,159.61q0,19.51,0,39c0,.91.14.83-.84.83h-17c-.87,0-.74,0-.74-.74V120.46c0-.16,0-.32,0-.48s.12-.32.34-.31H38c.11,0,.23,0,.34,0s.37.09.36.35,0,.37,0,.55Z"/><path class="cls-19" d="M211.7,119.68a1.49,1.49,0,0,1-.45.59q-7.4,7.53-14.77,15.08a1.37,1.37,0,0,1-1.07.45c-3.87,0-7.74,0-11.62,0a1.38,1.38,0,0,1-.6,0c0-.22.13-.34.23-.48q5.27-7.57,10.52-15.14a.91.91,0,0,1,.82-.47q8.3,0,16.6,0Z"/><path class="cls-1" d="M132.67,175.2c0,1.09,0,2.19,0,3.28a8.27,8.27,0,0,1-1.43,4.49,12.76,12.76,0,0,1-9,5.77,11.89,11.89,0,0,1-5.8-.43,6.92,6.92,0,0,1-4.81-6.48,7.93,7.93,0,0,1,4-7.58,18.19,18.19,0,0,1,6.16-2.32,47.67,47.67,0,0,1,10.53-.87c.46,0,.47,0,.47.52,0,1.21,0,2.41,0,3.62Z"/></g></g></svg>