<svg xmlns="http://www.w3.org/2000/svg" viewBox="0 0 590.9 374.89"><defs><style>.cls-1{fill:#e1e1e1;}</style></defs><g id="Camada_2" data-name="Camada 2"><g id="Camada_1-2" data-name="Camada 1"><path class="cls-1" d="M85.78,209.14C87,222.66,84.55,236.52,81,249.85c-6.2,23.1-22.36,32.46-45.66,26.06A58.24,58.24,0,0,1,0,249.63c4.26-.51,5.06,3.46,7.21,5.63,11.41,11.56,24.25,20,41.39,19.21,14.38-.63,23.54-6.83,28.08-20.42a141.6,141.6,0,0,0,6.77-52.2c-.47-9,1.58-14.23,10.08-17.26,3.6-1.3,10-2.09,8-7.59-1.62-4.46-7-1.68-10.6-.82-15.32,3.65-30.09,9.09-44.91,14.36a23.26,23.26,0,0,0-6.93,3.65c-1.55,1.25-3.1,2.71-2.23,4.94s3,2.35,5,2.24c6.29-.36,12-3,18.12-4.33,11.72-2.56,13.5-1.44,13.46,10.41,0,12.4,1.11,24.85-1.76,37.14-4.15,17.78-16.07,25-33.65,20-5.7-1.62-11.44-3.68-15.59-8C16.12,250,8.94,245.46,0,243.74c7.39-2.59,13-.34,18.14,5.48,7.62,8.66,17.3,14,29.16,14.15,12,.16,18.4-4.63,21.22-16.23,3.67-15.14,1.58-30.63,2.14-45.95.16-4.5-2.53-3.56-5.13-2.87-7.59,2-15.17,4.1-22.76,6.11-4.54,1.2-8.74,1-10.4-4.31-1.51-4.86,1.94-7.28,5.65-8.92,19.2-8.54,39.26-14.47,59.63-19.44,4-1,7.28,0,8.73,4.12,1.51,4.33-1,7.44-4.78,8.17C87,186.82,84.5,195.49,85.78,209.14Z"/><path class="cls-1" d="M189,248.69c-2.87-12.29-1.73-24.73-2.67-37.06-.32-4.33.05-9.71-5.72-11.36-4.93-1.43-9.08.8-12.45,4.13-10.55,10.42-19.65,21.88-25.25,35.81-1.23,3-.76,8.25-6,7.27s-4.27-5.53-4-9.53c.46-7.5.73-15,.75-22.52,0-3.87.23-9.05-4.3-9.94-5.45-1.07-6.3,4.63-7.84,8.35-2.65,6.47-2.63,13.4-3,20.26-.21,4.1.45,9.74-5.39,9.89-6.45.16-5-5.79-5-9.68,0-9.14.53-18.3.92-27.43.22-4.73-2.12-7.49-6.53-8.31-4-.75-6.44,1.61-6.67,5.37-1,17-2.19,34.06,2.16,50.72,2.9,11.06,8.19,12.25,17,5.09,2.15-1.76,3.15-5.48,7.89-2.67,13.58,8.05,34.35,4.79,46.48-6.47,4.49,9.41,6.9,11.65,11.69,10C186.37,258.65,190.32,254.57,189,248.69Zm-28-3.26A19,19,0,0,1,159,246c-3.25.05-3.83-2.15-3.34-4.6,2-9.53,6.17-17.94,14-24,3.7-2.85,6.09-1.17,6.3,3.37S164.81,243.75,160.91,245.43Z"/><path class="cls-1" d="M211.52,253.87c-.37,4.1-1.67,7-6.27,7.11-4.81.11-7.64-2.69-7.59-7.16.15-15.37.52-30.75,1.25-46.09A6.93,6.93,0,0,1,207,201c6.77.8,5.63,6.89,6.56,13.15,3.08-2.75,4.93-4.49,6.87-6.09,4-3.37,8.54-5.06,13.61-2.64s8.25,6.14,8.13,12.26c-.25,11.15,1.21,22.16,3.33,33.12a19.68,19.68,0,0,1-.07,7.76c-.84,3.9-2.48,8-7.16,8.2-4.4.16-7-3.08-8.31-7.11-2.72-8.05-.9-16.23-.64-24.34.18-5.72,3-14-3.93-15.44-7.2-1.52-8.5,7.35-10.84,12.77C211.65,239.35,212.17,246.73,211.52,253.87Z"/><path class="cls-1" d="M287.24,354.8c3.19,5.17.39,9.74-4.13,12.5-10.66,6.51-22.08,9.43-34.71,6.38-25.47-6.16-41.19-27-39-52.29,2.6-30.41,20.73-49.47,48.37-50.82,5.66-.29,11.2.14,15.83,3.88,2.25,1.82,5.05,4,3.6,7.3-1.35,3.1-4.54,3.23-7.68,2.91-29.55-3-49.4,18.69-44.12,48.14,3.11,17.44,14.05,26,32.65,25.58,6.17-.5,12.42-.2,18-3.88C279.63,352.09,284.21,349.9,287.24,354.8Z"/><path class="cls-1" d="M332.88,194.65c-9.67,23.56-17.88,47.63-26,71.73-1.66,4.93-3,10.4-9.73,10.72s-8.59-5.11-10.53-9.88c-8.21-20.26-16.39-40.53-24.26-60.91A51,51,0,0,1,259.59,193c-.5-5.09.27-10.49,6.38-11.6s8.43,3.55,9.92,8.63q6.87,23.46,13.92,46.9c1.94,6.52,4,13,6,19.5.82-.06,1.64-.09,2.44-.15C303.17,241.15,307.91,226,313,211c2.91-8.65,6.37-17.11,9.57-25.66,1.32-3.49,2.91-7.25,7.5-5.82s5.38,5.39,4.69,9.62A26.26,26.26,0,0,1,332.88,194.65Z"/><path class="cls-1" d="M344.34,273.9c-13.52-8.89-29.86-1.61-33.07,14.59-1.67,8.44-1.28,16.91-.3,25.39.61,5.29-1.9,8.51-7,8.35-5.39-.16-2.9-4.86-3.11-7.61-.45-5.86-.07-11.77-.54-17.63-.34-4.1-.21-8.88-5.32-10.66s-9.13.84-12.4,4c-10.43,10.07-19.28,21.31-25.07,34.78-2.32,5.38-1.87,10.22,1.32,14.86,5.93,8.6,13.8,7.42,24.78-4.12,7.09,14.77,9,15,19.77,3.14,1.13-1.23,2.3-2.66,4.05-2.19,2.58.69,1.76,3.13,1.85,4.91.45,7.84-.34,15.77,1.87,23.43,1.34,4.69,2.91,10.65,9,9.57,5.78-1,8.06-6.17,7.1-12.21s-1.38-12.4-3-18.35c-2.47-9.14.2-14.05,9.8-15.53,6.88-1.07,14.32-4.33,11.83-12.33-2.83-9-10.08-3.33-15.66-1.55-2.6.82-6.4,3.17-6.77-1.75-.61-8.08-1.6-16.53,2.14-24.16,2.69-5.46,7.09-7.44,12.88-3.36,3.38,2.39,7.41,6,10.8.43C352.75,280.22,348.56,276.66,344.34,273.9Zm-71,57.2c-2.68.32-3.1-1.4-3.33-3.54-.68-6.22,8.85-22.47,14.84-25.39,2-1,3.49-1.5,4.4,1.34C291.13,309.35,279,330.5,273.33,331.1Z"/><path class="cls-1" d="M368.66,253.14c-2.83-12.63-1.73-25.4-2.57-38.09-.71-10.74-7.64-14.23-15.85-7.41-12.49,10.35-22.17,23.14-27.76,38.59-2.53,7,.57,12.38,6,16.07,5.26,3.55,10.76,2.19,15.23-2.12,1.84-1.76,3.05-4.17,5.17-7.18,2.78,7,3.46,13.77,11.15,12.36C366.43,264.19,370.05,259.4,368.66,253.14Zm-27.31-4.66c-3.26,2.81-5.28,1.22-5.42-2.94-.25-6.58,8.71-21.85,14.52-24.52,5.29-2.42,4.06,1.66,4.35,4.86A41,41,0,0,1,341.35,248.48Z"/><path class="cls-1" d="M213.48,146c.09-44.15,0-88.31.08-132.46,0-4.51-.38-9.39,5.09-11.58V0a4.4,4.4,0,0,1,.64,2,2.71,2.71,0,0,1,0,.57,4.31,4.31,0,0,1-.14,1,49.63,49.63,0,0,0-3.39,19.17c.11,38,0,75.9.08,113.86,0,17.26,2.22,19.49,19.08,19.51q60,.1,120,0c15,0,16.23-1.28,16.23-16.28q0-59.9.22-119.76a77.11,77.11,0,0,0-1.84-16.53,5.58,5.58,0,0,1,0-.91,3.22,3.22,0,0,1,.05-.63,5.26,5.26,0,0,1,.78-2c0,.68-.09,1.34-.12,2,5.27,2,4.7,6.54,4.7,10.71.06,44.49-.09,89,.13,133.46,0,9.17-3.66,12.95-12.88,12.91q-67.86-.28-135.72,0C217.12,159.13,213.47,154.94,213.48,146Z"/><path class="cls-1" d="M362.94,293.34c3.42-5.49,8.05-10.37,14.41-12.71,4.19-1.53,5.9,1.25,6.61,4.46-.07,4.65-12.77,16.17-16.74,15.35C363.44,299.66,360.87,296.63,362.94,293.34Z"/><path class="cls-1" d="M379.88,356.78c-4.75-.79-9.58-1.09-17-1.89,9.58-6.38,17.63-10.94,23.26-18.32s6.35-19.54,1.54-24.64-15.54-5.54-23.68-.05A66.82,66.82,0,0,0,351.5,322.8c-9.74,11-11.81,26.51-5.56,37.33,5.08,8.72,19.8,13.57,33.5,11.09,3.81-.69,7.3-2.17,7.52-6.43C387.19,360.27,384.25,357.49,379.88,356.78Zm-6.55-36.17c1.33-1,3.45-1.48,4.2.39.46,1.16-.25,3.23-1.1,4.4-5,6.84-11.19,12.44-20.35,18.42C358.27,331,366.11,326,373.33,320.61Z"/><path class="cls-1" d="M403.33,361.94c-1.2,2.44-1.34,5.79-4.87,5.45-3.24-.3-7.14-1.35-7.14-5.11,0-2.71,3-5.61,5.92-5.66S401.8,359.59,403.33,361.94Z"/><path class="cls-1" d="M446.28,256.9c-3.45-14.64-5.74-29.45-3.56-44.66a209.56,209.56,0,0,0,1.92-25.41c.11-4.65-2.42-8.19-7.85-8.07-4.92.09-5.35,3.65-5.87,7.45a63.32,63.32,0,0,0,.13,16.62c.61,4.85.09,9.68-4.51,12.08-12.75,6.72-23.41,16.09-34.93,28,0-18.94-.06-35.49,0-52,0-4.88-.05-9.85-6.57-9.67-5.63.16-7.45,4.1-7.49,9.48-.12,18-.55,36-.8,53.94-.1,8.11,3.49,15.54,4.55,23.56s11.29,9.81,20.5,4.52c10.87-6.27,19.22-15.41,27.92-26.74,1.48,6.4,2.37,10.48,3.37,14.54,1.1,4.45,1.87,10,8.39,8.19C447.46,267,447.64,262.57,446.28,256.9Zm-49.6,4.21c-3.2,0-3.79-2.91-2.15-5.15,7.25-10,15.43-19.23,25.74-26.23,2.44-1.65,4.35-.28,4.26,2.89C424.37,237.71,402.58,260.61,396.68,261.11Z"/><path class="cls-1" d="M497.72,217.51c2.54-13.09-5.92-21.07-18.85-17.81-9.09,2.28-15.45,8.4-21.12,15.23-9.44,11.33-11,26.86-4.15,37.43,5.33,8.23,19.94,12.5,33.09,9.83,3.77-.78,7.25-2,7.44-6.36.18-4.13-2.79-6.8-6.36-7.75-5-1.32-10.24-1.76-15.87-2.63,6.47-5,12.24-9.2,17.76-13.72A23.62,23.62,0,0,0,497.72,217.51Zm-14.26-.69c-5.25,6.93-11.83,12.38-20.43,19.09,1.78-13.37,10.05-18.67,17.74-24.35,1-.68,2.37-1.57,3.39-.11C485.49,213.36,484.67,215.23,483.46,216.82Z"/><path class="cls-1" d="M587.49,247.33a12.87,12.87,0,0,1-4.42,2.09c-24.19,7.25-47.64,16.51-70.94,26.17-2.75,1.14-5.51,2.28-8.55,1.57a9,9,0,0,1-6.9-6.34c-1.41-4.48,1.05-7.49,4.37-10q18.36-14,36.7-28.1c1.24-1,2.38-2.07,5.61-4.88-10.55.23-17.09,5.22-24.52,7.29-4.54,1.26-9.88,4.22-12.66-2.43-2.85-6.84,2.24-9.49,7.34-11.44a273.38,273.38,0,0,1,47.16-13.57c4.77-.89,9.65-1.23,12.11,3.65,2.9,5.72-.48,10-4.93,13.43-11.94,9.14-24,18.21-35.05,29,12.29-4.93,24.57-9.9,36.88-14.78,4.54-1.8,9.1-3.85,14.18-3.59,3,.16,6.06.63,6.86,4.28C591.43,242.85,589.91,245.41,587.49,247.33Z"/><path class="cls-1" d="M101.6,184.05C87,186.82,84.5,195.49,85.78,209.14S84.55,236.52,81,249.85c-6.2,23.1-22.36,32.46-45.66,26.06A58.24,58.24,0,0,1,0,249.63v-5.89c7.39-2.59,13-.34,18.14,5.48,7.62,8.66,17.3,14,29.16,14.15,12,.16,18.4-4.63,21.22-16.23,3.67-15.14,1.58-30.63,2.14-45.95.16-4.5-2.53-3.56-5.13-2.87-7.59,2-15.17,4.1-22.76,6.11-4.54,1.2-8.74,1-10.4-4.31-1.51-4.86,1.94-7.28,5.65-8.92,19.2-8.54,39.26-14.47,59.63-19.44,4-1,7.28,0,8.73,4.12C107.89,180.21,105.41,183.32,101.6,184.05Z"/><path class="cls-1" d="M370.33,0c0,.68-.09,1.34-.12,2a7,7,0,0,1-.71.63c-3.58,2.88-8,2.44-12.26,2.47-41.89.36-83.75-.32-125.62,0-4.26,0-8.75.43-12.33-2.56L218.65,2V0Z"/><path class="cls-1" d="M332.67,54c-.94,1.86-2.53.36-4,.06-7.05-1.44-14.14-2.14-21.06,2.21-1-4.51.77-6.75,5-7.45h0c5.93-1.75,11.85-3.35,17.67.41C331.17,50.85,333.79,51.83,332.67,54Z"/><path class="cls-1" d="M335.88,29.81c-1.57,2.69-2.69,5.88-6.45,4.82-2-.55-5.17-1-4.56-4,.71-3.48,3.85-4.06,6.95-3.67C333.56,27.17,335.79,27.2,335.88,29.81Z"/><path class="cls-1" d="M356,41.19c-.72,2.81-1.53,5.58-4.35,7.61-2.8-2.85,2.39-6.91-1.44-9.34-4.12.43-3,5.47-7,7.32.86-10.76-2-20.45-6-30.6,4.9-1,10-2.27,13.18,2.4C354.92,25.24,362.07,31.69,356,41.19Z"/><path class="cls-1" d="M268.86,53.84c-4.16.89-8.16,1.78-8.79,6.56-.28,2.06,1.48,4.15,3.39,3.91,4.26-.53,6.59-3.9,8-7.6C272.15,54.71,270.1,54.2,268.86,53.84Zm75.69,44.82c-2.15-4.83-6.62-7.69-9.85-11.61-5.16-6.29-9.8-6.81-13.7,1.19-1.83.79-3.19,2.83-5.59,2.1-.68-3.88-1.43-7.75.28-11.58,3.83.24,7.49,0,10.32-3.77-5.17-.86-10.64.17-13.88-4.33-5.68-7.93-13.91-12.22-22.25-16.46-1.16-1.18-2.32-2.34-3.49-3.51-.08,1.06-.15,2.13-.25,3.2a24.11,24.11,0,0,0,2.62,2.21,5.08,5.08,0,0,0,.51.41l.41.14c12.58,4.51,18.9,19.37,33.66,20.19-3.53-.18-7.17-1-9.55,2.74a14.26,14.26,0,0,0-1,3.89,8.13,8.13,0,0,0-.07,1.1.15.15,0,0,0,0,.13A11.07,11.07,0,0,0,314.23,90c2.23,2.28,4.56,1.53,6.91.23l.16-.14v0c.31-.32.61-.6.91-.87a3.89,3.89,0,0,1,.75,1.42,1.5,1.5,0,0,0-.23.15c-.25.21-.48.44-.71.67a22.11,22.11,0,0,0-3.37,4.67l-.84,1.52c-.09.17-.18.37-.26.55a65.48,65.48,0,0,1-6.29,10.63c.41,1.43-.66,3.35-1.91,5.38,4.15-4.66,8.8-9,9.91-15.6,2.79-1.11,2.58-4.17,4-6.13,10-6.75,12.81,3.33,18.08,7.66,1,2,2.35,4.85,4.53,3.58C347.89,102.6,347.12,99.86,344.55,98.66ZM268.86,53.84c-4.16.89-8.16,1.78-8.79,6.56-.28,2.06,1.48,4.15,3.39,3.91,4.26-.53,6.59-3.9,8-7.6C272.15,54.71,270.1,54.2,268.86,53.84Zm-18.41,48.4c-.43-3.68-2.15-6-6.2-5.87-1.35-.68-2.71-1.34-4.06-2-1.41,1-4.92-1.23-5.86.5a10.13,10.13,0,0,1,4.35,1.35,16.78,16.78,0,0,0,4.5,2.09c3.19.55,4.67,2.78,5.54,5.59,1.86,4.65,4.9,6.17,9,5a9.47,9.47,0,0,1,3.44-2.8C257.4,105.24,251.7,109.89,250.45,102.24ZM233.83,123.6c-3.55.52-4.53,3.3-5,6.24-.34,2.32.25,5.33,3,4.9,3.17-.48,4-3.9,4.52-6.82C236.77,125.92,236.66,123.93,233.83,123.6Zm35-69.76c-4.16.89-8.16,1.78-8.79,6.56-.28,2.06,1.48,4.15,3.39,3.91,4.26-.53,6.59-3.9,8-7.6C272.15,54.71,270.1,54.2,268.86,53.84Zm46.26,43.45c0-.14,0-.28,0-.43q-.21-.61-.48-1.23c-2.55-6.53-6.35-12.45-9.62-18.59-3.87-7.26-8-14.56-15.48-19,0,.37-.06.75-.09,1.12,10.4,10.78,16,24.64,23.82,37.11.28,7.47-1.84,11.56-10.2,7.47-.9-.45-2.45.35-3.7.58,2,2,4.74,2,7.21,2.2a10.61,10.61,0,0,1,2.68.55h0a2.83,2.83,0,0,1,1.95,1.74,65.48,65.48,0,0,0,6.29-10.63A22.16,22.16,0,0,1,315.12,97.29Zm-39.26,2.8-.16,0s0,.09,0,.13a.32.32,0,0,0-.1.1c-3.8,1-5.44,3.71-5.92,7.4a1.62,1.62,0,0,1,1,.6,1,1,0,0,1,.15.2,49.08,49.08,0,0,1,4.47-7.54,1.17,1.17,0,0,1,.44-.6,1.4,1.4,0,0,1,.43-.24h0c2.85.24,5.06-.53,5.59-4.57C278.08,95.28,275.75,96,275.86,100.09Zm68.69-1.43c-2.15-4.83-6.62-7.69-9.85-11.61-5.16-6.29-9.8-6.81-13.7,1.19-1.83.79-3.19,2.83-5.59,2.1-.68-3.88-1.43-7.75.28-11.58,3.83.24,7.49,0,10.32-3.77-5.17-.86-10.64.17-13.88-4.33-5.68-7.93-13.91-12.22-22.25-16.46-1.16-1.18-2.32-2.34-3.49-3.51-.08,1.06-.15,2.13-.25,3.2a24.11,24.11,0,0,0,2.62,2.21,5.08,5.08,0,0,0,.51.41l.41.14c12.58,4.51,18.9,19.37,33.66,20.19-3.53-.18-7.17-1-9.55,2.74a14.26,14.26,0,0,0-1,3.89,8.13,8.13,0,0,0-.07,1.1.15.15,0,0,0,0,.13A11.07,11.07,0,0,0,314.23,90c2.23,2.28,4.56,1.53,6.91.23l.16-.14v0c.31-.32.61-.6.91-.87a3.89,3.89,0,0,1,.75,1.42,1.5,1.5,0,0,0-.23.15c-.25.21-.48.44-.71.67a22.11,22.11,0,0,0-3.37,4.67l-.84,1.52c-.09.17-.18.37-.26.55a65.48,65.48,0,0,1-6.29,10.63c.41,1.43-.66,3.35-1.91,5.38,4.15-4.66,8.8-9,9.91-15.6,2.79-1.11,2.58-4.17,4-6.13,10-6.75,12.81,3.33,18.08,7.66,1,2,2.35,4.85,4.53,3.58C347.89,102.6,347.12,99.86,344.55,98.66ZM268.86,53.84c-4.16.89-8.16,1.78-8.79,6.56-.28,2.06,1.48,4.15,3.39,3.91,4.26-.53,6.59-3.9,8-7.6C272.15,54.71,270.1,54.2,268.86,53.84ZM262,105c-.29.37-.59.73-.89,1.08-3.71-.83-9.41,3.82-10.66-3.83-.43-3.68-2.15-6-6.2-5.87-1.35-.68-2.71-1.34-4.06-2-1.41,1-4.92-1.23-5.86.5a10.13,10.13,0,0,1,4.35,1.35,16.78,16.78,0,0,0,4.5,2.09c3.19.55,4.67,2.78,5.54,5.59,1.86,4.65,4.9,6.17,9,5a12.85,12.85,0,0,0,2.15-.82,8,8,0,0,0,1.29-.8,5.75,5.75,0,0,0,1.63-2c.11-.41.24-.8.38-1.19C262.74,104.33,262.37,104.67,262,105ZM233.83,123.6c-3.55.52-4.53,3.3-5,6.24-.34,2.32.25,5.33,3,4.9,3.17-.48,4-3.9,4.52-6.82C236.77,125.92,236.66,123.93,233.83,123.6Zm0,0c-3.55.52-4.53,3.3-5,6.24-.34,2.32.25,5.33,3,4.9,3.17-.48,4-3.9,4.52-6.82C236.77,125.92,236.66,123.93,233.83,123.6Zm35-69.76c-4.16.89-8.16,1.78-8.79,6.56-.28,2.06,1.48,4.15,3.39,3.91,4.26-.53,6.59-3.9,8-7.6C272.15,54.71,270.1,54.2,268.86,53.84Zm46.26,43.45c0-.14,0-.28,0-.43q-.21-.61-.48-1.23c-2.55-6.53-6.35-12.45-9.62-18.59-3.87-7.26-8-14.56-15.48-19,0,.37-.06.75-.09,1.12,10.4,10.78,16,24.64,23.82,37.11.28,7.47-1.84,11.56-10.2,7.47-.9-.45-2.45.35-3.7.58,2,2,4.74,2,7.21,2.2a10.61,10.61,0,0,1,2.68.55h0a2.83,2.83,0,0,1,1.95,1.74,65.48,65.48,0,0,0,6.29-10.63A22.16,22.16,0,0,1,315.12,97.29Zm-39.26,2.8-.16,0s0,.09,0,.13a.32.32,0,0,0-.1.1c-3.8,1-5.44,3.71-5.92,7.4a1.62,1.62,0,0,1,1,.6,1,1,0,0,1,.15.2,49.08,49.08,0,0,1,4.47-7.54,1.17,1.17,0,0,1,.44-.6,1.4,1.4,0,0,1,.43-.24h0c2.85.24,5.06-.53,5.59-4.57C278.08,95.28,275.75,96,275.86,100.09Zm68.69-1.43c-2.15-4.83-6.62-7.69-9.85-11.61-5.16-6.29-9.8-6.81-13.7,1.19-1.83.79-3.19,2.83-5.59,2.1-.68-3.88-1.43-7.75.28-11.58,3.83.24,7.49,0,10.32-3.77-5.17-.86-10.64.17-13.88-4.33-5.68-7.93-13.91-12.22-22.25-16.46-1.16-1.18-2.32-2.34-3.49-3.51-.08,1.06-.15,2.13-.25,3.2a24.11,24.11,0,0,0,2.62,2.21,5.08,5.08,0,0,0,.51.41l.41.14c12.58,4.51,18.9,19.37,33.66,20.19-3.53-.18-7.17-1-9.55,2.74a14.26,14.26,0,0,0-1,3.89,8.13,8.13,0,0,0-.07,1.1.15.15,0,0,0,0,.13A11.07,11.07,0,0,0,314.23,90c2.23,2.28,4.56,1.53,6.91.23l.16-.14v0c.31-.32.61-.6.91-.87a3.89,3.89,0,0,1,.75,1.42,1.5,1.5,0,0,0-.23.15c-.25.21-.48.44-.71.67a22.11,22.11,0,0,0-3.37,4.67l-.84,1.52c-.09.17-.18.37-.26.55a65.48,65.48,0,0,1-6.29,10.63c.41,1.43-.66,3.35-1.91,5.38,4.15-4.66,8.8-9,9.91-15.6,2.79-1.11,2.58-4.17,4-6.13,10-6.75,12.81,3.33,18.08,7.66,1,2,2.35,4.85,4.53,3.58C347.89,102.6,347.12,99.86,344.55,98.66ZM268.86,53.84c-4.16.89-8.16,1.78-8.79,6.56-.28,2.06,1.48,4.15,3.39,3.91,4.26-.53,6.59-3.9,8-7.6C272.15,54.71,270.1,54.2,268.86,53.84ZM262,105c-.29.37-.59.73-.89,1.08-3.71-.83-9.41,3.82-10.66-3.83-.43-3.68-2.15-6-6.2-5.87-1.35-.68-2.71-1.34-4.06-2-1.41,1-4.92-1.23-5.86.5a10.13,10.13,0,0,1,4.35,1.35,16.78,16.78,0,0,0,4.5,2.09c3.19.55,4.67,2.78,5.54,5.59,1.86,4.65,4.9,6.17,9,5a12.85,12.85,0,0,0,2.15-.82,8,8,0,0,0,1.29-.8,5.75,5.75,0,0,0,1.63-2c.11-.41.24-.8.38-1.19C262.74,104.33,262.37,104.67,262,105ZM233.83,123.6c-3.55.52-4.53,3.3-5,6.24-.34,2.32.25,5.33,3,4.9,3.17-.48,4-3.9,4.52-6.82C236.77,125.92,236.66,123.93,233.83,123.6Zm0,0c-3.55.52-4.53,3.3-5,6.24-.34,2.32.25,5.33,3,4.9,3.17-.48,4-3.9,4.52-6.82C236.77,125.92,236.66,123.93,233.83,123.6Zm35-69.76c-4.16.89-8.16,1.78-8.79,6.56-.28,2.06,1.48,4.15,3.39,3.91,4.26-.53,6.59-3.9,8-7.6C272.15,54.71,270.1,54.2,268.86,53.84Zm93.42,54.34h.05c0-.14.11-.28.16-.41Zm0,0h.05c0-.14.11-.28.16-.41ZM315.12,97.29c0-.14,0-.28,0-.43q-.21-.61-.48-1.23c-2.55-6.53-6.35-12.45-9.62-18.59-3.87-7.26-8-14.56-15.48-19,0,.37-.06.75-.09,1.12,10.4,10.78,16,24.64,23.82,37.11.28,7.47-1.84,11.56-10.2,7.47-.9-.45-2.45.35-3.7.58,2,2,4.74,2,7.21,2.2a10.61,10.61,0,0,1,2.68.55h0a2.83,2.83,0,0,1,1.95,1.74,65.48,65.48,0,0,0,6.29-10.63A22.16,22.16,0,0,1,315.12,97.29Zm-39.26,2.8-.16,0s0,.09,0,.13a.32.32,0,0,0-.1.1c-3.8,1-5.44,3.71-5.92,7.4a1.62,1.62,0,0,1,1,.6,1,1,0,0,1,.15.2,49.08,49.08,0,0,1,4.47-7.54,1.17,1.17,0,0,1,.44-.6,1.4,1.4,0,0,1,.43-.24h0c2.85.24,5.06-.53,5.59-4.57C278.08,95.28,275.75,96,275.86,100.09Zm68.69-1.43c-2.15-4.83-6.62-7.69-9.85-11.61-5.16-6.29-9.8-6.81-13.7,1.19-1.83.79-3.19,2.83-5.59,2.1-.68-3.88-1.43-7.75.28-11.58,3.83.24,7.49,0,10.32-3.77-5.17-.86-10.64.17-13.88-4.33-5.68-7.93-13.91-12.22-22.25-16.46-1.16-1.18-2.32-2.34-3.49-3.51-.08,1.06-.15,2.13-.25,3.2a24.11,24.11,0,0,0,2.62,2.21,5.08,5.08,0,0,0,.51.41l.41.14c12.58,4.51,18.9,19.37,33.66,20.19-3.53-.18-7.17-1-9.55,2.74a14.26,14.26,0,0,0-1,3.89,8.13,8.13,0,0,0-.07,1.1.15.15,0,0,0,0,.13A11.07,11.07,0,0,0,314.23,90c2.23,2.28,4.56,1.53,6.91.23l.16-.14v0c.31-.32.61-.6.91-.87a3.89,3.89,0,0,1,.75,1.42,1.5,1.5,0,0,0-.23.15c-.25.21-.48.44-.71.67a22.11,22.11,0,0,0-3.37,4.67l-.84,1.52c-.09.17-.18.37-.26.55a65.48,65.48,0,0,1-6.29,10.63c.41,1.43-.66,3.35-1.91,5.38,4.15-4.66,8.8-9,9.91-15.6,2.79-1.11,2.58-4.17,4-6.13,10-6.75,12.81,3.33,18.08,7.66,1,2,2.35,4.85,4.53,3.58C347.89,102.6,347.12,99.86,344.55,98.66ZM268.86,53.84c-4.16.89-8.16,1.78-8.79,6.56-.28,2.06,1.48,4.15,3.39,3.91,4.26-.53,6.59-3.9,8-7.6C272.15,54.71,270.1,54.2,268.86,53.84ZM262,105c-.29.37-.59.73-.89,1.08-3.71-.83-9.41,3.82-10.66-3.83-.43-3.68-2.15-6-6.2-5.87-1.35-.68-2.71-1.34-4.06-2-1.41,1-4.92-1.23-5.86.5a10.13,10.13,0,0,1,4.35,1.35,16.78,16.78,0,0,0,4.5,2.09c3.19.55,4.67,2.78,5.54,5.59,1.86,4.65,4.9,6.17,9,5a12.85,12.85,0,0,0,2.15-.82,8,8,0,0,0,1.29-.8,5.75,5.75,0,0,0,1.63-2c.11-.41.24-.8.38-1.19C262.74,104.33,262.37,104.67,262,105ZM233.83,123.6c-3.55.52-4.53,3.3-5,6.24-.34,2.32.25,5.33,3,4.9,3.17-.48,4-3.9,4.52-6.82C236.77,125.92,236.66,123.93,233.83,123.6Zm0,0c-3.55.52-4.53,3.3-5,6.24-.34,2.32.25,5.33,3,4.9,3.17-.48,4-3.9,4.52-6.82C236.77,125.92,236.66,123.93,233.83,123.6Zm35-69.76c-4.16.89-8.16,1.78-8.79,6.56-.28,2.06,1.48,4.15,3.39,3.91,4.26-.53,6.59-3.9,8-7.6C272.15,54.71,270.1,54.2,268.86,53.84Zm93.42,54.34h.05c0-.14.11-.28.16-.41Zm0,0h.05c0-.14.11-.28.16-.41ZM315.12,97.29c0-.14,0-.28,0-.43q-.21-.61-.48-1.23c-2.55-6.53-6.35-12.45-9.62-18.59-3.87-7.26-8-14.56-15.48-19,0,.37-.06.75-.09,1.12,10.4,10.78,16,24.64,23.82,37.11.28,7.47-1.84,11.56-10.2,7.47-.9-.45-2.45.35-3.7.58,2,2,4.74,2,7.21,2.2a10.61,10.61,0,0,1,2.68.55h0a2.83,2.83,0,0,1,1.95,1.74,65.48,65.48,0,0,0,6.29-10.63A22.16,22.16,0,0,1,315.12,97.29Zm-39.26,2.8-.16,0s0,.09,0,.13a.32.32,0,0,0-.1.1c-3.8,1-5.44,3.71-5.92,7.4a1.62,1.62,0,0,1,1,.6,1,1,0,0,1,.15.2,49.08,49.08,0,0,1,4.47-7.54,1.17,1.17,0,0,1,.44-.6,1.4,1.4,0,0,1,.43-.24h0c2.85.24,5.06-.53,5.59-4.57C278.08,95.28,275.75,96,275.86,100.09Zm68.69-1.43c-2.15-4.83-6.62-7.69-9.85-11.61-5.16-6.29-9.8-6.81-13.7,1.19-1.83.79-3.19,2.83-5.59,2.1-.68-3.88-1.43-7.75.28-11.58,3.83.24,7.49,0,10.32-3.77-5.17-.86-10.64.17-13.88-4.33-5.68-7.93-13.91-12.22-22.25-16.46-1.16-1.18-2.32-2.34-3.49-3.51-.08,1.06-.15,2.13-.25,3.2a24.11,24.11,0,0,0,2.62,2.21,5.08,5.08,0,0,0,.51.41l.41.14c12.58,4.51,18.9,19.37,33.66,20.19-3.53-.18-7.17-1-9.55,2.74a14.26,14.26,0,0,0-1,3.89,8.13,8.13,0,0,0-.07,1.1.15.15,0,0,0,0,.13A11.07,11.07,0,0,0,314.23,90c2.23,2.28,4.56,1.53,6.91.23l.16-.14v0c.31-.32.61-.6.91-.87a3.89,3.89,0,0,1,.75,1.42,1.5,1.5,0,0,0-.23.15c-.25.21-.48.44-.71.67a22.11,22.11,0,0,0-3.37,4.67l-.84,1.52c-.09.17-.18.37-.26.55a65.48,65.48,0,0,1-6.29,10.63c.41,1.43-.66,3.35-1.91,5.38,4.15-4.66,8.8-9,9.91-15.6,2.79-1.11,2.58-4.17,4-6.13,10-6.75,12.81,3.33,18.08,7.66,1,2,2.35,4.85,4.53,3.58C347.89,102.6,347.12,99.86,344.55,98.66ZM268.86,53.84c-4.16.89-8.16,1.78-8.79,6.56-.28,2.06,1.48,4.15,3.39,3.91,4.26-.53,6.59-3.9,8-7.6C272.15,54.71,270.1,54.2,268.86,53.84ZM262,105c-.29.37-.59.73-.89,1.08-3.71-.83-9.41,3.82-10.66-3.83-.43-3.68-2.15-6-6.2-5.87-1.35-.68-2.71-1.34-4.06-2-1.41,1-4.92-1.23-5.86.5a10.13,10.13,0,0,1,4.35,1.35,16.78,16.78,0,0,0,4.5,2.09c3.19.55,4.67,2.78,5.54,5.59,1.86,4.65,4.9,6.17,9,5a12.85,12.85,0,0,0,2.15-.82,8,8,0,0,0,1.29-.8,5.75,5.75,0,0,0,1.63-2c.11-.41.24-.8.38-1.19C262.74,104.33,262.37,104.67,262,105ZM233.83,123.6c-3.55.52-4.53,3.3-5,6.24-.34,2.32.25,5.33,3,4.9,3.17-.48,4-3.9,4.52-6.82C236.77,125.92,236.66,123.93,233.83,123.6Zm0,0c-3.55.52-4.53,3.3-5,6.24-.34,2.32.25,5.33,3,4.9,3.17-.48,4-3.9,4.52-6.82C236.77,125.92,236.66,123.93,233.83,123.6Zm35-69.76c-4.16.89-8.16,1.78-8.79,6.56-.28,2.06,1.48,4.15,3.39,3.91,4.26-.53,6.59-3.9,8-7.6C272.15,54.71,270.1,54.2,268.86,53.84Zm93.42,54.34h.05c0-.14.11-.28.16-.41Zm0,0h.05c0-.14.11-.28.16-.41ZM315.12,97.29c0-.14,0-.28,0-.43q-.21-.61-.48-1.23c-2.55-6.53-6.35-12.45-9.62-18.59-3.87-7.26-8-14.56-15.48-19,0,.37-.06.75-.09,1.12,10.4,10.78,16,24.64,23.82,37.11.28,7.47-1.84,11.56-10.2,7.47-.9-.45-2.45.35-3.7.58,2,2,4.74,2,7.21,2.2a10.61,10.61,0,0,1,2.68.55h0a2.83,2.83,0,0,1,1.95,1.74,65.48,65.48,0,0,0,6.29-10.63A22.16,22.16,0,0,1,315.12,97.29Zm-39.26,2.8-.16,0s0,.09,0,.13a.32.32,0,0,0-.1.1c-3.8,1-5.44,3.71-5.92,7.4a1.62,1.62,0,0,1,1,.6,1,1,0,0,1,.15.2,49.08,49.08,0,0,1,4.47-7.54,1.17,1.17,0,0,1,.44-.6,1.4,1.4,0,0,1,.43-.24h0c2.85.24,5.06-.53,5.59-4.57C278.08,95.28,275.75,96,275.86,100.09Zm68.69-1.43c-2.15-4.83-6.62-7.69-9.85-11.61-5.16-6.29-9.8-6.81-13.7,1.19-1.83.79-3.19,2.83-5.59,2.1-.68-3.88-1.43-7.75.28-11.58,3.83.24,7.49,0,10.32-3.77-5.17-.86-10.64.17-13.88-4.33-5.68-7.93-13.91-12.22-22.25-16.46-1.16-1.18-2.32-2.34-3.49-3.51-.08,1.06-.15,2.13-.25,3.2a24.11,24.11,0,0,0,2.62,2.21,5.08,5.08,0,0,0,.51.41l.41.14c12.58,4.51,18.9,19.37,33.66,20.19-3.53-.18-7.17-1-9.55,2.74a14.26,14.26,0,0,0-1,3.89,8.13,8.13,0,0,0-.07,1.1.15.15,0,0,0,0,.13A11.07,11.07,0,0,0,314.23,90c2.23,2.28,4.56,1.53,6.91.23l.16-.14v0c.31-.32.61-.6.91-.87a3.89,3.89,0,0,1,.75,1.42,1.5,1.5,0,0,0-.23.15c-.25.21-.48.44-.71.67a22.11,22.11,0,0,0-3.37,4.67l-.84,1.52c-.09.17-.18.37-.26.55a65.48,65.48,0,0,1-6.29,10.63c.41,1.43-.66,3.35-1.91,5.38,4.15-4.66,8.8-9,9.91-15.6,2.79-1.11,2.58-4.17,4-6.13,10-6.75,12.81,3.33,18.08,7.66,1,2,2.35,4.85,4.53,3.58C347.89,102.6,347.12,99.86,344.55,98.66ZM268.86,53.84c-4.16.89-8.16,1.78-8.79,6.56-.28,2.06,1.48,4.15,3.39,3.91,4.26-.53,6.59-3.9,8-7.6C272.15,54.71,270.1,54.2,268.86,53.84Zm-7.75,52.23c-3.71-.83-9.41,3.82-10.66-3.83-.43-3.68-2.15-6-6.2-5.87-1.35-.68-2.71-1.34-4.06-2-1.41,1-4.92-1.23-5.86.5a10.13,10.13,0,0,1,4.35,1.35,16.78,16.78,0,0,0,4.5,2.09c3.19.55,4.67,2.78,5.54,5.59,1.86,4.65,4.9,6.17,9,5a12.85,12.85,0,0,0,2.15-.82,8,8,0,0,0,1.29-.8,5.75,5.75,0,0,0,1.63-2c.11-.41.24-.8.38-1.19-.38.32-.75.66-1.12,1S261.41,105.72,261.11,106.07ZM233.83,123.6c-3.55.52-4.53,3.3-5,6.24-.34,2.32.25,5.33,3,4.9,3.17-.48,4-3.9,4.52-6.82C236.77,125.92,236.66,123.93,233.83,123.6ZM374.91,12.72c0-4.17.57-8.76-4.7-10.71h-.66Q294.43,2,219.29,2h-.64c-5.47,2.19-5.09,7.07-5.09,11.58-.06,44.15,0,88.31-.08,132.46,0,8.92,3.64,13.11,13,13.07q67.85-.28,135.72,0c9.22,0,12.91-3.74,12.88-12.91C374.82,101.69,375,57.21,374.91,12.72ZM226.76,147.35c-4.21-1.69-2.55-6.25-2.6-9.63-.16-10.46-.08-20.92-.06-31.38,0-3.53-.83-7.5,4.35-8.34l5.93.11c14.27,6.63,16.36,10.07,15.36,26.35-.37,6.13-1.23,12.22-1.85,18.33-1.91,0-3.25,8.91-5.9.14-1.12-3.75-3.69-.81-4.94.86C234.36,147.39,230.57,148.89,226.76,147.35Zm16-137c3.26,0,6.57-.45,9.74,0s8.06-2.37,9.43,2.23c.85,2.86-3.14,4.75-5.61,6.11-3.89,2.14-8,2.51-11.46-1.21A8.06,8.06,0,0,1,242.74,10.3Zm-8.29,19c-5.06,3.42-1.39,9,0,12.42,1.6,4,5.68,0,8.21-1.23,8.89-4.29,16.91-9.51,20.93-19.4,1.62-4,3.35-8.57,8.05-10.51.13,2.39.25,4.77.38,7.18-.14,1.09-.29,2.19-.43,3.28a18.72,18.72,0,0,0,.07,14.86c0,8.44,10.09,12.13,9.84,20.68-2.27,3.17-1.64,6.77-1.5,10.28-6.38,6.32-7.55,15-10.46,22.89-3.35,4.69-9.46,8-7.53,15.29-.29.37-.59.73-.89,1.08-3.71-.83-9.41,3.82-10.66-3.83-.43-3.68-2.15-6-6.2-5.87-1.35-.68-2.71-1.34-4.06-2-4.51-3.3-9.12-2.12-13.75-.3-3.92-2.57-2.11-6.54-2.28-9.91-1.16-21,2.22-42,.1-63.07C223.18,10.24,227.13,8.2,238,12.44,239.89,18.67,241.49,24.5,234.45,29.25Zm117.84-19c3.88.44,7.87-.15,11.51,1.78,1.83,9.4.65,18.9.8,28.36.23,14.57-1,16.21-15.22,20.68-8.78,2.77-13.18,9.07-17.19,18,7.75-1.3,12.54-10.78,20.19-3.56,5,4.77-.72,7.32-1.84,10.85-1.73,1.42-2.65,3.29-.28,4.5,1.72.89,3.75.2,4.07-2.38l8.16-8.13a2.2,2.2,0,0,0,1.63.38c2.19,6.61-1,12-4.07,17.37v0a100.86,100.86,0,0,0-21.13,49.36c-13.18,3.4-26.61.66-39.9,1.43-3.23.19-3.24-2-3.48-4.53-.34-3.7,1.36-6.77,2.14-10.12q5.83-10,11.67-20c4.15-4.66,8.8-9,9.91-15.6,2.79-1.11,2.58-4.17,4-6.13,10-6.75,12.81,3.33,18.08,7.66,1,2,2.35,4.85,4.53,3.58,2-1.14,1.21-3.88-1.36-5.08-2.15-4.83-6.62-7.69-9.85-11.61-5.16-6.29-9.8-6.81-13.7,1.19-1.83.79-3.19,2.83-5.59,2.1-.68-3.88-1.43-7.75.28-11.58,3.83.24,7.49,0,10.32-3.77-5.17-.86-10.64.17-13.88-4.33-5.68-7.93-13.91-12.22-22.25-16.46-1.16-1.18-2.32-2.34-3.49-3.51a47.5,47.5,0,0,1-10.87-23.16c0-3.28,0-6.58,0-9.87,1.3-1.73-1.2-4.94,2.28-5.83.42-.11.85-.21,1.28-.3,12.33-2.89,24.89-.38,37.32-1.37-3.7,5.86-9.37,3.2-14.36,3.42a2.05,2.05,0,0,0-.09-.43,5.43,5.43,0,0,0-.62.48c-5,5.81-12,10.44-11,19.63.69,7.06,6.71,11.87,7.6,18.85.2,1.68,2.32,1.12,3.35.78,3.21-1,.23-2.24-.14-3.26-3.9-10.86-2-13.66,9.5-14.25,1.69-.09,4.15,1,4.54-2.51-1.07-2-3.19-1.09-4.92-1.46-2.85-.62-7,1.73-8.16-3-1-4.13,1.73-6.77,4.51-9.12a12.21,12.21,0,0,1,8.11-3c3.06,0,6.07-.34,6.23-4.47C331.44,12.44,341.72,9,352.29,10.23Zm.82,58.63c.57-4.06,5.66-5.44,9.21-7.45a16.66,16.66,0,0,0-.32,2c.26-.27.51-.54.73-.82,0,0,0-.06.09-.09,2,4.18,5.05,8.5-.75,11.6-.36-.27-.73-.52-1.09-.75a10.42,10.42,0,0,1-.52,1.48C356.7,74.33,352.64,72.15,353.11,68.86Zm-63.48,70.42c-1.36,9.78-7.5,10.28-15.25,9.77-7.18-.47-14.4-.13-21.59-.06-2.48,0-4.67-.05-4.51-3.38,5.31-12.71,13.93-23,23.46-32.75.45-.44-.11-1.83-.19-2.79,1.53-3.19,4.63-5.72,4.18-9.71a1.4,1.4,0,0,1,.43-.24h0c2.85.24,5.06-.53,5.59-4.57-3.69-.27-6,.44-5.91,4.54l-.16,0s0,.09,0,.13a.32.32,0,0,0-.1.1c-3.8,1-5.44,3.71-5.92,7.4-3.51,1.92-5.75,8-10.33,5.59-3.22-1.67,1.07-3.67,1.75-6a5.75,5.75,0,0,0,1.63-2c.11-.41.24-.8.38-1.19,3.63-3.28,6.8-6.9,8.43-11.69,5.22-9.94,12.89-18.92,12.18-31.16,1.93-.66,3.83-1.32,5.76-2,10.4,10.78,16,24.64,23.82,37.11.28,7.47-1.84,11.56-10.2,7.47-.9-.45-2.45.35-3.7.58-9.59,7-9.89,7.47-8,14.22,2.53-2.19,5-4.17,7.29-6.36,1.57-1.48,3.24-2.51,5.11-1.09,2.39,1.84-.16,3.6-.85,5-2.28,4.59-5.06,8.92-7.66,13.34A16.45,16.45,0,0,0,289.63,139.28Zm55.39,10c-.13-14,7.69-25.19,13.54-37,.67-1.35,1.35-2.69,2-4,.69-1.89,1.41-3.76,2.12-5.65a1.81,1.81,0,0,1,.23.18l0,0c3.38,2.56,2.24,5.2-.18,7.82a3.11,3.11,0,0,0,.12,1.51c-.9,1.28-1.83,2.57-2.74,3.83-2.94,9.12-7.68,17.75-7.84,27.65C352.23,148.42,349,149.3,345,149.26Zm13.16-9.69c.15-5.52,2.25-10.48,4.44-15.39,1.58-3,3.44-1.87,3.4.44-.09,6.32,1.62,12.83-1.19,19-.36,3.5-3,4.62-5.77,5.6C354.69,146.36,356.1,143,358.18,139.57Zm4.31-31.79-.21.4h.05C362.37,108.05,362.44,107.91,362.49,107.78Zm-99-43.47c4.26-.53,6.59-3.9,8-7.6.73-2-1.32-2.51-2.56-2.87-4.16.89-8.16,1.78-8.79,6.56C259.79,62.46,261.55,64.55,263.46,64.31ZM233.83,123.6c-3.55.52-4.53,3.3-5,6.24-.34,2.32.25,5.33,3,4.9,3.17-.48,4-3.9,4.52-6.82C236.77,125.92,236.66,123.93,233.83,123.6Zm0,0c-3.55.52-4.53,3.3-5,6.24-.34,2.32.25,5.33,3,4.9,3.17-.48,4-3.9,4.52-6.82C236.77,125.92,236.66,123.93,233.83,123.6ZM262,105c-.29.37-.59.73-.89,1.08-3.71-.83-9.41,3.82-10.66-3.83-.43-3.68-2.15-6-6.2-5.87-1.35-.68-2.71-1.34-4.06-2-1.41,1-4.92-1.23-5.86.5a10.13,10.13,0,0,1,4.35,1.35,16.78,16.78,0,0,0,4.5,2.09c3.19.55,4.67,2.78,5.54,5.59,1.86,4.65,4.9,6.17,9,5a12.85,12.85,0,0,0,2.15-.82,8,8,0,0,0,1.29-.8,5.75,5.75,0,0,0,1.63-2c.11-.41.24-.8.38-1.19C262.74,104.33,262.37,104.67,262,105Zm6.86-51.15c-4.16.89-8.16,1.78-8.79,6.56-.28,2.06,1.48,4.15,3.39,3.91,4.26-.53,6.59-3.9,8-7.6C272.15,54.71,270.1,54.2,268.86,53.84Zm75.69,44.82c-2.15-4.83-6.62-7.69-9.85-11.61-5.16-6.29-9.8-6.81-13.7,1.19-1.83.79-3.19,2.83-5.59,2.1-.68-3.88-1.43-7.75.28-11.58,3.83.24,7.49,0,10.32-3.77-5.17-.86-10.64.17-13.88-4.33-5.68-7.93-13.91-12.22-22.25-16.46-1.16-1.18-2.32-2.34-3.49-3.51-.08,1.06-.15,2.13-.25,3.2a24.11,24.11,0,0,0,2.62,2.21,5.08,5.08,0,0,0,.51.41l.41.14c12.58,4.51,18.9,19.37,33.66,20.19-3.53-.18-7.17-1-9.55,2.74a14.26,14.26,0,0,0-1,3.89,8.13,8.13,0,0,0-.07,1.1.15.15,0,0,0,0,.13A11.07,11.07,0,0,0,314.23,90c2.23,2.28,4.56,1.53,6.91.23l.16-.14v0c.31-.32.61-.6.91-.87a3.89,3.89,0,0,1,.75,1.42,1.5,1.5,0,0,0-.23.15c-.25.21-.48.44-.71.67a22.11,22.11,0,0,0-3.37,4.67l-.84,1.52c-.09.17-.18.37-.26.55a65.48,65.48,0,0,1-6.29,10.63c.41,1.43-.66,3.35-1.91,5.38,4.15-4.66,8.8-9,9.91-15.6,2.79-1.11,2.58-4.17,4-6.13,10-6.75,12.81,3.33,18.08,7.66,1,2,2.35,4.85,4.53,3.58C347.89,102.6,347.12,99.86,344.55,98.66Zm-68.69,1.43-.16,0s0,.09,0,.13a.32.32,0,0,0-.1.1c-3.8,1-5.44,3.71-5.92,7.4a1.62,1.62,0,0,1,1,.6,1,1,0,0,1,.15.2,49.08,49.08,0,0,1,4.47-7.54,1.17,1.17,0,0,1,.44-.6,1.4,1.4,0,0,1,.43-.24h0c2.85.24,5.06-.53,5.59-4.57C278.08,95.28,275.75,96,275.86,100.09Zm39.26-2.8c0-.14,0-.28,0-.43q-.21-.61-.48-1.23c-2.55-6.53-6.35-12.45-9.62-18.59-3.87-7.26-8-14.56-15.48-19,0,.37-.06.75-.09,1.12,10.4,10.78,16,24.64,23.82,37.11.28,7.47-1.84,11.56-10.2,7.47-.9-.45-2.45.35-3.7.58,2,2,4.74,2,7.21,2.2a10.61,10.61,0,0,1,2.68.55h0a2.83,2.83,0,0,1,1.95,1.74,65.48,65.48,0,0,0,6.29-10.63A22.16,22.16,0,0,1,315.12,97.29Zm47.16,10.89h.05c0-.14.11-.28.16-.41Zm0,0h.05c0-.14.11-.28.16-.41ZM268.86,53.84c-4.16.89-8.16,1.78-8.79,6.56-.28,2.06,1.48,4.15,3.39,3.91,4.26-.53,6.59-3.9,8-7.6C272.15,54.71,270.1,54.2,268.86,53.84Zm-35,69.76c-3.55.52-4.53,3.3-5,6.24-.34,2.32.25,5.33,3,4.9,3.17-.48,4-3.9,4.52-6.82C236.77,125.92,236.66,123.93,233.83,123.6Zm0,0c-3.55.52-4.53,3.3-5,6.24-.34,2.32.25,5.33,3,4.9,3.17-.48,4-3.9,4.52-6.82C236.77,125.92,236.66,123.93,233.83,123.6ZM262,105c-.29.37-.59.73-.89,1.08-3.71-.83-9.41,3.82-10.66-3.83-.43-3.68-2.15-6-6.2-5.87-1.35-.68-2.71-1.34-4.06-2-1.41,1-4.92-1.23-5.86.5a10.13,10.13,0,0,1,4.35,1.35,16.78,16.78,0,0,0,4.5,2.09c3.19.55,4.67,2.78,5.54,5.59,1.86,4.65,4.9,6.17,9,5a12.85,12.85,0,0,0,2.15-.82,8,8,0,0,0,1.29-.8,5.75,5.75,0,0,0,1.63-2c.11-.41.24-.8.38-1.19C262.74,104.33,262.37,104.67,262,105Zm6.86-51.15c-4.16.89-8.16,1.78-8.79,6.56-.28,2.06,1.48,4.15,3.39,3.91,4.26-.53,6.59-3.9,8-7.6C272.15,54.71,270.1,54.2,268.86,53.84Zm75.69,44.82c-2.15-4.83-6.62-7.69-9.85-11.61-5.16-6.29-9.8-6.81-13.7,1.19-1.83.79-3.19,2.83-5.59,2.1-.68-3.88-1.43-7.75.28-11.58,3.83.24,7.49,0,10.32-3.77-5.17-.86-10.64.17-13.88-4.33-5.68-7.93-13.91-12.22-22.25-16.46-1.16-1.18-2.32-2.34-3.49-3.51-.08,1.06-.15,2.13-.25,3.2a24.11,24.11,0,0,0,2.62,2.21,5.08,5.08,0,0,0,.51.41l.41.14c12.58,4.51,18.9,19.37,33.66,20.19-3.53-.18-7.17-1-9.55,2.74a14.26,14.26,0,0,0-1,3.89,8.13,8.13,0,0,0-.07,1.1.15.15,0,0,0,0,.13A11.07,11.07,0,0,0,314.23,90c2.23,2.28,4.56,1.53,6.91.23l.16-.14v0c.31-.32.61-.6.91-.87a3.89,3.89,0,0,1,.75,1.42,1.5,1.5,0,0,0-.23.15c-.25.21-.48.44-.71.67a22.11,22.11,0,0,0-3.37,4.67l-.84,1.52c-.09.17-.18.37-.26.55a65.48,65.48,0,0,1-6.29,10.63c.41,1.43-.66,3.35-1.91,5.38,4.15-4.66,8.8-9,9.91-15.6,2.79-1.11,2.58-4.17,4-6.13,10-6.75,12.81,3.33,18.08,7.66,1,2,2.35,4.85,4.53,3.58C347.89,102.6,347.12,99.86,344.55,98.66Zm-68.69,1.43-.16,0s0,.09,0,.13a.32.32,0,0,0-.1.1c-3.8,1-5.44,3.71-5.92,7.4a1.62,1.62,0,0,1,1,.6,1,1,0,0,1,.15.2,49.08,49.08,0,0,1,4.47-7.54,1.17,1.17,0,0,1,.44-.6,1.4,1.4,0,0,1,.43-.24h0c2.85.24,5.06-.53,5.59-4.57C278.08,95.28,275.75,96,275.86,100.09Zm39.26-2.8c0-.14,0-.28,0-.43q-.21-.61-.48-1.23c-2.55-6.53-6.35-12.45-9.62-18.59-3.87-7.26-8-14.56-15.48-19,0,.37-.06.75-.09,1.12,10.4,10.78,16,24.64,23.82,37.11.28,7.47-1.84,11.56-10.2,7.47-.9-.45-2.45.35-3.7.58,2,2,4.74,2,7.21,2.2a10.61,10.61,0,0,1,2.68.55h0a2.83,2.83,0,0,1,1.95,1.74,65.48,65.48,0,0,0,6.29-10.63A22.16,22.16,0,0,1,315.12,97.29Zm47.16,10.89h.05c0-.14.11-.28.16-.41Zm0,0h.05c0-.14.11-.28.16-.41ZM268.86,53.84c-4.16.89-8.16,1.78-8.79,6.56-.28,2.06,1.48,4.15,3.39,3.91,4.26-.53,6.59-3.9,8-7.6C272.15,54.71,270.1,54.2,268.86,53.84Zm-35,69.76c-3.55.52-4.53,3.3-5,6.24-.34,2.32.25,5.33,3,4.9,3.17-.48,4-3.9,4.52-6.82C236.77,125.92,236.66,123.93,233.83,123.6Zm0,0c-3.55.52-4.53,3.3-5,6.24-.34,2.32.25,5.33,3,4.9,3.17-.48,4-3.9,4.52-6.82C236.77,125.92,236.66,123.93,233.83,123.6ZM262,105c-.29.37-.59.73-.89,1.08-3.71-.83-9.41,3.82-10.66-3.83-.43-3.68-2.15-6-6.2-5.87-1.35-.68-2.71-1.34-4.06-2-1.41,1-4.92-1.23-5.86.5a10.13,10.13,0,0,1,4.35,1.35,16.78,16.78,0,0,0,4.5,2.09c3.19.55,4.67,2.78,5.54,5.59,1.86,4.65,4.9,6.17,9,5a12.85,12.85,0,0,0,2.15-.82,8,8,0,0,0,1.29-.8,5.75,5.75,0,0,0,1.63-2c.11-.41.24-.8.38-1.19C262.74,104.33,262.37,104.67,262,105Zm6.86-51.15c-4.16.89-8.16,1.78-8.79,6.56-.28,2.06,1.48,4.15,3.39,3.91,4.26-.53,6.59-3.9,8-7.6C272.15,54.71,270.1,54.2,268.86,53.84Zm75.69,44.82c-2.15-4.83-6.62-7.69-9.85-11.61-5.16-6.29-9.8-6.81-13.7,1.19-1.83.79-3.19,2.83-5.59,2.1-.68-3.88-1.43-7.75.28-11.58,3.83.24,7.49,0,10.32-3.77-5.17-.86-10.64.17-13.88-4.33-5.68-7.93-13.91-12.22-22.25-16.46-1.16-1.18-2.32-2.34-3.49-3.51-.08,1.06-.15,2.13-.25,3.2a24.11,24.11,0,0,0,2.62,2.21,5.08,5.08,0,0,0,.51.41l.41.14c12.58,4.51,18.9,19.37,33.66,20.19-3.53-.18-7.17-1-9.55,2.74a14.26,14.26,0,0,0-1,3.89,8.13,8.13,0,0,0-.07,1.1.15.15,0,0,0,0,.13A11.07,11.07,0,0,0,314.23,90c2.23,2.28,4.56,1.53,6.91.23l.16-.14v0c.31-.32.61-.6.91-.87a3.89,3.89,0,0,1,.75,1.42,1.5,1.5,0,0,0-.23.15c-.25.21-.48.44-.71.67a22.11,22.11,0,0,0-3.37,4.67l-.84,1.52c-.09.17-.18.37-.26.55a65.48,65.48,0,0,1-6.29,10.63c.41,1.43-.66,3.35-1.91,5.38,4.15-4.66,8.8-9,9.91-15.6,2.79-1.11,2.58-4.17,4-6.13,10-6.75,12.81,3.33,18.08,7.66,1,2,2.35,4.85,4.53,3.58C347.89,102.6,347.12,99.86,344.55,98.66Zm-68.69,1.43-.16,0s0,.09,0,.13a.32.32,0,0,0-.1.1c-3.8,1-5.44,3.71-5.92,7.4a1.62,1.62,0,0,1,1,.6,1,1,0,0,1,.15.2,49.08,49.08,0,0,1,4.47-7.54,1.17,1.17,0,0,1,.44-.6,1.4,1.4,0,0,1,.43-.24h0c2.85.24,5.06-.53,5.59-4.57C278.08,95.28,275.75,96,275.86,100.09Zm39.26-2.8c0-.14,0-.28,0-.43q-.21-.61-.48-1.23c-2.55-6.53-6.35-12.45-9.62-18.59-3.87-7.26-8-14.56-15.48-19,0,.37-.06.75-.09,1.12,10.4,10.78,16,24.64,23.82,37.11.28,7.47-1.84,11.56-10.2,7.47-.9-.45-2.45.35-3.7.58,2,2,4.74,2,7.21,2.2a10.61,10.61,0,0,1,2.68.55h0a2.83,2.83,0,0,1,1.95,1.74,65.48,65.48,0,0,0,6.29-10.63A22.16,22.16,0,0,1,315.12,97.29ZM268.86,53.84c-4.16.89-8.16,1.78-8.79,6.56-.28,2.06,1.48,4.15,3.39,3.91,4.26-.53,6.59-3.9,8-7.6C272.15,54.71,270.1,54.2,268.86,53.84Zm-35,69.76c-3.55.52-4.53,3.3-5,6.24-.34,2.32.25,5.33,3,4.9,3.17-.48,4-3.9,4.52-6.82C236.77,125.92,236.66,123.93,233.83,123.6Zm0,0c-3.55.52-4.53,3.3-5,6.24-.34,2.32.25,5.33,3,4.9,3.17-.48,4-3.9,4.52-6.82C236.77,125.92,236.66,123.93,233.83,123.6ZM262,105c-.29.37-.59.73-.89,1.08-3.71-.83-9.41,3.82-10.66-3.83-.43-3.68-2.15-6-6.2-5.87-1.35-.68-2.71-1.34-4.06-2-1.41,1-4.92-1.23-5.86.5a10.13,10.13,0,0,1,4.35,1.35,16.78,16.78,0,0,0,4.5,2.09c3.19.55,4.67,2.78,5.54,5.59,1.86,4.65,4.9,6.17,9,5a12.85,12.85,0,0,0,2.15-.82,8,8,0,0,0,1.29-.8,5.75,5.75,0,0,0,1.63-2c.11-.41.24-.8.38-1.19C262.74,104.33,262.37,104.67,262,105Zm6.86-51.15c-4.16.89-8.16,1.78-8.79,6.56-.28,2.06,1.48,4.15,3.39,3.91,4.26-.53,6.59-3.9,8-7.6C272.15,54.71,270.1,54.2,268.86,53.84Zm75.69,44.82c-2.15-4.83-6.62-7.69-9.85-11.61-5.16-6.29-9.8-6.81-13.7,1.19-1.83.79-3.19,2.83-5.59,2.1-.68-3.88-1.43-7.75.28-11.58,3.83.24,7.49,0,10.32-3.77-5.17-.86-10.64.17-13.88-4.33-5.68-7.93-13.91-12.22-22.25-16.46-1.16-1.18-2.32-2.34-3.49-3.51-.08,1.06-.15,2.13-.25,3.2a24.11,24.11,0,0,0,2.62,2.21,5.08,5.08,0,0,0,.51.41l.41.14c12.58,4.51,18.9,19.37,33.66,20.19-3.53-.18-7.17-1-9.55,2.74a14.26,14.26,0,0,0-1,3.89,8.13,8.13,0,0,0-.07,1.1.15.15,0,0,0,0,.13A11.07,11.07,0,0,0,314.23,90c2.23,2.28,4.56,1.53,6.91.23l.16-.14v0c.31-.32.61-.6.91-.87a3.89,3.89,0,0,1,.75,1.42,1.5,1.5,0,0,0-.23.15c-.25.21-.48.44-.71.67a22.11,22.11,0,0,0-3.37,4.67l-.84,1.52c-.09.17-.18.37-.26.55a65.48,65.48,0,0,1-6.29,10.63c.41,1.43-.66,3.35-1.91,5.38,4.15-4.66,8.8-9,9.91-15.6,2.79-1.11,2.58-4.17,4-6.13,10-6.75,12.81,3.33,18.08,7.66,1,2,2.35,4.85,4.53,3.58C347.89,102.6,347.12,99.86,344.55,98.66Zm-68.69,1.43-.16,0s0,.09,0,.13a.32.32,0,0,0-.1.1c-3.8,1-5.44,3.71-5.92,7.4a1.62,1.62,0,0,1,1,.6,1,1,0,0,1,.15.2,49.08,49.08,0,0,1,4.47-7.54,1.17,1.17,0,0,1,.44-.6,1.4,1.4,0,0,1,.43-.24h0c2.85.24,5.06-.53,5.59-4.57C278.08,95.28,275.75,96,275.86,100.09Zm39.26-2.8c0-.14,0-.28,0-.43q-.21-.61-.48-1.23c-2.55-6.53-6.35-12.45-9.62-18.59-3.87-7.26-8-14.56-15.48-19,0,.37-.06.75-.09,1.12,10.4,10.78,16,24.64,23.82,37.11.28,7.47-1.84,11.56-10.2,7.47-.9-.45-2.45.35-3.7.58,2,2,4.74,2,7.21,2.2a10.61,10.61,0,0,1,2.68.55h0a2.83,2.83,0,0,1,1.95,1.74,65.48,65.48,0,0,0,6.29-10.63A22.16,22.16,0,0,1,315.12,97.29ZM268.86,53.84c-4.16.89-8.16,1.78-8.79,6.56-.28,2.06,1.48,4.15,3.39,3.91,4.26-.53,6.59-3.9,8-7.6C272.15,54.71,270.1,54.2,268.86,53.84Zm-35,69.76c-3.55.52-4.53,3.3-5,6.24-.34,2.32.25,5.33,3,4.9,3.17-.48,4-3.9,4.52-6.82C236.77,125.92,236.66,123.93,233.83,123.6ZM262,105c-.29.37-.59.73-.89,1.08-3.71-.83-9.41,3.82-10.66-3.83-.43-3.68-2.15-6-6.2-5.87-1.35-.68-2.71-1.34-4.06-2-1.41,1-4.92-1.23-5.86.5a10.13,10.13,0,0,1,4.35,1.35,16.78,16.78,0,0,0,4.5,2.09c3.19.55,4.67,2.78,5.54,5.59,1.86,4.65,4.9,6.17,9,5a12.85,12.85,0,0,0,2.15-.82,8,8,0,0,0,1.29-.8,5.75,5.75,0,0,0,1.63-2c.11-.41.24-.8.38-1.19C262.74,104.33,262.37,104.67,262,105Zm6.86-51.15c-4.16.89-8.16,1.78-8.79,6.56-.28,2.06,1.48,4.15,3.39,3.91,4.26-.53,6.59-3.9,8-7.6C272.15,54.71,270.1,54.2,268.86,53.84Zm75.69,44.82c-2.15-4.83-6.62-7.69-9.85-11.61-5.16-6.29-9.8-6.81-13.7,1.19-1.83.79-3.19,2.83-5.59,2.1-.68-3.88-1.43-7.75.28-11.58,3.83.24,7.49,0,10.32-3.77-5.17-.86-10.64.17-13.88-4.33-5.68-7.93-13.91-12.22-22.25-16.46-1.16-1.18-2.32-2.34-3.49-3.51-.08,1.06-.15,2.13-.25,3.2a24.11,24.11,0,0,0,2.62,2.21,5.08,5.08,0,0,0,.51.41l.41.14c12.58,4.51,18.9,19.37,33.66,20.19-3.53-.18-7.17-1-9.55,2.74a14.26,14.26,0,0,0-1,3.89,8.13,8.13,0,0,0-.07,1.1.15.15,0,0,0,0,.13A11.07,11.07,0,0,0,314.23,90c2.23,2.28,4.56,1.53,6.91.23l.16-.14v0c.31-.32.61-.6.91-.87a3.89,3.89,0,0,1,.75,1.42,1.5,1.5,0,0,0-.23.15c-.25.21-.48.44-.71.67a22.11,22.11,0,0,0-3.37,4.67l-.84,1.52c-.09.17-.18.37-.26.55a65.48,65.48,0,0,1-6.29,10.63c.41,1.43-.66,3.35-1.91,5.38,4.15-4.66,8.8-9,9.91-15.6,2.79-1.11,2.58-4.17,4-6.13,10-6.75,12.81,3.33,18.08,7.66,1,2,2.35,4.85,4.53,3.58C347.89,102.6,347.12,99.86,344.55,98.66Zm-68.69,1.43-.16,0s0,.09,0,.13a.32.32,0,0,0-.1.1c-3.8,1-5.44,3.71-5.92,7.4a1.62,1.62,0,0,1,1,.6,1,1,0,0,1,.15.2,49.08,49.08,0,0,1,4.47-7.54,1.17,1.17,0,0,1,.44-.6,1.4,1.4,0,0,1,.43-.24h0c2.85.24,5.06-.53,5.59-4.57C278.08,95.28,275.75,96,275.86,100.09Zm39.26-2.8c0-.14,0-.28,0-.43q-.21-.61-.48-1.23c-2.55-6.53-6.35-12.45-9.62-18.59-3.87-7.26-8-14.56-15.48-19,0,.37-.06.75-.09,1.12,10.4,10.78,16,24.64,23.82,37.11.28,7.47-1.84,11.56-10.2,7.47-.9-.45-2.45.35-3.7.58,2,2,4.74,2,7.21,2.2a10.61,10.61,0,0,1,2.68.55h0a2.83,2.83,0,0,1,1.95,1.74,65.48,65.48,0,0,0,6.29-10.63A22.16,22.16,0,0,1,315.12,97.29ZM268.86,53.84c-4.16.89-8.16,1.78-8.79,6.56-.28,2.06,1.48,4.15,3.39,3.91,4.26-.53,6.59-3.9,8-7.6C272.15,54.71,270.1,54.2,268.86,53.84Zm75.69,44.82c-2.15-4.83-6.62-7.69-9.85-11.61-5.16-6.29-9.8-6.81-13.7,1.19-1.83.79-3.19,2.83-5.59,2.1-.68-3.88-1.43-7.75.28-11.58,3.83.24,7.49,0,10.32-3.77-5.17-.86-10.64.17-13.88-4.33-5.68-7.93-13.91-12.22-22.25-16.46-1.16-1.18-2.32-2.34-3.49-3.51-.08,1.06-.15,2.13-.25,3.2a24.11,24.11,0,0,0,2.62,2.21,5.08,5.08,0,0,0,.51.41l.41.14c12.58,4.51,18.9,19.37,33.66,20.19-3.53-.18-7.17-1-9.55,2.74a14.26,14.26,0,0,0-1,3.89,8.13,8.13,0,0,0-.07,1.1.15.15,0,0,0,0,.13A11.07,11.07,0,0,0,314.23,90c2.23,2.28,4.56,1.53,6.91.23l.16-.14v0c.31-.32.61-.6.91-.87a3.89,3.89,0,0,1,.75,1.42,1.5,1.5,0,0,0-.23.15c-.25.21-.48.44-.71.67a22.11,22.11,0,0,0-3.37,4.67l-.84,1.52c-.09.17-.18.37-.26.55a65.48,65.48,0,0,1-6.29,10.63c.41,1.43-.66,3.35-1.91,5.38,4.15-4.66,8.8-9,9.91-15.6,2.79-1.11,2.58-4.17,4-6.13,10-6.75,12.81,3.33,18.08,7.66,1,2,2.35,4.85,4.53,3.58C347.89,102.6,347.12,99.86,344.55,98.66Z"/><path class="cls-1" d="M344.34,273.9c-13.52-8.89-29.86-1.61-33.07,14.59-1.67,8.44-1.28,16.91-.3,25.39.61,5.29-1.9,8.51-7,8.35-5.39-.16-2.9-4.86-3.11-7.61-.45-5.86-.07-11.77-.54-17.63-.34-4.1-.21-8.88-5.32-10.66s-9.13.84-12.4,4c-10.43,10.07-19.28,21.31-25.07,34.78-2.32,5.38-1.87,10.22,1.32,14.86,5.93,8.6,13.8,7.42,24.78-4.12,7.09,14.77,9,15,19.77,3.14,1.13-1.23,2.3-2.66,4.05-2.19,2.58.69,1.76,3.13,1.85,4.91.45,7.84-.34,15.77,1.87,23.43,1.34,4.69,2.91,10.65,9,9.57,5.78-1,8.06-6.17,7.1-12.21s-1.38-12.4-3-18.35c-2.47-9.14.2-14.05,9.8-15.53,6.88-1.07,14.32-4.33,11.83-12.33-2.83-9-10.08-3.33-15.66-1.55-2.6.82-6.4,3.17-6.77-1.75-.61-8.08-1.6-16.53,2.14-24.16,2.69-5.46,7.09-7.44,12.88-3.36,3.38,2.39,7.41,6,10.8.43C352.75,280.22,348.56,276.66,344.34,273.9Zm-71,57.2c-2.68.32-3.1-1.4-3.33-3.54-.68-6.22,8.85-22.47,14.84-25.39,2-1,3.49-1.5,4.4,1.34C291.13,309.35,279,330.5,273.33,331.1Z"/><path class="cls-1" d="M189,248.69c-2.87-12.29-1.73-24.73-2.67-37.06-.32-4.33.05-9.71-5.72-11.36-4.93-1.43-9.08.8-12.45,4.13-10.55,10.42-19.65,21.88-25.25,35.81-1.23,3-.76,8.25-6,7.27s-4.27-5.53-4-9.53c.46-7.5.73-15,.75-22.52,0-3.87.23-9.05-4.3-9.94-5.45-1.07-6.3,4.63-7.84,8.35-2.65,6.47-2.63,13.4-3,20.26-.21,4.1.45,9.74-5.39,9.89-6.45.16-5-5.79-5-9.68,0-9.14.53-18.3.92-27.43.22-4.73-2.12-7.49-6.53-8.31-4-.75-6.44,1.61-6.67,5.37-1,17-2.19,34.06,2.16,50.72,2.9,11.06,8.19,12.25,17,5.09,2.15-1.76,3.15-5.48,7.89-2.67,13.58,8.05,34.35,4.79,46.48-6.47,4.49,9.41,6.9,11.65,11.69,10C186.37,258.65,190.32,254.57,189,248.69Zm-28-3.26A19,19,0,0,1,159,246c-3.25.05-3.83-2.15-3.34-4.6,2-9.53,6.17-17.94,14-24,3.7-2.85,6.09-1.17,6.3,3.37S164.81,243.75,160.91,245.43Z"/><path class="cls-1" d="M446.28,256.9c-3.45-14.64-5.74-29.45-3.56-44.66a209.56,209.56,0,0,0,1.92-25.41c.11-4.65-2.42-8.19-7.85-8.07-4.92.09-5.35,3.65-5.87,7.45a63.32,63.32,0,0,0,.13,16.62c.61,4.85.09,9.68-4.51,12.08-12.75,6.72-23.41,16.09-34.93,28,0-18.94-.06-35.49,0-52,0-4.88-.05-9.85-6.57-9.67-5.63.16-7.45,4.1-7.49,9.48-.12,18-.55,36-.8,53.94-.1,8.11,3.49,15.54,4.55,23.56s11.29,9.81,20.5,4.52c10.87-6.27,19.22-15.41,27.92-26.74,1.48,6.4,2.37,10.48,3.37,14.54,1.1,4.45,1.87,10,8.39,8.19C447.46,267,447.64,262.57,446.28,256.9Zm-49.6,4.21c-3.2,0-3.79-2.91-2.15-5.15,7.25-10,15.43-19.23,25.74-26.23,2.44-1.65,4.35-.28,4.26,2.89C424.37,237.71,402.58,260.61,396.68,261.11Z"/><path class="cls-1" d="M587.49,247.33a12.87,12.87,0,0,1-4.42,2.09c-24.19,7.25-47.64,16.51-70.94,26.17-2.75,1.14-5.51,2.28-8.55,1.57a9,9,0,0,1-6.9-6.34c-1.41-4.48,1.05-7.49,4.37-10q18.36-14,36.7-28.1c1.24-1,2.38-2.07,5.61-4.88-10.55.23-17.09,5.22-24.52,7.29-4.54,1.26-9.88,4.22-12.66-2.43-2.85-6.84,2.24-9.49,7.34-11.44a273.38,273.38,0,0,1,47.16-13.57c4.77-.89,9.65-1.23,12.11,3.65,2.9,5.72-.48,10-4.93,13.43-11.94,9.14-24,18.21-35.05,29,12.29-4.93,24.57-9.9,36.88-14.78,4.54-1.8,9.1-3.85,14.18-3.59,3,.16,6.06.63,6.86,4.28C591.43,242.85,589.91,245.41,587.49,247.33Z"/><path class="cls-1" d="M283.11,367.3c-10.66,6.51-22.08,9.43-34.71,6.38-25.47-6.16-41.19-27-39-52.29,2.6-30.41,20.73-49.47,48.37-50.82,5.66-.29,11.2.14,15.83,3.88,2.25,1.82,5.05,4,3.6,7.3-1.35,3.1-4.54,3.23-7.68,2.91-29.55-3-49.4,18.69-44.12,48.14,3.11,17.44,14.05,26,32.65,25.58,6.17-.5,12.42-.2,18-3.88,3.59-2.41,8.17-4.6,11.2.3C290.43,360,287.63,364.54,283.11,367.3Z"/><path class="cls-1" d="M334.74,189.1a26.26,26.26,0,0,1-1.86,5.55c-9.67,23.56-17.88,47.63-26,71.73-1.66,4.93-3,10.4-9.73,10.72s-8.59-5.11-10.53-9.88c-8.21-20.26-16.39-40.53-24.26-60.91A51,51,0,0,1,259.59,193c-.5-5.09.27-10.49,6.38-11.6s8.43,3.55,9.92,8.63q6.87,23.46,13.92,46.9c1.94,6.52,4,13,6,19.5.82-.06,1.64-.09,2.44-.15C303.17,241.15,307.91,226,313,211c2.91-8.65,6.37-17.11,9.57-25.66,1.32-3.49,2.91-7.25,7.5-5.82S335.43,184.87,334.74,189.1Z"/><path class="cls-1" d="M497.72,217.51c2.54-13.09-5.92-21.07-18.85-17.81-9.09,2.28-15.45,8.4-21.12,15.23-9.44,11.33-11,26.86-4.15,37.43,5.33,8.23,19.94,12.5,33.09,9.83,3.77-.78,7.25-2,7.44-6.36.18-4.13-2.79-6.8-6.36-7.75-5-1.32-10.24-1.76-15.87-2.63,6.47-5,12.24-9.2,17.76-13.72A23.62,23.62,0,0,0,497.72,217.51Zm-14.26-.69c-5.25,6.93-11.83,12.38-20.43,19.09,1.78-13.37,10.05-18.67,17.74-24.35,1-.68,2.37-1.57,3.39-.11C485.49,213.36,484.67,215.23,483.46,216.82Z"/><path class="cls-1" d="M379.88,356.78c-4.75-.79-9.58-1.09-17-1.89,9.58-6.38,17.63-10.94,23.26-18.32s6.35-19.54,1.54-24.64-15.54-5.54-23.68-.05A66.82,66.82,0,0,0,351.5,322.8c-9.74,11-11.81,26.51-5.56,37.33,5.08,8.72,19.8,13.57,33.5,11.09,3.81-.69,7.3-2.17,7.52-6.43C387.19,360.27,384.25,357.49,379.88,356.78Zm-6.55-36.17c1.33-1,3.45-1.48,4.2.39.46,1.16-.25,3.23-1.1,4.4-5,6.84-11.19,12.44-20.35,18.42C358.27,331,366.11,326,373.33,320.61Z"/><path class="cls-1" d="M245.43,258.52c-.84,3.9-2.48,8-7.16,8.2-4.4.16-7-3.08-8.31-7.11-2.72-8.05-.9-16.23-.64-24.34.18-5.72,3-14-3.93-15.44-7.2-1.52-8.5,7.35-10.84,12.77-2.9,6.75-2.38,14.13-3,21.27-.37,4.1-1.67,7-6.27,7.11-4.81.11-7.64-2.69-7.59-7.16.15-15.37.52-30.75,1.25-46.09A6.93,6.93,0,0,1,207,201c6.77.8,5.63,6.89,6.56,13.15,3.08-2.75,4.93-4.49,6.87-6.09,4-3.37,8.54-5.06,13.61-2.64s8.25,6.14,8.13,12.26c-.25,11.15,1.21,22.16,3.33,33.12A19.68,19.68,0,0,1,245.43,258.52Z"/><path class="cls-1" d="M368.66,253.14c-2.83-12.63-1.73-25.4-2.57-38.09-.71-10.74-7.64-14.23-15.85-7.41-12.49,10.35-22.17,23.14-27.76,38.59-2.53,7,.57,12.38,6,16.07,5.26,3.55,10.76,2.19,15.23-2.12,1.84-1.76,3.05-4.17,5.17-7.18,2.78,7,3.46,13.77,11.15,12.36C366.43,264.19,370.05,259.4,368.66,253.14Zm-27.31-4.66c-3.26,2.81-5.28,1.22-5.42-2.94-.25-6.58,8.71-21.85,14.52-24.52,5.29-2.42,4.06,1.66,4.35,4.86A41,41,0,0,1,341.35,248.48Z"/><path class="cls-1" d="M384,285.09c-.07,4.65-12.77,16.17-16.74,15.35-3.78-.78-6.35-3.81-4.28-7.1,3.42-5.49,8.05-10.37,14.41-12.71C381.54,279.1,383.25,281.88,384,285.09Z"/><path class="cls-1" d="M403.33,361.94c-1.2,2.44-1.34,5.79-4.87,5.45-3.24-.3-7.14-1.35-7.14-5.11,0-2.71,3-5.61,5.92-5.66S401.8,359.59,403.33,361.94Z"/><path class="cls-1" d="M306.59,19.26a12.21,12.21,0,0,1,8.11-3c3.06,0,6.07-.34,6.23-4.47-7.37,2.26-15.62,3-19.93,10.83-2.61,4.68-1.5,8.41,3.2,11-6.61,1.8-7.59,6.35-6,12.17.07.23.12.41.18.55a2.82,2.82,0,0,1-.41-1.14c-5.86-9-6.17-18.74,2.76-27.91a4.48,4.48,0,0,0,1.33-3.74,2.05,2.05,0,0,0-.09-.43,5.43,5.43,0,0,0-.62.48c-5,5.81-12,10.44-11,19.63.69,7.06,6.71,11.87,7.6,18.85.2,1.68,2.32,1.12,3.35.78,3.21-1,.23-2.24-.14-3.26-3.9-10.86-2-13.66,9.5-14.25,1.69-.09,4.15,1,4.54-2.51-1.07-2-3.19-1.09-4.92-1.46-2.85-.62-7,1.73-8.16-3C301.08,24.25,303.81,21.61,306.59,19.26Zm-7.86,27.36.07,0C299.5,46.11,299.18,46.77,298.73,46.62Z"/><path class="cls-1" d="M332.67,54c-.94,1.86-2.53.36-4,.06-7.05-1.44-14.14-2.14-21.06,2.21-1-4.51.77-6.75,5-7.45h0c5.93-1.75,11.85-3.35,17.67.41C331.17,50.85,333.79,51.83,332.67,54Z"/><path class="cls-1" d="M335.88,29.81c-1.57,2.69-2.69,5.88-6.45,4.82-2-.55-5.17-1-4.56-4,.71-3.48,3.85-4.06,6.95-3.67C333.56,27.17,335.79,27.2,335.88,29.81Z"/><path class="cls-1" d="M345.91,103.74c-2.18,1.27-3.56-1.58-4.53-3.58-5.27-4.33-8.09-14.41-18.08-7.66-1.46,2-1.25,5-4,6.13-1.11,6.59-5.76,10.94-9.91,15.6q-5.82,10-11.67,20a24.67,24.67,0,0,1,2-8.08s0,0,0,0c.5-1.11,1-2.17,1.64-3.23,0,0,0,0,0-.05.62-1.1,1.3-2.17,2-3.24a.81.81,0,0,0,.14-.2c.72-1.07,1.45-2.12,2.2-3.17s1.33-1.9,2-2.85,1.37-1.64,2-2.48c.54-.67,1.06-1.35,1.54-2a65.48,65.48,0,0,0,6.29-10.63c.08-.18.17-.38.26-.55l.84-1.52A22.11,22.11,0,0,1,322,91.48c.23-.23.46-.46.71-.67a1.5,1.5,0,0,1,.23-.15c9-6,13.54.5,18.12,6.68.18,0-.07.61.37.24-1.4-2.28-3.31-4-4.95-6-4.33-5.2-9.07-7-14.29-2.31-.3.27-.6.55-.91.87v0l-.16.14c-2.35,1.3-4.68,2-6.91-.23a11.07,11.07,0,0,1-1.46-5.34.15.15,0,0,1,0-.13,8.13,8.13,0,0,1,.07-1.1,14.26,14.26,0,0,1,1-3.89c2.38-3.7,6-2.92,9.55-2.74-14.76-.82-21.08-15.68-33.66-20.19l-.41-.14a5.08,5.08,0,0,1-.51-.41,24.11,24.11,0,0,1-2.62-2.21c-.54-.5-1.05-1-1.54-1.55-.26-.26-.49-.53-.74-.82-5.7-7.35-10.19-15.23-10.62-24.83a17.64,17.64,0,0,1,.53-5.74,10.67,10.67,0,0,1,.77-1.82,9.33,9.33,0,0,1,1-1.47c0,3.29,0,6.59,0,9.87a47.5,47.5,0,0,0,10.87,23.16c1.17,1.17,2.33,2.33,3.49,3.51,8.34,4.24,16.57,8.53,22.25,16.46,3.24,4.5,8.71,3.47,13.88,4.33-2.83,3.76-6.49,4-10.32,3.77-1.71,3.83-1,7.7-.28,11.58,2.4.73,3.76-1.31,5.59-2.1,3.9-8,8.54-7.48,13.7-1.19,3.23,3.92,7.7,6.78,9.85,11.61C347.12,99.86,347.89,102.6,345.91,103.74Z"/><path class="cls-1" d="M356,41.19c-.72,2.81-1.53,5.58-4.35,7.61-2.8-2.85,2.39-6.91-1.44-9.34-4.12.43-3,5.47-7,7.32.86-10.76-2-20.45-6-30.6,4.9-1,10-2.27,13.18,2.4C354.92,25.24,362.07,31.69,356,41.19Z"/><path class="cls-1" d="M360.16,98l0,0a.07.07,0,0,1,0,0c-7.93,16.09-14.75,32.66-21.19,49.4a100.86,100.86,0,0,1,21.13-49.36v0c3.1-5.4,6.26-10.76,4.07-17.37C367.38,87.49,365.42,93.12,360.16,98Z"/><path class="cls-1" d="M366.31,23.87c.25,6.86,0,13.74.07,20.6.05,8.94-4.05,14.86-12.54,17.78-5.6,1.9-11.09,4-14.45,10.17,5.52-1.73,10.62-2.78,14.62,2,3,3.54,2.68,7.16-.1,10.63-.23.34-.75.68-.82,1.11-.06.26.53.17.87-.54,2.44-2.49,4.08-6.16,8.53-5.31l-8.16,8.13C354,91,352,91.71,350.26,90.82c-2.37-1.21-1.45-3.08.28-4.5,1.12-3.53,6.88-6.08,1.84-10.85-7.65-7.22-12.44,2.26-20.19,3.56,4-8.91,8.41-15.21,17.19-18,14.25-4.47,15.45-6.11,15.22-20.68-.15-9.46,1-19-.8-28.36C367.84,15.27,366.15,19.83,366.31,23.87Z"/><path class="cls-1" d="M268.86,53.84c1.24.36,3.29.87,2.56,2.87-1.37,3.7-3.7,7.07-8,7.6-1.91.24-3.67-1.85-3.39-3.91C260.7,55.62,264.7,54.73,268.86,53.84Z"/><path class="cls-1" d="M234.44,41.67c-1.38-3.38-5.05-9,0-12.42,7-4.75,5.44-10.58,3.57-16.81,5.68,5.18,5.45,10.54.44,16-2.35,2.58-4.17,5.77-1.8,8.75,2.87,3.6,5.94.18,8.61-1.14A34.45,34.45,0,0,0,261,20.72c2.25-4.26,3.32-10.74,10.6-10.19-4.7,1.94-6.43,6.54-8.05,10.51-4,9.89-12,15.11-20.93,19.4C240.12,41.67,236,45.66,234.44,41.67Z"/><path class="cls-1" d="M283.13,56.87a65.12,65.12,0,0,0-1.06,7c-.12,1-.26,2-.48,2.94-.28.55-.57,1.1-.83,1.65-1.95,3.85-3.58,7.82-5.17,11.83-1.32,3.3-2.6,6.61-4,9.89-.25.41-.52.84-.8,1.23a8,8,0,0,1-.54.8c-2.6,3.81-5.64,7.38-7.14,11.85-.14.39-.27.78-.38,1.19a5.75,5.75,0,0,1-1.63,2,8,8,0,0,1-1.29.8,12.85,12.85,0,0,1-2.15.82c-4.05,1.2-7.09-.32-9-5-.87-2.81-2.35-5-5.54-5.59a16.78,16.78,0,0,1-4.5-2.09,10.13,10.13,0,0,0-4.35-1.35c-.59-.07-1.18-.11-1.78-.13a23.52,23.52,0,0,1-6.11-.67c4.63-1.82,9.24-3,13.75.3,1.35.66,2.71,1.32,4.06,2,4.05-.13,5.77,2.19,6.2,5.87,1.25,7.65,6.95,3,10.66,3.83.3-.35.6-.71.89-1.08-1.93-7.29,4.18-10.6,7.53-15.29,2.91-7.89,4.08-16.57,10.46-22.89-.14-3.51-.77-7.11,1.5-10.28.25-8.55-9.82-12.24-9.84-20.68A18.72,18.72,0,0,1,271.58,21c.14-1.09.29-2.19.43-3.28a5.53,5.53,0,0,1,1.19,4c-.91,4.54-1.35,9.09.36,13.56C275.63,43,284.3,47.75,283.13,56.87Z"/><path class="cls-1" d="M271.55,110.07c.08,1,.64,2.35.19,2.79-9.53,9.71-18.15,20-23.46,32.75a44.72,44.72,0,0,0,2.9-9.32.1.1,0,0,0,0-.07c.16-.87.29-1.75.37-2.62a16.51,16.51,0,0,1,.79-3.74v0a11.42,11.42,0,0,1,6.38-6.93c5.73-2.6,8.82-7.34,11.2-12.76.23-.42.45-.85.68-1.28a2.24,2.24,0,0,1,.2-.37,49.08,49.08,0,0,1,4.47-7.54,1.17,1.17,0,0,1,.44-.6C276.18,104.35,273.08,106.88,271.55,110.07Z"/><path class="cls-1" d="M275.7,100.07l.16,0v0a.07.07,0,0,0-.07,0h0s0,0-.06,0S275.7,100.11,275.7,100.07Z"/><path class="cls-1" d="M281.77,95.55c-.53,4-2.74,4.81-5.59,4.57a.79.79,0,0,1,.27-.1,1.21,1.21,0,0,0-.58.07h0C275.75,96,278.08,95.28,281.77,95.55Z"/><path class="cls-1" d="M315.16,96.86c0,.15,0,.29,0,.43-.6,7.16-1.12,9.34-5.81,9.82h0a60.38,60.38,0,0,1-7.72,0,5.51,5.51,0,0,0-.92.13c-2.36.48-4,2.37-6.31,4.33,4.15-1.16,7.75-5.24,11-1.18a5,5,0,0,1,.38,5.86,18,18,0,0,1-2.2,3.17.81.81,0,0,1-.14.2l-.3.36a13.29,13.29,0,0,0-1.69,2.88s0,0,0,.05c-.54,1.09-1,2.21-1.64,3.23,0,0,0,0,0,0a6.61,6.61,0,0,1-4.34,3.29c2.6-4.42,5.38-8.75,7.66-13.34.69-1.36,3.24-3.12.85-5-1.87-1.42-3.54-.39-5.11,1.09-2.28,2.19-4.76,4.17-7.29,6.36-1.94-6.75-1.64-7.27,8-14.22,1.25-.23,2.8-1,3.7-.58,8.36,4.09,10.48,0,10.2-7.47C305.5,83.84,299.89,70,289.49,59.2c-1.93.64-3.83,1.3-5.76,2,.71,12.24-7,21.22-12.18,31.16-1.63,4.79-4.8,8.41-8.43,11.69-.14.39-.27.78-.38,1.19a5.75,5.75,0,0,1-1.63,2c-.68,2.37-5,4.37-1.75,6,4.58,2.39,6.82-3.67,10.33-5.59.48-3.69,2.12-6.44,5.92-7.4a1.38,1.38,0,0,0-.34.66,45.57,45.57,0,0,0-4.6,7.34l-.21.38c-.25.46-.5.92-.77,1.39a11,11,0,0,1-3.27,3.43c-2.82,1.86-6.22,3.34-8.5.13a3.87,3.87,0,0,1-.25-4.76,9.47,9.47,0,0,1,3.44-2.8c.3-.35.6-.71.89-1.08,1.67-4.92,5.2-8.71,8.05-12.9l.62-.91a.75.75,0,0,1,.07-.12c1.39-3.71,3.1-7.26,4.85-10.82a112.65,112.65,0,0,0,5.17-11.83,39.53,39.53,0,0,0,1.31-4.59,30.88,30.88,0,0,0,.65-3.18,7.74,7.74,0,0,1,1-1.21,6.58,6.58,0,0,1,1.42-1,5.76,5.76,0,0,1,3.65-.57v0a3,3,0,0,1,.43,0c.11.05.22.13.31.18,7.48,4.4,11.61,11.7,15.48,19,3.27,6.14,7.07,12.06,9.62,18.59Q315,96.25,315.16,96.86Z"/><path class="cls-1" d="M236.41,127.92c-.5,2.92-1.35,6.34-4.52,6.82-2.76.43-3.35-2.58-3-4.9.42-2.94,1.4-5.72,5-6.24C236.66,123.93,236.77,125.92,236.41,127.92Z"/><path class="cls-1" d="M252.77,121.47c-.14,2.76-.16,5.57-.39,8.35a.06.06,0,0,0,0,0,32.67,32.67,0,0,1-1.16,6.36.28.28,0,0,1,0,.12,19.67,19.67,0,0,1-3.27,6.45c.62-6.11,1.48-12.2,1.85-18.33,1-16.28-1.09-19.72-15.36-26.35L228.45,98a6.05,6.05,0,0,1,3.92-1.72,12.48,12.48,0,0,1,1.73,0c.28,0,.55,0,.83.07C248.85,101.19,253.46,107.23,252.77,121.47Z"/><path class="cls-1" d="M242.79,10.23l0,0c-2-.25-3.78.21-4.74,2.25,1.87,6.23,3.47,12.06-3.57,16.81-5.06,3.42-1.39,9,0,12.42,1.6,4,5.68,0,8.21-1.23,8.89-4.29,16.91-9.51,20.93-19.4,1.62-4,3.35-8.57,8.05-10.51C262.05,7.93,252.45,5.43,242.79,10.23Zm0,.07c3.26,0,6.57-.45,9.74,0s8.06-2.37,9.43,2.23c.85,2.86-3.14,4.75-5.61,6.11-3.89,2.14-8,2.51-11.46-1.21A8.06,8.06,0,0,1,242.74,10.3Z"/><path class="cls-1" d="M364.45,76.8l0,0v0l-2,3.47-8.16,8.13c-2.4,1.3-4.13,1.4-3.79-2.12,1.12-3.53,6.88-6.08,1.84-10.85-7.65-7.22-12.44,2.26-20.19,3.56,4-8.91,8.41-15.21,17.19-18,14.25-4.47,15.45-6.11,15.22-20.68-.15-9.46,1-19-.8-28.36,3.47.84,4.66,3.31,4.52,6.57-.59,13.52,2.35,27.37-3.88,40.35a6.41,6.41,0,0,1-1.62,3.57s-.08,0-.09.09c-.22.28-.47.55-.73.82a16.66,16.66,0,0,1,.32-2c-3.55,2-8.64,3.39-9.21,7.45-.47,3.29,3.59,5.47,7.35,6a10.42,10.42,0,0,0,.52-1.48c.36.23.73.48,1.09.75A6.64,6.64,0,0,1,364.45,76.8Z"/><path class="cls-1" d="M271.74,112.86c-9.53,9.71-18.15,20-23.46,32.75-.14-1-.27-1.87-.39-2.82.62-6.11,1.48-12.2,1.85-18.33,1-16.28-1.09-19.72-15.36-26.35a5.06,5.06,0,0,1-2-1.83,1.26,1.26,0,0,1,.18-1.54.41.41,0,0,1,.09-.1c2.13-2.18,5-1.62,7.55-.27,1.35.66,2.71,1.32,4.06,2,2.59,1.42,4.37,3.67,6.2,5.87,1.25,7.65,6.95,3,10.66,3.83a2.15,2.15,0,0,1,0,1.18c-.68,2.37-5,4.37-1.75,6,4.58,2.39,6.82-3.67,10.33-5.59a1.62,1.62,0,0,1,1,.6,1,1,0,0,1,.15.2,14.16,14.16,0,0,1,.73,1.57C271.63,111,272.19,112.42,271.74,112.86Z"/><path class="cls-1" d="M302.08,28.38c1.16,4.76,5.31,2.41,8.16,3,1.73.37,3.85-.5,4.92,1.46-.39,3.49-2.85,2.42-4.54,2.51-11.53.59-13.4,3.39-9.5,14.25.37,1,3.35,2.25.14,3.26-1,.34-3.15.9-3.35-.78-.89-7-6.91-11.79-7.6-18.85-.91-9.19,6.05-13.82,11-19.63a5.43,5.43,0,0,1,.62-.48,2.05,2.05,0,0,1,.09.43c5-.22,10.66,2.44,14.36-3.42,1.5.55,3,1.08,4.51,1.62-.16,4.13-3.17,4.47-6.23,4.47a12.21,12.21,0,0,0-8.11,3C303.81,21.61,301.08,24.25,302.08,28.38Z"/><path class="cls-1" d="M362.94,102.71a1.81,1.81,0,0,0-.23-.18c-.71,1.89-1.43,3.76-2.12,5.65-.68,1.35-1.36,2.69-2,4-5.85,11.85-13.67,23-13.54,37l-6.1-1.82a100.86,100.86,0,0,1,21.13-49.36v0l.11-.13v0s0,0,0,0c.3,1.57.52,3.21,2.17,4.07Z"/><path class="cls-1" d="M286.39,50.69c-.08,1.06-.15,2.13-.25,3.2a17.59,17.59,0,0,1-.95,4.51,10.94,10.94,0,0,1-1.46,2.76c.71,12.24-7,21.22-12.18,31.16a7,7,0,0,1-1.29-.16l-.21-.07c-.87-.25-1.27-.87-.52-2.39,2.91-7.89,4.08-16.57,10.46-22.89,1.75-3.24-.25-7,1.5-10.28.25-8.55-9.82-12.24-9.84-20.68A32.71,32.71,0,0,1,271.58,21c.14-1.09.29-2.19.43-3.28.6,0,1.21,0,1.8,0a4.7,4.7,0,0,1,.73,1.4c.85,2.71-.66,5.83,1,8.4A47.5,47.5,0,0,0,286.39,50.69Z"/><path class="cls-1" d="M309.35,114.23q-5.82,10-11.67,20l-2.33-4.79c2.6-4.42,5.38-8.75,7.66-13.34.69-1.36,3.24-3.12.85-5-1.87-1.42-3.54-.39-5.11,1.09-2.28,2.19-4.76,4.17-7.29,6.36-1.94-6.75-1.64-7.27,8-14.22,2,2,4.74,2,7.21,2.2a10.61,10.61,0,0,1,2.68.55h0a2.83,2.83,0,0,1,1.95,1.74C311.67,110.28,310.6,112.2,309.35,114.23Z"/><path class="cls-1" d="M302.06,13.58a4.09,4.09,0,0,0-.71.05,5.43,5.43,0,0,1,.62-.48A2.05,2.05,0,0,1,302.06,13.58Z"/><path class="cls-1" d="M240.19,94.37c-1.41,1-4.92-1.23-5.86.5a2.55,2.55,0,0,0-.23,1.41,8.24,8.24,0,0,0,.28,1.83L228.45,98q-1-2-2-3.93C231.07,92.25,235.68,91.07,240.19,94.37Z"/><path class="cls-1" d="M366.49,74.68c-.68.72-1.36,1.43-2,2.14l0,0c-1.33-.64-2.65-1.31-4-2a10.42,10.42,0,0,0,.52-1.48c.36.23.73.48,1.09.75,5.8-3.1,2.76-7.42.75-11.6,0,0-.08,0-.09.09-.22.28-.47.55-.73.82a16.66,16.66,0,0,1,.32-2c.71-.82,1.4-1.66,2.12-2.48.67.66,1.35,1.34,2,2A23.61,23.61,0,0,1,366.49,74.68Z"/><path class="cls-1" d="M360.18,98a.13.13,0,0,1-.07,0l-.06,0v0c3.1-5.4,6.26-10.76,4.07-17.37C368.18,87.71,368.41,93.83,360.18,98Z"/><path class="cls-1" d="M362.9,112.06a3.11,3.11,0,0,1-.12-1.51c2.42-2.62,3.56-5.26.18-7.82l0,0a1.81,1.81,0,0,0-.23-.18l-.36-.46c1.39-1.25,3.32-1.84,3.58.37C366.38,105.9,368.44,110.31,362.9,112.06Z"/><path class="cls-1" d="M366.48,74.68q0-6.87,0-13.74C369.45,65.52,369.41,70.1,366.48,74.68Z"/><path class="cls-1" d="M275.54,17.66c0,3.29,0,6.59,0,9.87-2-2-1.91-4.26-1.75-6.58a19.28,19.28,0,0,0,0-3.22C274.4,17.71,275,17.67,275.54,17.66Z"/><path class="cls-1" d="M315.69,78.76c-2.63,3.82-2.15,7.68-.28,11.58,2.4.73,3.76-1.31,5.59-2.1a3.38,3.38,0,0,1,1.21,1,3.89,3.89,0,0,1,.75,1.42,9.67,9.67,0,0,1,.34,1.84c-1.46,2-1.25,5-4,6.13-.59-.13-1.16-.25-1.71-.41a22.16,22.16,0,0,1-2.43-.93,15.81,15.81,0,0,1-1.81-1C305.5,83.84,299.89,70,289.49,59.2a4.38,4.38,0,0,1-.65-1.35v0a3,3,0,0,1-.08-1.73,3.88,3.88,0,0,1,1.12-1.9c8.34,4.24,16.57,8.53,22.25,16.46,3.24,4.5,8.71,3.47,13.88,4.33C323.18,78.75,319.52,79,315.69,78.76Z"/><path class="cls-1" d="M356,41.19c-2.34.8-3.85-1.16-5.79-1.73-4.12.43-3,5.47-7,7.32.86-10.76-2-20.45-6-30.6,4.9-1,10-2.27,13.18,2.4C354.92,25.24,362.07,31.69,356,41.19Z"/><path class="cls-1" d="M344.55,98.66c.09,2.91-1.23,2.87-3.17,1.5-5.27-4.33-8.09-14.41-18.08-7.66a3.12,3.12,0,0,1-1.28-1,3.34,3.34,0,0,1-.72-1.35v0a8.4,8.4,0,0,1-.3-1.87c3.9-8,8.54-7.48,13.7-1.19C337.93,91,342.4,93.83,344.55,98.66Z"/><path class="cls-1" d="M309.72,110.88c.13-1.74-.39-3.11-4-2.81-1.87.16-3.85.27-5.11-.87a4.27,4.27,0,0,1-1.25-2.84c1.25-.23,2.8-1,3.7-.58,8.36,4.09,10.48,0,10.2-7.47.46-.25.92-.48,1.37-.68,1.69-.74,3.17-1,4,.52a6.27,6.27,0,0,1,.61,2.48c-1.11,6.59-5.76,10.94-9.91,15.6C309.31,113.2,309.65,112,309.72,110.88Z"/><path class="cls-1" d="M332.67,54c-.94,1.86-2.53.36-4,.06-7.05-1.44-14.14-2.14-21.06,2.21-1-4.51.77-6.75,5-7.45h0c5.92-.78,11.83-1.58,17.67.41C331.17,50.85,333.79,51.83,332.67,54Z"/><path class="cls-1" d="M335.88,29.81c-1.57,2.69-2.69,5.88-6.45,4.82-2-.55-5.17-1-4.56-4,.71-3.48,3.85-4.06,6.95-3.67C333.56,27.17,335.79,27.2,335.88,29.81Z"/><path class="cls-1" d="M289.88,54.2c-.06.81-.13,1.63-.2,2.45,0,.49-.07,1-.1,1.43s-.06.75-.09,1.12c-1.93.64-3.83,1.3-5.76,2a12.42,12.42,0,0,0,0-1.73c-.09-2.46-.61-5,.83-7.09a5.65,5.65,0,0,1,1.79-1.65C287.56,51.86,288.72,53,289.88,54.2Z"/><path class="cls-1" d="M330.28,49.26c-5.89-.12-11.77-.27-17.67-.41C318.54,47.1,324.46,45.5,330.28,49.26Z"/><path class="cls-1" d="M356,41.19c-.72,2.81-1.53,5.58-4.35,7.61-2.8-2.85,2.39-6.91-1.44-9.34C352.18,40,354.1,40.6,356,41.19Z"/><path class="cls-1" d="M315.41,90.34a9.55,9.55,0,0,1-2.64-5.64.15.15,0,0,1,0-.13,8.13,8.13,0,0,1,.07-1.1,8.23,8.23,0,0,1,2.85-4.71C314,82.59,314.73,86.46,315.41,90.34Z"/><path class="cls-1" d="M345.91,103.74c-2.18,1.27-3.56-1.58-4.53-3.58l3.17-1.5C347.12,99.86,347.89,102.6,345.91,103.74Z"/><path class="cls-1" d="M354.33,88.44C354,91,352,91.71,350.26,90.82c-2.37-1.21-1.45-3.08.28-4.5A4,4,0,0,0,354.33,88.44Z"/><path class="cls-1" d="M271.42,56.71c-1.37,3.7-3.7,7.07-8,7.6-1.91.24-3.67-1.85-3.39-3.91.63-4.78,4.63-5.67,8.79-6.56C270.1,54.2,272.15,54.71,271.42,56.71Z"/><path class="cls-1" d="M271.55,92.32c-1.63,4.79-4.8,8.41-8.43,11.69-.38.32-.75.66-1.12,1-1.93-7.29,4.18-10.6,7.53-15.29.38.5.77,1,1.14,1.48a1,1,0,0,1,.13.18C271.06,91.68,271.3,92,271.55,92.32Z"/><path class="cls-1" d="M271.65,35.85A18.72,18.72,0,0,1,271.58,21Q271.61,28.42,271.65,35.85Z"/><path class="cls-1" d="M250.45,102.24a11.89,11.89,0,0,1-6.2-5.87C248.3,96.24,250,98.56,250.45,102.24Z"/><path class="cls-1" d="M280,66.81c-.14-3.51-.77-7.11,1.5-10.28C281.47,60,282.88,63.74,280,66.81Z"/><path class="cls-1" d="M275.73,100.36c.45,4-2.65,6.52-4.18,9.71l-.93-1.2c-.05-.07-.11-.12-.16-.19l-.77-1c.48-3.69,2.12-6.44,5.92-7.4a.19.19,0,0,1,.1,0A.13.13,0,0,1,275.73,100.36Z"/><path class="cls-1" d="M275.86,100.23l-.15,0v-.07s0-.09,0-.13l.07.09h0Z"/><path class="cls-1" d="M275.7,100.07l.16,0v.14l-.07-.07h0Z"/><path class="cls-1" d="M281.77,95.55c-.53,4-2.74,4.81-5.59,4.57h0a2.85,2.85,0,0,1-.29,0h0C275.75,96,278.08,95.28,281.77,95.55Z"/><path class="cls-1" d="M236.41,127.92c-.5,2.92-1.35,6.34-4.52,6.82-2.76.43-3.35-2.58-3-4.9.42-2.94,1.4-5.72,5-6.24C236.66,123.93,236.77,125.92,236.41,127.92Z"/><path class="cls-1" d="M242.76,10.19s0,.07,0,.11h-.09Z"/><path class="cls-1" d="M361,73.35c.36.23.73.48,1.09.75-.47.24-1,.49-1.61.73A10.42,10.42,0,0,0,361,73.35Z"/><path class="cls-1" d="M362.82,62.5s-.08,0-.09.09c-.22.28-.47.55-.73.82a16.66,16.66,0,0,1,.32-2C362.48,61.77,362.64,62.14,362.82,62.5Z"/><path class="cls-1" d="M362.49,107.78c-.05.13-.12.27-.16.41h-.05Z"/></g></g></svg>