<svg xmlns="http://www.w3.org/2000/svg" viewBox="0 0 544.18 94.78"><defs><style>.cls-1{fill:#e1e1e1;}</style></defs><g id="Camada_2" data-name="Camada 2"><g id="Camada_1-2" data-name="Camada 1"><path class="cls-1" d="M94.68,55c7.56,7.91,7.55,17.51-.23,25.23-7.61,7.56-17.29,11-27.58,12.86-17.09,3.17-33.78,2-49.79-5.18A34.2,34.2,0,0,1,4.33,78.56c-5.82-7.12-5.8-15.27.19-22.26,5.73-6.68,13.42-10.12,21.64-12.64,1.41-.44,2.17-.48,2.27,1.22.5,8.24,5.84,14.33,9.47,21.18C41.7,73.24,46.52,79.87,49.72,88c4.34-7.48,4.46-14.7.5-21.91S42.15,51.92,38.05,44.88c-4.38-7.53-4.38-15.09-.38-23C46,36.53,54.18,51,62.62,65.85c4.1-7.77,3.9-15.32-.52-22.83-4.05-6.87-8.07-13.76-12-20.73-4.1-7.38-4-14.77.37-22.29C55.6,10.8,62,20.54,67.64,30.67c.89,1.6,2.29,3.17,2.46,4.85C70.77,42,74.91,44.3,80.51,46A32.92,32.92,0,0,1,94.68,55Z"/><path class="cls-1" d="M153.77,89.78c-5.15,2.77-10.74,3.35-16.47,3.15a46,46,0,0,1-15.23-2.25c-5.31-1.67-2.19-5.4-1.86-8.23.48-4.11,3-1.45,4.69-1,6.48,1.72,13,3,19.69,1.41,3.45-.83,6.3-2.47,7-6.2s-1-6.77-4.11-9c-4.95-3.45-10.78-5.1-16.08-7.85-6.77-3.51-11.53-8.35-11.66-16.57-.13-9.11,4.37-15.21,13.28-17.34,8-1.91,15.83-1.17,23.72.75,5.34,1.3,1.9,4.75,1.9,7.18,0,3-1.71,3-4.34,2.21a36.1,36.1,0,0,0-16.3-1.3c-3.47.56-6.33,2-7.33,5.8-1.05,4,.75,6.81,3.75,9,3.22,2.41,7,3.69,10.69,5.27,4.27,1.85,8.5,3.81,12,7A17.25,17.25,0,0,1,153.77,89.78Z"/><path class="cls-1" d="M213.06,85.65c.23-12.48,0-25,.2-37.46.05-3.14-1-4.39-4-5a65.12,65.12,0,0,0-17.38-1.28c-13.36.88-21.42,8.71-22.68,22a41.45,41.45,0,0,0,.8,12.41c3.45,16.55,22.77,21.41,32.66,10.79,1.31,4.5,2.69,5.24,8.26,4.41C215.24,90.93,213,87.58,213.06,85.65Zm-14.5-2.53c-5.85,1.73-11.85.92-15.21-3-4.36-5-4.88-17-1-23.19,3.22-5.12,11.13-7.63,18.34-6.1,2,.44,2.21,1.56,2.2,3.16,0,4,0,8,0,12,0,2.49.07,5,0,7.48C202.75,77.25,204.2,81.46,198.56,83.12Z"/><path class="cls-1" d="M266.23,88.27c.12,5.31-3.66,2.87-5.91,3.24-2.58.43-4.74.4-4.59-3.58.31-8.47.12-17,.08-25.46S253,51.08,244.53,50.77c-.5,0-1,0-1.5,0-8.13,0-8.13,0-8.13,8.05,0,9.49-.32,19,.13,28.45.22,4.86-2.36,4.29-5.46,4.4-3.42.13-5.58-.11-5.28-4.59.43-6.3.11-12.64.11-19V47.61c0-1.69-.13-3.3,2.23-3.74,8.7-1.64,17.38-3.09,26.23-1.15,8.7,1.92,13,6.76,13.21,15.6C266.3,68.3,266,78.29,266.23,88.27Z"/><path class="cls-1" d="M303,46.43c-.62,2.15,1.43,5.88-3.22,5.85-3,0-6,.19-9-.06s-4.1.66-4,3.83c.25,6,0,12,.08,18,.06,8,3.38,10.68,11.34,9.59,1.47-.2,4.22-2.21,4.33.3.12,2.75,1.28,6.81-3.55,8.11-13.5,3.63-22.47-2.93-22.57-16.82-.06-7.15,0-14.31,0-21.46,0-7.82,0-15.64,0-23.46,0-5.87,4.74-3.75,7.63-4.43,3.78-.89,2.73,2.21,2.8,4.11.18,4.31-1.38,9.9.76,12.58,2.27,2.86,8.11.77,12.38.88C302.29,43.47,303.72,43.93,303,46.43Z"/><path class="cls-1" d="M350.39,87.27c.1-13-.09-25.94.16-38.91.07-3.48-1.33-4.63-4.31-5.22a68.44,68.44,0,0,0-15.37-1.31c-14.76.44-23.05,8.16-24.49,22.83A35.7,35.7,0,0,0,307,75.08c1.5,7.64,5.17,13.81,12.88,16.39,7.38,2.48,14.39,1.82,19.9-4.5.36.41.73.64.73.86,0,6.39,4.88,3.23,7.64,3.64C351.7,92,350.38,88.89,350.39,87.27Zm-14.55-4.21c-8.95,3.3-16.47-.69-18.45-10-2.19-10.3,1.64-18.94,9.45-21.52,3.59-1.18,7.22-.72,10.86-.63,2.09,0,2.31,1.35,2.29,3-.05,4.15,0,8.3,0,12.45,0,3.49-.24,7,.07,10.45S338.91,81.92,335.84,83.06Z"/><path class="cls-1" d="M403.36,88.29c.08,5.72-4.1,2.64-6.41,3.21-2.77.7-4.16-.24-4.06-3.59.24-8.47.1-17,.07-25.44s-2.77-11.39-11.21-11.7c-.5,0-1,0-1.5,0-8.2,0-8.2,0-8.2,8,0,9.65-.28,19.31.11,28.94.21,5.32-3.19,3.63-5.83,3.94-3.13.36-4.89-.16-4.68-4.08.35-6.64.09-13.3.09-20s0-13.31,0-20c0-1.65-.25-3.28,2.16-3.74,8.86-1.7,17.71-3.12,26.7-1,8.11,1.88,12.4,6.7,12.62,15C403.5,68,403.23,78.15,403.36,88.29Z"/><path class="cls-1" d="M455.81,86.17c.16-18.15.1-36.29.1-54.43,0-6.55-.65-7-7-5.64-5.6,1.18-3,5.52-3.11,8.45-.36,7.33-.12,7.34-7.37,7.27-14.54-.14-23.35,6-26,18.23a37.08,37.08,0,0,0,0,15.38c1.58,7.63,5.4,13.73,13.19,16.16,7.27,2.27,14.17,1.67,20.48-5.82-.86,7.7,3.88,5.62,7.13,5.77C457.82,91.75,455.8,88.08,455.81,86.17ZM441,83.07c-9.06,3.31-16.44-.8-18.32-10.19A26.27,26.27,0,0,1,423.07,61c2.16-8.32,13.28-13.29,21.05-9.63,1.65.77,1.51,2,1.52,3.26,0,4,0,8,0,12a92.22,92.22,0,0,0,.08,10C446.13,80.42,444.16,81.93,441,83.07Z"/><path class="cls-1" d="M508.55,62.69a31,31,0,0,0-.37-3.46C506.74,49.4,501,43.42,491.55,42c-11.08-1.65-20.67,2.45-24.41,11.23-4.32,10.15-4.58,20.59,1.67,30.07,5.85,8.89,15.31,9.65,24.91,9.24a26.85,26.85,0,0,0,3.45-.52c8.61-1.49,9.19-2.21,9.23-11.29-20.89,5.42-27.95,3.52-31.38-9.28h25.22C508.85,71.48,508.86,71.48,508.55,62.69Zm-13.74.1c-2.79-.27-5.62-.06-8.43-.06h-6.45c-5.65,0-6.16-.88-3.58-6.14,2.27-4.63,6.56-6.64,12.5-5.87,4.89.64,7.57,3.65,8.79,8.21C498.3,61.37,498.22,63.11,494.81,62.79Z"/><path class="cls-1" d="M544,45.46c-.5,2.22,1.17,5.84-3.58,5.44-2.8-.24-5.65.05-8.47-.08-3.12-.16-4.3.9-4.22,4.28.23,10.47-.13,20.95.19,31.41.12,4.17-1.12,5.15-5.2,5.23-4.38.09-5.8-1-5.49-5.46.42-6.12.11-12.29.11-18.44,0-6.48.22-13-.09-19.44-.17-3.48,1.32-4.57,4.36-5.17A92.89,92.89,0,0,1,541,41.83C543.76,41.88,544.56,43,544,45.46Z"/><path class="cls-1" d="M94.45,80.25c-7.61,7.56-17.29,11-27.58,12.86-17.09,3.17-33.78,2-49.79-5.18A34.2,34.2,0,0,1,4.33,78.56c-5.82-7.12-5.8-15.27.19-22.26,5.73-6.68,13.42-10.12,21.64-12.64,1.41-.44,2.17-.48,2.27,1.22.5,8.24,5.84,14.33,9.47,21.18C41.7,73.24,46.52,79.87,49.72,88c4.34-7.48,4.46-14.7.5-21.91S42.15,51.92,38.05,44.88c-4.38-7.53-4.38-15.09-.38-23C46,36.53,54.18,51,62.62,65.85c4.1-7.77,3.9-15.32-.52-22.83-4.05-6.87-8.07-13.76-12-20.73-4.1-7.38-4-14.77.37-22.29C55.6,10.8,62,20.54,67.64,30.67c.89,1.6,2.29,3.17,2.46,4.85C70.77,42,74.91,44.3,80.51,46a32.92,32.92,0,0,1,14.17,9C102.24,62.93,102.23,72.53,94.45,80.25Z"/><path class="cls-1" d="M455.81,86.17c.16-18.15.1-36.29.1-54.43,0-6.55-.65-7-7-5.64-5.6,1.18-3,5.52-3.11,8.45-.36,7.33-.12,7.34-7.37,7.27-14.54-.14-23.35,6-26,18.23a37.08,37.08,0,0,0,0,15.38c1.58,7.63,5.4,13.73,13.19,16.16,7.27,2.27,14.17,1.67,20.48-5.82-.86,7.7,3.88,5.62,7.13,5.77C457.82,91.75,455.8,88.08,455.81,86.17ZM441,83.07c-9.06,3.31-16.44-.8-18.32-10.19A26.27,26.27,0,0,1,423.07,61c2.16-8.32,13.28-13.29,21.05-9.63,1.65.77,1.51,2,1.52,3.26,0,4,0,8,0,12a92.22,92.22,0,0,0,.08,10C446.13,80.42,444.16,81.93,441,83.07Z"/><path class="cls-1" d="M153.77,89.78c-5.15,2.77-10.74,3.35-16.47,3.15a46,46,0,0,1-15.23-2.25c-5.31-1.67-2.19-5.4-1.86-8.23.48-4.11,3-1.45,4.69-1,6.48,1.72,13,3,19.69,1.41,3.45-.83,6.3-2.47,7-6.2s-1-6.77-4.11-9c-4.95-3.45-10.78-5.1-16.08-7.85-6.77-3.51-11.53-8.35-11.66-16.57-.13-9.11,4.37-15.21,13.28-17.34,8-1.91,15.83-1.17,23.72.75,5.34,1.3,1.9,4.75,1.9,7.18,0,3-1.71,3-4.34,2.21a36.1,36.1,0,0,0-16.3-1.3c-3.47.56-6.33,2-7.33,5.8-1.05,4,.75,6.81,3.75,9,3.22,2.41,7,3.69,10.69,5.27,4.27,1.85,8.5,3.81,12,7A17.25,17.25,0,0,1,153.77,89.78Z"/><path class="cls-1" d="M508.55,62.69a31,31,0,0,0-.37-3.46C506.74,49.4,501,43.42,491.55,42c-11.08-1.65-20.67,2.45-24.41,11.23-4.32,10.15-4.58,20.59,1.67,30.07,5.85,8.89,15.31,9.65,24.91,9.24a26.85,26.85,0,0,0,3.45-.52c8.61-1.49,9.19-2.21,9.23-11.29-20.89,5.42-27.95,3.52-31.38-9.28h25.22C508.85,71.48,508.86,71.48,508.55,62.69Zm-13.74.1c-2.79-.27-5.62-.06-8.43-.06h-6.45c-5.65,0-6.16-.88-3.58-6.14,2.27-4.63,6.56-6.64,12.5-5.87,4.89.64,7.57,3.65,8.79,8.21C498.3,61.37,498.22,63.11,494.81,62.79Z"/><path class="cls-1" d="M213.06,85.65c.23-12.48,0-25,.2-37.46.05-3.14-1-4.39-4-5a65.12,65.12,0,0,0-17.38-1.28c-13.36.88-21.42,8.71-22.68,22a41.45,41.45,0,0,0,.8,12.41c3.45,16.55,22.77,21.41,32.66,10.79,1.31,4.5,2.69,5.24,8.26,4.41C215.24,90.93,213,87.58,213.06,85.65Zm-14.5-2.53c-5.85,1.73-11.85.92-15.21-3-4.36-5-4.88-17-1-23.19,3.22-5.12,11.13-7.63,18.34-6.1,2,.44,2.21,1.56,2.2,3.16,0,4,0,8,0,12,0,2.49.07,5,0,7.48C202.75,77.25,204.2,81.46,198.56,83.12Z"/><path class="cls-1" d="M350.39,87.27c.1-13-.09-25.94.16-38.91.07-3.48-1.33-4.63-4.31-5.22a68.44,68.44,0,0,0-15.37-1.31c-14.76.44-23.05,8.16-24.49,22.83A35.7,35.7,0,0,0,307,75.08c1.5,7.64,5.17,13.81,12.88,16.39,7.38,2.48,14.39,1.82,19.9-4.5.36.41.73.64.73.86,0,6.39,4.88,3.23,7.64,3.64C351.7,92,350.38,88.89,350.39,87.27Zm-14.55-4.21c-8.95,3.3-16.47-.69-18.45-10-2.19-10.3,1.64-18.94,9.45-21.52,3.59-1.18,7.22-.72,10.86-.63,2.09,0,2.31,1.35,2.29,3-.05,4.15,0,8.3,0,12.45,0,3.49-.24,7,.07,10.45S338.91,81.92,335.84,83.06Z"/><path class="cls-1" d="M266.23,88.27c.12,5.31-3.66,2.87-5.91,3.24-2.58.43-4.74.4-4.59-3.58.31-8.47.12-17,.08-25.46S253,51.08,244.53,50.77c-.5,0-1,0-1.5,0-8.13,0-8.13,0-8.13,8.05,0,9.49-.32,19,.13,28.45.22,4.86-2.36,4.29-5.46,4.4-3.42.13-5.58-.11-5.28-4.59.43-6.3.11-12.64.11-19V47.61c0-1.69-.13-3.3,2.23-3.74,8.7-1.64,17.38-3.09,26.23-1.15,8.7,1.92,13,6.76,13.21,15.6C266.3,68.3,266,78.29,266.23,88.27Z"/><path class="cls-1" d="M403.36,88.29c.08,5.72-4.1,2.64-6.41,3.21-2.77.7-4.16-.24-4.06-3.59.24-8.47.1-17,.07-25.44s-2.77-11.39-11.21-11.7c-.5,0-1,0-1.5,0-8.2,0-8.2,0-8.2,8,0,9.65-.28,19.31.11,28.94.21,5.32-3.19,3.63-5.83,3.94-3.13.36-4.89-.16-4.68-4.08.35-6.64.09-13.3.09-20s0-13.31,0-20c0-1.65-.25-3.28,2.16-3.74,8.86-1.7,17.71-3.12,26.7-1,8.11,1.88,12.4,6.7,12.62,15C403.5,68,403.23,78.15,403.36,88.29Z"/><path class="cls-1" d="M303,46.43c-.62,2.15,1.43,5.88-3.22,5.85-3,0-6,.19-9-.06s-4.1.66-4,3.83c.25,6,0,12,.08,18,.06,8,3.38,10.68,11.34,9.59,1.47-.2,4.22-2.21,4.33.3.12,2.75,1.28,6.81-3.55,8.11-13.5,3.63-22.47-2.93-22.57-16.82-.06-7.15,0-14.31,0-21.46,0-7.82,0-15.64,0-23.46,0-5.87,4.74-3.75,7.63-4.43,3.78-.89,2.73,2.21,2.8,4.11.18,4.31-1.38,9.9.76,12.58,2.27,2.86,8.11.77,12.38.88C302.29,43.47,303.72,43.93,303,46.43Z"/><path class="cls-1" d="M544,45.46c-.5,2.22,1.17,5.84-3.58,5.44-2.8-.24-5.65.05-8.47-.08-3.12-.16-4.3.9-4.22,4.28.23,10.47-.13,20.95.19,31.41.12,4.17-1.12,5.15-5.2,5.23-4.38.09-5.8-1-5.49-5.46.42-6.12.11-12.29.11-18.44,0-6.48.22-13-.09-19.44-.17-3.48,1.32-4.57,4.36-5.17A92.89,92.89,0,0,1,541,41.83C543.76,41.88,544.56,43,544,45.46Z"/></g></g></svg>