<svg xmlns="http://www.w3.org/2000/svg" viewBox="0 0 2403.71 428.78"><defs><style>.cls-1{fill:#e1e1e1;}</style></defs><g id="Camada_2" data-name="Camada 2"><g id="Camada_1-2" data-name="Camada 1"><path class="cls-1" d="M113.07,162q24.47.26,48.94,0c3.6,0,4.09.74,2.92,4.13a130.19,130.19,0,0,0-7.08,40.6c0,2.81-.86,3.68-3.68,3.63-9.15-.16-18.31-.06-27.47-.06s-18.31-.1-27.46.06c-2.91.05-3.75-.84-3.37-3.7,1.89-14.25,5.15-28.08,11.62-41.05C108.74,163.13,110.07,162,113.07,162Z"/><path class="cls-1" d="M99.42,220.07c9.15.11,18.3,0,27.45,0s18.31.08,27.46,0c2.47,0,3.47.5,3.51,3.25.23,14.06,3,27.72,7.19,41.09,1,3.14.67,4.06-2.79,4-16.47-.14-33-.11-49.42,0-2.43,0-3.92-.6-5-2.93-6.5-13.29-10-27.38-11.93-42C95.42,220.33,96.85,220,99.42,220.07Z"/><path class="cls-1" d="M166.23,278.09c1.8,0,3.57-.63,4.86,2.05,11.71,24.49,18.09,32.87,39.25,52-41.8-1.43-71.92-20.84-94.81-53.17.93-1.54,2.23-.9,3.25-.91Q142.51,278,166.23,278.09Z"/><path class="cls-1" d="M209.56,97.64a134.28,134.28,0,0,0-22.35,22.89c-6.52,8.48-12.15,17.48-15.93,27.54-.61,1.6-1,3-3.3,3-17.28-.09-34.56-.05-52-.05C126,124.78,180.25,93.81,209.56,97.64Z"/><path class="cls-1" d="M246.4,148.27a20.23,20.23,0,0,1,.86,2.52h-65.4c.81-4,3.07-7,5-10.22a149.84,149.84,0,0,1,25.05-30.3c1.49-1.4,2.55-2.81,4.8-.61C228.47,121.13,238.8,133.64,246.4,148.27Z"/><path class="cls-1" d="M206.56,314.4a150.27,150.27,0,0,1-22.09-30c-1-1.84-1.88-3.77-3-6.06h66c-6.4,13.56-15,25.1-24.66,35.82C214.78,323,214.68,323,206.56,314.4Z"/><path class="cls-1" d="M261.11,223.89A215.64,215.64,0,0,1,253.46,264c-.94,3.12-2.25,4.48-5.86,4.45-22.16-.2-44.33-.17-66.49,0-3.25,0-4.57-1.06-5.54-4.12-4.16-13.25-6.24-26.86-7.81-40.6-.33-2.87.49-3.71,3.4-3.68,14.66.14,29.33.06,44,.06,14.16,0,28.33.08,42.49-.06C260.68,220,261.45,220.58,261.11,223.89Z"/><path class="cls-1" d="M257.32,210.26c-14.32.1-28.65.06-43,.06-14.16,0-28.32-.07-42.48.05-3,0-4.54-.37-4.1-4,1.65-13.72,3.62-27.35,7.92-40.56.91-2.79,2.16-3.8,5.2-3.78q33.5.21,67,0c2.89,0,4.39.65,5.35,3.66,4.4,13.71,6.58,27.8,8,42.06C261.6,211.6,258.88,210.25,257.32,210.26Z"/><path class="cls-1" d="M219.71,331.5a147.35,147.35,0,0,0,25-27.87,137.06,137.06,0,0,0,12.89-22.45c.89-2,1.67-3.58,4.22-3.14a12,12,0,0,0,2,0h48C303.31,304.48,250.73,335.15,219.71,331.5Z"/><path class="cls-1" d="M312.23,151H273.74c-4.65,0-10,1.32-13.78-.49s-4.46-7.7-6.71-11.7c-8.71-15.5-19.39-29.38-33.65-41.32C254.9,96.29,293.14,119.57,312.23,151Z"/><path class="cls-1" d="M315.54,268.45q-24-.24-47.94,0c-3.87,0-4.34-1-3.21-4.57A132.79,132.79,0,0,0,271,224.18c0-3.27,1-4.22,4.3-4.14,9.15.22,18.31.07,27.47.07,9,0,18,.09,27-.05,2.77,0,3.64.51,3.36,3.57a117.64,117.64,0,0,1-11.42,41.06C320.31,267.44,318.67,268.49,315.54,268.45Z"/><path class="cls-1" d="M330.71,210.33q-28.44,0-56.87,0c-2.28,0-2.77-1.12-2.79-3.08a134.57,134.57,0,0,0-8-45.17c18.44,0,36.22,0,54,0a3.81,3.81,0,0,1,3.83,2.4,109.84,109.84,0,0,1,12.24,43.28C333.28,209.81,332.59,210.34,330.71,210.33Z"/><path class="cls-1" d="M356.21,250c6.32,33.12,5.92,65.79-9.77,96.51-23.05,45.17-59.33,73-109.89,81.19a103.74,103.74,0,0,1-16.44,1.05q-107.47.11-214.93,0H0c2-2.07,3.12-3.33,4.34-4.54q39.15-39,78.26-77.94A10.58,10.58,0,0,1,90.91,343c41,.11,82-.58,123,.25,38.75.79,69.75-14.72,95.4-42.32,21.62-23.27,33.23-51,34.29-83.17C350.25,227.58,354,238.52,356.21,250Z"/><path class="cls-1" d="M425.23,0h2.52c.19,2.05-1.45,2.69-2.41,3.65q-39.4,39.78-78.83,79.52a10.56,10.56,0,0,1-8.33,3.31c-41.83-.1-83.68.9-125.48-.31C155.49,84.54,96.09,134.09,87,194.2a123.9,123.9,0,0,0-1.63,17c-7-10.67-10.85-22.44-13.09-34.74-6-32.71-4.93-64.8,10.64-95,22.36-43.29,57.19-70.59,105.39-80A95.88,95.88,0,0,1,206.75,0Q316,0,425.23,0Z"/><path class="cls-1" d="M717.77,238.31c8,27,2.56,65.29-38.92,82.77-18.76,7.91-38.49,10.43-58.57,10.46a241,241,0,0,1-64.64-8.46c-2.06-.56-4.14-.64-3.77-3.94,1.85-16.37,3.46-32.76,5.19-49.14a29.35,29.35,0,0,1,.88-3.58c10.7,4.78,21.09,9.62,32.12,12.89,15.21,4.51,30.56,6.71,46.24,2.8,8.57-2.14,15.62-6.33,17.11-15.93,1.46-9.39-3.34-16-10.73-20.93-11.33-7.59-24.45-11.15-36.95-16.08-10.68-4.22-21.11-8.82-30.86-15-34.37-22-33.5-73.87-2.58-96.69,14.6-10.78,31.18-16.38,48.78-19,27.66-4,55.09-2.24,82.24,4.5,4,1,5.14,2.45,4.66,6.73-1.73,15.52-2.91,31.1-4.33,47.07-12.88-4.82-25.53-8.86-38.65-11.18-11.74-2.08-23.5-2.72-35.15.49-4.94,1.36-9.25,3.81-11.88,8.46-3.92,7-2.29,14.25,4.45,19.45,6.14,4.74,13.4,7.3,20.56,10,12.91,4.83,26.09,9,38.4,15.34C698.16,208,712.17,219.39,717.77,238.31Z"/><path class="cls-1" d="M876.7,163.5c-1,15.41-1.89,30.83-2.84,46.72-7.77-3.63-15.17-6.46-23.12-7.72-17.55-2.78-35.67,5.87-43.44,21-8.22,16-5.51,36.61,7,48.56s27.46,14.06,43.6,9.42c5.24-1.5,10.23-3.86,15.61-5.93,1.53,7,1.07,14.09,1.62,21.11.63,8.13,1,16.28,1.54,24.42.11,1.85.29,3.43-2.26,4.17-29.8,8.7-59.43,10.71-87.88-4.19-27.79-14.55-41.93-38.64-44.62-69.41-1.94-22.15,2.15-43.2,15.51-61.57,15.56-21.41,37.49-31.7,63.17-34.89,17.77-2.2,35.19-.09,52.32,4.88C874.68,160.55,876.89,160.47,876.7,163.5Z"/><path class="cls-1" d="M1059.62,177.64c-19.71-17-43.48-22.91-67.55-23.42a132.68,132.68,0,0,0-22.76,1.89c-41.26,7.08-73.68,35.68-77,78.88-2.58,33.15,8.09,61.14,36.68,79.57,32.08,20.68,67.16,22.21,102.58,10.25,30.1-10.15,49.82-31.22,55.85-62.84C1093.63,229.12,1085.64,200.07,1059.62,177.64Zm-40.76,97.68c-15.45,20.16-45.81,18.32-59-3.65a50.85,50.85,0,0,1-7.32-26.76c.09-13.18,2.07-23.52,8.19-32.7,13.09-19.65,42.92-20.86,57.61-2.4C1032,227,1032.21,257.89,1018.86,275.32Z"/><path class="cls-1" d="M1213,284.26c3.41-.54,6.8-1.24,10.76-2-1.52,9.88-3,19.52-4.51,29.17-.74,4.76-1.6,9.51-2.33,14.28-.24,1.57-.47,2.87-2.44,3.16-18.69,2.82-37.43,5.18-55.86-1.1-20.26-6.91-30.24-22.29-33.91-42.57-1.64-9.09-1.27-18.26-1.3-27.41,0-17.16-.14-34.32.09-51.48,0-4-.8-5.6-5.11-5.32-5.81.38-11.67,0-17.49.15-2.61.08-3.43-.7-3.4-3.35q.2-17.74,0-35.49c0-3,.78-4.11,3.91-4,5.65.23,11.34-.22,17,.15,4.37.29,5.17-1.42,5.11-5.4-.23-14.65,0-29.32-.18-44-.06-4,.69-5.43,5.07-5.36,16.66.28,33.33.2,50,0,3.29,0,4.26.89,4.22,4.19-.16,15.33,0,30.66-.15,46,0,3.4.72,4.62,4.36,4.53,9.66-.26,19.33,0,29-.16,3.12-.06,3.93,1,3.89,4-.15,11.66-.18,23.32,0,35,0,3.14-.9,3.93-3.93,3.88-9.66-.19-19.34.1-29-.16-3.63-.1-4.37,1.13-4.34,4.51.17,17.66,0,35.32.12,53C1182.72,277.69,1194.1,287.24,1213,284.26Z"/><path class="cls-1" d="M1311.8,324.32c0,3.81-1.46,4.22-4.65,4.19-16.65-.13-33.3-.18-49.94,0-3.72,0-4.74-.9-4.72-4.67.17-26.8.09-53.6.09-80.4,0-26.63.08-53.27-.09-79.9,0-3.87.94-5,4.92-5,16.65.23,33.3.2,49.94,0,3.48,0,4.44.91,4.44,4.41Q1311.63,243.68,1311.8,324.32Z"/><path class="cls-1" d="M1315.37,105.59c.24,17.85-14.89,33.23-32.89,33.42-18.18.19-33.62-15.07-33.6-33.21a33.25,33.25,0,0,1,66.49-.21Z"/><path class="cls-1" d="M1531.54,162.68c0-3.32-1-4.28-4.21-4.24-13.66.14-27.32,0-41,.1-4.28,0-9.53-1.78-12.56.89-2.69,2.36-.75,7.57-1.17,11.5-.1.92.43,2.15-.71,2.68s-1.78-.57-2.48-1.2A58.39,58.39,0,0,0,1453,161.25c-31.22-13.27-79.32-9.48-103.08,34.14-11.27,20.7-13.5,42.88-10.21,65.89,7.6,53.23,57.1,83.52,107.51,65.84,9.6-3.36,17.62-9.12,24.92-16.1l1.61.64c0,4.12.13,8.25,0,12.36-.13,3.12.8,4.32,4.21,4.28q24.73-.27,49.47,0c3.35,0,4.18-1,4.17-4.23Q1531.4,243.38,1531.54,162.68ZM1458.68,278.5c-14.73,13.35-36.42,11.2-48.37-4.64-11.57-15.34-12.8-40.86-2.75-57.16,13.94-22.63,44.13-22.74,58.21-.22,5.29,8.45,7.3,17.76,7.22,27.61C1472.92,257.51,1468.81,269.32,1458.68,278.5Z"/><path class="cls-1" d="M1759.43,228.83c-3.19-28.24-15.93-51.29-41.66-64.91-28.35-15-56.5-11.72-83.78,3.86-1.63.93-2.94,2.73-5.41,2.38,0-25.39-.14-50.71.12-76,0-4.62-1.37-5.42-5.58-5.36-16,.24-32,.29-48,0-4.65-.09-5.66,1.26-5.65,5.74q.21,112.47.1,224.92a39.71,39.71,0,0,1,0,4.5c-.35,3.07.49,4.33,4,4.29,16.16-.2,32.32-.15,48.49,0,2.68,0,3.84-.57,3.84-3.5,0-3.79.5-7.59.88-12.57,13.18,12.51,28.27,17.58,44.89,19.51,31.64,3.67,62.29-12.06,77-40.22C1759,271.72,1761.87,250.54,1759.43,228.83Zm-67.6,41.52c-7.3,11.37-17.8,16.63-31.29,15.72-12.73-.85-22.22-7.09-27.61-18.49-7.2-15.21-7.5-30.93-.6-46.37,6.29-14.07,20.12-22.22,33.91-20.68,16.19,1.81,27.64,12.88,31.38,30.3a55.84,55.84,0,0,1,1.22,12.89C1698.9,253.22,1697,262.26,1691.83,270.35Z"/><path class="cls-1" d="M1974.61,162c0-2.73-.65-3.79-3.58-3.76q-25.48.18-51,0c-3.15,0-4.07,1.15-4.09,4,0,3.77-.31,7.54-.55,12.92-14.69-15.05-31.87-20.26-50.79-20.63-24.65-.48-45.73,7.75-62,26.74-24.92,29.19-28.52,77.69-8.51,112.06,25,42.9,81.26,52.23,118.78,19.7.81-.71,1.37-2,3.86-1.44,0,4,.08,8.26,0,12.51-.08,2.8.62,4.14,3.89,4.11q25.23-.24,50.47,0c3.06,0,3.47-1.2,3.47-3.81Q1974.52,243.23,1974.61,162Zm-71.41,115c-15.61,15.43-39.59,13.22-51.12-5.46-10.28-16.66-11.48-34.63-2.74-52.41,6.11-12.45,16.45-19.5,30.72-19.45,14.06.06,23.85,7.3,30.39,19.28,3.82,7,5.41,14.62,5.71,22.56C1916.34,255.06,1913.08,267.31,1903.2,277.08Z"/><path class="cls-1" d="M2190,324.05c0,3.17-.75,4.28-4.12,4.25-16.49-.17-33-.2-49.47,0-3.62.05-3.93-1.44-3.92-4.37.09-27.15,0-54.29.07-81.43a56.13,56.13,0,0,0-1.44-13.87c-3.65-14.45-13.92-22.43-29-22.59-14.67-.15-26.48,8.88-30.48,23.26a51.3,51.3,0,0,0-1.39,13.86c0,26.64-.1,53.29.1,79.93,0,4.19-1.13,5.28-5.25,5.22-16-.24-32-.18-48,0-3.27,0-4.59-.56-4.59-4.27q.2-80.44,0-160.87c0-3.15.68-4.3,4.08-4.26q22,.29,44,0c3.54,0,4.12,1.34,4,4.33-.17,4.74-.05,9.48-.05,15.47,5.34-4.32,9.21-7.72,13.34-10.74,32.76-24,82.25-14.76,102,19,7.16,12.26,10,25.61,10,39.68C2190,259.1,2189.92,291.57,2190,324.05Z"/><path class="cls-1" d="M2403.71,328.22c-21.7,0-42.5-.05-63.3,0-2.9,0-3.55-2.14-4.67-3.82q-23.16-34.67-46.24-69.38c-1-1.53-2-3-3.27-4.85-1.36,1.74-.8,3.57-.81,5.22,0,22.65-.13,45.3.07,67.95,0,4-1.18,5-5,4.92-16.49-.21-33-.17-49.48,0-3.23,0-4.62-.46-4.61-4.22q.16-115.44,0-230.86c0-3.74,1.31-4.27,4.58-4.24,16.49.15,33,.24,49.47,0,4.39-.08,5.07,1.42,5.06,5.37-.14,42.64-.09,85.28-.09,127.92v5.5c2.17-.11,2.53-1.8,3.32-2.88q22.65-31.08,45.16-62.26a8,8,0,0,1,7.36-3.81c18.49.18,37,.09,55.48.09h5.41c-6,7.8-11.41,14.87-16.86,21.91-14,18-27.86,36.13-42,54-2.14,2.73-2.1,4.39-.13,7.18q28.59,40.33,56.9,80.86C2401.09,324.34,2402.09,325.84,2403.71,328.22Z"/><path class="cls-1" d="M1759.43,228.83c-3.19-28.24-15.93-51.29-41.66-64.91-28.35-15-56.5-11.72-83.78,3.86-1.63.93-2.94,2.73-5.41,2.38,0-25.39-.14-50.71.12-76,0-4.62-1.37-5.42-5.58-5.36-16,.24-32,.29-48,0-4.65-.09-5.66,1.26-5.65,5.74q.21,112.47.1,224.92a39.71,39.71,0,0,1,0,4.5c-.35,3.07.49,4.33,4,4.29,16.16-.2,32.32-.15,48.49,0,2.68,0,3.84-.57,3.84-3.5,0-3.79.5-7.59.88-12.57,13.18,12.51,28.27,17.58,44.89,19.51,31.64,3.67,62.29-12.06,77-40.22C1759,271.72,1761.87,250.54,1759.43,228.83Zm-67.6,41.52c-7.3,11.37-17.8,16.63-31.29,15.72-12.73-.85-22.22-7.09-27.61-18.49-7.2-15.21-7.5-30.93-.6-46.37,6.29-14.07,20.12-22.22,33.91-20.68,16.19,1.81,27.64,12.88,31.38,30.3a55.84,55.84,0,0,1,1.22,12.89C1698.9,253.22,1697,262.26,1691.83,270.35Z"/><path class="cls-1" d="M427.75,0c.19,2.05-1.45,2.69-2.41,3.65q-39.4,39.78-78.83,79.52a10.56,10.56,0,0,1-8.33,3.31c-41.83-.1-83.68.9-125.48-.31C155.49,84.54,96.09,134.09,87,194.2a123.9,123.9,0,0,0-1.63,17c-7-10.67-10.85-22.44-13.09-34.74-6-32.71-4.93-64.8,10.64-95,22.36-43.29,57.19-70.59,105.39-80A95.88,95.88,0,0,1,206.75,0Q316,0,425.23,0Z"/><path class="cls-1" d="M346.44,346.49c-23.05,45.17-59.33,73-109.89,81.19a103.74,103.74,0,0,1-16.44,1.05q-107.47.11-214.93,0H0c2-2.07,3.12-3.33,4.34-4.54q39.15-39,78.26-77.94A10.58,10.58,0,0,1,90.91,343c41,.11,82-.58,123,.25,38.75.79,69.75-14.72,95.4-42.32,21.62-23.27,33.23-51,34.29-83.17,6.69,9.81,10.46,20.75,12.65,32.21C362.53,283.1,362.13,315.77,346.44,346.49Z"/><path class="cls-1" d="M678.85,321.08c-18.76,7.91-38.49,10.43-58.57,10.46a241,241,0,0,1-64.64-8.46c-2.06-.56-4.14-.64-3.77-3.94,1.85-16.37,3.46-32.76,5.19-49.14a29.35,29.35,0,0,1,.88-3.58c10.7,4.78,21.09,9.62,32.12,12.89,15.21,4.51,30.56,6.71,46.24,2.8,8.57-2.14,15.62-6.33,17.11-15.93,1.46-9.39-3.34-16-10.73-20.93-11.33-7.59-24.45-11.15-36.95-16.08-10.68-4.22-21.11-8.82-30.86-15-34.37-22-33.5-73.87-2.58-96.69,14.6-10.78,31.18-16.38,48.78-19,27.66-4,55.09-2.24,82.24,4.5,4,1,5.14,2.45,4.66,6.73-1.73,15.52-2.91,31.1-4.33,47.07-12.88-4.82-25.53-8.86-38.65-11.18-11.74-2.08-23.5-2.72-35.15.49-4.94,1.36-9.25,3.81-11.88,8.46-3.92,7-2.29,14.25,4.45,19.45,6.14,4.74,13.4,7.3,20.56,10,12.91,4.83,26.09,9,38.4,15.34,16.79,8.63,30.8,20.07,36.4,39C725.75,265.27,720.33,303.6,678.85,321.08Z"/><path class="cls-1" d="M1531.54,162.68c0-3.32-1-4.28-4.21-4.24-13.66.14-27.32,0-41,.1-4.28,0-9.53-1.78-12.56.89-2.69,2.36-.75,7.57-1.17,11.5-.1.92.43,2.15-.71,2.68s-1.78-.57-2.48-1.2A58.39,58.39,0,0,0,1453,161.25c-31.22-13.27-79.32-9.48-103.08,34.14-11.27,20.7-13.5,42.88-10.21,65.89,7.6,53.23,57.1,83.52,107.51,65.84,9.6-3.36,17.62-9.12,24.92-16.1l1.61.64c0,4.12.13,8.25,0,12.36-.13,3.12.8,4.32,4.21,4.28q24.73-.27,49.47,0c3.35,0,4.18-1,4.17-4.23Q1531.4,243.38,1531.54,162.68ZM1458.68,278.5c-14.73,13.35-36.42,11.2-48.37-4.64-11.57-15.34-12.8-40.86-2.75-57.16,13.94-22.63,44.13-22.74,58.21-.22,5.29,8.45,7.3,17.76,7.22,27.61C1472.92,257.51,1468.81,269.32,1458.68,278.5Z"/><path class="cls-1" d="M1974.61,162c0-2.73-.65-3.79-3.58-3.76q-25.48.18-51,0c-3.15,0-4.07,1.15-4.09,4,0,3.77-.31,7.54-.55,12.92-14.69-15.05-31.87-20.26-50.79-20.63-24.65-.48-45.73,7.75-62,26.74-24.92,29.19-28.52,77.69-8.51,112.06,25,42.9,81.26,52.23,118.78,19.7.81-.71,1.37-2,3.86-1.44,0,4,.08,8.26,0,12.51-.08,2.8.62,4.14,3.89,4.11q25.23-.24,50.47,0c3.06,0,3.47-1.2,3.47-3.81Q1974.52,243.23,1974.61,162Zm-71.41,115c-15.61,15.43-39.59,13.22-51.12-5.46-10.28-16.66-11.48-34.63-2.74-52.41,6.11-12.45,16.45-19.5,30.72-19.45,14.06.06,23.85,7.3,30.39,19.28,3.82,7,5.41,14.62,5.71,22.56C1916.34,255.06,1913.08,267.31,1903.2,277.08Z"/><path class="cls-1" d="M2403.71,328.22c-21.7,0-42.5-.05-63.3,0-2.9,0-3.55-2.14-4.67-3.82q-23.16-34.67-46.24-69.38c-1-1.53-2-3-3.27-4.85-1.36,1.74-.8,3.57-.81,5.22,0,22.65-.13,45.3.07,67.95,0,4-1.18,5-5,4.92-16.49-.21-33-.17-49.48,0-3.23,0-4.62-.46-4.61-4.22q.16-115.44,0-230.86c0-3.74,1.31-4.27,4.58-4.24,16.49.15,33,.24,49.47,0,4.39-.08,5.07,1.42,5.06,5.37-.14,42.64-.09,85.28-.09,127.92v5.5c2.17-.11,2.53-1.8,3.32-2.88q22.65-31.08,45.16-62.26a8,8,0,0,1,7.36-3.81c18.49.18,37,.09,55.48.09h5.41c-6,7.8-11.41,14.87-16.86,21.91-14,18-27.86,36.13-42,54-2.14,2.73-2.1,4.39-.13,7.18q28.59,40.33,56.9,80.86C2401.09,324.34,2402.09,325.84,2403.71,328.22Z"/><path class="cls-1" d="M1059.62,177.64c-19.71-17-43.48-22.91-67.55-23.42a132.68,132.68,0,0,0-22.76,1.89c-41.26,7.08-73.68,35.68-77,78.88-2.58,33.15,8.09,61.14,36.68,79.57,32.08,20.68,67.16,22.21,102.58,10.25,30.1-10.15,49.82-31.22,55.85-62.84C1093.63,229.12,1085.64,200.07,1059.62,177.64Zm-40.76,97.68c-15.45,20.16-45.81,18.32-59-3.65a50.85,50.85,0,0,1-7.32-26.76c.09-13.18,2.07-23.52,8.19-32.7,13.09-19.65,42.92-20.86,57.61-2.4C1032,227,1032.21,257.89,1018.86,275.32Z"/><path class="cls-1" d="M2190,324.05c0,3.17-.75,4.28-4.12,4.25-16.49-.17-33-.2-49.47,0-3.62.05-3.93-1.44-3.92-4.37.09-27.15,0-54.29.07-81.43a56.13,56.13,0,0,0-1.44-13.87c-3.65-14.45-13.92-22.43-29-22.59-14.67-.15-26.48,8.88-30.48,23.26a51.3,51.3,0,0,0-1.39,13.86c0,26.64-.1,53.29.1,79.93,0,4.19-1.13,5.28-5.25,5.22-16-.24-32-.18-48,0-3.27,0-4.59-.56-4.59-4.27q.2-80.44,0-160.87c0-3.15.68-4.3,4.08-4.26q22,.29,44,0c3.54,0,4.12,1.34,4,4.33-.17,4.74-.05,9.48-.05,15.47,5.34-4.32,9.21-7.72,13.34-10.74,32.76-24,82.25-14.76,102,19,7.16,12.26,10,25.61,10,39.68C2190,259.1,2189.92,291.57,2190,324.05Z"/><path class="cls-1" d="M1223.76,282.29c-1.52,9.88-3,19.52-4.51,29.17-.74,4.76-1.6,9.51-2.33,14.28-.24,1.57-.47,2.87-2.44,3.16-18.69,2.82-37.43,5.18-55.86-1.1-20.26-6.91-30.24-22.29-33.91-42.57-1.64-9.09-1.27-18.26-1.3-27.41,0-17.16-.14-34.32.09-51.48,0-4-.8-5.6-5.11-5.32-5.81.38-11.67,0-17.49.15-2.61.08-3.43-.7-3.4-3.35q.2-17.74,0-35.49c0-3,.78-4.11,3.91-4,5.65.23,11.34-.22,17,.15,4.37.29,5.17-1.42,5.11-5.4-.23-14.65,0-29.32-.18-44-.06-4,.69-5.43,5.07-5.36,16.66.28,33.33.2,50,0,3.29,0,4.26.89,4.22,4.19-.16,15.33,0,30.66-.15,46,0,3.4.72,4.62,4.36,4.53,9.66-.26,19.33,0,29-.16,3.12-.06,3.93,1,3.89,4-.15,11.66-.18,23.32,0,35,0,3.14-.9,3.93-3.93,3.88-9.66-.19-19.34.1-29-.16-3.63-.1-4.37,1.13-4.34,4.51.17,17.66,0,35.32.12,53,.16,19.17,11.54,28.72,30.44,25.74C1216.41,283.72,1219.8,283,1223.76,282.29Z"/><path class="cls-1" d="M807.3,223.46c-8.22,16-5.51,36.61,7,48.56s27.46,14.06,43.6,9.42c5.24-1.5,10.23-3.86,15.61-5.93,1.53,7,1.07,14.09,1.62,21.11.63,8.13,1,16.28,1.54,24.42.11,1.85.29,3.43-2.26,4.17-29.8,8.7-59.43,10.71-87.88-4.19-27.79-14.55-41.93-38.64-44.62-69.41-1.94-22.15,2.15-43.2,15.51-61.57,15.56-21.41,37.49-31.7,63.17-34.89,17.77-2.2,35.19-.09,52.32,4.88,1.81.52,4,.44,3.83,3.47-1,15.41-1.89,30.83-2.84,46.72-7.77-3.63-15.17-6.46-23.12-7.72C833.19,199.72,815.07,208.37,807.3,223.46Z"/><path class="cls-1" d="M1311.8,324.32c0,3.81-1.46,4.22-4.65,4.19-16.65-.13-33.3-.18-49.94,0-3.72,0-4.74-.9-4.72-4.67.17-26.8.09-53.6.09-80.4,0-26.63.08-53.27-.09-79.9,0-3.87.94-5,4.92-5,16.65.23,33.3.2,49.94,0,3.48,0,4.44.91,4.44,4.41Q1311.63,243.68,1311.8,324.32Z"/><path class="cls-1" d="M261.11,223.89A215.64,215.64,0,0,1,253.46,264c-.94,3.12-2.25,4.48-5.86,4.45-22.16-.2-44.33-.17-66.49,0-3.25,0-4.57-1.06-5.54-4.12-4.16-13.25-6.24-26.86-7.81-40.6-.33-2.87.49-3.71,3.4-3.68,14.66.14,29.33.06,44,.06,14.16,0,28.33.08,42.49-.06C260.68,220,261.45,220.58,261.11,223.89Z"/><path class="cls-1" d="M257.32,210.26c-14.32.1-28.65.06-43,.06-14.16,0-28.32-.07-42.48.05-3,0-4.54-.37-4.1-4,1.65-13.72,3.62-27.35,7.92-40.56.91-2.79,2.16-3.8,5.2-3.78q33.5.21,67,0c2.89,0,4.39.65,5.35,3.66,4.4,13.71,6.58,27.8,8,42.06C261.6,211.6,258.88,210.25,257.32,210.26Z"/><path class="cls-1" d="M1315.37,105.59c.24,17.85-14.89,33.23-32.89,33.42-18.18.19-33.62-15.07-33.6-33.21a33.25,33.25,0,0,1,66.49-.21Z"/><path class="cls-1" d="M333.07,223.63a117.64,117.64,0,0,1-11.42,41.06c-1.34,2.75-3,3.8-6.11,3.76q-24-.24-47.94,0c-3.87,0-4.34-1-3.21-4.57A132.79,132.79,0,0,0,271,224.18c0-3.27,1-4.22,4.3-4.14,9.15.22,18.31.07,27.47.07,9,0,18,.09,27-.05C332.48,220,333.35,220.57,333.07,223.63Z"/><path class="cls-1" d="M162.24,268.44c-16.47-.14-33-.11-49.42,0-2.43,0-3.92-.6-5-2.93-6.5-13.29-10-27.38-11.93-42-.42-3.19,1-3.48,3.58-3.45,9.15.11,18.3,0,27.45,0s18.31.08,27.46,0c2.47,0,3.47.5,3.51,3.25.23,14.06,3,27.72,7.19,41.09C166,267.55,165.7,268.47,162.24,268.44Z"/><path class="cls-1" d="M330.71,210.33q-28.44,0-56.87,0c-2.28,0-2.77-1.12-2.79-3.08a134.57,134.57,0,0,0-8-45.17c18.44,0,36.22,0,54,0a3.81,3.81,0,0,1,3.83,2.4,109.84,109.84,0,0,1,12.24,43.28C333.28,209.81,332.59,210.34,330.71,210.33Z"/><path class="cls-1" d="M164.93,166.15a130.19,130.19,0,0,0-7.08,40.6c0,2.81-.86,3.68-3.68,3.63-9.15-.16-18.31-.06-27.47-.06s-18.31-.1-27.46.06c-2.91.05-3.75-.84-3.37-3.7,1.89-14.25,5.15-28.08,11.62-41.05,1.25-2.5,2.58-3.65,5.58-3.62q24.47.26,48.94,0C165.61,162,166.1,162.76,164.93,166.15Z"/><path class="cls-1" d="M210.34,332.17c-41.8-1.43-71.92-20.84-94.81-53.17.93-1.54,2.23-.9,3.25-.91q23.73-.07,47.45,0c1.8,0,3.57-.63,4.86,2.05C182.8,304.63,189.18,313,210.34,332.17Z"/><path class="cls-1" d="M311.8,278.06c-8.49,26.42-61.07,57.09-92.09,53.44a147.35,147.35,0,0,0,25-27.87,137.06,137.06,0,0,0,12.89-22.45c.89-2,1.67-3.58,4.22-3.14a12,12,0,0,0,2,0Z"/><path class="cls-1" d="M209.56,97.64a134.28,134.28,0,0,0-22.35,22.89c-6.52,8.48-12.15,17.48-15.93,27.54-.61,1.6-1,3-3.3,3-17.28-.09-34.56-.05-52-.05C126,124.78,180.25,93.81,209.56,97.64Z"/><path class="cls-1" d="M312.23,151H273.74c-4.65,0-10,1.32-13.78-.49s-4.46-7.7-6.71-11.7c-8.71-15.5-19.39-29.38-33.65-41.32C254.9,96.29,293.14,119.57,312.23,151Z"/><path class="cls-1" d="M247.49,278.3c-6.4,13.56-15,25.1-24.66,35.82-8.05,8.89-8.15,8.87-16.27.28a150.27,150.27,0,0,1-22.09-30c-1-1.84-1.88-3.77-3-6.06Z"/><path class="cls-1" d="M247.26,150.79h-65.4c.81-4,3.07-7,5-10.22a149.84,149.84,0,0,1,25.05-30.3c1.49-1.4,2.55-2.81,4.8-.61,11.73,11.47,22.06,24,29.66,38.61A20.23,20.23,0,0,1,247.26,150.79Z"/></g></g></svg>