<svg xmlns="http://www.w3.org/2000/svg" viewBox="0 0 1023.8 486.81"><defs><style>.cls-1{fill:#fefefe;}.cls-2{fill:#a5a5a5;}.cls-3{fill:#b1b1b1;}.cls-4{fill:#a0a0a0;}.cls-5{fill:#b5b5b5;}.cls-6{fill:#797979;}.cls-7{fill:#737373;}.cls-8{fill:#727272;}.cls-9{fill:#6f6f6f;}.cls-10{fill:#717171;}.cls-11{fill:#707070;}.cls-12{fill:#787878;}.cls-13{fill:none;}</style></defs><g id="Camada_2" data-name="Camada 2"><g id="Camada_1-2" data-name="Camada 1"><path class="cls-1" d="M494.61,403.11a5,5,0,0,1-.16,1.18c-2.28,1.39-4.82,1.15-7.29,1.15q-64.82,0-129.61,0c-2.32,0-4.67.16-6.84-.92a4.06,4.06,0,0,1-.61-1.51,0,0,0,0,1,0,0c-.29-1.91,2.23-2,3.46-2.44a90.86,90.86,0,0,0,15.51-6.83c21.13-12.2,33.06-30.77,37.42-54.46,1.05-5.71,2.2-11.44,2.05-17.31,0-5.61,0-11.22,0-16.82a84.34,84.34,0,0,0-15.77-46c-11.25-16.06-26.92-26.94-43.29-37-18.27-11.23-38.06-19.85-55.7-32.16-9.49-6.62-18.06-14.12-23.2-24.87-1.59-3.34-2.26-6.87-3.07-10.39-.05-.24-.1-.48-.16-.72-.14-.61-.29-1.21-.45-1.81a29.32,29.32,0,0,1,0-8.92c1-5.71,2.06-11.44,5.28-16.46,7.53-11.72,19.08-15.79,32.11-15.41,18.51.54,27.13,8.11,31.92,26.14a64.12,64.12,0,0,1,2.09,15.68c0,1,0,2,0,3.05s-.35,2.4,0,3.47h0a1.88,1.88,0,0,0,.12.3,2.76,2.76,0,0,0,1.63,1.36l1.18,0c19.4.33,38.77,0,58.15.16,4,0,5.25-1.8,5.14-5.51-.15-5.31,0-10.63,0-15.94-1.08-18.93-6.17-36.39-19.11-50.84-7.73-8.62-17.5-14.29-28.25-18.22a117.72,117.72,0,0,0-35.64-6.83c-8-.34-15.87-1.69-23.84-.25-2.67.53-5.38.3-8.07.37C267.86,66,247,70.56,229.16,83.88c-10.68,8-19.21,18.05-23.73,30.88-9.09,25.81-10.71,51.73-.09,77.53,6.11,14.83,16.53,26.47,28.6,36.69,17.9,15.18,38.57,26.09,58.69,37.85,10.21,6,20.28,12.2,29.25,20,9.43,8.18,16.32,18,18.1,30.71a29.65,29.65,0,0,1,0,9,32.7,32.7,0,0,0-.79,4.4C335.94,351,321.19,361.89,301,361c-9.46-.41-18.86-2.08-26.33-9-8.51-7.91-11.13-18.2-12-29.2-.08-1.08-.1-2.17-.15-3.25a19.08,19.08,0,0,0-.55-4.11c-.05-.17-.1-.35-.16-.52a36.17,36.17,0,0,1-.23-5c-.07-7.58-.1-7.63-7.45-7.63q-26.73,0-53.47,0c-2.28,0-4.76-.49-6.36,1.88-1.52,6.77-.92,13.57-.3,20.36a40.76,40.76,0,0,1,.36,6.62c1,13.94,4.35,27.2,11.46,39.33,7.82,13.36,19.26,22.62,33.31,28.82a22.09,22.09,0,0,1,4.9,2.41,2.92,2.92,0,0,1,1,1.11h0a.28.28,0,0,1,0,.12c.13.48-.08,1-.8,1.53-2.34,1.18-4.88,1-7.36,1q-114.36,0-228.71,0a19.68,19.68,0,0,1-6.44-.56,5.32,5.32,0,0,1-.67-.35l-.2-.11a6.89,6.89,0,0,1-.82-.6L1,404c2.17-.06,4.33-.15,6.49-.15q115.84,0,231.68-.05c1.88,0,4,.86,5.67-.86-34.12-11.65-49.22-38.75-51.75-71.1l-.42-6.9a65,65,0,0,1,.14-21.24c-.52-2.52.73-3.11,3-3.1q32.07.07,64.13,0c2.39,0,3.19.82,3.11,3.16-.13,4,0,7.94,0,11.91.56,4.26,1.09,8.53,1.69,12.78,3.36,24.12,19.48,33.1,43.49,30.66,18-1.84,27.28-11.95,29.84-30a12.57,12.57,0,0,1,.78-2.31V317c-3.31-17-14.73-27.79-28.11-37.11-16.95-11.82-35.51-21-52.92-32-16.8-10.67-32.67-22.4-44.5-38.81-14.05-19.5-18.12-41.41-15.93-64.86,1.48-15.94,5.33-31.14,14.57-44.51,12.41-18,30.37-27.41,51-32.56a119.37,119.37,0,0,1,26.06-4l8.67-.28c9.27-1.91,18.55-.46,27.79.18,14,.95,27.59,3.93,40.3,10.13,23.76,11.6,35.35,31.63,39.16,57,.44,2.94.59,5.92.87,8.88a168.69,168.69,0,0,1,.23,20.85c-.07,1.73.07,3.25-2.48,3.22-21.86-.28-43.73.46-65.58-.41-1.63-6.78-.56-13.81-2-20.65-2.78-13.17-7.58-25-22.22-28.3-18.57-4.22-42.15,2.23-45.05,28.15a4.7,4.7,0,0,1-.62,1.33c0,3.18,0,6.36,0,9.55,3.61,20.13,17.93,31.56,34.09,41.15C317.55,203,333.5,211.31,349,220.34c17.05,9.95,32.92,21.44,44.6,37.75a84.79,84.79,0,0,1,16.18,45.84,124.21,124.21,0,0,1,0,18.9C408,360.39,390.9,391.08,350.12,403c1.38,1.4,3.14.79,4.73.79q67.56,0,135.11,0C491.52,403.8,493.23,404.35,494.61,403.11Z"/><path class="cls-1" d="M544.5,236.17q-.06,17.73,0,35.48c0,6.2.4,6.58,6.45,6.63,8.16.07,16.33,0,24.49,0,2.31,0,4.7-.17,6.72,1.37,1.12,1.42,1.11,3.11,1.11,4.77,0,22,.08,43.92,0,65.88a10.16,10.16,0,0,1-.29,2.46c-.9,2.69-3.21,3.74-5.61,4.47-14.48,4.36-29.16,6.44-44.28,4.08-13.71-2.14-22.92-9.79-28.25-22.42s-7.06-25.91-8.3-39.34a41.64,41.64,0,0,0-.35-4.86c0-.07,0-.14,0-.21-.07-.28-.16-.56-.26-.84-.49-2.58-.23-5.2-.42-7.81-1.7-28.24-1.29-56.52-.83-84.77.34-20.9,1.18-41.93,8.55-62,3.59-9.77,8.77-18.4,18.24-23.5,26.2-14.08,55.78,1.37,60.65,31.61a77,77,0,0,1,1.31,15.39c-.07,2-.28,4,1,5.76,1.5,1.5,3.41,1.11,5.2,1.11q27.39,0,54.79,0c5.48,0,6-.59,6.08-5.95,0-3.49,0-7,0-10.46-1.26-23.06-8.57-43.81-24.75-60.64C614.29,80.57,600,73,584.09,68.75A156.77,156.77,0,0,0,532.68,64c-15.28,1.05-30.15,3.25-44.35,8.93-24.31,9.73-40.42,27.49-49.65,51.76-7.18,18.88-10,38.61-11.37,58.61a40.54,40.54,0,0,1-.4,6.79c-.88,3.81-.29,7.68-.54,11.52q-.11,32.29,0,64.58c.26,4.15-.32,8.34.58,12.47a51.58,51.58,0,0,1,.35,7.66c1.52,25.16,4.06,50.1,15,73.35,9.74,20.73,26.23,33.45,47.58,40.6,1.62.54,4.68.05,4.74,2.73-25.45-6.93-44.6-21.39-55.21-46.11-5.41-12.6-8.51-25.82-10.48-39.32A236,236,0,0,1,426,286.84c-.09-2.64-.17-5.28-.26-7.93-1.31-4-.63-8-.71-12.07-.51-22-.59-43.92,0-65.88.12-3.72-.66-7.52.78-11.15q.12-3.42.22-6.84c1.52-25.57,5.56-50.57,18.2-73.34,10.53-19,26.22-32.34,46.75-39.16,33.29-11.06,67.06-12.07,100.42-.66,35.44,12.13,54.54,38,59.56,74.78.34,2.46.47,4.94.7,7.41.09,5.32.15,10.63.28,15.95,0,1.91-.27,3.07-2.65,3.06-22-.07-43.91,0-65.87-.06-.71,0-1.27-.21-1.41-1-.22-8.64-.32-17.25-2.09-25.8-5-24.16-21.08-32.34-42.62-31.48-14.06.56-23.6,8-29.81,20.13-5.9,11.6-8.19,24.19-9.49,36.94-3.43,33.7-2,67.5-1.92,101.28,0,5,.42,9.95.65,14.93q.15,3.84.28,7.69c1.73,10.62,2.16,21.43,4.85,31.91a75.8,75.8,0,0,0,6,16.81c4.7,8.86,11.77,14.85,21.67,16.86,17.9,3.63,35.3,1.54,52.17-5.37q-.09-36.94-.17-73.9c-11.48-.06-23-.22-34.44-.11-3.19,0-4.31-.75-4.27-4.13q.29-22,0-43.93c0-3.17,1-3.87,4-3.86,34,.09,67.89.05,101.84.08,1,0,2.4-.62,3,1,.06,7.49.18,15,.18,22.47q0,70.44,0,140.89c0,1.82-.11,3.65-.17,5.48-5.07,3-11,2.44-16.46,3.86a74.56,74.56,0,0,1-8.06,1.21c.65-2.15,3-1.91,4.75-2.21,4.42-.77,8.86-1.38,13.26-2.26,1.94-.4,4-.63,4.95-2.8a20.68,20.68,0,0,0,.28-5.49q0-76.44,0-152.89c0-2.12.47-4.35-.89-6.29-1.75-1.79-4-1.41-6.14-1.41q-46,0-92,0C544.87,229.52,544.52,229.87,544.5,236.17Z"/><path class="cls-1" d="M721.71,403a4.46,4.46,0,0,1-.43,1.4c-2.32,1.28-4.85,1-7.33,1q-39.63,0-79.26,0c-2.62,0-5.37.41-7.65-1.44a4.5,4.5,0,0,1,.11-.88c1.28,1.3,3,.7,4.46.7q42.79.06,85.59,0C718.71,403.79,720.47,404.47,721.71,403Z"/><path class="cls-1" d="M882.92,126c.32,1.59.66,3.18,1,4.77-2.45-1.29-2.08-4.07-2.58-6.25-4.86-21.37-15.75-38.34-35.49-48.86a95.41,95.41,0,0,0-31.28-10c-27-4-53.72-2.94-80.09,4.5C699.86,79.94,678.53,107,676,142.85c-1,14.68-.6,28.9,4.07,42.86,5.49,16.38,15.46,29.65,28.35,41,17.4,15.3,37.7,26.14,57.47,37.82,9.45,5.59,19,11,27.76,17.74A89.47,89.47,0,0,1,807,294.92c12.74,15,13.21,33.95,4.56,49.92-4.66,8.59-12.46,13.17-21.9,15.07a52.25,52.25,0,0,0-5.4,1,30.18,30.18,0,0,1-9.1,0c-.3-.1-.6-.19-.9-.26l-.25-.06c-1.24-.25-2.51-.29-3.77-.44-14.83-1.81-25.27-11.5-28.76-26-1.57-6.57-1.59-13.29-2.62-19.89h0c0-.27-.09-.54-.13-.81l-.09-.51c-.67-10.61-.67-10.61-11.21-10.61q-25,0-49.93,0c-5.83,0-6.23.44-6.26,6.26,0,5.66,0,11.31,0,17,1.11,22.46,6.54,43.29,23.28,59.6a68,68,0,0,0,23.3,14.94c1.45.55,4,.66,3.88,2.79-35.52-12.24-50-41.19-51.72-76-.62-7.61-.27-15.24-.24-22.86,0-2.6.84-3.41,3.43-3.4q31.6.13,63.21,0c2.69,0,4,.63,3.76,3.58-.24,3.13-.12,6.29-.15,9.44.73,5.73,1.11,11.53,2.26,17.18,3.63,17.81,12.52,25.88,30.51,28.23a14.81,14.81,0,0,1,2.36.71h9.48c1.94-.4,3.88-.77,5.81-1.22,15-3.49,24.15-15.58,25.46-31.86,1.48-18.42-7.75-31-21.09-41.65-15.3-12.2-32.81-20.91-49.5-30.88-13.45-8-26.62-16.45-38.37-26.9-24.57-21.85-35.73-48.9-32.43-81.88,1.07-10.67,2.81-21.08,6.79-31,8.13-20.34,22.83-34.46,43.1-41.87C760.12,59.34,796.7,58.1,833.14,69,861.26,77.4,877.18,97.48,882.92,126Z"/><path class="cls-1" d="M886.16,127.93a3.86,3.86,0,0,1-1.52,3.11,4.08,4.08,0,0,1-.67-.28c.31-.62.64-1.24,1-1.86q0-64.45-.1-128.9a4.93,4.93,0,0,1,.65.89,5,5,0,0,1,.35.79,11.74,11.74,0,0,1,.4,4C886.2,46.42,886.37,87.18,886.16,127.93Z"/><path class="cls-1" d="M886.23,480.67a13,13,0,0,1-.4,4.46,4.54,4.54,0,0,1-.35.78,4.87,4.87,0,0,1-.65.9q0-34.44,0-68.88c-1.66-.06-3.31-.17-5-.17H3.5c-1.17,0-2.33.05-3.5.07A4.42,4.42,0,0,1,1.25,417a6.1,6.1,0,0,1,1.62-.45h0a14.92,14.92,0,0,1,1.78-.12c1.84,0,3.67,0,5.5,0H875c3,0,6-.34,9,.48a3.53,3.53,0,0,1,1.53,1.25c.88,1.69.77,3.54.78,5.35Q886.28,452.1,886.23,480.67Z"/><path class="cls-1" d="M1023.8,403.84a6,6,0,0,1-.89.63l-.14.08a5.13,5.13,0,0,1-.66.34,17.74,17.74,0,0,1-5.94.56q-55.42,0-110.85,0c-2.63,0-5.37.33-7.72-1.36-1.45-1.88-1.17-4.11-1.17-6.25q0-195.82,0-391.66a13.12,13.12,0,0,1,.4-4.48,4.54,4.54,0,0,1,.35-.78,4.93,4.93,0,0,1,.65-.91q0,72.47.07,144.93,0,126.2,0,252.39c0,2.16.12,4.32.19,6.48l118.7,0c2,0,4,.09,6,.14Z"/><path class="cls-2" d="M1023.28,414.82a2.64,2.64,0,0,1-1,2.51,3.4,3.4,0,0,1-1,.5L897.9,418q0,33.57-.07,67.15v0a.61.61,0,0,1-.05.12,5.19,5.19,0,0,1-.95,1.55h-11a4.18,4.18,0,0,1-.35-.9c-.43-1.46-.11-3-.11-4.48,0-19.42,0-38.83,0-58.25,0-1.78.53-3.65-.53-5.34v.09h0c-2-1.17-4.22-.57-6.33-.57q-435.55,0-871.1,0c-3.55,0-5.28.2-6.11-.3-1-.61-.68-2.27-.7-6.64,0-2-.46-4,.27-5.93.06-.16.13-.31.2-.46,2.17-.06,4.33-.15,6.49-.15q115.84,0,231.68-.05c1.88,0,4,.86,5.67-.86l.1-.08h0c1.23-1,2.72-.77,4.17-.76q48.38.38,96.77,0c1.47,0,3-.3,4.2.93h0c1.38,1.4,3.14.79,4.73.79q67.56,0,135.11,0c1.56,0,3.27.55,4.65-.69l.1-.09c1.19-1.26,2.73-1,4.22-1,38.79.39,77.58,0,116.37.26,3.87,0,7.91-2,11.66.59a1.8,1.8,0,0,0,.19.2c1.28,1.3,3,.7,4.46.7q42.79.06,85.59,0c1.51,0,3.27.68,4.51-.8a.6.6,0,0,0,.11-.12c1.12-1,2.47-.82,3.8-.81,27.29.4,54.59.07,81.88.18,6.66,0,13.31.07,20-.37a18.19,18.19,0,0,0,2.28.41c-.61.21-1.23.4-1.85.59.76,1.26,2,.94,3.13.94q25.13,0,50.26,0c1.29,0,2.71.3,3.64-1q0-28.46,0-56.89L884,344.1a8.57,8.57,0,0,1,.15,3.3,6.67,6.67,0,0,0-.23-.72l-.33-1a12.88,12.88,0,0,1-.62-2.61c.6-18.81.34-37.64.13-56.46a11.12,11.12,0,0,1,.45-2.38c.15.47.29.94.42,1.42.33-.61.65-1.23,1-1.85L884.87,164a.86.86,0,0,1-.08-.78,3.05,3.05,0,0,1-1.17.32c0-.21-.06-.42-.07-.63a.41.41,0,0,1,0-.11h0a.09.09,0,0,1,0-.05.34.34,0,0,0,0-.1c-.67-9.69.23-19.4-.6-29.08a3.1,3.1,0,0,1,1-2.69.25.25,0,0,1,0-.07c.31-.62.64-1.24,1-1.86.78-1.76.4-3.61.4-5.42q0-59,0-118.1c0-1.48-.32-3,.11-4.49a3.92,3.92,0,0,1,.35-.89h11a5.33,5.33,0,0,1,.35.91c.46,1.63.11,3.33.11,5q0,196.09.07,392.21c0,1.89-.85,4,.74,5.69l118.7,0c2,0,4,.09,6,.14.05.17.1.34.14.5C1023.78,407.89,1023.05,411.38,1023.28,414.82Z"/><path class="cls-1" d="M897.9,418q0,33.57-.07,67.15v1.71c0-.52,0-1-.05-1.55C897.07,462.82,897,440.39,897.9,418Z"/><path class="cls-1" d="M1023.8,417.83h-2.57L897.9,418h0l0-.11v.09c1.16-1,2.54-.56,3.82-.56q59.34,0,118.7,0c.61,0,1.25-.08,1.86,0A2.81,2.81,0,0,1,1023.8,417.83Z"/><path class="cls-3" d="M884.79,417.92h0c-1.66-.06-3.31-.17-5-.17H3.5c-1.17,0-2.33.05-3.5.07v-14L1,404v.57c0,2,0,3.95,0,5.92,0,4.17,0,5.6,1.87,6.09h0a21.68,21.68,0,0,0,4.71.26q435.3,0,870.59.05C880.39,416.87,882.87,415.86,884.79,417.92Z"/><path class="cls-4" d="M898.1,403.8c-2.35-1.78-1.21-4.33-1.22-6.49q-.09-197.82,0-395.62V0h1q0,72.47.07,144.93,0,126.2,0,252.39C897.91,399.48,898,401.64,898.1,403.8Z"/><path class="cls-5" d="M1023.8,403.84v14h-2.57L897.9,418h0c1.54-1.94,3.7-1.07,5.56-1.07q56.38-.08,112.78,0c6.56,0,6.56,0,6.56-6.37,0-2,0-3.93,0-5.9V404Z"/><path class="cls-4" d="M884.93,128.9q0-64.45-.1-128.9h1V1.68q0,60.75,0,121.5C885.8,125.09,886.52,127.19,884.93,128.9Z"/><path class="cls-4" d="M885.79,423.48q.09,30.82,0,61.65v1.68h-1q0-34.44,0-68.88v-.09C886.59,419.45,885.79,421.59,885.79,423.48Z"/><path class="cls-4" d="M897.9,417.84V418q0,33.57-.07,67.15v1.71h-1q0-31.68,0-63.34C896.87,421.58,896.06,419.43,897.9,417.84Z"/><path class="cls-6" d="M651.73,397.8c-5.07,3-11,2.44-16.46,3.86a74.56,74.56,0,0,1-8.06,1.21l-.25,0c-42.12,2.08-84.26.37-126.4.88a39.22,39.22,0,0,1-5.85-.76l-.11,0c-25.45-6.93-44.6-21.39-55.21-46.11-5.41-12.6-8.51-25.82-10.48-39.32A236,236,0,0,1,426,286.84c.53-2.66,1-5.32-.26-7.93-1.31-4-.63-8-.71-12.07.82-5.25.32-10.54.35-15.82.08-15.05,0-30.1,0-45.15,0-1.64.32-3.32-.36-4.91.12-3.72-.66-7.52.78-11.15,1.2-2.24.58-4.54.22-6.84,1.52-25.57,5.56-50.57,18.2-73.34,10.53-19,26.22-32.34,46.75-39.16,33.29-11.06,67.06-12.07,100.42-.66,35.44,12.13,54.54,38,59.56,74.78.34,2.46.47,4.94.7,7.41-.73,4.95-.25,9.93-.28,14.89,0,2.4-.48,3.59-3.27,3.58-21.57-.11-43.14,0-64.71-.07a3.52,3.52,0,0,1-1.39-.46c-.22-8.64-.32-17.25-2.09-25.8-5-24.16-21.08-32.34-42.62-31.48-14.06.56-23.6,8-29.81,20.13-5.9,11.6-8.19,24.19-9.49,36.94-3.43,33.7-2,67.5-1.92,101.28,0,5,.42,9.95.65,14.93-.79,2.42-.2,4.92-.34,7.38,0,.66.22,1.05.15.39l.47-.08c1.73,10.62,2.16,21.43,4.85,31.91a75.8,75.8,0,0,0,6,16.81c4.7,8.86,11.77,14.85,21.67,16.86,17.9,3.63,35.3,1.54,52.17-5.37,1-1,.62-2.19.62-3.31q0-33.72,0-67.44c0-1.07.56-2.37-.78-3.15-11.48-.06-23-.22-34.44-.11-3.19,0-4.31-.75-4.27-4.13q.29-22,0-43.93c0-3.17,1-3.87,4-3.86,34,.09,67.89.05,101.84.08,1,0,2.4-.62,3,1-.61,1.44-.35,2.95-.35,4.43q0,80,0,160C651.37,394.85,651.1,396.36,651.73,397.8Z"/><path class="cls-6" d="M409.78,303.93a84.79,84.79,0,0,0-16.18-45.84c-11.68-16.31-27.55-27.8-44.6-37.75-15.5-9-31.45-17.3-46.87-26.46-16.16-9.59-30.48-21-34.09-41.15-.28,0-.45.71-.58.36l-.07-.17s.05-.06.05-.29c0-3.15,0-6.29,0-9.44q0-.72.3-.36a3.68,3.68,0,0,0,.33.35,4.7,4.7,0,0,0,.62-1.33c2.9-25.92,26.48-32.37,45.05-28.15C328.37,117,333.17,128.83,336,142c1.45,6.84.38,13.87,2,20.65a4.48,4.48,0,0,0,.5-2.22c.39,1.41,1.71,2.13,4.62,2.09,19.33-.24,38.65-.19,58,0,3.59,0,4.47-1.18,4.43-4.58-.05-6.31-.57-12.63.3-18.93-.28-3-.43-5.94-.87-8.88-3.81-25.33-15.4-45.36-39.16-57C353.05,67,339.45,64,325.46,63c-9.24-.64-18.52-2.09-27.79-.18a1.93,1.93,0,0,1,.48.51c.05.08.09.16.13.24s-.07.09-.1.08a8.62,8.62,0,0,0-1-.15c-2.71-.29-5.5.44-8.18-.4a119.37,119.37,0,0,0-26.06,4c-20.6,5.15-38.56,14.61-51,32.56-9.24,13.37-13.09,28.57-14.57,44.51-2.19,23.45,1.88,45.36,15.93,64.86,11.83,16.41,27.7,28.14,44.5,38.81,17.41,11.07,36,20.23,52.92,32,13.38,9.32,24.8,20.15,28.11,37.11a16.52,16.52,0,0,1,0,9.77,12.57,12.57,0,0,0-.78,2.31c-2.56,18.06-11.84,28.17-29.84,30-24,2.44-40.13-6.54-43.49-30.66-.6-4.25-1.13-8.52-1.69-12.78a.83.83,0,0,0,0,.15c-.13.35-.51.51-.61.27a.73.73,0,0,0-.05-.12,1.25,1.25,0,0,0,0-.23c.11-3.66-.1-7.32.08-11,.13-2.66-1-3.4-3.5-3.39q-30.95.12-61.89,0a4.49,4.49,0,0,0-4.25,2.36,65,65,0,0,0-.14,21.24c1.47,2.22.75,4.57.42,6.9,2.53,32.35,17.63,59.45,51.75,71.1l.14,0a31.25,31.25,0,0,0,8.68.88q43.31,0,86.61,0a44.8,44.8,0,0,0,9.81-.83h0c40.78-11.93,57.83-42.62,59.66-80.18A97,97,0,0,1,409.78,303.93Zm-71.11-147c-.1.42-.18.82-.24,1.19A4.49,4.49,0,0,1,338.67,156.89Z"/><path class="cls-6" d="M883.55,284.25c-7.72-26-25.86-43.58-47.88-58-17.85-11.68-37.27-20.6-55.47-31.65-10.15-6.17-19.79-13-27-22.66-8.54-11.48-9.74-24.28-5.8-37.5s13.76-19.49,26.83-21.38a41.7,41.7,0,0,1,16.83.55c15,4,20.68,15.6,23.62,29.27,1,4.68,1.38,9.5,2,14.26,0,.35,0,.67,0,1v0c0,.24,0,.5-.08.75,0,0,0,0,0,0,.24,2.65,1.07,3.71,3.43,4.15a19.29,19.29,0,0,0,2.62.24c1.82.07,3.65,0,5.48,0,18.28.13,36.55-.25,54.83.18a2.09,2.09,0,0,0,.56,0,3.05,3.05,0,0,0,1.17-.32c-.35-10.78.79-21.6-.86-32.35,0,0,0-.07,0-.1-.33-1.59-.67-3.18-1-4.77-5.74-28.48-21.66-48.56-49.78-57-36.44-10.89-73-9.65-108.74,3.42-20.27,7.41-35,21.53-43.1,41.87-4,10-5.72,20.36-6.79,31-3.3,33,7.86,60,32.43,81.88,11.75,10.45,24.92,18.86,38.37,26.9,16.69,10,34.2,18.68,49.5,30.88,13.34,10.64,22.57,23.23,21.09,41.65-1.31,16.28-10.5,28.37-25.46,31.86-1.93.45-3.87.82-5.81,1.22a14,14,0,0,1-9.48,0,14.81,14.81,0,0,0-2.36-.71c-18-2.35-26.88-10.42-30.51-28.23-1.15-5.65-1.53-11.45-2.26-17.18-1.56-2.44-.63-5.13-.58-7.66.07-3.33-.77-4.63-4.41-4.6q-30.19.24-60.39,0c-3.69,0-4.36,1.3-4.33,4.62,0,7,.55,13.94-.3,20.89,1.77,34.83,16.2,63.78,51.72,76l.09,0a26.05,26.05,0,0,0,8.34,1q44.45,0,88.89,0a29.53,29.53,0,0,0,8.84-1c.62-.19,1.24-.38,1.85-.59,28.17-9.11,46.41-27.69,53.85-56.57l.33,1a6.67,6.67,0,0,1,.23.72,8.57,8.57,0,0,0-.15-3.3,63.74,63.74,0,0,0,.75-6.85c.06-15.24,0-30.48.06-45.72a19,19,0,0,0-.84-5.85Z"/><path class="cls-7" d="M651.9,251.43q0,70.44,0,140.89c0,1.82-.11,3.65-.17,5.48-1.45-1.56-.82-3.49-.83-5.25q0-79.17,0-158.33c0-1.76-.62-3.69.82-5.26C651.78,236.45,651.9,243.94,651.9,251.43Z"/><path class="cls-8" d="M740.17,304.14c-.24,3.13-.12,6.29-.15,9.44-.23.49-.55,1.67-1,1a1.46,1.46,0,0,1-.16-.36h0a2.33,2.33,0,0,1-.13-.81c0-.71.1-1.51.09-2.22-.06-9.3-.06-9.3-9.58-9.3-17.76,0-35.51.13-53.27-.1-4.24,0-5.23,1.36-5.26,5.38,0,6.55,1.15,13.18-.74,19.66-.62-7.61-.27-15.24-.24-22.86,0-2.6.84-3.41,3.43-3.4q31.6.13,63.21,0C739.1,300.55,740.39,301.19,740.17,304.14Z"/><path class="cls-9" d="M406,159.84c-.07,1.73.07,3.25-2.48,3.22-21.86-.28-43.73.46-65.58-.41V153l.38.19c.29.14.46.21.47.29.37,5.11.52,7.13,2.45,7.92,1.26.53,3.27.53,6.61.53,17.45,0,34.91-.1,52.36.08,3.75,0,4.75-1.14,4.81-4.82.11-6.06-1.21-12.21.75-18.2A168.69,168.69,0,0,1,406,159.84Z"/><path class="cls-7" d="M263.06,315.64a.83.83,0,0,0,0,.15c-.29,1.13.23,2.43-.53,3.75a3.3,3.3,0,0,1-.54.7c0-1.64,0-3.24,0-4.81,0-3.42,0-6.72,0-10,.06-2.53-.82-3.58-3.46-3.57-20.48.06-41,.1-61.44-.08-2,0-2.57,1.93-4.25,1.91-.52-2.52.73-3.11,3-3.1q32.07.07,64.13,0c2.39,0,3.19.82,3.11,3.16C263,307.7,263.06,311.67,263.06,315.64Z"/><path class="cls-10" d="M652,168c0,1.91-.27,3.07-2.65,3.06-22-.07-43.91,0-65.87-.06-.71,0-1.27-.21-1.41-1,21.21,0,42.43-.11,63.64.08,4.17,0,5.43-1.19,5.31-5.31s-1-8.56.7-12.71C651.78,157.32,651.84,162.63,652,168Z"/><path class="cls-11" d="M582.89,350.74c0,1.17.07,2.36-1.12,3.1q-.09-36.94-.17-73.9c1.54.75,1.28,2.18,1.28,3.47Q582.9,317.09,582.89,350.74Z"/><path class="cls-11" d="M425.06,266.84c-.51-22-.59-43.92,0-65.88,1.14,1,.85,2.45.85,3.75q0,29.19,0,58.39C425.91,264.4,426.21,265.79,425.06,266.84Z"/><path class="cls-10" d="M409.78,322.83a42.6,42.6,0,0,1,0-18.9A124.21,124.21,0,0,1,409.78,322.83Z"/><path class="cls-12" d="M268.06,143.18c0,3.18,0,6.36,0,9.55-.07.65-.14,1.3-.22,2h-.47V141.05C268.31,141.53,267.81,142.48,268.06,143.18Z"/><path class="cls-8" d="M784.63,359.7c-3.23,2.37-6.87.72-10.33.92l-.25,0s0,0,0-.08a4,4,0,0,1,1.1-.86Z"/><path class="cls-8" d="M299.62,63.13c-.49.06-1,.14-1.47.22l-1,.17c-2.73.49-5.46,1-8.18-.4l8.67-.28Z"/><path class="cls-11" d="M339.67,326.82c0,.05-.25.15-.38.14a1.29,1.29,0,0,1-.43-.2V317C341.2,320.09,339.56,323.53,339.67,326.82Z"/><path class="cls-10" d="M497,293.63c-.21.38-.72,1.14-.87,1.1a.1.1,0,0,1,0-.09v-.12c-.07-2.86-1.07-5.85.63-8.58Q496.91,289.78,497,293.63Z"/><path class="cls-9" d="M426.66,189.9c0,.06-.26.15-.39.14a1.39,1.39,0,0,1-.43-.23q.12-3.42.22-6.84C427.56,185.17,426.88,187.55,426.66,189.9Z"/><path class="cls-9" d="M426,286.84c-.09-2.64-.17-5.28-.26-7.93C427.63,281.5,427.27,284.16,426,286.84Z"/><path class="cls-11" d="M193.11,331.82l-.42-6.9C194.88,327.09,194.29,329.44,193.11,331.82Z"/><path class="cls-13" d="M883.55,284.25h0c.15.47.29.94.42,1.42m-.16-122.81-.27-.11h0c-1.67-.63-3.43-.28-5.14-.28-18.26,0-36.53-.18-54.79.1-4,.06-6.51-.55-6.83-4.42,0,.24,0,.5-.08.75,0,0,0,0,0,0-.24,2-.7,4.17,3.24,4.15h.19a19.29,19.29,0,0,0,2.62.24c1.82.07,3.65,0,5.48,0,18.28.13,36.55-.25,54.83.18a2.09,2.09,0,0,0,.56,0,3.05,3.05,0,0,0,1.17-.32Zm1.5,4.49c0-1.15.22-2.34-.44-3.4l.07,119.87a7.23,7.23,0,0,0,.37-3.42Q885.33,223.88,885.31,167.36Z"/><path class="cls-13" d="M829.74,402.28c-.61.21-1.23.4-1.85.59M884,344.1c-.13.54-.26,1.08-.41,1.61l.33,1a6.67,6.67,0,0,1,.23.72A8.57,8.57,0,0,0,884,344.1Zm1.27,38.44c-.07-12.21.54-24.43-.33-36.63q0,28.44,0,56.89C885.79,396.06,885.31,389.29,885.27,382.54Z"/><path class="cls-4" d="M884.94,283.83,884.87,164c1.49,1.32.94,3.1.94,4.7q0,55.22,0,110.44C885.81,280.7,886.36,282.46,884.94,283.83Z"/><path class="cls-4" d="M885.82,399.07c0,1.3.3,2.7-.9,3.73q0-28.46,0-56.89c1.18,1,.88,2.44.88,3.73Q885.85,374.36,885.82,399.07Z"/><path class="cls-11" d="M883.81,162.87h-.26c-21.14,0-42.28.07-63.42.2h-.19c-3.94,0-3.48-2.11-3.24-4.15,0,0,0,0,0,0,0-.25.06-.51.08-.75v0a4.52,4.52,0,0,0,0-1c.39-1-.38-2.35.81-3.21.7,8,.7,8,9.17,8,17.3,0,34.59,0,51.88,0,1.64,0,3.45-.57,4.92.64A3.58,3.58,0,0,1,883.81,162.87Z"/></g></g></svg>