<svg xmlns="http://www.w3.org/2000/svg" xmlns:xlink="http://www.w3.org/1999/xlink" viewBox="0 0 2290 2290"><defs><style>.cls-1{fill:none;}.cls-2{fill:#005578;}.cls-3{opacity:0.21;}.cls-4{clip-path:url(#clip-path);}.cls-5{fill:#013849;}</style><clipPath id="clip-path" transform="translate(185 619)"><rect class="cls-1" width="1920" height="912"/></clipPath></defs><g id="Camada_2" data-name="Camada 2"><g id="Camada_1-2" data-name="Camada 1"><rect class="cls-2" x="185" y="619" width="1920" height="912"/><g class="cls-3"><g class="cls-4"><path class="cls-5" d="M960.48,1671l-.39-972.81a183.81,183.81,0,0,0,18.57-1l100.9,967.56A1158.82,1158.82,0,0,1,960.48,1671Zm-119.05-6.1A1147.68,1147.68,0,0,1,723,1646.33l200.8-951.86a171,171,0,0,0,17.72,2.77ZM1198,1646.13,996.38,694.44a169.78,169.78,0,0,0,17-4.56l300.7,925.17A1146.57,1146.57,0,0,1,1198,1646.13Zm-591.21-30.78a1144.11,1144.11,0,0,1-112.23-43L890.22,683.59a167.6,167.6,0,0,0,16.51,6.34Zm819.55-43.44L1029.87,683.56a172.84,172.84,0,0,0,15.92-8.14l487.37,841.93A1148.94,1148.94,0,0,1,1426.34,1571.91ZM387.61,1517.79a1150,1150,0,0,1-100.46-65.29l572-786.86a172.18,172.18,0,0,0,15.15,9.85ZM1633.52,1452,1060.94,665.55A173.12,173.12,0,0,0,1075.13,654l651.26,722.65A1151.54,1151.54,0,0,1,1633.52,1452Zm-1439.3-74.77a1150.65,1150.65,0,0,1-84.59-84.49L832,641.19a179.93,179.93,0,0,0,13,12.95Zm1616.69-85.09L1088.08,641.09a177.4,177.4,0,0,0,11.51-14.19l786.63,572.33A1150.83,1150.83,0,0,1,1810.91,1292.15ZM34.28,1199.93a1149.72,1149.72,0,0,1-65.37-100.34l841.7-487.75A174.16,174.16,0,0,0,820.49,627Zm1917.25-101.1L1109.46,611.72a171.89,171.89,0,0,0,8.11-15.88L2006.1,991.91A1145.85,1145.85,0,0,1,1951.53,1098.83ZM-85.72,992.77A1146.55,1146.55,0,0,1-128.9,880.6l925-301.12A169.87,169.87,0,0,0,802.49,596ZM2049.19,879.69,1123.91,579.33a170.45,170.45,0,0,0,4.55-17.05l951.77,201.25A1145,1145,0,0,1,2049.19,879.69ZM-160,764.5a1147.06,1147.06,0,0,1-18.72-118.45L788.78,544.74a170.68,170.68,0,0,0,2.79,17.7ZM2098.84,645.07l-967.6-100.49a181,181,0,0,0,1-18.58v.07L2105,523.64V526A1155.77,1155.77,0,0,1,2098.84,645.07Zm-1311-117.85v-.72l-972.81.07V526h0a1159.15,1159.15,0,0,1,6.05-118.08l967.7,99.65a180.91,180.91,0,0,0-.94,18.43ZM1131.2,507.1a170.75,170.75,0,0,0-2.8-17.68l951.42-202.89A1150.3,1150.3,0,0,1,2098.64,405ZM791.51,489.85l-951.95-200.4A1148.41,1148.41,0,0,1-129.5,173.26L796.05,472.8A169.16,169.16,0,0,0,791.51,489.85Zm332.31-17.47a169.59,169.59,0,0,0-6.36-16.47l887.85-397.6a1148.27,1148.27,0,0,1,43.28,112.14ZM802.37,456.3-86.51,61A1145.91,1145.91,0,0,1-32-46L810.47,440.4A168.47,168.47,0,0,0,802.37,456.3ZM1109.31,440a173.31,173.31,0,0,0-9.89-15.15l785.72-573.59A1152.57,1152.57,0,0,1,1950.6-48.45Zm-289-14.79L33.2-146.43a1150.63,1150.63,0,0,1,75.22-93L831.81,411A175.54,175.54,0,0,0,820.32,425.23Zm267.6-14.5a174.94,174.94,0,0,0-13-13L1725.05-325.9a1155.34,1155.34,0,0,1,84.62,84.37ZM844.76,398.05,192.86-324a1150.28,1150.28,0,0,1,92.81-75.4l573.27,786A179.17,179.17,0,0,0,844.76,398.05Zm216-11.77a174,174,0,0,0-15.17-9.85l486-842.72a1148.19,1148.19,0,0,1,100.5,65.2Zm-186.63-9.62L386-464.85a1145.51,1145.51,0,0,1,106.78-54.66l397.2,888A167.51,167.51,0,0,0,874.08,376.66Zm155.54-8.33a169.51,169.51,0,0,0-16.49-6.3l299.14-925.68a1144.56,1144.56,0,0,1,112.29,42.95Zm-123.16-6.17L604.91-562.74A1143.55,1143.55,0,0,1,721-593.92L923.48,357.59A168.74,168.74,0,0,0,906.46,362.16Zm89.64-4.66a171.38,171.38,0,0,0-17.74-2.76L1077.58-613A1150.08,1150.08,0,0,1,1196-594.54Zm-54.9-2.71L839.45-612.69A1155.23,1155.23,0,0,1,958.51-619l1.27,972.81A180.66,180.66,0,0,0,941.2,354.79Z" transform="translate(185 619)"/></g></g></g></g></svg>