<svg xmlns="http://www.w3.org/2000/svg" xmlns:xlink="http://www.w3.org/1999/xlink" viewBox="0 0 631.23 296.72"><defs><style>.cls-1{fill:none;stroke:#003264;stroke-miterlimit:10;stroke-width:4.37px;}.cls-2{fill:#00465a;}.cls-3{fill:#0d0e23;}.cls-4{fill:#fff;}.cls-5{fill:#e6e6e6;}.cls-6{fill:url(#Degradado_sin_nombre_15);}.cls-7{fill:url(#Degradado_sin_nombre_15-2);}.cls-8{fill:url(#Degradado_sin_nombre_15-3);}</style><radialGradient id="Degradado_sin_nombre_15" cx="1599.58" cy="232.8" r="44.88" gradientTransform="matrix(-1, 0, 0, 1, 1710.61, 0)" gradientUnits="userSpaceOnUse"><stop offset="0" stop-color="#ffdc00"/><stop offset="0.31" stop-color="#ffcd00"/><stop offset="0.9" stop-color="#ffa700"/><stop offset="1" stop-color="#ffa000"/></radialGradient><radialGradient id="Degradado_sin_nombre_15-2" cx="526.41" cy="232.8" r="44.88" gradientTransform="matrix(1, 0, 0, 1, 0, 0)" xlink:href="#Degradado_sin_nombre_15"/><radialGradient id="Degradado_sin_nombre_15-3" cx="318.72" cy="194.54" r="144.85" gradientTransform="matrix(1, 0, 0, 1, 0, 0)" xlink:href="#Degradado_sin_nombre_15"/></defs><g id="Camada_2" data-name="Camada 2"><g id="Camada_1-2" data-name="Camada 1"><path class="cls-1" d="M318.72,138.05a596.12,596.12,0,0,0-196.9,33.25V251a524.27,524.27,0,0,1,393.8,0V171.3A596.07,596.07,0,0,0,318.72,138.05Z"/><path class="cls-2" d="M629.25,32.85a11,11,0,0,0-7.13-4.55l-9.35-1.61c-32.33-5.33-65.2-10-97.69-13.92H515l-5.71-.64c-4.86-.54-7.29-.81-12.15-1.31H497c-14.69-1.53-22-2.21-36.68-3.44a69.94,69.94,0,0,0-17.78-3.53l-.78-.06a74.22,74.22,0,0,0-52.16,16.78,61.15,61.15,0,0,0-7.32,7.27,59.63,59.63,0,0,0-13.41-13.36A70.51,70.51,0,0,0,341.67,2.57C333.13.82,323,0,310.53,0c-16.33,0-33,.28-49.45.76-7.35.22-10.94.34-18.3.63-28.1,1.14-56.45,2.94-84.28,5.36-7.43.65-11.06,1-18.49,1.7A1.45,1.45,0,0,0,138.72,10l1.5,16.18a45.56,45.56,0,0,0-25.49-11.94c-8.48-1.16-19.1-.89-32.48.81l-1.14.14c-20.82,2.87-41.9,6-62.66,9.39-3.72.63-6.53,1.1-9.32,1.59A11,11,0,0,0,.17,39c3.6,20.33,7.22,40.92,10.77,61.22a1.4,1.4,0,0,0,.63,1,1.43,1.43,0,0,0,1.12.2l6.94-1.66c2.18,12.85,3.37,19.92,5.54,32.88-2.54,1-4.13,1.57-7,2.66a1.44,1.44,0,0,0-.9,1.59c3.34,19.29,6.69,38.76,10,57.87a11,11,0,0,0,15.31,8.2c2.17-1,4.46-2,7.24-3.2a20.57,20.57,0,0,0,.69,29.18l19.41,18.39-2.6,26.94a20.57,20.57,0,0,0,29,20.72c23.84-10.78,62.42-24.33,87.82-30.83a20.58,20.58,0,0,0,15.17-16.55,506.73,506.73,0,0,1,238.9,0,20.58,20.58,0,0,0,15.18,16.55c25.39,6.5,64,20.05,87.82,30.83a20.57,20.57,0,0,0,29-20.72l-2.6-26.94,19.4-18.39A20.56,20.56,0,0,0,585.78,198l3.29,1.42a11,11,0,0,0,15.23-8.19c3.92-22.36,7.92-45,11.87-67.31a1.43,1.43,0,0,0-.93-1.6c-6-2.13-8.89-3.16-14.9-5.25-4.5-1.56-8.19-2.81-12.06-4.1l1.88-6.62c2.58.63,5.34,1.31,8.67,2.15h0c7.14,1.79,10.62,2.68,17.71,4.54a1.43,1.43,0,0,0,1.77-1.14c4.17-23.31,8.46-47.12,12.74-70.77A11,11,0,0,0,629.25,32.85Z"/><path class="cls-3" d="M124.34,94.72c2.93-2.27,7.53-6.08,9.71-9.32,3.28-4.86,4.61-10.86,3.92-17.83a30.69,30.69,0,0,0-7.77-18.18,28.1,28.1,0,0,0-17.48-8.89c-6.7-.91-16.1-.68-27.91.82l-1,.14q-31,4.27-61.95,9.28L20.06,51c2.49,14.68,3.73,22,6.2,36.69l1.66-.38,6.86-1.56q5.43,33.42,10.77,66.84c-2.38.87-3.94,1.45-6.65,2.47l-1.33.49c2.37,14.29,3.54,21.43,5.89,35.72l1.79-.8q25.11-11.07,50.83-20.32l2.59-1c9-3.35,18.45-6.73,27.3-11.55a39.85,39.85,0,0,0,16.19-15.81,37.47,37.47,0,0,0,4.48-22.13,28.51,28.51,0,0,0-7.7-17.38C135.8,99,128.58,96.24,124.34,94.72Zm-29.61-6.5c-.83,1.37-3.19,3.28-9.67,4.7L78.44,94.4c-1.07-7.9-1.61-11.85-2.68-19.75l5.49-1c.91-.17,1.77-.3,2.6-.41,6.45-.83,8.58.34,9.28,1.1a12.59,12.59,0,0,1,1.6,13.89ZM84.86,142c-1.13-8.49-1.7-12.73-2.85-21.21L88.69,119a36.9,36.9,0,0,1,4.74-.94c3.69-.47,5.5.09,6.37.63,1.85,1.16,3,3.56,3.43,7.14.47,3.85-.16,6.79-1.84,8.74-1.84,2.13-5.26,3.95-10.16,5.44C88.62,140.84,87.05,141.32,84.86,142Z"/><path class="cls-3" d="M254.79,103.68c-2.46.19-3.87.31-6,.49-6.54-16-13.16-32-19.7-47.65l5.7-.37,1.65-.1c-.47-11.16-.71-16.74-1.18-27.9l-1.67.07q-36.7,1.94-73.31,4.87l-1.72.15c1,11.84,1.52,17.77,2.52,29.61l1.68-.2,5.68-.66q-6.76,27.66-12.8,55.52c-2.27.46-3.71.76-6.26,1.3l-1.47.31c1.11,11.81,1.67,17.71,2.78,29.51l1.76-.44c12.33-3.07,24.91-5.83,37.37-8.2l1.45-.27c-.73-10.49-1.09-15.73-1.83-26.22l-1.72.28-5.51.92c.86-3.68,1.47-6.26,2.41-10.21,8.81-1.35,13.67-2,22.57-3.15l3.26,9c-2.18.29-3.8.51-6.44.89l-1.52.22c.64,10.37,1,15.56,1.61,25.93l1.72-.28q24.88-4.12,50-6.38l1.54-.14c-.34-10.83-.51-16.24-.86-27.07ZM201.36,85.63c-5,.58-8.22,1-13.11,1.64,2.06-8.67,3.42-14.22,5.46-22.44C196.49,72.38,198.41,77.58,201.36,85.63Z"/><path class="cls-3" d="M373.2,55.91a45,45,0,0,0-14.61-18.33,53.39,53.39,0,0,0-20.44-8.95c-7.11-1.45-16.39-2.23-27.59-2.21q-24.45,0-48.89.75l-1.7,0,.8,27.58,1.67-.06c2.54-.11,4.06-.16,6.21-.24.47,19.27.7,28.91,1.16,48.18l-6.08.37-1.59.11c.31,10.8.46,16.2.77,27l1.66-.12c14.85-1.06,30-1.68,44.89-1.95l4.1-.07c8.28-.12,16.83-.18,25.17-1.29a45.73,45.73,0,0,0,18.17-6.65,42.7,42.7,0,0,0,14.54-15.76,52.06,52.06,0,0,0,6.46-23.95,56.7,56.7,0,0,0-1-12.81A52.38,52.38,0,0,0,373.2,55.91Zm-41.8,10a46.37,46.37,0,0,1,1.54,12.42c-.08,6.87-1.39,12.56-3.91,16.91-2.34,4.06-7.74,6.1-16.07,6.13h-2c0-19.07-.06-28.6-.09-47.68,7.06,0,12.2,1.12,14.83,3.19A16.45,16.45,0,0,1,331.4,65.89Z"/><path class="cls-3" d="M449,82.83l-1.7-.23L445.53,106l1.53.24c3.41.53,5.35.85,8.33,1.34-1,7.29-4.93,10-12.12,8.83-5.29-.89-9.08-3.32-11.58-7.45S428.25,97.26,429,86.4c.7-11,2.55-18.48,5.5-22.15s7.27-5.1,13-4.51a18.75,18.75,0,0,1,10.65,4.42A24.35,24.35,0,0,1,464.92,75l.35,1,1,.13c9.59,1.3,14.26,2,23.81,3.47l1.69.27c1.71-17.05,2.56-25.57,4.29-42.61-11.15-1.16-16.72-1.7-27.88-2.69l-.5,5.83c-8.49-7.35-19-9.64-26.62-10.18l-.61,0a56.71,56.71,0,0,0-40,12.78c-10.61,8.86-17.15,23.27-17.65,38.41a59,59,0,0,0,6.57,29.44,51.41,51.41,0,0,0,20.5,21.34,94.87,94.87,0,0,0,29.43,10.78,67,67,0,0,0,7.43,1,53.39,53.39,0,0,0,13.58-.6,34.85,34.85,0,0,0,17.89-9,41.75,41.75,0,0,0,11-15.69c2.1-5.64,3.81-14.71,5.06-26.95L494.5,90l-1.56-.28C478.39,87.13,463.6,84.82,449,82.83Z"/><path class="cls-3" d="M609.37,52.82Q561,44.91,512.49,39l-1.64-.19c-1.37,12.36-2.05,18.53-3.4,30.89l1.63.25,6.22,1Q512.09,99,508.91,127c-1.91-.48-3.32-.83-5.63-1.39l-1.75-.43c-1.31,12.07-2,18.11-3.27,30.18l1.36.39c29.39,9.11,58.09,19.46,86.68,31.29l1.79.77c3-18,4.53-26.92,7.58-44.87l-1.38-.48c-9.8-3.41-14.6-5-24.46-8.09l-1.74-.55c-.6,4-.91,6-1.51,10-6.9-2.29-11-3.6-18-5.75.9-6.52,1.35-9.79,2.26-16.31,6.46,1.74,10.12,2.77,17,4.77l1.72.5c1.75-11.57,2.63-17.35,4.4-28.92l-1.55-.37c-7.13-1.73-11-2.62-17.65-4.13l2.15-15.36c7.37,1.41,11.75,2.29,19.11,3.82-.63,4.06-.94,6.1-1.56,10.16l1.58.36c10.27,2.34,15.27,3.54,25.49,6.11l1.67.42c3.16-18.41,4.75-27.61,8-46Z"/><path class="cls-4" d="M95.36,166.22q-25.77,9.27-51,20.36c-2.09-12.82-3.15-19.25-5.27-32.15,3.18-1.2,4.78-1.79,8-3q-5.59-35-11.25-70.08c-3.42.76-5.13,1.15-8.54,1.93C25.11,70.1,24,63.47,21.74,50.16q31-5,62-9.28c12.17-1.6,21.74-1.89,28.57-1a26.58,26.58,0,0,1,16.51,8.36,29,29,0,0,1,7.35,17.18c.66,6.61-.57,12.11-3.61,16.63s-11.92,10.84-11.92,10.84c0,.3,12.83,4,17,8.36a26.72,26.72,0,0,1,7.25,16.33,35.47,35.47,0,0,1-4.25,21,38.25,38.25,0,0,1-15.54,15.14C115.49,159,105.39,162.49,95.36,166.22ZM73.64,70.92c1.28,9.33,1.91,14,3.18,23.26,3.33-.75,5-1.13,8.32-1.86,5.65-1.24,9.28-3.06,10.76-5.48a14.35,14.35,0,0,0-1.77-16c-1.86-2-6.32-2.47-13.36-1.19ZM80,117.19c1.34,9.92,2,14.87,3.34,24.74,3.25-1,4.87-1.52,8.13-2.51,5.2-1.58,8.86-3.55,10.94-5.94s2.8-5.76,2.27-10.17c-.49-4.13-1.9-7-4.2-8.39S94,113.5,88.11,115C84.84,115.88,83.21,116.31,80,117.19Z"/><path class="cls-4" d="M189.41,137.48q-18.85,3.59-37.49,8.22c-1-10.36-1.45-15.55-2.43-26,2.92-.62,4.39-.92,7.32-1.51,4.28-19.75,8.84-40.95,13.68-60.55l-8.07.93c-.87-10.41-1.31-15.63-2.19-26.09q36.65-2.94,73.32-4.87c.42,9.81.63,14.7,1,24.45-3.24.2-4.86.31-8.1.53q10.71,25.47,21.17,51.06c2.87-.24,4.3-.36,7.17-.58.31,9.47.46,14.19.77,23.61q-25.17,2.27-50.15,6.39c-.55-8.94-.82-13.43-1.37-22.41,3.4-.49,5.1-.72,8.51-1.17-1.77-4.94-2.66-7.41-4.46-12.39-10,1.25-15,2-25,3.48-1.32,5.54-2,9.85-3.27,15.44,3.16-.55,7.4-1.78,7.91-1.34C189.54,116.25,188.77,128.39,189.41,137.48Zm3.89-80.64c-3,12-4.48,18-7.36,30.16,7-1,17.23-1.49,17.63-2.21C204.69,82.73,197.46,68.13,193.3,56.84Z"/><path class="cls-4" d="M309.43,124q-22.55.36-45,2c-.26-9.38-.39-14.09-.65-23.51,3.07-.2,4.61-.29,7.68-.46q-.61-25.68-1.22-51.64c-3.16.11-4.74.17-7.9.3-.26-9.61-.4-14.42-.67-24.08q24.45-.7,48.9-.75c11.16,0,20.27.74,27.29,2.18a51.53,51.53,0,0,1,19.83,8.67,43.34,43.34,0,0,1,14.07,17.64,50.67,50.67,0,0,1,3.61,11.25A54.25,54.25,0,0,1,376.31,78a49.88,49.88,0,0,1-6.21,23.12,41,41,0,0,1-14,15.16,44.19,44.19,0,0,1-17.57,6.42C329,124,319.15,123.82,309.43,124Zm-.2-74.4q.07,25.73.14,51.17l3.59,0c8.94,0,14.78-2.29,17.49-7S334.53,83.2,334.61,76A48.21,48.21,0,0,0,333,63.1a18.17,18.17,0,0,0-6.27-10c-3-2.33-8.34-3.56-16.07-3.53Z"/><path class="cls-4" d="M457.34,103.84c-4-.67-5.95-1-9.92-1.61.6-8,.9-12,1.5-20q22.05,3,43.95,6.85-1.85,18.18-4.94,26.5a39.86,39.86,0,0,1-10.57,15,33.19,33.19,0,0,1-17.12,8.64,56,56,0,0,1-20.48-.4,93.3,93.3,0,0,1-29-10.6,49.6,49.6,0,0,1-19.85-20.64,56.92,56.92,0,0,1-6.35-28.53c.5-14.82,6.8-28.56,17.07-37.12a55.34,55.34,0,0,1,38.87-12.4c10.21.62,20.93,4,28.71,12.14l.65-7.61c9.81.88,14.72,1.36,24.52,2.37q-2,19.62-3.91,39.06c-9.53-1.49-14.3-2.18-23.86-3.47a26,26,0,0,0-7.32-11.56,20.39,20.39,0,0,0-11.58-4.82c-6.35-.65-11.2,1.09-14.43,5.11s-5.16,11.74-5.88,23.15.3,19.19,3,23.66,7,7.28,12.73,8.24C451.86,117.3,456.57,113.38,457.34,103.84Z"/><path class="cls-4" d="M587.15,183.14c-28.68-11.85-57.46-22.23-86.94-31.35,1.16-10.68,1.75-16,2.92-26.77,2.95.72,4.43,1.09,7.38,1.84Q513.9,97,517.35,67.18c-3.15-.51-4.72-.75-7.87-1.24,1.21-11,1.82-16.47,3-27.49q48.6,5.89,96.91,13.79-3.69,21.33-7.31,42.47c-10.19-2.56-15.3-3.79-25.55-6.12.63-4.07.94-6.11,1.57-10.19-9-1.87-13.44-2.77-22.43-4.49-1.05,7.52-1.57,11.27-2.61,18.76,7.69,1.72,11.53,2.62,19.19,4.47-1.54,10.19-2.31,15.27-3.84,25.41-7.49-2.18-11.24-3.23-18.77-5.24-1.09,7.9-1.64,11.84-2.72,19.71,8.5,2.59,12.74,3.94,21.17,6.76.61-4,.91-6,1.52-10,9.83,3.08,22.92,5.28,24.44,8.08C596.31,145.91,589.44,169.44,587.15,183.14Z"/><path class="cls-5" d="M94.8,160.45Q69,169.72,43.71,180.83c-2.09-12.83-3.15-19.26-5.28-32.15,3.2-1.2,4.8-1.79,8-3q-5.59-35-11.25-70.08c-3.43.77-5.14,1.15-8.56,1.94C24.4,64.35,23.29,57.72,21,44.41q31-5,62.12-9.3c12.2-1.61,21.79-1.9,28.63-1a26.72,26.72,0,0,1,16.55,8.37,28.85,28.85,0,0,1,7.37,17.17c.65,6.61-.57,12.11-3.62,16.64s-12,10.83-12,10.83c.05.31,12.87,4,17,8.36a26.62,26.62,0,0,1,7.26,16.33,35.33,35.33,0,0,1-4.26,21A38.29,38.29,0,0,1,124.6,148C115,153.24,104.86,156.71,94.8,160.45ZM73.05,65.15c1.28,9.33,1.92,14,3.18,23.26,3.34-.76,5-1.13,8.35-1.86,5.66-1.24,9.3-3.06,10.78-5.49a13.09,13.09,0,0,0,1.54-8.65A12.93,12.93,0,0,0,93.59,65c-1.86-2-6.33-2.47-13.39-1.19C77.34,64.35,75.91,64.62,73.05,65.15Zm6.32,46.27c1.34,9.92,2,14.87,3.34,24.74,3.26-1,4.89-1.53,8.15-2.52,5.21-1.57,8.89-3.54,11-5.94s2.82-5.76,2.29-10.17c-.5-4.13-1.91-7-4.21-8.39s-6.43-1.41-12.35.12C84.27,110.11,82.63,110.54,79.37,111.42Z"/><path class="cls-5" d="M189.05,131.65c-12.6,2.39-25.38,4.6-37.83,7.69-1-10.36-1.45-15.56-2.43-26,2.93-.62,4.4-.92,7.34-1.51,4.3-19.75,9.16-40.39,14-60-3.24.36-4.85.55-8.09.93-.87-10.41-1.31-15.63-2.19-26.09q36.69-3.21,73.5-4.88c.42,9.8.63,14.69,1,24.45-3.25.2-4.87.3-8.12.53Q237,72.28,247.51,97.87c2.87-.24,4.31-.36,7.18-.58.31,9.47.47,14.19.77,23.61q-25.23,2.26-50.27,6.4c-.55-9-.82-13.43-1.38-22.41,3.41-.49,5.12-.72,8.54-1.17l-4.47-12.39c-10,1.25-15,2-25,3.48-1.32,5.55-2.26,9.29-3.56,14.87,3.17-.55,7.66-1.25,8.17-.8C189.19,110.41,189.37,121.92,189.05,131.65ZM193,51c-3,12-4.48,18-7.37,30.16,7.06-1,17.27-1.49,17.66-2.21C204.41,76.93,197.18,62.33,193,51Z"/><path class="cls-5" d="M309.42,118.21q-22.59.36-45.12,2c-.26-9.38-.39-14.08-.65-23.51,3.07-.2,4.61-.29,7.69-.46q-.6-25.68-1.21-51.63c-3.17.11-4.75.16-7.92.29-.27-9.61-.4-14.42-.67-24.08q24.49-.71,49-.75c11.19,0,20.32.74,27.36,2.18a51.54,51.54,0,0,1,19.88,8.68,43.22,43.22,0,0,1,14.1,17.63,50.88,50.88,0,0,1,3.63,11.25,54.86,54.86,0,0,1,1,12.4,49.77,49.77,0,0,1-6.23,23.11,41,41,0,0,1-14,15.16,44.58,44.58,0,0,1-17.62,6.43C329,118.14,319.17,118,309.42,118.21Zm-.2-74.4q.07,25.72.14,51.17l3.6,0c9,0,14.82-2.29,17.53-7s4.09-10.61,4.17-17.81a47.81,47.81,0,0,0-1.59-12.9,18.19,18.19,0,0,0-6.28-9.95c-3-2.33-8.36-3.56-16.12-3.53Z"/><path class="cls-5" d="M457.71,98c-4-.66-6-1-10-1.61.6-8,.9-12,1.51-20q22.1,3,44.05,6.85-1.85,18.2-4.94,26.5a39.88,39.88,0,0,1-10.6,15,33.28,33.28,0,0,1-17.15,8.64,56.36,56.36,0,0,1-20.54-.41A93.78,93.78,0,0,1,411,122.46a49.68,49.68,0,0,1-19.91-20.64,56.85,56.85,0,0,1-6.36-28.53c.5-14.82,6.82-28.56,17.1-37.13a55.62,55.62,0,0,1,39-12.39c10.24.63,21,4,28.78,12.15l.65-7.61c9.84.88,14.75,1.36,24.58,2.37q-2,19.62-3.91,39.06c-9.55-1.49-14.34-2.19-23.92-3.48a26,26,0,0,0-7.35-11.55,20.5,20.5,0,0,0-11.6-4.83c-6.37-.65-11.23,1.09-14.47,5.11s-5.17,11.74-5.89,23.15.31,19.19,3,23.66,7,7.28,12.76,8.24C452.21,111.51,456.93,107.59,457.71,98Z"/><path class="cls-5" d="M587.85,177.39c-28.75-11.87-57.61-22.25-87.16-31.39,1.16-10.68,1.74-16,2.92-26.76,3,.72,4.44,1.09,7.39,1.84q3.4-29.85,6.85-59.68c-3.15-.51-4.73-.76-7.89-1.24,1.22-11,1.83-16.47,3.05-27.49q48.72,5.91,97.14,13.82Q606.46,67.82,602.84,89c-10.21-2.57-15.34-3.79-25.61-6.13.63-4.07.94-6.11,1.57-10.19-9-1.88-13.47-2.78-22.48-4.5-1.05,7.52-1.58,11.27-2.62,18.76,7.71,1.72,11.56,2.62,19.25,4.48-1.55,10.19-2.32,15.27-3.85,25.4-7.5-2.17-11.27-3.22-18.82-5.24-1.09,7.9-1.64,11.84-2.72,19.71,8.52,2.59,12.77,3.94,21.22,6.76.61-4,.92-6,1.53-10,9.85,3.1,23,5.29,24.5,8.1C597,140.15,590.15,163.69,587.85,177.39Z"/><path class="cls-4" d="M37.51,68q4.37,27.19,8.68,54.41,15-5,30.21-9.3c-.43-3.11-.64-4.67-1.07-7.77l2.94-.8c3.28-.88,4.93-1.31,8.22-2.16a42.53,42.53,0,0,1,5.34-1.06c4.13-.52,7.22-.09,9.45,1.31a10.5,10.5,0,0,1,3.15,3.08q16.48-4,33.13-7.33a23.31,23.31,0,0,0-3-3.89c-2.65-2.78-10.8-5.69-13.87-6.78-2.45-.86-3.8-1.34-4.12-3.46-.14-.89-.2-1.34-.34-2.23l1.8-1.26c2.31-1.64,8.81-6.59,11.08-9.94,2.59-3.84,3.58-8.49,3-14.23a25.56,25.56,0,0,0-6.51-15.16A23.54,23.54,0,0,0,111,34.12c-6.32-.85-15.34-.6-26.78.85l-1,.13q-29.36,4-58.62,8.72C26.3,54.27,27.17,59.5,28.91,70Zm41.85-11.1c1-.18,2-.33,2.85-.44,6.78-.88,11.07,0,13.5,2.64a16.42,16.42,0,0,1,4.18,9.31,16.64,16.64,0,0,1-2.07,11c-2,3.29-6.27,5.58-13,7-3.34.73-5,1.1-8.33,1.86l-3.42.78C71.43,77,70.6,71,68.92,58.87,73.09,58.08,75.18,57.69,79.36,56.93Z"/><path class="cls-4" d="M174.38,44.41c-.49,1.92-.73,2.89-1.21,4.82-3.72,15-7.28,29.92-10.62,44.67q8.32-1.35,16.69-2.51c.07-.29.14-.57.21-.88l.55-2.29,2.2-.34c10.1-1.55,15-2.23,25.17-3.49l2.53-.31.9,2.5.37,1q14.45-1.39,28.9-2.29c-5.66-13.67-11.36-27.27-17-40.55l-1.93-4.57,9.63-.66c-.31-7-.47-10.52-.78-17.54q-33.39,1.8-66.71,4.43c.64,7.62.95,11.43,1.58,19Zm7.85,32.5c2.84-12,4.28-17.93,7.36-30.19,1-4.2,1.58-6.3,2.64-10.5,1.5,4,2.24,6,3.73,10.06,4.16,11.28,6.21,16.87,10.26,27.94l1.55,4.26-4.31.49c-7.06.82-10.59,1.26-17.64,2.21l-4.75.65C181.53,79.86,181.76,78.88,182.23,76.91Z"/><path class="cls-4" d="M273.34,37.48c.41,18.57.62,27.86,1,46.42q15.83-.33,31.67-.08c-.08-18.78-.12-28.18-.19-47l4.95,0c8.49,0,14.39,1.39,18,4.23a21.5,21.5,0,0,1,7.49,11.81A51.52,51.52,0,0,1,338,66.76c-.09,7-1.39,13-3.82,17.94Q351.64,85.51,369,87a47.37,47.37,0,0,0,4.21-18.44A50.9,50.9,0,0,0,372.34,57,47,47,0,0,0,369,46.52a40,40,0,0,0-13-16.25,48.77,48.77,0,0,0-18.65-8.13C330.48,20.75,321.48,20,310.55,20q-22.8,0-45.61.66l.45,17.07Z"/><path class="cls-4" d="M451.48,90l6.92,1.13,3.07.52c-.11,1.31-.17,2-.27,3.27a29.49,29.49,0,0,1-.62,4q12.75,2.23,25.45,4.77c1.55-4.73,2.87-11.75,3.91-21-12.41-2.14-25-4.09-37.45-5.83C452.08,82.13,451.88,84.75,451.48,90Z"/><path class="cls-4" d="M425.53,93.36c-1.12-4.86-1.45-11.13-1-19,.76-12.31,2.92-20.54,6.63-25.15s9.41-6.92,16.53-6.39l.81.07A23.87,23.87,0,0,1,462,48.56a28.33,28.33,0,0,1,7.61,11c7.25,1,11.75,1.64,18.63,2.69l3.15-32c-7.12-.72-10.69-1.07-17.81-1.72-.41,4.64-.61,7-1,11.61-2-2.14-3.05-3.21-5.09-5.34-7.78-8.13-18.47-10.53-26-11.07l-.56,0a52.32,52.32,0,0,0-36.75,11.63c-9.54,7.92-15.45,20.88-15.93,34.54a53.69,53.69,0,0,0,2.73,19.12Q408.25,90.92,425.53,93.36Z"/><path class="cls-4" d="M515.48,110q15.33,3.47,30.56,7.34c.74-5.42,1.12-8.13,1.86-13.55l3.48.92c6.38,1.71,10,2.72,15.42,4.27,1.11-7.36,1.66-11,2.76-18.38-5.76-1.38-9.53-2.25-16.12-3.73l-3.12-.69c1.41-10.22,2.11-15.33,3.53-25.55l3.35.64c9,1.72,13.56,2.63,22.57,4.51l3.25.68-1.6,10.25c7.26,1.67,12,2.8,19.17,4.58,2.41-14.15,3.62-21.23,6-35.37Q561.54,38.6,516.29,33c-.94,8.28-1.4,12.42-2.33,20.7L521.88,55Q518.66,82.49,515.48,110Z"/><path class="cls-6" d="M122.31,251l32.95-4a1.91,1.91,0,0,1,.8,3.72c-23.41,7.33-50,17.17-68.26,25.43l3.56-36.95L64.67,213.91a537.37,537.37,0,0,1,60.64-24.45Z"/><path class="cls-7" d="M515.13,251l-32.94-4a1.91,1.91,0,0,0-.81,3.72c23.41,7.33,50,17.17,68.27,25.43l-3.57-36.95,26.7-25.29a538.88,538.88,0,0,0-60.64-24.45Z"/><path class="cls-8" d="M318.72,138.05A596.41,596.41,0,0,0,127,169.52a7.65,7.65,0,0,0-5.17,7.25V251a524.27,524.27,0,0,1,393.8,0V176.77a7.65,7.65,0,0,0-5.16-7.25A596.47,596.47,0,0,0,318.72,138.05Z"/><path class="cls-2" d="M441.62,161.6a43.54,43.54,0,0,0-6.44-2.46c-2-.57-3.72-1-5.24-1.28a33.67,33.67,0,0,0-8.84-.5,24,24,0,0,0-8.58,2.27A20.49,20.49,0,0,0,410,161.1a8.11,8.11,0,0,0-7.11-7.19l-26.7-3.19a8.13,8.13,0,0,0-9.05,7.11l-.24,2a24.76,24.76,0,0,0-2.74-3.64,24.31,24.31,0,0,0-8.95-6.15,31.29,31.29,0,0,0-10.31-2.17,30.72,30.72,0,0,0-10.37,1.27,24.84,24.84,0,0,0-9.35,5.22,24.32,24.32,0,0,0-3.48,3.87A18.7,18.7,0,0,0,316,152a21.24,21.24,0,0,0-7.62-3.25,32.1,32.1,0,0,0-7.67-.66c-2.12.07-4.68.24-7.61.52s-5.9.6-9,1a8.09,8.09,0,0,0-5.33,3,8.15,8.15,0,0,0-7-2.81L245,152.54a8.1,8.1,0,0,0-6.5,4.6,8.11,8.11,0,0,0-7.67-2.76l-12.4,2.24A8,8,0,0,0,214,159a8.1,8.1,0,0,0-4.95-.66l-12.4,2.24a8.13,8.13,0,0,0-6.56,9.45l7.14,39.52a8.13,8.13,0,0,0,8,6.69,7.79,7.79,0,0,0,1.44-.13l12.4-2.24a8.24,8.24,0,0,0,4.41-2.35,8.17,8.17,0,0,0,4.95.66l12.4-2.24a8.06,8.06,0,0,0,4.58-2.56,8.12,8.12,0,0,0,4.5,1.36,7.87,7.87,0,0,0,.84,0l26.75-2.76A8.06,8.06,0,0,0,282,204a8.11,8.11,0,0,0,4.38,1.28h.26l12.16-.39a8.21,8.21,0,0,0,4.2-1.33,8.09,8.09,0,0,0,4.94,1.48c1,0,2.11-.09,3.43-.19s2.68-.24,4-.42l3.52-.49c1.34-.19,2.47-.4,3.45-.63a8.1,8.1,0,0,0,4.34-2.66,25.23,25.23,0,0,0,5.34,3,31,31,0,0,0,10.29,2.17c.49,0,1,0,1.46,0a30.2,30.2,0,0,0,8.75-1.25,24.89,24.89,0,0,0,9.35-5.16l.41-.38a8.13,8.13,0,0,0,7.15,7.74l26.71,3.2a7.9,7.9,0,0,0,5-1,35.13,35.13,0,0,0,6.95,3.19,54.19,54.19,0,0,0,7,1.88,34.28,34.28,0,0,0,6.2.59c.82,0,1.63,0,2.43-.1a23.05,23.05,0,0,0,8.47-2.33,19.51,19.51,0,0,0,6.94-5.82,21.07,21.07,0,0,0,3.75-8.84h0a18.55,18.55,0,0,0-.5-9.43,21,21,0,0,0-1.61-3.61,8.13,8.13,0,0,0,1.44-2.2,56.62,56.62,0,0,0,2.32-6.14c.59-1.88,1.09-3.6,1.49-5.12A8.14,8.14,0,0,0,441.62,161.6Zm-144,5.48.09,2.64-1.93.06A4.58,4.58,0,0,1,297.57,167.08Zm-1.85,2.76v-.06l1.93-.06.09,3A4.73,4.73,0,0,1,295.72,169.84Z"/><path class="cls-4" d="M227,204.14,224.25,189l-9.35,1.69,2.74,15.15-12.4,2.25-7.15-39.53,12.4-2.24L213,180.24l9.35-1.7-2.51-13.92,12.4-2.24,7.14,39.52Z"/><path class="cls-4" d="M276.88,192.21a39.29,39.29,0,0,1-.2,5.61l-26.76,2.76-4.11-40,26.75-2.76q.27,2.56.33,5.34a47.44,47.44,0,0,1-.1,4.79l-13.41,1.38.5,4.91,9.83-1,1,9.89-9.83,1,.53,5.13,15.18-1.57C276.72,188.88,276.81,190.36,276.88,192.21Z"/><path class="cls-4" d="M317.77,195.88l-3.45.47c-1.2.16-2.39.29-3.57.38s-2.2.14-3.09.17l-3-6.17q-1.28-2.68-2.28-4.47a19,19,0,0,0-2.55-3.42l-1.76.06.44,13.85-12.16.38-1.25-39.48c3.08-.39,6-.71,8.78-1s5.13-.42,7.1-.48a23.81,23.81,0,0,1,5.69.48,13.12,13.12,0,0,1,4.71,2,10.63,10.63,0,0,1,3.29,3.73A12.82,12.82,0,0,1,316,168.1a11.92,11.92,0,0,1-1.46,6.27,10.74,10.74,0,0,1-4.69,4.39v.37a16.9,16.9,0,0,1,3.12,3.15,28.1,28.1,0,0,1,2.33,3.61l5.17,9.49C319.79,195.55,318.87,195.72,317.77,195.88Zm-13.93-26.36c-.08-2.75-1.36-4.09-3.81-4l-1.33,0a9.33,9.33,0,0,0-1.17.11l.28,8.77,2.21-.07Q304,174.23,303.84,169.52Z"/><path class="cls-4" d="M363,177.66a25.85,25.85,0,0,1-2,9.32,17.86,17.86,0,0,1-4.48,6.29,16.78,16.78,0,0,1-6.32,3.49,22.68,22.68,0,0,1-7.52.89,23,23,0,0,1-7.6-1.59,16.51,16.51,0,0,1-6-4.1,17.69,17.69,0,0,1-3.81-6.66,26.41,26.41,0,0,1-1.06-9.34,25.6,25.6,0,0,1,1.92-9.21,17.72,17.72,0,0,1,4.4-6.26,16.69,16.69,0,0,1,6.31-3.52,22.59,22.59,0,0,1,7.64-.92,23.06,23.06,0,0,1,7.64,1.59,16,16,0,0,1,6,4.1,18.07,18.07,0,0,1,3.77,6.65A26.18,26.18,0,0,1,363,177.66Zm-13.25-.58a28.54,28.54,0,0,0-.17-5.39,8.64,8.64,0,0,0-1.07-3.3,4.37,4.37,0,0,0-1.84-1.7,7,7,0,0,0-2.56-.56,8.32,8.32,0,0,0-2.7.29,3.84,3.84,0,0,0-2,1.5,8.65,8.65,0,0,0-1.28,3.23,32.27,32.27,0,0,0-.61,5.39,30.91,30.91,0,0,0,.14,5.28,9.48,9.48,0,0,0,1,3.36,3.91,3.91,0,0,0,1.84,1.78,7.15,7.15,0,0,0,2.7.6,7.63,7.63,0,0,0,2.78-.32,3.83,3.83,0,0,0,1.95-1.58,9.57,9.57,0,0,0,1.25-3.22A31.74,31.74,0,0,0,349.72,177.08Z"/><path class="cls-4" d="M398.57,196.44a40.3,40.3,0,0,1-1.43,5.43l-26.71-3.19,4.77-39.88L401.91,162c-.21,1.71-.49,3.47-.86,5.28a46.48,46.48,0,0,1-1.15,4.65l-13.39-1.6-.58,4.9,9.8,1.17-1.18,9.88-9.81-1.17-.61,5.12L399.28,192C399.14,193.16,398.91,194.62,398.57,196.44Z"/><path class="cls-4" d="M434.87,196a13,13,0,0,1-2.26,5.47,11.59,11.59,0,0,1-4.09,3.43,14.85,14.85,0,0,1-5.49,1.48,24.29,24.29,0,0,1-6.45-.38,45.72,45.72,0,0,1-5.92-1.6,27.24,27.24,0,0,1-6.13-2.91,40.35,40.35,0,0,1,2-5q1.25-2.7,2.4-4.8a38.79,38.79,0,0,0,5.22,2.7,25,25,0,0,0,4.92,1.6,4.58,4.58,0,0,0,2.44,0,1.85,1.85,0,0,0,1-1.5,2,2,0,0,0-.88-1.89,25.25,25.25,0,0,0-2.66-2l-3.52-2.42A17,17,0,0,1,412,185a12.8,12.8,0,0,1-2.26-4.13,10.67,10.67,0,0,1-.23-5.41,11.43,11.43,0,0,1,2.28-5.16,12.14,12.14,0,0,1,4.23-3.33,16.11,16.11,0,0,1,5.71-1.48,25.41,25.41,0,0,1,6.67.39c1.26.23,2.75.6,4.48,1.1a34.58,34.58,0,0,1,5.22,2q-.54,2.07-1.38,4.73a47.87,47.87,0,0,1-2,5.28c-1.62-.7-3.3-1.36-5.06-2a30,30,0,0,0-4.3-1.26,3.8,3.8,0,0,0-2.38.08,1.91,1.91,0,0,0-.9,1.41,2.07,2.07,0,0,0,.84,2,22.35,22.35,0,0,0,2.61,2c1.07.72,2.23,1.53,3.49,2.41a17.86,17.86,0,0,1,3.36,3.07,12.36,12.36,0,0,1,2.25,4A10.52,10.52,0,0,1,434.87,196Z"/></g></g></svg>