<svg xmlns="http://www.w3.org/2000/svg" xmlns:xlink="http://www.w3.org/1999/xlink" viewBox="0 0 1012.67 1012.67"><defs><style>.cls-1,.cls-2,.cls-4{fill:none;stroke-miterlimit:10;}.cls-1,.cls-2{stroke:#013849;stroke-width:5px;}.cls-1{opacity:0.18;}.cls-2{opacity:0.37;}.cls-3{fill:url(#Gradiente_sem_nome_4);}.cls-4{stroke:#003264;stroke-width:4.37px;}.cls-5{fill:#00465a;}.cls-6{fill:#0d0e23;}.cls-7{fill:#fff;}.cls-8{fill:#e6e6e6;}.cls-9{fill:url(#Gradiente_sem_nome_4-2);}.cls-10{fill:url(#Gradiente_sem_nome_4-3);}.cls-11{fill:url(#Gradiente_sem_nome_4-4);}</style><radialGradient id="Gradiente_sem_nome_4" cx="408.74" cy="-2361.96" r="216.95" gradientTransform="matrix(1, 0, 0, -1, 101.01, -1855.63)" gradientUnits="userSpaceOnUse"><stop offset="0" stop-color="#ffdc00"/><stop offset="0.31" stop-color="#ffcd00"/><stop offset="0.9" stop-color="#ffa700"/><stop offset="1" stop-color="#ffa000"/></radialGradient><radialGradient id="Gradiente_sem_nome_4-2" cx="13039.09" cy="-2459.8" r="37.61" gradientTransform="translate(13374 -1855.63) rotate(180)" xlink:href="#Gradiente_sem_nome_4"/><radialGradient id="Gradiente_sem_nome_4-3" cx="581.94" cy="-2459.77" r="37.62" xlink:href="#Gradiente_sem_nome_4"/><radialGradient id="Gradiente_sem_nome_4-4" cx="407.88" cy="-2427.77" r="121.39" xlink:href="#Gradiente_sem_nome_4"/></defs><g id="Camada_2" data-name="Camada 2"><g id="Camada_1-2" data-name="Camada 1"><circle class="cls-1" cx="506.34" cy="506.34" r="503.84"/><circle class="cls-2" cx="506.34" cy="506.34" r="374.98"/><path class="cls-3" d="M491.61,295.56a26,26,0,0,0,36.22,0c10-9.83,23.37-7.71,29.8,4.72a25.93,25.93,0,0,0,34.44,11.19c12.51-6.27,24.61-.11,26.89,13.7a25.94,25.94,0,0,0,29.3,21.29c13.83-2.11,23.44,7.5,21.33,21.33a25.91,25.91,0,0,0,21.29,29.29c13.8,2.27,20,14.39,13.7,26.9a25.94,25.94,0,0,0,11.19,34.44c12.45,6.43,14.54,19.84,4.72,29.8a26,26,0,0,0,0,36.22c9.82,9.95,7.71,23.37-4.72,29.8a25.94,25.94,0,0,0-11.19,34.44c6.27,12.45.1,24.61-13.7,26.89a25.93,25.93,0,0,0-21.29,29.3c2.11,13.83-7.5,23.43-21.33,21.33A25.93,25.93,0,0,0,619,687.5c-2.26,13.8-14.38,20-26.89,13.7a25.93,25.93,0,0,0-34.44,11.2c-6.43,12.45-19.84,14.55-29.8,4.72a26,26,0,0,0-36.22,0c-10,9.83-23.37,7.71-29.8-4.72a25.93,25.93,0,0,0-34.44-11.19c-12.51,6.27-24.61.1-26.9-13.7a25.91,25.91,0,0,0-29.29-21.29c-13.83,2.1-23.44-7.5-21.33-21.33a25.93,25.93,0,0,0-21.24-29.32c-13.79-2.26-20-14.38-13.69-26.89a25.93,25.93,0,0,0-11.21-34.44c-12.45-6.43-14.54-19.85-4.72-29.8a25.93,25.93,0,0,0,0-36.22c-9.82-10-7.71-23.37,4.72-29.8A25.93,25.93,0,0,0,314.92,424c-6.27-12.51-.11-24.61,13.69-26.9a25.91,25.91,0,0,0,21.29-29.29c-2.1-13.83,7.51-23.44,21.34-21.33a25.94,25.94,0,0,0,29.29-21.29c2.26-13.81,14.38-20,26.89-13.7a25.93,25.93,0,0,0,34.44-11.19C468.25,287.85,481.66,285.7,491.61,295.56Z"/><path class="cls-4" d="M508.93,524.79a499.38,499.38,0,0,0-165,27.86v66.78a439.47,439.47,0,0,1,330,0V552.65A499.48,499.48,0,0,0,508.93,524.79Z"/><path class="cls-5" d="M769.15,436.63a9.15,9.15,0,0,0-6-3.8l-7.84-1.36c-27.1-4.53-54.63-8.39-81.87-11.66h-.09l-4.77-.54-10.19-1.13h-.12c-12.31-1.28-18.4-1.86-30.73-2.89a58.47,58.47,0,0,0-14.85-2.94h-.66a62.1,62.1,0,0,0-43.7,14.05,51.94,51.94,0,0,0-6.14,6.09A49.52,49.52,0,0,0,551,421.26a59.1,59.1,0,0,0-22.77-10,129.76,129.76,0,0,0-26.1-2.15c-13.67,0-27.62.23-41.42.64-6.17.18-9.18.29-15.34.52-23.55.95-47.31,2.47-70.63,4.53-6.23.54-9.27.83-15.49,1.43a1.21,1.21,0,0,0-1.13,1.3h0l1.25,13.58a38.08,38.08,0,0,0-21.36-10c-7.1-1-16-.75-27.22.68l-.95.12c-17.45,2.4-35.08,5.05-52.5,7.87l-7.82,1.32A9.24,9.24,0,0,0,242,441.83h0c3,17,6.06,34.29,9.06,51.3a1.18,1.18,0,0,0,.53.79,1.15,1.15,0,0,0,.94.17l5.82-1.39c1.82,10.77,2.81,16.7,4.64,27.55l-5.83,2.27a1.12,1.12,0,0,0-.76,1.32c2.79,16.16,5.66,32.47,8.34,48.49a9.24,9.24,0,0,0,10.67,7.53,8.75,8.75,0,0,0,2.17-.65l6.06-2.68a17.24,17.24,0,0,0,.51,24.37l.08.07,16.25,15.41-2.23,22.44a17.26,17.26,0,0,0,24.28,17.38,529.48,529.48,0,0,1,73.57-25.84,17.27,17.27,0,0,0,12.71-13.88,424.79,424.79,0,0,1,200.2,0,17.26,17.26,0,0,0,12.77,13.9,532.09,532.09,0,0,1,73.57,25.84,17.25,17.25,0,0,0,24.27-17.4l-2.19-22.58,16.27-15.4a17.23,17.23,0,0,0-1-25.85l2.75,1.2a9.23,9.23,0,0,0,12.14-4.78,9.42,9.42,0,0,0,.63-2.08c3.28-18.75,6.63-37.73,9.95-56.41a1.22,1.22,0,0,0-.78-1.35c-5-1.78-7.45-2.64-12.45-4.39-3.77-1.31-6.86-2.37-10.1-3.4l1.57-5.54,7.27,1.8h0c6,1.5,8.9,2.26,14.84,3.8a1.14,1.14,0,0,0,1-.15,1.22,1.22,0,0,0,.54-.8c3.49-19.54,7.08-39.49,10.66-59.31A9.15,9.15,0,0,0,769.15,436.63Z"/><path class="cls-6" d="M346,488.48c2.46-1.9,6.32-5.09,8.15-7.81,2.74-4.08,3.85-9.06,3.28-14.94a25.71,25.71,0,0,0-6.52-15.24A23.52,23.52,0,0,0,336.3,443c-5.66-.77-13.49-.56-23.39.69l-.88.12q-26,3.57-51.92,7.77l-1.46.25c2.08,12.29,3.13,18.44,5.2,30.74l1.38-.31L271,481q4.53,28,9,56c-2,.72-3.3,1.21-5.57,2.06l-1.13.42c2,12,3,18,4.94,29.92l1.5-.65q21-9.3,42.59-17l2.18-.8c7.58-2.8,15.46-5.66,22.87-9.67A33.38,33.38,0,0,0,361,528a31.45,31.45,0,0,0,3.76-18.55,24,24,0,0,0-6.45-14.56C355.64,492.1,349.58,489.76,346,488.48ZM321.22,483c-.69,1.13-2.67,2.75-8.1,3.93l-5.55,1.24c-.89-6.62-1.35-9.93-2.26-16.55l4.6-.85c.76-.13,1.48-.25,2.18-.34,5.41-.7,7.2.28,7.77.93A10.52,10.52,0,0,1,321.21,483ZM313,528.11c-1-7.11-1.44-10.67-2.39-17.77,2-.54,3.31-.89,5.59-1.48a33.58,33.58,0,0,1,4-.79c3.09-.39,4.61.08,5.35.53,1.54,1,2.5,3,2.87,6,.39,3.23-.13,5.66-1.55,7.33s-4.4,3.31-8.51,4.53Z"/><path class="cls-6" d="M455.39,496c-2.06.16-3.24.25-5.05.41-5.48-13.44-11-26.86-16.5-39.93l4.76-.3,1.4-.1c-.4-9.34-.6-14-1-23.38l-1.4.07q-30.75,1.62-61.43,4.07l-1.44.13c.85,9.92,1.27,14.89,2.11,24.82l1.4-.17,4.77-.56q-5.65,23.18-10.73,46.52L367,508.71l-1.24.26c.93,9.89,1.41,14.83,2.34,24.73l1.47-.38c10.33-2.57,20.88-4.89,31.32-6.87l1.22-.22c-.61-8.8-.93-13.19-1.54-22l-1.45.22-4.61.78c.72-3.09,1.23-5.25,2-8.56,7.38-1.14,11.45-1.7,18.91-2.63l2.73,7.57-5.39.75-1.28.18c.55,8.69.82,13,1.35,21.74l1.45-.25q20.85-3.39,41.88-5.34l1.29-.11c-.29-9.06-.43-13.58-.73-22.69Zm-44.78-15.13c-4.14.49-6.89.84-11,1.38,1.74-7.26,2.87-11.93,4.59-18.81,2.3,6.33,3.89,10.69,6.37,17.43Z"/><path class="cls-6" d="M554.57,456a37.65,37.65,0,0,0-12.23-15.36,44.61,44.61,0,0,0-17.13-7.5,117.9,117.9,0,0,0-23.12-1.86q-20.5,0-41,.64H459.7c.26,9.24.4,13.86.66,23.11l1.4-.06,5.21-.2c.38,16.15.59,24.22,1,40.37l-5.09.32-1.34.09.65,22.63,1.39-.1c12.45-.88,25.13-1.4,37.62-1.63l3.4-.06a181.39,181.39,0,0,0,21.1-1.08,38.35,38.35,0,0,0,15.22-5.57,36,36,0,0,0,12.19-13.21,43.63,43.63,0,0,0,5.4-20.06,46.72,46.72,0,0,0-.82-10.75A43.15,43.15,0,0,0,554.57,456Zm-35,8.35a39,39,0,0,1,1.29,10.42c-.06,5.76-1.13,10.52-3.27,14.17-2,3.39-6.49,5.11-13.48,5.14h-1.64c0-16,0-24-.08-40,5.93,0,10.19.94,12.45,2.67A13.79,13.79,0,0,1,519.55,464.31Z"/><path class="cls-6" d="M618.08,478.52l-1.43-.19c-.58,7.85-.88,11.78-1.46,19.63l1.28.2c2.86.45,4.53.71,7,1.13-.87,6.1-4.13,8.4-10.19,7.39a13.16,13.16,0,0,1-9.71-6.25c-2.09-3.46-2.88-9.82-2.26-18.92s2.13-15.49,4.61-18.57,6.09-4.27,10.89-3.78a15.86,15.86,0,0,1,8.93,3.71,20.4,20.4,0,0,1,5.72,9.05c.11.34.17.51.29.86l.85.11c8,1.14,11.95,1.66,20,2.91L654,476c1.43-14.29,2.15-21.43,3.59-35.7-9.34-1-14-1.43-23.36-2.26-.16,1.95-.25,2.93-.42,4.89-7.11-6.16-15.92-8.07-22.31-8.53H611a47.54,47.54,0,0,0-33.49,10.7c-8.89,7.43-14.36,19.51-14.78,32.2a49.33,49.33,0,0,0,5.5,24.66,43,43,0,0,0,17.18,17.89,79.06,79.06,0,0,0,24.66,9,56.86,56.86,0,0,0,6.23.85,45.2,45.2,0,0,0,11.38-.51,29.25,29.25,0,0,0,15-7.57,35.06,35.06,0,0,0,9.22-13.15c1.77-4.74,3.2-12.33,4.25-22.64l.13-1.39-1.3-.23C642.73,482.12,630.34,480.18,618.08,478.52Z"/><path class="cls-6" d="M752.49,453.37Q712,446.76,671.3,441.81l-1.37-.16c-1.13,10.36-1.72,15.53-2.85,25.89l1.37.22c2.14.32,3.39.52,5.22.81q-2.71,23.48-5.36,47l-4.73-1.13-1.46-.35c-1.13,10.11-1.64,15.17-2.74,25.29l1.13.32c24.63,7.63,48.67,16.31,72.63,26.22l1.51.65c2.52-15,3.79-22.57,6.35-37.6l-1.13-.4c-8.22-2.86-12.24-4.19-20.5-6.79l-1.46-.47c-.51,3.4-.76,5-1.27,8.37-5.77-1.93-9.2-3-15.11-4.83.76-5.46,1.13-8.19,1.89-13.66,5.42,1.46,8.49,2.32,14.25,4l1.45.42c1.46-9.69,2.26-14.55,3.68-24.24l-1.29-.31c-6-1.45-9.18-2.2-14.79-3.4.72-5.15,1.13-7.73,1.8-12.88,6.18,1.13,9.84,1.93,16,3.2-.52,3.4-.79,5.12-1.31,8.53l1.32.29c8.62,2,12.8,3,21.36,5.12l1.4.36c2.65-15.43,4-23.15,6.67-38.56Z"/><path class="cls-7" d="M321.75,548.4q-21.58,7.82-42.7,17.06c-1.76-10.75-2.64-16.13-4.42-26.94,2.66-1,4-1.5,6.68-2.47q-4.68-29.37-9.42-58.73c-2.86.63-4.3,1-7.16,1.62-1.86-11.08-2.78-16.65-4.67-27.8q25.94-4.2,51.94-7.78c10.18-1.34,18.21-1.58,23.92-.81a22.35,22.35,0,0,1,13.85,7A24.25,24.25,0,0,1,355.92,464c.56,5.54-.47,10.19-3,13.94s-10,9.05-10,9.05c0,.25,10.75,3.32,14.25,7a22.4,22.4,0,0,1,6.06,13.69,29.68,29.68,0,0,1-3.55,17.64,32,32,0,0,1-13,12.68C338.63,542.37,330.15,545.28,321.75,548.4Zm-18.2-79.86c1.07,7.81,1.6,11.71,2.66,19.49,2.79-.64,4.19-.94,7-1.55,4.74-1.05,7.78-2.57,9.06-4.6a11.17,11.17,0,0,0,1.29-7.25,11,11,0,0,0-2.78-6.2c-1.56-1.7-5.29-2.07-11.19-1Zm5.29,38.77c1.13,8.31,1.68,12.45,2.81,20.74,2.71-.86,4.07-1.28,6.79-2.11,4.35-1.32,7.42-3,9.16-5s2.36-4.83,1.91-8.52c-.41-3.46-1.59-5.83-3.51-7s-5.39-1.13-10.34.1l-6.82,1.81Z"/><path class="cls-7" d="M400.56,524.31q-15.84,3-31.42,6.9c-.8-8.68-1.21-13-2-21.77,2.44-.52,3.66-.77,6.12-1.27,3.59-16.54,7.41-34.31,11.47-50.74l-6.8.78c-.73-8.72-1.13-13.09-1.84-21.86q30.74-2.48,61.45-4.08c.35,8.22.53,12.32.88,20.49l-6.79.44q9.06,21.35,17.78,42.79c2.4-.21,3.6-.3,6-.48.26,7.92.4,11.88.64,19.78q-21.07,1.89-42,5.36c-.45-7.5-.68-11.25-1.13-18.79,2.85-.41,4.28-.6,7.13-1-1.48-4.14-2.27-6.21-3.74-10.37-8.38,1-12.57,1.63-20.94,2.9-1.13,4.66-1.65,8.27-2.74,12.95,2.65-.46,6.22-1.5,6.64-1.13C400.68,506.52,400,516.7,400.56,524.31Zm3.26-67.57c-2.51,10-3.74,15.09-6.17,25.28,5.91-.81,14.45-1.26,14.77-1.86C413.36,478.43,407.31,466.19,403.82,456.74Z"/><path class="cls-7" d="M501.14,513q-18.88.29-37.71,1.63c-.22-7.85-.33-11.79-.55-19.69,2.57-.17,3.86-.25,6.43-.39q-.51-21.51-1-43.27c-2.65.09-4,.14-6.62.25-.23-8.06-.34-12.09-.56-20.18q20.47-.6,41-.63A115.26,115.26,0,0,1,525,432.59a42.91,42.91,0,0,1,16.63,7.27,36.09,36.09,0,0,1,11.78,14.78,42,42,0,0,1,3,9.43,46.23,46.23,0,0,1,.79,10.37A41.76,41.76,0,0,1,552,493.82a34.23,34.23,0,0,1-11.7,12.7,37.19,37.19,0,0,1-14.72,5.39C517.49,513,509.29,512.87,501.14,513ZM501,450.69q.06,21.56.12,42.88h3c7.49,0,12.39-1.91,14.65-5.83s3.4-8.89,3.49-14.93a40.16,40.16,0,0,0-1.33-10.8,15.23,15.23,0,0,0-5.25-8.33c-2.49-2-7-3-13.47-3Z"/><path class="cls-7" d="M625.1,496.12c-3.33-.56-5-.83-8.32-1.35.5-6.69.75-10,1.26-16.75q18.44,2.52,36.83,5.75Q653.31,499,650.72,506a33.33,33.33,0,0,1-8.86,12.6,27.8,27.8,0,0,1-14.34,7.24,47.14,47.14,0,0,1-17.16-.34,78.43,78.43,0,0,1-24.29-8.89,41.52,41.52,0,0,1-16.64-17.29,47.92,47.92,0,0,1-5.32-23.9c.42-12.46,5.66-23.93,14.31-31.12A46.41,46.41,0,0,1,611,433.9c8.55.52,17.54,3.33,24.06,10.19.21-2.56.33-3.83.54-6.39,8.22.74,12.33,1.14,20.54,2q-1.65,16.41-3.27,32.72c-8-1.25-12-1.82-20-2.91a21.73,21.73,0,0,0-6.13-9.68,17.14,17.14,0,0,0-9.7-4c-5.33-.54-9.39.92-12.1,4.28s-4.32,9.84-4.92,19.4.25,16.06,2.51,19.81a14.66,14.66,0,0,0,10.67,6.9C620.5,507.4,624.44,504.14,625.1,496.12Z"/><path class="cls-7" d="M733.82,562.58c-24-9.94-48.15-18.63-72.85-26.28,1-8.94,1.47-13.44,2.44-22.42,2.48.6,3.71.9,6.19,1.54q2.85-25,5.73-50l-6.59-1c1-9.19,1.53-13.8,2.55-23q40.74,4.94,81.21,11.55-3.09,17.88-6.12,35.59c-8.54-2.14-12.83-3.17-21.41-5.13.52-3.39.78-5.12,1.31-8.53-7.5-1.58-11.31-2.32-18.8-3.76-.88,6.29-1.31,9.44-2.18,15.71,6.44,1.45,9.67,2.19,16.08,3.76-1.29,8.53-1.93,12.79-3.22,21.28-6.27-1.83-9.42-2.7-15.72-4.39-.92,6.61-1.38,9.92-2.27,16.52,7.13,2.17,10.68,3.3,17.75,5.66.51-3.4.76-5,1.27-8.39,8.24,2.59,19.24,4.43,20.48,6.79C741.54,531.38,735.79,551.09,733.82,562.58Z"/><path class="cls-8" d="M321.29,543.57q-21.66,7.74-42.82,17.06c-1.75-10.74-2.64-16.12-4.42-26.93,2.68-1,4-1.5,6.7-2.48q-4.69-29.34-9.43-58.77c-2.87.64-4.3,1-7.18,1.62-1.85-11.08-2.78-16.64-4.67-27.8q26-4.2,52.06-7.8c10.19-1.34,18.27-1.58,24-.81a22.42,22.42,0,0,1,13.87,7,24.1,24.1,0,0,1,6.17,14.38c.56,5.54-.47,10.19-3,13.95s-10,9.05-10,9.05c0,.26,10.78,3.33,14.27,7a22.25,22.25,0,0,1,6.09,13.68,29.61,29.61,0,0,1-3.56,17.64,32.2,32.2,0,0,1-13.06,12.7C338.2,537.52,329.75,540.43,321.29,543.57ZM303.05,463.7c1.14,7.81,1.61,11.72,2.68,19.49,2.79-.63,4.18-.95,7-1.56,4.75-1,7.8-2.56,9.05-4.59a12,12,0,0,0-1.48-13.44c-1.56-1.71-5.31-2.07-11.23-1Zm5.3,38.78c1.13,8.31,1.69,12.45,2.81,20.72,2.71-.86,4.08-1.27,6.79-2.1,4.37-1.33,7.45-3,9.18-5s2.36-4.82,1.92-8.52c-.42-3.46-1.59-5.83-3.53-7s-5.39-1.13-10.35.1Z"/><path class="cls-8" d="M400.27,519.42c-10.57,2-21.28,3.86-31.69,6.46-.82-8.69-1.23-13-2-21.77,2.46-.52,3.69-.77,6.15-1.27,3.59-16.55,7.67-33.84,11.73-50.26l-6.79.78c-.73-8.73-1.13-13.1-1.84-21.87q30.76-2.69,61.59-4.08c.35,8.21.53,12.31.88,20.48l-6.79.44q9,21.35,17.78,42.8c2.4-.21,3.62-.31,6-.49.25,7.92.38,11.89.63,19.79q-21.15,1.89-42.13,5.35c-.45-7.49-.69-11.25-1.13-18.78,2.85-.41,4.28-.61,7.14-1l-3.73-10.38c-8.41,1.05-12.61,1.63-21,2.92-1.13,4.64-1.9,7.77-3,12.45,2.66-.47,6.43-1.05,6.86-.68C400.38,501.63,400.53,511.27,400.27,519.42Zm3.3-67.54c-2.52,10-3.75,15.08-6.18,25.27,5.92-.79,14.48-1.25,14.81-1.86C413.14,473.58,407.07,461.34,403.57,451.88Z"/><path class="cls-8" d="M501.13,508.16q-18.94.31-37.81,1.64c-.21-7.85-.32-11.79-.54-19.69,2.57-.17,3.86-.25,6.44-.4q-.5-21.49-1-43.26l-6.63.25c-.23-8.06-.34-12.09-.57-20.18q20.55-.6,41.08-.63A118.33,118.33,0,0,1,525,427.71,43.64,43.64,0,0,1,541.67,435a36.19,36.19,0,0,1,11.82,14.83,42.62,42.62,0,0,1,3,9.42,45.75,45.75,0,0,1,.8,10.38A41.88,41.88,0,0,1,552.11,489a34.35,34.35,0,0,1-11.74,12.7A37.41,37.41,0,0,1,525.56,507C517.53,508.11,509.3,508,501.13,508.16ZM501,445.82q0,21.51.11,42.89h3c7.51,0,12.45-1.92,14.72-5.83s3.39-8.9,3.5-14.93A40.19,40.19,0,0,0,521,457.14a15.29,15.29,0,0,0-5.27-8.34c-2.49-1.95-7-3-13.51-3Z"/><path class="cls-8" d="M625.39,491.26c-3.33-.55-5-.82-8.34-1.34.51-6.69.76-10,1.27-16.75q18.51,2.54,36.92,5.75-1.54,15.22-4.15,22.2a33.41,33.41,0,0,1-8.88,12.6A28,28,0,0,1,627.84,521a47.25,47.25,0,0,1-17.22-.34,78.6,78.6,0,0,1-24.34-8.88,41.72,41.72,0,0,1-16.68-17.31,47.7,47.7,0,0,1-5.34-23.9c.43-12.45,5.72-23.93,14.34-31.11A46.59,46.59,0,0,1,611.26,429c8.57.52,17.57,3.34,24.12,10.19.21-2.55.32-3.83.54-6.38,8.24.73,12.36,1.13,20.6,2q-1.66,16.43-3.28,32.73c-8-1.25-12-1.83-20-2.92A21.79,21.79,0,0,0,627,455a17.1,17.1,0,0,0-9.72-4c-5.33-.55-9.4.91-12.12,4.28s-4.34,9.84-4.94,19.4.26,16.07,2.54,19.83a14.7,14.7,0,0,0,10.7,6.91C620.79,502.55,624.75,499.27,625.39,491.26Z"/><path class="cls-8" d="M734.46,557.76c-24.1-10-48.28-18.65-73-26.3,1-9,1.46-13.44,2.44-22.43,2.48.6,3.73.91,6.19,1.54q2.87-25,5.74-50l-6.61-1c1-9.2,1.53-13.8,2.56-23q40.85,4.93,81.4,11.59-3.09,17.87-6.12,35.59c-8.56-2.15-12.86-3.18-21.5-5.14.52-3.4.78-5.13,1.31-8.55-7.53-1.57-11.32-2.32-18.85-3.77-.88,6.31-1.31,9.46-2.18,15.73,6.46,1.44,9.69,2.19,16.12,3.75-1.29,8.54-1.94,12.79-3.22,21.29-6.29-1.82-9.45-2.7-15.78-4.4-.91,6.62-1.37,9.93-2.26,16.53,7.14,2.17,10.7,3.3,17.78,5.65.51-3.39.77-5,1.28-8.39,8.25,2.59,19.24,4.43,20.53,6.79C742.13,526.55,736.38,546.27,734.46,557.76Z"/><path class="cls-7" d="M273.28,466.11q3.64,22.78,7.26,45.59,12.6-4.14,25.32-7.78c-.36-2.61-.53-3.92-.89-6.52l2.45-.66c2.75-.75,4.13-1.13,6.9-1.82a35,35,0,0,1,4.52-.88c3.46-.44,6.05-.08,7.93,1.13a8.63,8.63,0,0,1,2.63,2.58q13.83-3.39,27.77-6.14a19.75,19.75,0,0,0-2.51-3.31c-2.27-2.33-9.06-4.78-11.63-5.66-2-.73-3.19-1.13-3.45-2.9l-.28-1.87,1.5-1.05c1.94-1.37,7.39-5.52,9.28-8.33,2.18-3.22,3-7.12,2.53-11.93a21.48,21.48,0,0,0-5.46-12.7,19.68,19.68,0,0,0-12.26-6.14c-5.29-.72-12.85-.51-22.44.7l-.87.11q-24.61,3.39-49.12,7.31c1.47,8.76,2.19,13.14,3.65,21.89Zm35.08-9.3c.84-.15,1.64-.27,2.39-.37,5.66-.74,9.28,0,11.32,2.26a13.78,13.78,0,0,1,3.5,7.8,14,14,0,0,1-1.73,9.22c-1.7,2.77-5.26,4.69-10.87,5.92-2.8.61-4.2.92-7,1.55l-2.87.66-3.51-25.36c3.48-.75,5.24-1,8.73-1.68Z"/><path class="cls-7" d="M388,446.32c-.41,1.62-.62,2.42-1,4-3.13,12.53-6.1,25.08-8.91,37.44q7-1.12,14-2.11c.06-.24.11-.47.18-.73l.45-1.92,1.85-.29c8.47-1.3,12.61-1.88,21.1-2.93l2.11-.26.76,2.11.31.84q12.09-1.12,24.22-1.91c-4.74-11.46-9.52-22.85-14.23-34-.64-1.53-1-2.27-1.63-3.83l8.08-.55c-.26-5.88-.39-8.82-.65-14.72q-28,1.5-55.91,3.7c.54,6.39.8,9.59,1.33,16Zm6.57,27.26c2.39-10.06,3.6-15,6.17-25.3.88-3.52,1.32-5.28,2.26-8.8,1.26,3.4,1.88,5,3.13,8.42,3.48,9.46,5.2,14.15,8.6,23.43l1.3,3.56-3.61.41c-5.92.7-8.88,1.07-14.79,1.86l-4,.54C394,476,394.16,475.2,394.54,473.58Z"/><path class="cls-7" d="M470.9,440.52c.35,15.55.52,23.34.86,38.89q13.28-.27,26.54-.06c-.06-15.75-.09-23.61-.16-39.36h4.15c7.11,0,12.06,1.13,15.1,3.54a18.11,18.11,0,0,1,6.28,9.9,43,43,0,0,1,1.42,11.63,34.47,34.47,0,0,1-3.2,15q14.61.69,29.2,1.92a39.48,39.48,0,0,0,3.53-15.45,42.56,42.56,0,0,0-.76-9.69,39.66,39.66,0,0,0-2.83-8.76,33.72,33.72,0,0,0-10.9-13.59,41.15,41.15,0,0,0-15.63-6.79A115.43,115.43,0,0,0,502.08,426q-19.09,0-38.22.55c.15,5.73.22,8.58.38,14.31Z"/><path class="cls-7" d="M620.19,484.52c1.87.29,3.39.55,5.78,1l2.58.43-.23,2.74a22.75,22.75,0,0,1-.52,3.39q10.69,1.88,21.33,4a93.77,93.77,0,0,0,3.28-17.58c-10.4-1.8-20.94-3.39-31.39-4.89C620.64,477.93,620.51,480.13,620.19,484.52Z"/><path class="cls-7" d="M598.43,487.35a57.3,57.3,0,0,1-.8-15.85c.63-10.32,2.44-17.21,5.56-21.07s7.92-5.81,13.85-5.36l.68.06A20.09,20.09,0,0,1,629,449.84a23.87,23.87,0,0,1,6.37,9.26c6.08.82,9.85,1.37,15.61,2.26,1.05-10.71,1.58-16.07,2.65-26.78-6-.61-9-.89-14.93-1.45-.34,3.9-.52,5.84-.86,9.74-1.7-1.79-2.55-2.7-4.27-4.47-6.52-6.8-15.47-8.83-21.81-9.29h-.48a43.79,43.79,0,0,0-30.78,9.75c-8,6.64-13,17.5-13.37,28.94a45.42,45.42,0,0,0,2.26,16Q584,485.3,598.43,487.35Z"/><path class="cls-7" d="M673.84,501.27q12.82,2.91,25.61,6.16L701,496.11l2.92.78c5.34,1.43,8.4,2.26,12.93,3.56.91-6.15,1.38-9.23,2.26-15.39-4.83-1.13-8-1.89-13.52-3.12l-2.61-.59c1.13-8.56,1.78-12.85,2.95-21.4l2.82.53c7.57,1.45,11.32,2.19,18.9,3.78l2.73.58c-.53,3.39-.8,5.14-1.33,8.57,6.09,1.41,10.05,2.35,16.07,3.84,2-11.85,3-17.78,5.06-29.64q-37.8-6.12-75.71-10.77c-.79,6.94-1.13,10.41-2,17.34l6.63,1.07Q676.49,478.23,673.84,501.27Z"/><path class="cls-9" d="M344.33,619.43,371.94,616a1.59,1.59,0,0,1,.68,3.11,557.33,557.33,0,0,0-57.21,21.31l3-30.91L296,588.36a450.24,450.24,0,0,1,50.82-20.48Z"/><path class="cls-10" d="M673.52,619.43,645.91,616a1.59,1.59,0,0,0-.68,3.11,557.33,557.33,0,0,1,57.21,21.31l-3-31,22.38-21.19A449.18,449.18,0,0,0,671,567.82Z"/><path class="cls-11" d="M508.93,524.79A499.75,499.75,0,0,0,348.2,551.16a6.43,6.43,0,0,0-4.32,6.08v62.25a439.47,439.47,0,0,1,330,0V557.24a6.43,6.43,0,0,0-4.33-6.08A499.74,499.74,0,0,0,508.93,524.79Z"/><path class="cls-5" d="M611.91,544.53a35.55,35.55,0,0,0-5.4-2.06c-1.67-.49-3.11-.84-4.39-1.08a27.84,27.84,0,0,0-7.4-.42,20.24,20.24,0,0,0-7.19,1.91,18.09,18.09,0,0,0-2.13,1.23,6.77,6.77,0,0,0-5.95-6l-22.39-2.68a6.78,6.78,0,0,0-7.56,5.91v0l-.21,1.72a20,20,0,0,0-9.79-8.22,26.67,26.67,0,0,0-8.64-1.81,25.78,25.78,0,0,0-8.69,1.07,20.56,20.56,0,0,0-10.76,7.61,15.49,15.49,0,0,0-4.74-5.28,18,18,0,0,0-6.38-2.73,26.67,26.67,0,0,0-6.43-.55c-1.78.05-3.92.2-6.37.43s-5,.52-7.59.84a6.82,6.82,0,0,0-4.46,2.53,6.79,6.79,0,0,0-5.88-2.36l-22.42,2.27a6.79,6.79,0,0,0-5.46,3.86,6.79,6.79,0,0,0-6.42-2.32l-10.42,1.93a6.94,6.94,0,0,0-3.7,2,6.79,6.79,0,0,0-4.14-.55l-10.39,1.88a6.79,6.79,0,0,0-5.52,7.86v.06l6,33.12a6.81,6.81,0,0,0,6.71,5.66,6.23,6.23,0,0,0,1.22-.12l10.39-1.86a6.9,6.9,0,0,0,3.69-2,6.82,6.82,0,0,0,4.15.55l10.39-1.88a6.7,6.7,0,0,0,3.84-2.14,6.73,6.73,0,0,0,3.77,1.13h.7l22.42-2.26a6.83,6.83,0,0,0,3.75-1.62,6.72,6.72,0,0,0,3.66,1.13H482l10.19-.33a6.74,6.74,0,0,0,3.53-1.13,6.8,6.8,0,0,0,4.14,1.24c.83,0,1.77-.08,2.87-.16s2.27-.21,3.4-.35l2.95-.41c1.14-.16,2.08-.33,2.89-.52a6.88,6.88,0,0,0,3.64-2.26,20.4,20.4,0,0,0,4.48,2.47,25.77,25.77,0,0,0,8.62,1.83h1.22a25.31,25.31,0,0,0,7.34-1.06,20.79,20.79,0,0,0,7.83-4.32l.34-.33a6.79,6.79,0,0,0,6,6.5l22.37,2.67a5.61,5.61,0,0,0,.82,0,6.73,6.73,0,0,0,3.39-.91,30.37,30.37,0,0,0,5.82,2.68,43.91,43.91,0,0,0,5.88,1.57,29,29,0,0,0,5.18.5,17.23,17.23,0,0,0,2-.08,19,19,0,0,0,7.09-2,16.17,16.17,0,0,0,5.82-4.88,17.61,17.61,0,0,0,3.15-7.4h0a15.65,15.65,0,0,0-.42-7.92,18.66,18.66,0,0,0-1.35-3,6.74,6.74,0,0,0,1.2-1.83,47.76,47.76,0,0,0,2-5.15c.5-1.57.92-3,1.24-4.29A6.78,6.78,0,0,0,611.91,544.53ZM491.2,549.12l.08,2.27h-1.62A3.88,3.88,0,0,1,491.2,549.12Zm-1.55,2.27h1.62l.08,2.54a4,4,0,0,1-1.7-2.5Z"/><path class="cls-7" d="M432.06,580.18l-2.26-12.7L422,568.9l2.27,12.7-10.39,1.87-6-33.11,10.39-1.88,2.06,11.67,7.85-1.43L426,547.05l10.39-1.87,6,33.12Z"/><path class="cls-7" d="M473.86,570.18a32.07,32.07,0,0,1-.17,4.7l-22.42,2.27-3.4-33.48,22.43-2.27c.14,1.43.23,2.92.27,4.48,0,1.33,0,2.67-.08,4L459.24,551l.43,4.11,8.23-.85.86,8.3-8.24.85.44,4.3,12.67-1.32C473.74,567.39,473.8,568.66,473.86,570.18Z"/><path class="cls-7" d="M508.13,573.25l-2.89.4c-1,.14-2,.24-3,.31s-1.85.12-2.59.14l-2.52-5.17c-.7-1.51-1.33-2.75-1.9-3.73a15,15,0,0,0-2.14-2.87h-1.47l.36,11.6-10.18.33-1.06-33.08c2.6-.33,5-.61,7.36-.83s4.31-.35,5.95-.41a20.65,20.65,0,0,1,4.77.41,11,11,0,0,1,3.95,1.67,8.82,8.82,0,0,1,2.76,3.12,10.78,10.78,0,0,1,1.13,4.79,9.77,9.77,0,0,1-1.22,5.26,9,9,0,0,1-3.93,3.68v.3a13.94,13.94,0,0,1,2.62,2.64,24.75,24.75,0,0,1,2,3l4.32,7.93A11.72,11.72,0,0,1,508.13,573.25Zm-11.67-22.09c-.08-2.26-1.13-3.39-3.2-3.39h-1.13a5.52,5.52,0,0,0-1,.09l.24,7.34h1.85C495.48,555.14,496.54,553.8,496.46,551.16Z"/><path class="cls-7" d="M546,558a21.84,21.84,0,0,1-1.65,7.81,15.1,15.1,0,0,1-3.75,5.27,13.87,13.87,0,0,1-5.3,2.92,19.89,19.89,0,0,1-12.68-.59,13.66,13.66,0,0,1-5-3.39,14.82,14.82,0,0,1-3.19-5.58,22.58,22.58,0,0,1-.9-7.84,21.8,21.8,0,0,1,1.61-7.72,15.08,15.08,0,0,1,3.69-5.24,14.21,14.21,0,0,1,5.3-3,18.91,18.91,0,0,1,6.39-.77,19.81,19.81,0,0,1,6.41,1.32,13.56,13.56,0,0,1,5,3.4,15.08,15.08,0,0,1,3.15,5.58A21.79,21.79,0,0,1,546,558Zm-11.12-.49a24.49,24.49,0,0,0-.13-4.53,7.31,7.31,0,0,0-.91-2.76,3.49,3.49,0,0,0-1.54-1.43,5.63,5.63,0,0,0-2.14-.46,6.63,6.63,0,0,0-2.26.24,3.08,3.08,0,0,0-1.65,1.25,7.29,7.29,0,0,0-1.14,2.71,27.53,27.53,0,0,0-.49,4.53,25.12,25.12,0,0,0,.11,4.42,7.94,7.94,0,0,0,.8,2.82,3.37,3.37,0,0,0,1.54,1.49,6.14,6.14,0,0,0,2.27.5,6.59,6.59,0,0,0,2.33-.27,3.19,3.19,0,0,0,1.63-1.31,8.53,8.53,0,0,0,1-2.71A27.11,27.11,0,0,0,534.9,557.5Z"/><path class="cls-7" d="M575.84,573.72a35.55,35.55,0,0,1-1.2,4.53l-22.38-2.68,4-33.42,22.38,2.74c-.17,1.43-.41,2.9-.72,4.43a39.55,39.55,0,0,1-1,3.89l-11.23-1.35-.48,4.11,8.21,1-1,8.27-8.22-1-.51,4.29,12.69,1.51C576.33,570.92,576.12,572.2,575.84,573.72Z"/><path class="cls-7" d="M606.26,573.36a10.72,10.72,0,0,1-1.9,4.52,9.43,9.43,0,0,1-3.39,2.88,12.3,12.3,0,0,1-4.6,1.24,20.44,20.44,0,0,1-5.41-.31,40.82,40.82,0,0,1-5-1.34,23.21,23.21,0,0,1-5.13-2.44,34.73,34.73,0,0,1,1.66-4.21c.7-1.5,1.37-2.85,2-4a33,33,0,0,0,4.38,2.26,20.88,20.88,0,0,0,4.12,1.34,3.76,3.76,0,0,0,2.05,0,1.6,1.6,0,0,0,.83-1.26,1.71,1.71,0,0,0-.74-1.58,20.94,20.94,0,0,0-2.26-1.71c-.89-.6-1.87-1.28-2.94-2a14.14,14.14,0,0,1-2.86-2.6,11.16,11.16,0,0,1-1.89-3.47,9,9,0,0,1-.19-4.52,9.73,9.73,0,0,1,1.91-4.33A10.06,10.06,0,0,1,590.5,549a13.46,13.46,0,0,1,4.79-1.24,21.4,21.4,0,0,1,5.59.32c1,.2,2.26.51,3.74.93a28.47,28.47,0,0,1,4.37,1.66c-.29,1.13-.68,2.48-1.13,4a38.78,38.78,0,0,1-1.68,4.43c-1.35-.59-2.77-1.14-4.24-1.66a23.72,23.72,0,0,0-3.61-1.06,3.22,3.22,0,0,0-2,0,1.6,1.6,0,0,0-.75,1.19,1.74,1.74,0,0,0,.69,1.63,19,19,0,0,0,2.2,1.7L601.4,563a15.28,15.28,0,0,1,2.82,2.57,10.47,10.47,0,0,1,1.89,3.39A8.86,8.86,0,0,1,606.26,573.36Z"/></g></g></svg>