<svg xmlns="http://www.w3.org/2000/svg" xmlns:xlink="http://www.w3.org/1999/xlink" viewBox="0 0 575.39 575.39"><defs><style>.cls-1{fill:url(#Degradado_sin_nombre_15);}.cls-2{fill:#f8f8f8;}.cls-3{fill:#fefefe;}.cls-4{fill:#2be3c4;}.cls-5{fill:#fdfefe;}.cls-6{fill:#9a8fe9;}.cls-7{fill:#5fead2;}.cls-8{fill:#cfcfd4;}.cls-9{fill:#62ead3;}.cls-10{fill:#cbf7f0;}.cls-11{fill:#ddd9f7;}.cls-12{fill:#444258;}.cls-13{fill:#7a6be2;}.cls-14{fill:#41c2fe;}</style><radialGradient id="Degradado_sin_nombre_15" cx="287.7" cy="287.7" r="287.7" gradientUnits="userSpaceOnUse"><stop offset="0" stop-color="#ffdc00"/><stop offset="0.31" stop-color="#ffcd00"/><stop offset="0.9" stop-color="#ffa700"/><stop offset="1" stop-color="#ffa000"/></radialGradient></defs><g id="Camada_2" data-name="Camada 2"><g id="Camada_1-2" data-name="Camada 1"><path class="cls-1" d="M263.69,8.19a34.38,34.38,0,0,0,48,0c13.2-13,31-10.21,39.52,6.26A34.37,34.37,0,0,0,396.9,29.29c16.59-8.31,32.63-.13,35.66,18.17a34.37,34.37,0,0,0,38.85,28.23c18.34-2.78,31.07,10,28.29,28.29a34.38,34.38,0,0,0,28.23,38.85c18.3,3,26.48,19.07,18.17,35.66a34.38,34.38,0,0,0,14.84,45.67c16.47,8.53,19.29,26.32,6.26,39.53a34.38,34.38,0,0,0,0,48c13,13.2,10.21,31-6.26,39.52A34.38,34.38,0,0,0,546.1,396.9c8.31,16.59.13,32.63-18.17,35.66a34.38,34.38,0,0,0-28.23,38.85c2.78,18.34-9.95,31.07-28.29,28.29a34.38,34.38,0,0,0-38.85,28.23c-3,18.3-19.07,26.48-35.66,18.17a34.38,34.38,0,0,0-45.67,14.84c-8.53,16.47-26.32,19.29-39.52,6.26a34.38,34.38,0,0,0-48,0c-13.21,13-31,10.21-39.53-6.26a34.38,34.38,0,0,0-45.67-14.84c-16.59,8.31-32.63.13-35.66-18.17A34.38,34.38,0,0,0,104,499.7c-18.34,2.78-31.07-9.95-28.29-28.29a34.37,34.37,0,0,0-28.23-38.85c-18.3-3-26.48-19.07-18.17-35.66a34.37,34.37,0,0,0-14.84-45.67C-2,342.7-4.84,324.91,8.19,311.71a34.38,34.38,0,0,0,0-48c-13-13.21-10.21-31,6.26-39.53a34.37,34.37,0,0,0,14.84-45.67c-8.31-16.59-.13-32.63,18.17-35.66A34.37,34.37,0,0,0,75.69,104c-2.78-18.34,10-31.07,28.29-28.29a34.37,34.37,0,0,0,38.85-28.23c3-18.3,19.07-26.48,35.66-18.17a34.37,34.37,0,0,0,45.67-14.84C232.69-2,250.48-4.84,263.69,8.19Z"/><circle class="cls-2" cx="287.7" cy="287.7" r="225.14"/><path class="cls-3" d="M106.78,296.84l-.31-.06a.5.5,0,0,1,.26-.08h0a.5.5,0,0,1,.27.1,4.88,4.88,0,0,0,3.89,1,95,95,0,0,0,11.42-1.3c2.41-.49,2.78-.92,2.79-3.4q0-19.77,0-39.55a8.75,8.75,0,0,0-6.32-8.65,4.23,4.23,0,0,1-1.42-.63.47.47,0,0,1-.16-.25v0a.54.54,0,0,1,.06-.29c0,.11,0,.21,0,.31,5.42,1,8.37,4.57,8.37,10.08v39.36c0,2.58-.33,3-2.83,3.49a96.35,96.35,0,0,1-13.13,1.41C108.49,298.44,107.2,298.4,106.78,296.84Z"/><path class="cls-3" d="M125.67,305.89a47.52,47.52,0,0,1-.12,6.09,9.49,9.49,0,0,1-8.57,8.1,9.64,9.64,0,0,1-9.73-5.93c-.24-.56-.19-1.27-.78-1.67,1,.11,1,1,1.33,1.63,3.21,6.44,10.63,7.46,15.36,2.1a7.55,7.55,0,0,0,1.85-3.89,35.71,35.71,0,0,0,.1-7.31c-.07-1.37-1-1.87-2.3-1.81-2,.09-4,.24-5.91.43a55.46,55.46,0,0,1-6.44.24,4.33,4.33,0,0,0-3.47,1.29.46.46,0,0,1-.24.08h0a.45.45,0,0,1-.26-.09.41.41,0,0,1,.29-.08,2.17,2.17,0,0,1,2.4-1.6c4.42,0,8.82-.32,13.21-.73C125,302.5,125.68,303.24,125.67,305.89Z"/><path class="cls-3" d="M154,323.05a9.44,9.44,0,0,1-10.3,7.87,9.56,9.56,0,0,1-8.59-9.37c0-6.1,0-12.2,0-18.29a2.48,2.48,0,0,1,2.22-2.81c4.67-.92,9.25-2.18,13.82-3.48,1.91-.54,3.11.52,3.13,2.77,0,3.6,0,7.2,0,11.59C154.08,314.71,154.65,318.9,154,323.05Z"/><path class="cls-3" d="M135.1,290.18c0-4.42,0-8.84,0-13.25v-12c0-5.73,3.8-9.89,9.15-10a9.42,9.42,0,0,1,10,9.46c.19,6.39,0,12.79,0,19.18a3,3,0,0,1-1.78,2.76,93.7,93.7,0,0,1-13.9,6.45C136.39,293.5,135.11,292.56,135.1,290.18Z"/><path class="cls-3" d="M182.64,299.47c0,3.78,0,7.55,0,11.33a9.48,9.48,0,0,1-18.92.78c-.49-5.68-.13-11.38-.19-17.06a2.82,2.82,0,0,1,2-2.79c4.57-1.86,9-4.06,13.35-6.36,2.24-1.18,3.78-.25,3.8,2.26C182.65,291.57,182.64,295.52,182.64,299.47Z"/><path class="cls-3" d="M182.72,253.88c.33,4.6-2.06,7.67-4.68,10.83a108.54,108.54,0,0,1-10.16,10.52,2.65,2.65,0,0,1-2.84.84,2.41,2.41,0,0,1-1.51-2.53c.05-7-.36-14,.19-20.91.37-4.79,3.53-7.84,8.38-8.61,0-.09,0-.19,0-.29a.48.48,0,0,1,.07.29s0,0,0,.06a.72.72,0,0,1-.11.15c-1.63.73-3.39,1.16-4.8,2.39-2.49,2.17-3.31,5-3.37,8.12-.11,5.93,0,11.86,0,17.78a4.18,4.18,0,0,0,.43,2,1.75,1.75,0,0,0,2.64.76,6.41,6.41,0,0,0,1.51-1.18A121.7,121.7,0,0,0,180,261.55c4.83-6.19,2.47-14.44-4.93-17a3.28,3.28,0,0,1-.78-.37.48.48,0,0,1-.11-.15s0,0,0-.06a.36.36,0,0,1,.06-.29c0,.1,0,.2,0,.29C179.56,244.92,182.35,248.54,182.72,253.88Z"/><path class="cls-3" d="M277.46,317.82c0,1.66-.51,2-2,2-3.14-.12-6.28-.1-9.42,0-1.31,0-1.67-.33-1.66-1.65.07-7,0-13.95,0-20.93a16.1,16.1,0,0,0-.51-4.48c-.67-2.39-1.92-4.25-4.6-4.65a6.54,6.54,0,0,0-6.8,3.26,15.46,15.46,0,0,0-1.76,7.89c0,6.28-.06,12.56,0,18.84,0,1.39-.36,1.76-1.73,1.72-3.19-.11-6.4-.1-9.59,0-1.27,0-1.68-.25-1.67-1.61.08-6.85,0-13.71,0-20.57a18.25,18.25,0,0,0-.57-4.83c-.63-2.41-1.88-4.32-4.55-4.67a6.52,6.52,0,0,0-6.76,3,11.4,11.4,0,0,0-1.73,6.13c-.06,6.86-.11,13.72,0,20.58,0,1.67-.52,2-2,2-3.14-.11-6.28-.1-9.42,0-1.27,0-1.53-.4-1.52-1.58q.06-19.71,0-39.41c0-1.38.44-1.61,1.68-1.58,3.19.08,6.4.1,9.6,0,1.37,0,1.9.34,1.7,1.72a16.83,16.83,0,0,0,0,2.15c8.74-7.26,16.53-6.43,24,2.39,4.16-6.53,11.48-8,17.34-6.67,6.9,1.62,10.13,6.48,11.45,13a43.06,43.06,0,0,1,.56,8.33C277.43,304.68,277.36,311.25,277.46,317.82Z"/><path class="cls-3" d="M300.28,301.36c.19.48.41.95.72,1.66-.88-.07-1-1.18-1.28-1.9-2.87-7.12-5.86-14.19-8.6-21.36a2.78,2.78,0,0,0-3.11-2.1c-3,.11-5.93,0-8.9,0-1.82,0-1.95.19-1.19,1.91,4.19,9.52,8.44,19,12.66,28.53,1.14,2.55,2.3,5.09,3.36,7.67a3.23,3.23,0,0,1,.13,2.7c-1.91,4.14-3.53,8.4-5.54,12.49l-.13.26v0c-.11.13-.22.27-.34.39l0-.39c1.77-4.16,3.51-8.33,5.35-12.46a3.4,3.4,0,0,0,0-3.09q-8.21-18.35-16.3-36.74a3.06,3.06,0,0,1-.54-1.75c4.4,0,8.81,0,13.21,0,1,0,1,.82,1.26,1.39C294.18,286.19,297.22,293.78,300.28,301.36Z"/><path class="cls-3" d="M325.78,277.24,302,331.29c0,.13,0,.26,0,.38a.76.76,0,0,1-.19-.38.36.36,0,0,1,0-.11v0a97.8,97.8,0,0,1,4.49-10.72q6.69-15.26,13.4-30.5c1.56-3.51,3-7.05,4.65-10.53.74-1.62.7-1.69-1.14-1.69-3.15,0-6.29.05-9.43,0a2.5,2.5,0,0,0-2.72,1.87q-4.26,10.8-8.62,21.55c-.29.71-.34,1.85-1.26,1.93l5.34-13.3q2.27-5.64,4.52-11.3c.26-.66.43-1.22,1.39-1.21C316.8,277.27,321.16,277.24,325.78,277.24Z"/><path class="cls-3" d="M373.93,257.35c0-1.09-.35-1.39-1.4-1.37-3.26,0-6.52.1-9.77,0-1.53-.06-1.81.49-1.8,1.88.07,7.21,0,14.42,0,21.63,0,.46.27,1-.29,1.44a5,5,0,0,1-.55-.44c-6.05-5.73-15.37-5.15-21.67-.51-11.55,8.52-11.82,27.85-.46,36.7,6.17,4.8,14.33,5.38,20.15,1.41.89-.61,1.7-1.34,2.83-2.25a17.92,17.92,0,0,1,0,2.12c-.2,1.43.32,1.91,1.8,1.86,3.26-.11,6.52-.07,9.78,0,1.08,0,1.37-.35,1.37-1.4Q373.9,287.87,373.93,257.35ZM352.26,309c-5.52,0-9.73-4.42-9.64-10.41.11-7.33,4.91-10.63,9.65-10.53,4.62-.1,9.54,2.94,9.73,10.45C362.15,304.5,357.83,309,352.26,309Z"/><path class="cls-3" d="M421.39,307.29c.07,3.67,0,7.33,0,11,0,1.11-.26,1.53-1.45,1.51-3.31-.07-6.63-.07-9.94,0-1.22,0-1.59-.34-1.58-1.56.05-6.86,0-13.72,0-20.58a23.17,23.17,0,0,0-.35-3.81c-.56-3.16-2.59-5.31-5.3-5.74a7.8,7.8,0,0,0-8.06,3.69,12.85,12.85,0,0,0-1.65,6.68c0,6.45-.05,12.9.05,19.35,0,1.68-.52,2-2.05,2-3.2-.11-6.4-.08-9.6,0-1.15,0-1.52-.35-1.52-1.49q0-19.87,0-39.75c0-1.14.43-1.35,1.44-1.33,3.26,0,6.51.09,9.77,0,1.47-.05,2.21.27,1.93,1.88a15,15,0,0,0,0,2.05c6.36-6.62,17-5.7,22-1.48a17.18,17.18,0,0,1,6,11.45C421.8,296.48,421.29,301.9,421.39,307.29Z"/><path class="cls-3" d="M467.93,319.36a1.81,1.81,0,0,1,1,.45c-3.77,0-7.56-.08-11.33,0-1.59,0-2.11-.46-1.9-2a13,13,0,0,0,0-1.87,1.53,1.53,0,0,1,.28.25,2.74,2.74,0,0,1,.05.28h0c.5,2.78.6,2.78,3.69,2.78h7.11A10.48,10.48,0,0,1,467.93,319.36Z"/><path class="cls-3" d="M455.65,316a15.57,15.57,0,0,1-9.16,4.53c-6.45.71-11.76-1.55-16.06-6.25-8.67-9.49-7.62-25.39,2.17-33.67,5.58-4.72,15.49-6.77,22.9.2.46-.18.27-.58.28-.88.07-2.68.06-2.69,2.68-2.68l10.12.05.36-.05a2.31,2.31,0,0,1-.36.25l-.1.06h-.1c-3.27.32-6.55.07-9.83.14-2.15,0-2.15,0-2.43,2.09-.07.46-.05,1-.51,1.23s-1-.22-1.37-.57A13.43,13.43,0,0,0,447,277a17,17,0,0,0-13.57,3.61c-11.41,8.81-11,27.84.64,36.25,5.9,4.26,14.63,4.68,20.22-.27C454.62,316.26,455.05,315.64,455.65,316Z"/><path class="cls-4" d="M125.67,254.12v39.36c0,2.58-.33,3-2.83,3.49a96.35,96.35,0,0,1-13.13,1.41c-1.22.06-2.51,0-2.93-1.54a1.21,1.21,0,0,1,0-.14,5.79,5.79,0,0,1-.08-1.76q0-20.29,0-40.6a3.54,3.54,0,0,0-.17-1.88v-1.05a9,9,0,0,1,3.77-5.92,8,8,0,0,1,4.61-1.58h.22a8.68,8.68,0,0,1,2.16.1l.07,0C122.72,245.06,125.67,248.61,125.67,254.12Z"/><path class="cls-4" d="M125.55,312a9.49,9.49,0,0,1-8.57,8.1,9.64,9.64,0,0,1-9.73-5.93c-.24-.56-.19-1.27-.78-1.67v-.7c.46-2.16,0-4.37.26-6.54l0-.17a2.17,2.17,0,0,1,2.4-1.6c4.42,0,8.82-.32,13.21-.73,2.59-.24,3.31.5,3.3,3.15A47.52,47.52,0,0,1,125.55,312Z"/><path class="cls-5" d="M114.84,244.05A9.46,9.46,0,0,0,107,250.6c-.11.3-.13.7-.55.81,0-2.3,0-4.6,0-6.9,0-.66.16-.8.8-.79,2.53,0,5.06,0,7.6,0,.11.08.15.15.11.22S114.88,244.05,114.84,244.05Z"/><path class="cls-6" d="M468.94,277.24v42.57c-3.77,0-7.56-.08-11.33,0-1.59,0-2.11-.46-1.9-2a13,13,0,0,0,0-1.87v0c.85-.61.69.32.76.59.69,2.33.67,2.34,3,2.34,2.15,0,4.31,0,6.46,0,1.89,0,2.09-.21,2.09-2.14,0-7.26,0-14.53,0-21.8,0-5.06,0-10.11,0-15.17a3.91,3.91,0,0,1,.33-2.22,1.56,1.56,0,0,1,.2-.27Z"/><path class="cls-7" d="M106.81,253.74l0,43v.14l-.31-.06V252.46C106.92,252.79,106.81,253.29,106.81,253.74Z"/><path class="cls-8" d="M302,331.67h-14l0-.39a1.72,1.72,0,0,1,.44-.28,3.21,3.21,0,0,1,1.34-.22q5.19,0,10.36,0a2.57,2.57,0,0,1,1.59.36.65.65,0,0,1,.18.15C302,331.42,302,331.55,302,331.67Z"/><path class="cls-9" d="M106.47,311.78v-6.63a.41.41,0,0,1,.29-.08,1,1,0,0,0,0,.17C106.69,307.42,107.21,309.63,106.47,311.78Z"/><path class="cls-10" d="M117.3,244h-2.46c0-.05,0-.09,0-.14v-.18h2.44C117.29,243.84,117.29,243.94,117.3,244Z"/><path class="cls-11" d="M174.23,244l-.07.06a1.36,1.36,0,0,1-2,0l-.07-.06c0-.09,0-.19,0-.29h2.09C174.22,243.83,174.23,243.93,174.23,244Z"/><path class="cls-12" d="M277.46,317.82c0,1.66-.51,2-2,2-3.14-.12-6.28-.1-9.42,0-1.31,0-1.67-.33-1.66-1.65.07-7,0-13.95,0-20.93a16.1,16.1,0,0,0-.51-4.48c-.67-2.39-1.92-4.25-4.6-4.65a6.54,6.54,0,0,0-6.8,3.26,15.46,15.46,0,0,0-1.76,7.89c0,6.28-.06,12.56,0,18.84,0,1.39-.36,1.76-1.73,1.72-3.19-.11-6.4-.1-9.59,0-1.27,0-1.68-.25-1.67-1.61.08-6.85,0-13.71,0-20.57a18.25,18.25,0,0,0-.57-4.83c-.63-2.41-1.88-4.32-4.55-4.67a6.52,6.52,0,0,0-6.76,3,11.4,11.4,0,0,0-1.73,6.13c-.06,6.86-.11,13.72,0,20.58,0,1.67-.52,2-2,2-3.14-.11-6.28-.1-9.42,0-1.27,0-1.53-.4-1.52-1.58q.06-19.71,0-39.41c0-1.38.44-1.61,1.68-1.58,3.19.08,6.4.1,9.6,0,1.37,0,1.9.34,1.7,1.72a16.83,16.83,0,0,0,0,2.15c8.74-7.26,16.53-6.43,24,2.39,4.16-6.53,11.48-8,17.34-6.67,6.9,1.62,10.13,6.48,11.45,13a43.06,43.06,0,0,1,.56,8.33C277.43,304.68,277.36,311.25,277.46,317.82Z"/><path class="cls-13" d="M373.93,257.35c0-1.09-.35-1.39-1.4-1.37-3.26,0-6.52.1-9.77,0-1.53-.06-1.81.49-1.8,1.88.07,7.21,0,14.42,0,21.63,0,.46.27,1-.29,1.44a5,5,0,0,1-.55-.44c-6.05-5.73-15.37-5.15-21.67-.51-11.55,8.52-11.82,27.85-.46,36.7,6.17,4.8,14.33,5.38,20.15,1.41.89-.61,1.7-1.34,2.83-2.25a17.92,17.92,0,0,1,0,2.12c-.2,1.43.32,1.91,1.8,1.86,3.26-.11,6.52-.07,9.78,0,1.08,0,1.37-.35,1.37-1.4Q373.9,287.87,373.93,257.35ZM352.26,309c-5.52,0-9.73-4.42-9.64-10.41.11-7.33,4.91-10.63,9.65-10.53,4.62-.1,9.54,2.94,9.73,10.45C362.15,304.5,357.83,309,352.26,309Z"/><path class="cls-13" d="M468.58,277.49v-.2l-10.12-.05c-2.62,0-2.61,0-2.68,2.68,0,.3.18.7-.28.88-7.41-7-17.32-4.92-22.9-.2-9.79,8.28-10.84,24.18-2.17,33.67,4.3,4.7,9.61,7,16.06,6.25a15.57,15.57,0,0,0,9.16-4.53l0,0c.05,0,.1-.07.16-.07s.12.05.12.08,0,.37.05.56h0a4,4,0,0,1,0,1c-.2,1.49.28,2.05,1.89,2,3-.14,5.94-.1,8.9,0a2.77,2.77,0,0,0,1.11-.12c.5-.2.7-.66.7-1.6C468.57,304.34,468.59,290.92,468.58,277.49Zm-16.76,30.33a9.3,9.3,0,0,1-9.92-.45c-4.07-2.64-5.54-8.85-3.33-13.74A9.41,9.41,0,0,1,450,288.41c4.22,1.12,6.84,5,6.85,10.14C456.81,302.53,455.48,305.88,451.82,307.82Z"/><path class="cls-13" d="M421.43,318.28c0,1.11-.26,1.53-1.45,1.51-3.31-.07-6.63-.07-9.94,0-1.22,0-1.59-.34-1.58-1.56.05-6.86,0-13.72,0-20.58a23.17,23.17,0,0,0-.35-3.81c-.56-3.16-2.59-5.31-5.3-5.74a7.8,7.8,0,0,0-8.06,3.69,12.85,12.85,0,0,0-1.65,6.68c0,6.45-.05,12.9.05,19.35,0,1.68-.52,2-2.05,2-3.2-.11-6.4-.08-9.6,0-1.15,0-1.52-.35-1.52-1.49q0-19.87,0-39.75c0-1.14.43-1.35,1.44-1.33,3.26,0,6.51.09,9.77,0,1.47-.05,2.21.27,1.93,1.88a15,15,0,0,0,0,2.05c6.36-6.62,17-5.7,22-1.48a17.18,17.18,0,0,1,6,11.45c.71,5.38.2,10.8.3,16.19C421.46,311,421.37,314.62,421.43,318.28Z"/><path class="cls-12" d="M325.78,277.24,302,331.29H288.09c1.77-4.16,3.51-8.33,5.35-12.46a3.4,3.4,0,0,0,0-3.09q-8.21-18.35-16.3-36.74a3.06,3.06,0,0,1-.54-1.75c4.4,0,8.81,0,13.21,0,1,0,1,.82,1.26,1.39,3.08,7.58,6.12,15.17,9.18,22.75.19.48.41.95.72,1.66l.1.22.09-.22,5.34-13.3q2.27-5.64,4.52-11.3c.26-.66.43-1.22,1.39-1.21C316.8,277.27,321.16,277.24,325.78,277.24Z"/><path class="cls-14" d="M154.26,283.5a3,3,0,0,1-1.78,2.76,93.7,93.7,0,0,1-13.9,6.45c-2.19.79-3.47-.15-3.48-2.53,0-4.42,0-8.84,0-13.25v-12c0-5.73,3.8-9.89,9.15-10a9.42,9.42,0,0,1,10,9.46C154.4,270.71,154.25,277.11,154.26,283.5Z"/><path class="cls-14" d="M154,323.05a9.44,9.44,0,0,1-10.3,7.87,9.56,9.56,0,0,1-8.59-9.37c0-6.1,0-12.2,0-18.29a2.48,2.48,0,0,1,2.22-2.81c4.67-.92,9.25-2.18,13.82-3.48,1.91-.54,3.11.52,3.13,2.77,0,3.6,0,7.2,0,11.59C154.08,314.71,154.65,318.9,154,323.05Z"/><path class="cls-13" d="M182.63,310.8a9.48,9.48,0,0,1-18.92.78c-.49-5.68-.13-11.38-.19-17.06a2.82,2.82,0,0,1,2-2.79c4.57-1.86,9-4.06,13.35-6.36,2.24-1.18,3.78-.25,3.8,2.26,0,3.94,0,7.89,0,11.84C182.64,303.25,182.67,307,182.63,310.8Z"/><path class="cls-13" d="M178,264.71a108.54,108.54,0,0,1-10.16,10.52,2.65,2.65,0,0,1-2.84.84,2.41,2.41,0,0,1-1.51-2.53c.05-7-.36-14,.19-20.91.37-4.79,3.53-7.84,8.38-8.61h2.13c5.33.9,8.12,4.52,8.49,9.86C183.05,258.48,180.66,261.55,178,264.71Z"/></g></g></svg>